<svg width="40" height="40" viewBox="0 0 40 40" fill="none" xmlns="http://www.w3.org/2000/svg">
<rect width="40" height="40" fill="white"/>
<path d="M34.0456 26.5447V14.0447L23.6289 8.18555M17.7956 8.18555L7.37891 14.0447V26.5447M9.87891 30.4514L20.7122 36.5447L27.3789 32.7947L31.5456 30.4514" stroke="#9747FF" stroke-width="2" stroke-linecap="round" stroke-linejoin="round"/>
<path d="M18.2129 17.1695L15.7129 18.6278V24.4612L18.2129 25.9195L20.7129 27.3778L23.2129 25.9195L25.7129 24.4612V18.6278L23.2129 17.1695L20.7129 15.7112L18.2129 17.1695Z" fill="#9747FF" stroke="#9747FF" stroke-width="2" stroke-linecap="round" stroke-linejoin="round"/>
<path d="M20.7122 15.7113V9.87793M25.7122 24.0446L31.5456 27.3779M15.7122 24.0446L9.87891 27.3779" stroke="#9747FF" stroke-width="2" stroke-linecap="round" stroke-linejoin="round"/>
<path d="M20.7129 9.87793C22.0936 9.87793 23.2129 8.75864 23.2129 7.37793C23.2129 5.99722 22.0936 4.87793 20.7129 4.87793C19.3322 4.87793 18.2129 5.99722 18.2129 7.37793C18.2129 8.75864 19.3322 9.87793 20.7129 9.87793Z" fill="#9747FF" stroke="#9747FF" stroke-width="2" stroke-linecap="round" stroke-linejoin="round"/>
<path d="M7.37891 31.5447C8.75962 31.5447 9.87891 30.4254 9.87891 29.0447C9.87891 27.664 8.75962 26.5447 7.37891 26.5447C5.99819 26.5447 4.87891 27.664 4.87891 29.0447C4.87891 30.4254 5.99819 31.5447 7.37891 31.5447Z" fill="#9747FF" stroke="#9747FF" stroke-width="2" stroke-linecap="round" stroke-linejoin="round"/>
<path d="M34.0449 31.5447C35.4256 31.5447 36.5449 30.4254 36.5449 29.0447C36.5449 27.664 35.4256 26.5447 34.0449 26.5447C32.6642 26.5447 31.5449 27.664 31.5449 29.0447C31.5449 30.4254 32.6642 31.5447 34.0449 31.5447Z" fill="#9747FF" stroke="#9747FF" stroke-width="2" stroke-linecap="round" stroke-linejoin="round"/>
</svg>
