<svg width="40" height="40" viewBox="0 0 40 40" fill="none" xmlns="http://www.w3.org/2000/svg">
<mask id="mask0_599_1436" style="mask-type:luminance" maskUnits="userSpaceOnUse" x="0" y="0" width="40" height="40">
<path d="M0 0H40V40H0V0Z" fill="white"/>
<path fill-rule="evenodd" clip-rule="evenodd" d="M20.6045 22.406C20.2657 22.1858 19.9735 21.901 19.7448 21.5679C19.516 21.2348 19.3551 20.8599 19.2712 20.4646C19.1874 20.0693 19.1822 19.6614 19.256 19.2641C19.3298 18.8668 19.4812 18.4879 19.7014 18.1491L23.0568 12.9906C23.2735 12.6442 23.557 12.3443 23.8908 12.1086C24.2246 11.8729 24.602 11.706 25.001 11.6177C25.4 11.5294 25.8125 11.5215 26.2146 11.5944C26.6167 11.6673 27.0002 11.8196 27.3428 12.0424C27.6854 12.2651 27.9802 12.5539 28.21 12.8918C28.4398 13.2297 28.6 13.61 28.6812 14.0105C28.7624 14.411 28.763 14.8236 28.683 15.2243C28.603 15.6251 28.444 16.0059 28.2153 16.3445L24.8614 21.5045C24.4165 22.1885 23.718 22.6678 22.9197 22.8369C22.1213 23.0059 21.2886 22.851 20.6045 22.406ZM16.8476 22.7168C16.3313 21.746 16.0845 20.6546 16.1329 19.5561C16.1814 18.4577 16.5232 17.3922 17.123 16.4706L20.4768 11.3122C20.9174 10.6346 21.4872 10.0506 22.1536 9.59323C22.8199 9.13591 23.5699 8.81431 24.3605 8.64681C25.1512 8.47931 25.9671 8.46918 26.7616 8.617C27.5562 8.76481 28.3139 9.06769 28.9914 9.50832C29.6689 9.94896 30.253 10.5187 30.7104 11.1851C31.1677 11.8515 31.4893 12.6014 31.6568 13.392C31.8243 14.1827 31.8344 14.9986 31.6866 15.7932C31.5388 16.5877 31.2359 17.3454 30.7953 18.0229L27.4414 23.1814C26.8578 24.0795 26.05 24.8097 25.0977 25.2998C24.1454 25.79 23.0817 26.0231 22.0117 25.9762C20.9417 25.9292 19.9025 25.6039 18.9968 25.0322C18.0911 24.4606 17.3503 23.6625 16.8476 22.7168Z" fill="black"/>
<path fill-rule="evenodd" clip-rule="evenodd" d="M12.9932 28.4664C12.6543 28.2461 12.3622 27.9614 12.1334 27.6283C11.9047 27.2951 11.7438 26.9202 11.6599 26.5249C11.5761 26.1296 11.5709 25.7217 11.6447 25.3244C11.7185 24.9271 11.8698 24.5482 12.0901 24.2094L15.4455 19.051C15.6621 18.7045 15.9456 18.4046 16.2794 18.1689C16.6132 17.9332 16.9906 17.7663 17.3896 17.6781C17.7886 17.5898 18.2012 17.5819 18.6033 17.6548C19.0054 17.7277 19.3889 17.8799 19.7315 18.1027C20.0741 18.3254 20.3689 18.6142 20.5987 18.9521C20.8285 19.29 20.9887 19.6703 21.0699 20.0708C21.1511 20.4713 21.1517 20.884 21.0717 21.2847C20.9917 21.6854 20.8327 22.0662 20.6039 22.4048L17.2501 27.5648C16.8051 28.2489 16.1067 28.7281 15.3083 28.8972C14.51 29.0663 13.6772 28.9113 12.9932 28.4664ZM9.23624 28.7771C8.71994 27.8063 8.47317 26.7149 8.5216 25.6165C8.57003 24.518 8.91189 23.4525 9.51163 22.531L12.8655 17.374C13.7552 16.0057 15.152 15.0469 16.7486 14.7085C17.5392 14.5409 18.3551 14.5307 19.1496 14.6784C19.9441 14.8261 20.7018 15.1289 21.3793 15.5694C22.0568 16.01 22.641 16.5796 23.0983 17.2459C23.5557 17.9122 23.8773 18.662 24.0449 19.4526C24.2125 20.2432 24.2227 21.059 24.075 21.8536C23.9272 22.6481 23.6245 23.4058 23.1839 24.0833L19.8301 29.2417C19.2465 30.1398 18.4386 30.87 17.4864 31.3601C16.5341 31.8503 15.4704 32.0834 14.4004 32.0365C13.3304 31.9896 12.2912 31.6642 11.3855 31.0926C10.4798 30.5209 9.73896 29.7228 9.23624 28.7771Z" fill="black"/>
</mask>
<g mask="url(#mask0_599_1436)">
<path d="M20 40C31.0457 40 40 31.0457 40 20C40 8.9543 31.0457 0 20 0C8.9543 0 0 8.9543 0 20C0 31.0457 8.9543 40 20 40Z" fill="#9747FF"/>
</g>
</svg>
