<svg width="40" height="40" viewBox="0 0 40 40" fill="none" xmlns="http://www.w3.org/2000/svg">
<path d="M27.655 28.8889H36.3883C35.655 19.2112 31.4883 13.2001 26.1438 9.6445L28.5772 4.33339C28.6507 4.16486 28.6813 3.98071 28.6662 3.79745C28.651 3.61419 28.5907 3.43755 28.4904 3.28338C28.3902 3.1292 28.2533 3.00231 28.092 2.91408C27.9307 2.82584 27.7499 2.77903 27.5661 2.77783H12.3327C12.1489 2.77903 11.9681 2.82584 11.8068 2.91408C11.6455 3.00231 11.5086 3.1292 11.4084 3.28338C11.3081 3.43755 11.2478 3.61419 11.2326 3.79745C11.2175 3.98071 11.2481 4.16486 11.3216 4.33339L12.655 7.22228H23.8994L22.8994 9.4445H20.8438C21.4709 11.1328 21.9324 12.878 22.2216 14.6556C22.4071 15.7585 22.5259 16.8717 22.5772 17.9889L20.8216 19.2223C20.8266 17.7851 20.7076 16.3501 20.4661 14.9334C20.1595 13.0477 19.6298 11.2052 18.8883 9.4445H17.7772C16.7509 10.7395 15.8295 12.1142 15.0216 13.5556C14.3699 14.7917 13.8163 16.0772 13.3661 17.4001L11.8438 16.3889C12.2891 15.1106 12.8353 13.8697 13.4772 12.6778C14.1271 11.5609 14.8393 10.4814 15.6105 9.4445H13.6661L13.755 9.63339C7.86607 13.5556 3.38829 20.4445 3.38829 31.9445C3.37328 32.1862 3.40631 32.4286 3.48549 32.6575C3.56466 32.8863 3.68841 33.0973 3.84958 33.2781C4.01074 33.4589 4.20614 33.606 4.42447 33.7108C4.64281 33.8157 4.87976 33.8762 5.12163 33.8889H14.0105C13.6288 33.4917 13.3653 32.996 13.2494 32.4575C13.1336 31.9189 13.17 31.3587 13.3545 30.8396C13.5391 30.3206 13.8645 29.8632 14.2943 29.5186C14.7242 29.1741 15.2415 28.9561 15.7883 28.8889C15.5222 28.4377 15.3803 27.9239 15.3772 27.4001C15.3772 26.6044 15.6932 25.8413 16.2559 25.2787C16.8185 24.7161 17.5815 24.4001 18.3772 24.4001H25.0438C25.8395 24.4001 26.6026 24.7161 27.1652 25.2787C27.7278 25.8413 28.0438 26.6044 28.0438 27.4001C28.0496 27.9222 27.9153 28.4363 27.655 28.8889Z" fill="#9747FF"/>
<path d="M24.0002 31.6668C24.0002 31.3721 23.8832 31.0895 23.6748 30.8811C23.4664 30.6727 23.1838 30.5557 22.8891 30.5557H16.2224C15.9278 30.5557 15.6451 30.6727 15.4368 30.8811C15.2284 31.0895 15.1113 31.3721 15.1113 31.6668C15.1113 31.9615 15.2284 32.2441 15.4368 32.4525C15.6451 32.6608 15.9278 32.7779 16.2224 32.7779H22.8891C23.1838 32.7779 23.4664 32.6608 23.6748 32.4525C23.8832 32.2441 24.0002 31.9615 24.0002 31.6668Z" fill="#9747FF"/>
<path d="M25.0454 26.1111H18.3787C18.084 26.1111 17.8014 26.2281 17.593 26.4365C17.3846 26.6449 17.2676 26.9275 17.2676 27.2222C17.2676 27.5169 17.3846 27.7995 17.593 28.0079C17.8014 28.2162 18.084 28.3333 18.3787 28.3333H25.0454C25.34 28.3333 25.6227 28.2162 25.831 28.0079C26.0394 27.7995 26.1565 27.5169 26.1565 27.2222C26.1565 26.9275 26.0394 26.6449 25.831 26.4365C25.6227 26.2281 25.34 26.1111 25.0454 26.1111Z" fill="#9747FF"/>
<path d="M24.4438 35H17.7771C17.4824 35 17.1998 35.1171 16.9915 35.3254C16.7831 35.5338 16.666 35.8164 16.666 36.1111C16.666 36.4058 16.7831 36.6884 16.9915 36.8968C17.1998 37.1052 17.4824 37.2222 17.7771 37.2222H24.4438C24.7385 37.2222 25.0211 37.1052 25.2295 36.8968C25.4378 36.6884 25.5549 36.4058 25.5549 36.1111C25.5549 35.8164 25.4378 35.5338 25.2295 35.3254C25.0211 35.1171 24.7385 35 24.4438 35Z" fill="#9747FF"/>
<path d="M36.3342 35H28.5564C28.2617 35 27.9791 35.1171 27.7707 35.3254C27.5624 35.5338 27.4453 35.8164 27.4453 36.1111C27.4453 36.4058 27.5624 36.6884 27.7707 36.8968C27.9791 37.1052 28.2617 37.2222 28.5564 37.2222H36.3342C36.6289 37.2222 36.9115 37.1052 37.1199 36.8968C37.3283 36.6884 37.4453 36.4058 37.4453 36.1111C37.4453 35.8164 37.3283 35.5338 37.1199 35.3254C36.9115 35.1171 36.6289 35 36.3342 35Z" fill="#9747FF"/>
<path d="M37.4436 30.5557H29.6658C29.3711 30.5557 29.0885 30.6727 28.8801 30.8811C28.6717 31.0895 28.5547 31.3721 28.5547 31.6668C28.5547 31.9615 28.6717 32.2441 28.8801 32.4525C29.0885 32.6608 29.3711 32.7779 29.6658 32.7779H37.4436C37.7383 32.7779 38.0209 32.6608 38.2293 32.4525C38.4376 32.2441 38.5547 31.9615 38.5547 31.6668C38.5547 31.3721 38.4376 31.0895 38.2293 30.8811C38.0209 30.6727 37.7383 30.5557 37.4436 30.5557Z" fill="#9747FF"/>
</svg>
