<svg width="585" height="589" viewBox="0 0 585 589" fill="none" xmlns="http://www.w3.org/2000/svg">
<path d="M483.025 504.926C484.443 505.162 485.795 505.657 486.999 506.383C488.204 507.108 489.236 508.049 490.035 509.149C491.619 511.369 492.63 513.89 492.991 516.522C493.829 521.564 492.262 527.274 490.159 532.001C484.592 529.48 481.692 523.505 480.441 520.367C478.447 515.401 478.131 505.329 483.025 504.926Z" fill="#EBEBEB"/>
<path d="M497.789 538.72C497.068 537.397 496.741 535.923 496.84 534.446C496.938 532.97 497.46 531.544 498.352 530.312C499.271 529.096 500.444 528.06 501.803 527.264C503.162 526.467 504.681 525.927 506.27 525.674C506.987 525.486 507.739 525.443 508.475 525.55C509.211 525.657 509.913 525.91 510.531 526.291C511.04 526.729 511.411 527.284 511.605 527.898C511.798 528.513 511.807 529.164 511.631 529.783C511.267 531.021 510.551 532.147 509.555 533.047C506.325 536.262 502.559 538.833 497.789 538.72Z" fill="#EBEBEB"/>
<path d="M496.483 555.181C496.399 554.838 496.353 554.487 496.346 554.135C496.277 553.391 496.181 552.433 496.071 551.274C495.686 548.119 495.853 544.927 496.566 541.82C497.337 538.703 499.003 535.83 501.391 533.501C502.124 532.808 502.945 532.199 503.838 531.686C504.076 531.542 504.324 531.412 504.58 531.295C504.745 531.22 504.841 531.182 504.855 531.195C502.823 532.406 501.077 533.978 499.72 535.818C498.362 537.658 497.421 539.729 496.951 541.909C496.252 544.982 496.053 548.134 496.36 551.261C496.428 552.522 496.483 553.442 496.497 554.123C496.525 554.475 496.52 554.829 496.483 555.181Z" fill="#E0E0E0"/>
<path d="M484.002 512.489C484.079 512.625 484.139 512.769 484.181 512.917L484.648 514.178C485.033 515.262 485.569 516.825 486.229 518.779C487.521 522.661 489.239 528.056 490.999 534.055C492.758 540.055 494.188 545.526 495.123 549.496C495.617 551.475 496.002 553.089 496.263 554.198C496.373 554.727 496.47 555.156 496.538 555.458C496.577 555.607 496.6 555.759 496.607 555.912C496.547 555.768 496.496 555.621 496.456 555.471C496.373 555.143 496.25 554.727 496.112 554.21C495.796 553.063 495.37 551.475 494.848 549.534C493.789 545.589 492.305 540.144 490.545 534.144C488.786 528.144 487.122 522.799 485.899 518.842L484.442 514.203C484.277 513.686 484.153 513.27 484.057 512.943C484.023 512.793 484.004 512.641 484.002 512.489Z" fill="#E0E0E0"/>
<path d="M490.888 543.648C489.465 540.814 487.326 538.333 484.649 536.408C481.971 534.484 478.833 533.172 475.492 532.581C473.802 532.291 471.712 532.354 470.777 533.69C469.843 535.026 470.667 536.791 471.698 538.076C473.899 540.711 476.902 542.687 480.328 543.755C483.753 544.823 487.448 544.935 490.943 544.076" fill="#EBEBEB"/>
<path d="M477.61 537.043C477.967 537.059 478.322 537.11 478.668 537.194C479.086 537.254 479.499 537.338 479.905 537.446C480.373 537.572 480.936 537.686 481.514 537.887C482.091 538.089 482.751 538.291 483.411 538.581C484.123 538.871 484.816 539.199 485.486 539.564C487.035 540.393 488.474 541.383 489.775 542.513C491.061 543.647 492.196 544.916 493.157 546.295C493.574 546.899 493.95 547.526 494.284 548.173C494.589 548.728 494.856 549.301 495.081 549.887C495.285 550.37 495.459 550.862 495.603 551.362C495.731 551.728 495.828 552.103 495.892 552.484C495.986 552.805 496.041 553.135 496.057 553.467C495.975 553.467 495.727 552.08 494.82 549.988C494.581 549.413 494.301 548.853 493.981 548.312C493.642 547.677 493.261 547.063 492.84 546.471C491.883 545.101 490.763 543.833 489.5 542.69C488.215 541.587 486.81 540.607 485.308 539.766C484.593 539.4 483.933 539.047 483.259 538.77C482.586 538.493 481.981 538.266 481.417 538.051C479.108 537.345 477.582 537.119 477.61 537.043Z" fill="#E0E0E0"/>
<path d="M578.437 458.78C575.241 455.938 572.213 452.943 569.364 449.806C566.344 446.808 563.495 443.67 560.828 440.403C567.05 446.237 572.928 452.372 578.437 458.78Z" fill="#E0E0E0"/>
<path d="M583.977 458.679C581.957 455.42 580.153 452.053 578.574 448.595C576.774 445.217 575.19 441.745 573.832 438.197C575.841 441.459 577.64 444.826 579.22 448.28C581.023 451.66 582.611 455.132 583.977 458.679Z" fill="#E0E0E0"/>
<path d="M341.688 569.563C340.719 568.867 339.825 568.086 339.021 567.231C337.262 565.58 335.159 563.601 332.849 561.408L326.664 555.584C325.765 554.811 324.942 553.968 324.203 553.063C325.222 553.699 326.166 554.43 327.021 555.244C328.684 556.656 330.939 558.66 333.358 560.941C335.777 563.223 337.894 565.34 339.393 566.903C340.25 567.719 341.019 568.61 341.688 569.563Z" fill="#E0E0E0"/>
<path d="M350.871 569.979C348.233 566.738 345.783 563.372 343.531 559.895C341.078 556.53 338.825 553.046 336.781 549.458C339.424 552.699 341.878 556.065 344.135 559.542C346.586 562.906 348.834 566.39 350.871 569.979Z" fill="#E0E0E0"/>
<path d="M360.864 548.677C360.624 549.772 360.303 550.85 359.902 551.904C358.291 557.053 357.458 562.379 357.428 567.736C357.492 568.849 357.469 569.965 357.359 571.076C357.059 569.984 356.911 568.862 356.919 567.736C356.665 562.316 357.513 556.9 359.421 551.765C359.751 550.682 360.236 549.644 360.864 548.677Z" fill="#E0E0E0"/>
<path d="M589.128 156.809C614.59 147.38 626.896 120.81 616.613 97.4627C606.331 74.1151 577.355 62.8313 551.894 72.2596C526.432 81.6879 514.126 108.258 524.408 131.606C534.69 154.953 563.666 166.237 589.128 156.809Z" fill="#E0E0E0"/>
<path d="M589.136 151.78C614.598 142.352 626.903 115.782 616.621 92.4341C606.339 69.0866 577.363 57.8028 551.901 67.2311C526.44 76.6593 514.134 103.229 524.416 126.577C534.698 149.925 563.674 161.208 589.136 151.78Z" fill="#EBEBEB"/>
<path d="M570.52 140.082C588.915 140.082 603.827 126.408 603.827 109.541C603.827 92.6733 588.915 78.9995 570.52 78.9995C552.125 78.9995 537.213 92.6733 537.213 109.541C537.213 126.408 552.125 140.082 570.52 140.082Z" fill="white"/>
<path d="M582.648 119.498C588.659 113.351 588.097 103.9 581.393 98.3879C574.69 92.8763 564.382 93.3915 558.372 99.5386C552.361 105.686 552.923 115.137 559.627 120.649C566.33 126.16 576.637 125.645 582.648 119.498Z" fill="#EBEBEB"/>
<path d="M621.71 58.504L604.28 74.7011L576.609 100.415C574.478 102.381 572.362 104.36 570.245 106.326C568.128 108.293 571.372 111.091 573.393 109.213L590.836 93.0032L618.507 67.3021C620.624 65.319 622.746 63.3485 624.872 61.3905C626.879 59.5124 623.731 56.6259 621.71 58.504Z" fill="#E0E0E0"/>
<path d="M438.831 67.5416C439.656 62.0082 431.133 57.4579 424.728 56.9663C421.662 56.752 418.487 57.1806 415.6 56.2478C409.318 54.2437 406.816 46.8195 400.699 44.4498C396.122 42.6725 390.857 44.2481 386.417 46.3027C381.977 48.3572 377.592 50.9286 372.671 51.2185C368.355 51.4706 363.667 49.958 359.901 51.937C357.152 53.3739 355.612 56.336 353.028 58.0881C350.444 59.8401 347.186 60.1679 344.038 60.3317C340.89 60.4956 337.646 60.5082 334.773 61.7183C331.9 62.9283 329.549 65.6887 330.141 68.5248L438.831 67.5416Z" fill="#EBEBEB"/>
<path d="M134.933 97.7935C135.716 92.5626 127.688 88.277 121.64 87.8232C118.767 87.6089 115.771 88.0123 113.049 87.1425C107.138 85.2518 104.801 78.3192 99.0003 76.0252C94.6978 74.3613 89.7354 75.8361 85.5566 77.7646C81.3778 79.6931 77.3089 82.1259 72.5665 82.4032C68.4427 82.6426 64.0989 81.2561 60.5387 83.0712C57.8994 84.4325 56.511 87.2308 54.0642 88.882C51.6174 90.5332 48.5658 90.8357 45.5966 90.987C42.6275 91.1382 39.5758 91.1634 36.8678 92.2474C34.1598 93.3315 31.9467 96.0289 32.4966 98.6633L134.933 97.7935Z" fill="#EBEBEB"/>
<path d="M250.964 31.7573C251.582 27.6481 245.259 24.2827 240.517 23.9298C238.249 23.7533 235.898 24.081 233.754 23.3878C229.107 21.9004 227.252 16.4047 222.757 14.6527C219.375 13.3922 215.471 14.5014 212.186 16.0266C208.901 17.5518 205.656 19.4425 201.986 19.6567C198.783 19.8458 195.319 18.7618 192.529 20.1988C190.439 21.2575 189.354 23.4634 187.429 24.7617C185.432 25.8894 183.121 26.4628 180.776 26.4129C178.436 26.3591 176.105 26.7053 173.903 27.4339C171.786 28.3288 170.027 30.3834 170.466 32.4758L250.964 31.7573Z" fill="#F5F5F5"/>
<path d="M146.329 182.598C146.948 178.501 140.625 175.123 135.882 174.77C133.614 174.606 131.263 174.922 129.119 174.241C124.473 172.754 122.617 167.245 118.122 165.493C114.741 164.233 110.837 165.355 107.551 166.867C104.266 168.38 101.008 170.296 97.338 170.51C94.1489 170.699 90.6848 169.602 87.8944 171.039C85.805 172.098 84.719 174.304 82.7946 175.602C80.7819 176.725 78.4544 177.281 76.1002 177.203C73.7586 177.147 71.4267 177.498 69.2271 178.237C67.1102 179.119 65.3507 181.186 65.7906 183.279L146.329 182.598Z" fill="#F5F5F5"/>
<path d="M550.974 17.6524C551.593 13.5433 545.269 10.1652 540.527 9.82488C538.259 9.64842 535.908 9.96354 533.764 9.28288C529.118 7.79552 527.262 2.29986 522.767 0.547804C519.385 -0.712669 515.482 0.396547 512.196 1.90911C508.911 3.42168 505.667 5.3376 501.997 5.55188C498.794 5.74095 495.33 4.65694 492.539 6.08128C490.45 7.15268 489.364 9.34591 487.439 10.6442C485.416 11.7922 483.069 12.3707 480.69 12.308C478.35 12.2542 476.019 12.6005 473.817 13.329C471.7 14.2239 469.941 16.2785 470.38 18.3709L550.974 17.6524Z" fill="#F5F5F5"/>
<path d="M469.692 137.171C470.311 133.061 463.988 129.696 459.245 129.343C456.977 129.179 454.626 129.494 452.482 128.801C447.836 127.326 445.98 121.818 441.485 120.066C438.09 118.806 434.186 119.915 430.901 121.44C427.615 122.965 424.371 124.856 420.701 125.07C417.498 125.259 414.034 124.175 411.244 125.612C409.168 126.671 408.068 128.877 406.158 130.175C404.159 131.299 401.849 131.873 399.504 131.826C397.164 131.774 394.834 132.12 392.631 132.847C390.515 133.742 388.755 135.797 389.195 137.889L469.692 137.171Z" fill="#F5F5F5"/>
<path d="M170.371 247.701L233.535 187.829L251.24 193.325L313.166 288.616L349.799 305.797L381.14 389.353L284.945 384.79L170.371 247.701Z" fill="#E0E0E0"/>
<path d="M668.859 355.888C668.928 356.052 519.728 408.386 335.653 472.746C151.579 537.106 2.22704 589.176 2.14457 589C2.06209 588.823 151.249 536.513 335.392 472.154C519.535 407.794 668.791 355.711 668.859 355.888Z" fill="#263238"/>
<path d="M544.966 50.1347C541.991 50.725 538.951 50.9916 535.907 50.9288C531.464 50.9014 527.193 49.35 523.935 46.5801C520.388 43.3533 518.56 38.4123 514.67 35.614C511.192 33.0931 505.803 33.2191 502.051 35.2989V57.9874C503.948 56.6261 507.467 53.8657 512.841 56.2858C514.958 57.2437 516.869 58.2899 518.917 59.4118C524.663 62.5756 530.574 62.3235 536.622 59.8403C540.181 58.2254 543.322 55.9303 545.832 53.1094C547.592 51.3447 546.203 49.8952 544.966 50.1347Z" fill="#7BD28E"/>
<path d="M502.051 30.8242C502.243 30.8242 502.408 42.1685 502.408 56.0967C502.408 70.0249 502.243 81.3062 502.051 81.3062C501.858 81.3062 501.693 69.9619 501.693 56.0967C501.693 42.2315 501.845 30.8242 502.051 30.8242Z" fill="#263238"/>
<path d="M646.536 221.824L611.951 207.946L517.35 83.3355L491.961 74.9155L388.81 178.715L360.163 193.085L252.545 295.738L224.764 319.195L373.181 458.78L670.001 355.068V266.583L646.536 221.824Z" fill="#EBEBEB"/>
<path d="M517.349 83.3355L491.96 74.9155L438.969 128.234L493.775 87.4068L509.156 107.436C509.706 107.272 515.59 98.8015 515.59 98.8015C515.59 98.8015 543.082 117.305 542.752 116.801C542.422 116.297 517.349 83.3355 517.349 83.3355Z" fill="white"/>
<path d="M253.025 296.57L375.338 209.257L425.113 198.707L462.901 104.146L388.81 178.716L360.163 193.085L253.025 296.57Z" fill="#E0E0E0"/>
<path d="M253.025 296.57L253.506 296.078L254.964 294.641L260.682 289.057L282.415 267.957L359.943 192.896L388.59 178.463H388.507L471.094 95.2721C478.022 88.289 484.872 81.3942 491.644 74.5877L491.796 74.4238L492.029 74.4995L517.418 82.932H517.515L517.583 83.0076L612.102 207.681L611.992 207.605L646.55 221.471H646.618V221.534L662.578 252.138C664.392 255.667 665.794 258.377 666.701 260.218C667.155 261.125 667.512 261.818 667.76 262.285L668.103 263.003C668.103 263.003 667.952 262.776 667.705 262.31L666.605 260.255L662.33 252.214L646.22 221.685L646.316 221.773L611.717 207.908H611.648C586.905 175.274 553.914 132.04 516.965 83.3606L517.13 83.474L491.741 75.0541L492.126 74.9658L471.671 95.8141L389.043 178.917L360.314 193.337L360.396 193.274L282.745 268.171L260.888 289.171L255.101 294.691L253.616 296.103L253.025 296.57Z" fill="#263238"/>
<path d="M183.456 198.694C179.785 199.421 176.035 199.755 172.28 199.69C166.811 199.642 161.557 197.728 157.544 194.32C153.173 190.35 150.932 184.237 146.135 180.821C141.846 177.72 135.22 177.884 130.588 180.43V208.425C132.938 206.736 137.269 203.383 143.88 206.333C146.492 207.505 148.856 208.791 151.372 210.114C158.438 214.009 165.723 213.694 173.16 210.643C175.909 209.509 179.772 207.24 184.514 202.35C186.672 200.182 184.981 198.429 183.456 198.694Z" fill="#7BD28E"/>
<path d="M130.588 174.922C130.794 174.922 130.959 188.85 130.959 206.043C130.959 223.236 130.794 237.151 130.588 237.151C130.382 237.151 130.23 223.223 130.23 206.043C130.23 188.862 130.395 174.922 130.588 174.922Z" fill="#263238"/>
<path d="M279.679 353.568L251.046 338.14L147.881 226.739L122.492 235.777L52.0428 375.954L17.4713 390.84L0 439.444L2.51554 587.865L99.302 554.689L374.719 458.238L279.679 353.568Z" fill="#EBEBEB"/>
<path d="M52.043 375.954L65.7891 368.379L79.7552 343.018L90.9308 350.757L125.145 245.331L149.159 227.949L147.881 226.739L122.492 235.777L52.043 375.954Z" fill="#E0E0E0"/>
<path d="M122.492 235.777L147.881 226.739L200.872 283.965C200.872 283.965 157.201 248.596 156.637 248.596C156.637 248.596 152.335 261.856 151.785 261.68C151.235 261.503 125.667 238.109 125.667 238.109L115.289 250.171L122.492 235.777Z" fill="white"/>
<path d="M374.719 458.288C374.719 458.288 374.101 457.658 372.946 456.41L367.846 450.851C363.379 445.973 356.849 438.814 348.519 429.688L279.445 353.744L279.527 353.807L250.881 338.405C224.845 310.321 195.429 278.557 164.39 245.054L147.62 226.941L148.018 227.042L122.615 236.079L122.808 235.903C95.4394 290.305 71.0537 338.871 52.2765 376.055V376.13H52.194L17.5538 391.017L17.6638 390.903L4.70117 426.701C3.1891 430.835 2.02068 434.024 1.23715 436.192L0.329907 438.625C0.123715 439.179 0 439.444 0 439.444C0 439.444 0.0824772 439.167 0.274923 438.612C0.467369 438.058 0.756037 437.238 1.12718 436.154L4.49498 426.638C7.46415 418.306 11.7942 406.155 17.2789 390.79V390.714H17.3476L51.9054 375.778L51.7954 375.891L122.176 235.638V235.525H122.313L147.702 226.475L148.032 226.361L148.197 226.538L164.899 244.562L251.32 337.963H251.238L279.871 353.404L348.753 429.448L367.97 450.725L373.001 456.322L374.719 458.288Z" fill="#263238"/>
<path d="M112.897 492.157L122.698 453.65L166.768 392.517L201.6 384.702L248.269 432.121L289.823 441.751L353.495 466.116L88.2773 558.887L92.9098 526.606L112.897 492.157Z" fill="#F5F5F5"/>
<path d="M112.896 492.145C112.896 492.145 112.47 492.926 111.618 494.439L107.796 501.144L93.0468 526.682C91.7546 535.845 90.2151 546.71 88.4693 558.962L88.1669 558.748L343.268 469.38L353.33 465.864V466.469L289.658 442.104L248.117 432.449H248.021V432.373L201.38 384.941L201.669 385.017L166.836 392.744L167.001 392.643L122.848 453.738L115.48 482.363C114.628 485.59 113.996 488.048 113.556 489.712C113.116 491.376 112.882 492.233 112.882 492.233C112.882 492.233 113.061 491.388 113.474 489.712C113.886 488.035 114.504 485.577 115.302 482.325C116.951 475.821 119.426 466.191 122.518 453.688L166.506 392.504V392.429H166.616L201.435 384.588H201.6L201.724 384.702L248.46 432.096L248.378 431.818L289.933 441.448L353.632 465.851L354.457 466.166L353.618 466.469L343.542 469.985L88.3593 559.126L88.002 559.252V558.912C89.7752 546.66 91.356 535.795 92.6894 526.644V526.581L107.563 501.081C109.281 498.182 110.587 495.964 111.467 494.451C112.346 492.939 112.896 492.145 112.896 492.145Z" fill="#263238"/>
<path d="M563.77 366.968C564.869 367.776 565.881 368.68 566.794 369.665C569.099 371.95 571.256 374.358 573.254 376.875C575.247 379.387 577.083 382 578.753 384.702C579.514 385.793 580.145 386.955 580.636 388.169C579.788 387.142 579.017 386.064 578.327 384.942C576.952 382.938 574.959 380.19 572.622 377.266C570.285 374.341 568.031 371.783 566.368 369.967C565.428 369.023 564.56 368.021 563.77 366.968Z" fill="#263238"/>
<path d="M576.087 355.585C576.633 357.079 577.092 358.598 577.462 360.136C578.273 362.959 579.469 366.829 580.981 371.064C582.493 375.299 584.005 379.08 585.105 381.803C585.781 383.258 586.364 384.748 586.851 386.265C586.566 385.924 586.339 385.546 586.177 385.143C585.792 384.412 585.27 383.328 584.637 381.98C583.386 379.282 581.792 375.513 580.266 371.265C578.74 367.018 577.627 363.098 576.94 360.249C576.596 358.812 576.335 357.652 576.197 356.846C576.096 356.432 576.059 356.008 576.087 355.585Z" fill="#263238"/>
<path d="M207.374 519.497C205.301 517.361 203.024 515.4 200.57 513.636C197.957 512.055 195.197 510.688 192.322 509.552C193.272 509.61 194.203 509.824 195.071 510.182C197.181 510.908 199.174 511.892 200.996 513.107C202.826 514.307 204.468 515.732 205.876 517.342C206.505 517.977 207.012 518.706 207.374 519.497Z" fill="#263238"/>
<path d="M207.388 493.254C207.512 493.254 207.264 494.654 207.223 496.897C207.188 499.815 207.609 502.723 208.474 505.531C209.359 508.337 210.688 511.008 212.419 513.46C213.794 515.338 214.756 516.397 214.66 516.472C214.361 516.286 214.092 516.061 213.862 515.804C213.184 515.155 212.559 514.459 211.993 513.725C208.197 508.82 206.335 502.876 206.714 496.872C206.778 495.974 206.906 495.082 207.099 494.2C207.137 493.872 207.234 493.552 207.388 493.254Z" fill="#263238"/>
<path d="M221.587 499.884C221.378 500.571 221.121 501.244 220.817 501.901C220.248 503.529 219.987 505.234 220.048 506.943C220.109 508.633 220.491 510.301 221.175 511.871C221.532 512.504 221.835 513.162 222.082 513.837C222.013 513.837 221.381 513.27 220.707 512.06C219.862 510.489 219.393 508.77 219.333 507.018C219.264 505.245 219.611 503.478 220.35 501.838C220.584 501.104 221.009 500.434 221.587 499.884Z" fill="#263238"/>
<path d="M79.8794 500.893C81.464 500.762 83.0611 500.925 84.5752 501.374C86.0892 501.822 87.489 502.546 88.6906 503.502C91.0873 505.434 92.9684 507.845 94.1891 510.548C96.7046 515.678 96.8558 522.157 96.1273 527.754C89.4192 526.607 84.4156 520.998 82.0788 517.998C78.381 513.258 74.8345 502.632 79.8931 500.893" fill="#7BD28E"/>
<path d="M106.381 532.909C105.192 531.698 104.374 530.221 104.009 528.627C103.645 527.033 103.747 525.379 104.305 523.833C104.883 522.299 105.788 520.885 106.968 519.676C108.148 518.466 109.579 517.484 111.178 516.787C111.877 516.393 112.661 516.145 113.476 516.06C114.291 515.975 115.116 516.056 115.893 516.295C116.574 516.623 117.146 517.113 117.548 517.715C117.949 518.316 118.166 519.006 118.175 519.711C118.185 521.126 117.787 522.518 117.02 523.745C114.615 528.018 111.425 531.761 106.326 532.921" fill="#7BD28E"/>
<path d="M110.23 550.744C110.039 550.399 109.878 550.041 109.749 549.673L108.567 546.711C107.135 543.467 106.29 540.032 106.065 536.539C105.891 533.015 106.746 529.512 108.539 526.392C109.108 525.485 109.786 524.639 110.56 523.871C110.821 523.594 111.069 523.404 111.22 523.266C111.371 523.127 111.467 523.064 111.481 523.077C110.466 524.164 109.573 525.343 108.814 526.594C107.139 529.694 106.345 533.132 106.505 536.589C106.741 540.038 107.533 543.437 108.855 546.673C109.323 547.933 109.68 548.967 109.914 549.685C110.053 550.029 110.158 550.383 110.23 550.744Z" fill="#263238"/>
<path d="M83.4258 508.707C83.5454 508.835 83.6556 508.97 83.7557 509.111C83.9756 509.426 84.278 509.816 84.6354 510.308C85.3915 511.354 86.4637 512.829 87.7833 514.77C90.4088 518.552 93.9553 523.82 97.7218 529.732C101.488 535.644 104.787 541.076 107.097 545.009C108.265 546.975 109.186 548.589 109.846 549.698L110.547 550.958C110.64 551.105 110.714 551.262 110.767 551.425C110.654 551.296 110.557 551.157 110.478 551.009L109.695 549.748C108.994 548.614 108.045 547.038 106.863 545.122C104.485 541.202 101.158 535.82 97.3919 529.908C93.6254 523.997 90.0102 518.791 87.4534 515.01L84.4293 510.485C84.0993 509.98 83.8382 509.564 83.6182 509.224C83.528 509.061 83.4632 508.887 83.4258 508.707Z" fill="#263238"/>
<path d="M100.622 539.993C98.2011 537.355 95.1277 535.287 91.658 533.961C88.1883 532.634 84.423 532.087 80.6761 532.367C78.7792 532.518 76.5523 533.136 76.0162 534.812C75.4801 536.488 76.896 538.14 78.3943 539.224C81.5651 541.429 85.3762 542.725 89.3483 542.949C93.3204 543.174 97.2761 542.316 100.718 540.484" fill="#7BD28E"/>
<path d="M84.4023 536.539C84.7859 536.459 85.1776 536.417 85.5708 536.413C86.0269 536.364 86.4862 536.343 86.9454 536.35C87.5589 536.32 88.1738 536.32 88.7874 536.35C89.5382 536.387 90.2863 536.463 91.028 536.577C91.8806 536.69 92.7252 536.85 93.5573 537.056C95.4669 537.519 97.3118 538.183 99.0557 539.034C100.789 539.908 102.404 540.966 103.867 542.186C105.045 543.192 106.117 544.298 107.07 545.488C107.496 545.992 107.785 546.496 108.087 546.912C108.336 547.274 108.561 547.648 108.76 548.034C108.96 548.349 109.121 548.683 109.242 549.03C109.159 549.03 108.444 547.656 106.809 545.665C106.381 545.122 105.922 544.6 105.434 544.102C104.868 543.524 104.267 542.977 103.633 542.463C102.183 541.282 100.592 540.255 98.8908 539.4C97.1792 538.558 95.3723 537.89 93.5023 537.408C92.6363 537.207 91.8115 537.018 91.0142 536.904C90.2917 536.778 89.562 536.69 88.8286 536.64C86.0931 536.438 84.4023 536.627 84.4023 536.539Z" fill="#263238"/>
<path d="M650.892 179.258C643.091 180.808 635.12 181.518 627.139 181.375C615.812 180.947 604.238 177.594 595.798 169.968C586.492 161.523 581.708 148.54 571.522 141.229C562.395 134.649 548.291 134.927 538.463 140.397V199.892C543.439 196.324 552.663 189.102 566.711 195.455C572.278 197.976 577.296 200.686 582.657 203.635C597.681 211.916 613.173 211.198 629.009 204.757C634.919 202.349 643.057 197.534 653.147 187.11C657.738 182.434 654.137 178.69 650.892 179.258Z" fill="#7BD28E"/>
<path d="M539.316 400.937V139.679C539.316 136.175 539.398 132.658 539.316 129.141V128.7C539.289 128.508 539.188 128.332 539.029 128.204C538.871 128.076 538.668 128.006 538.457 128.006C538.246 128.006 538.042 128.076 537.884 128.204C537.726 128.332 537.624 128.508 537.598 128.7V389.139C537.598 392.857 537.598 396.588 537.598 400.307V400.937C537.624 401.129 537.726 401.305 537.884 401.433C538.042 401.561 538.246 401.631 538.457 401.631C538.668 401.631 538.871 401.561 539.029 401.433C539.188 401.305 539.289 401.129 539.316 400.937Z" fill="#263238"/>
<path d="M279.197 137.397L277.643 128.46C282.567 121.118 284.317 112.352 282.55 103.887C280.783 95.4212 275.627 87.8679 268.094 82.7116C260.562 77.5553 251.199 75.169 241.845 76.0218C232.492 76.8745 223.824 80.9047 217.547 87.3201C211.269 93.7354 207.836 102.072 207.921 110.691C208.007 119.31 211.605 127.587 218.009 133.897C224.413 140.207 233.159 144.092 242.528 144.788C251.897 145.485 261.211 142.943 268.64 137.662L279.197 137.397Z" fill="white"/>
<path d="M279.197 137.397H278.537L276.531 137.486L268.627 137.776C268.607 137.777 268.588 137.775 268.57 137.77C268.551 137.764 268.535 137.755 268.52 137.743C268.506 137.732 268.495 137.717 268.487 137.701C268.479 137.685 268.475 137.667 268.475 137.65C268.467 137.621 268.467 137.59 268.475 137.561L268.682 137.738C263.855 141.235 258.16 143.582 252.104 144.57C248.134 145.205 244.081 145.269 240.09 144.759C235.549 144.15 231.166 142.792 227.154 140.75C222.735 138.457 218.849 135.391 215.718 131.725C212.301 127.764 209.883 123.158 208.638 118.238C207.326 113 207.326 107.557 208.638 102.318C210.052 96.8245 212.933 91.7392 217.024 87.5205C219.087 85.3588 221.427 83.4332 223.993 81.7854C225.299 81.0291 226.605 80.2602 227.952 79.6047L230.027 78.7098L231.058 78.2686L232.131 77.9157C237.68 76.0254 243.63 75.331 249.519 75.8864C255.05 76.429 260.378 78.1047 265.108 80.7896C269.476 83.2397 273.271 86.4617 276.269 90.2683C278.948 93.695 280.928 97.5386 282.111 101.613C282.331 102.583 282.551 103.541 282.758 104.486C282.964 105.432 283.005 106.365 283.129 107.285C283.32 109.061 283.348 110.849 283.211 112.629C282.815 118.231 280.927 123.658 277.713 128.435V128.347C278.18 131.234 278.537 133.477 278.785 135.028C278.895 135.759 278.991 136.288 279.046 136.742C279.101 137.196 279.129 137.309 279.129 137.309C279.129 137.309 279.129 137.095 278.991 136.704C278.854 136.313 278.799 135.708 278.661 134.965C278.373 133.44 277.96 131.183 277.424 128.385C277.418 128.356 277.418 128.326 277.424 128.297C280.564 123.539 282.398 118.154 282.771 112.604C282.893 110.843 282.852 109.077 282.648 107.323C282.524 106.428 282.469 105.495 282.263 104.562C282.056 103.629 281.837 102.697 281.603 101.739C279.113 93.2058 273.118 85.888 264.874 81.319C260.227 78.6889 254.992 77.0558 249.561 76.5418C243.777 75.9962 237.935 76.6821 232.488 78.546L231.443 78.8863L230.426 79.3274L228.392 80.2098C227.017 80.8526 225.794 81.6089 224.501 82.3526C221.976 83.9707 219.669 85.8578 217.628 87.9743C213.611 92.114 210.777 97.1034 209.381 102.495C208.069 107.628 208.041 112.967 209.298 118.112C210.491 122.948 212.839 127.481 216.171 131.385C219.239 135 223.05 138.027 227.388 140.297C231.335 142.322 235.646 143.679 240.117 144.305C244.055 144.828 248.057 144.785 251.98 144.179C257.981 143.229 263.641 140.958 268.475 137.561C268.503 137.537 268.54 137.524 268.578 137.524C268.617 137.524 268.654 137.537 268.682 137.561C268.703 137.584 268.714 137.613 268.714 137.643C268.714 137.673 268.703 137.702 268.682 137.725L268.572 137.511L276.379 137.372H278.428L279.197 137.397Z" fill="#263238"/>
<path d="M266.249 77.6252H225.011C224.873 77.953 222.124 113.095 245.63 113.763C269.163 113.082 266.414 77.9404 266.249 77.6252Z" fill="#7BD28E"/>
<path d="M268.874 74.1719H222.399C221.366 74.1719 220.529 74.9394 220.529 75.8861V76.8945C220.529 77.8412 221.366 78.6087 222.399 78.6087H268.874C269.907 78.6087 270.744 77.8412 270.744 76.8945V75.8861C270.744 74.9394 269.907 74.1719 268.874 74.1719Z" fill="#7BD28E"/>
<path d="M232.75 107.713C225.313 105.923 220.296 100.957 218.261 93.3309C217.341 89.7747 217.062 86.1043 217.436 82.4656L217.588 81.3816H228.158V83.9025H220.034C219.865 86.9088 220.161 89.9219 220.914 92.8519C222.729 99.5828 226.949 103.793 233.437 105.356L232.75 107.713Z" fill="#7BD28E"/>
<path d="M258.469 107.713L257.781 105.318C264.311 103.755 268.531 99.5202 270.331 92.7137C271.068 89.8241 271.36 86.8541 271.197 83.8904H263.074V81.4072H273.644L273.795 82.4912C274.169 86.1306 273.886 89.8016 272.957 93.3565C270.936 100.957 265.919 105.923 258.469 107.713Z" fill="#7BD28E"/>
<path d="M249.753 115.83C249.009 113.36 248.548 110.826 248.379 108.268H242.88C242.711 110.826 242.25 113.36 241.506 115.83C238.44 127.175 227.457 127.818 227.457 127.818V131.032H263.747V127.818C263.747 127.818 252.819 127.2 249.753 115.83Z" fill="#7BD28E"/>
<path d="M267.624 78.4576C267.624 78.6341 257.864 78.7853 245.85 78.7853C233.836 78.7853 224.076 78.6341 224.076 78.4576C224.076 78.2811 233.822 78.1299 245.85 78.1299C257.878 78.1299 267.624 78.2811 267.624 78.4576Z" fill="#263238"/>
<path d="M262.124 102.835C261.983 103.336 261.785 103.822 261.533 104.284C260.856 105.557 260.021 106.754 259.045 107.851C257.563 109.48 255.746 110.825 253.698 111.809C251.167 112.992 248.358 113.585 245.519 113.536C242.677 113.549 239.878 112.903 237.381 111.658C235.378 110.606 233.621 109.201 232.212 107.524C231.257 106.415 230.419 105.224 229.711 103.969C229.421 103.527 229.194 103.053 229.037 102.557C229.161 102.482 230.164 104.511 232.597 107.234C234.024 108.806 235.753 110.126 237.697 111.129C240.103 112.313 242.789 112.936 245.519 112.944C248.247 112.987 250.947 112.434 253.395 111.33C255.389 110.384 257.171 109.101 258.646 107.549C259.961 106.079 261.126 104.501 262.124 102.835Z" fill="#263238"/>
<path opacity="0.3" d="M246.743 87.7091L248.118 90.3687C248.206 90.5308 248.336 90.6707 248.496 90.7761C248.657 90.8816 248.843 90.9494 249.039 90.9737L252.241 91.4022C252.465 91.4317 252.675 91.5179 252.847 91.6511C253.02 91.7842 253.149 91.959 253.219 92.1557C253.289 92.3524 253.298 92.5631 253.244 92.7641C253.19 92.965 253.076 93.1482 252.915 93.2929L250.647 95.2719C250.505 95.3966 250.399 95.5519 250.339 95.7235C250.279 95.8952 250.267 96.0779 250.303 96.2551L250.853 99.1794C250.889 99.3846 250.862 99.595 250.775 99.787C250.688 99.979 250.544 100.145 250.361 100.267C250.177 100.388 249.959 100.461 249.733 100.476C249.507 100.491 249.281 100.448 249.08 100.352L246.221 98.9651C246.046 98.8842 245.853 98.8421 245.657 98.8421C245.461 98.8421 245.268 98.8842 245.093 98.9651L242.234 100.352C242.033 100.448 241.807 100.491 241.581 100.476C241.355 100.461 241.138 100.388 240.954 100.267C240.77 100.145 240.626 99.979 240.539 99.787C240.452 99.595 240.425 99.3846 240.461 99.1794L241.011 96.2551C241.047 96.0779 241.035 95.8952 240.975 95.7235C240.915 95.5519 240.809 95.3966 240.667 95.2719L238.344 93.1921C238.183 93.0474 238.069 92.8642 238.015 92.6632C237.962 92.4623 237.97 92.2515 238.04 92.0549C238.11 91.8582 238.239 91.6834 238.412 91.5502C238.584 91.4171 238.794 91.3309 239.018 91.3014L242.221 90.8728C242.416 90.8486 242.603 90.7808 242.763 90.6753C242.924 90.5698 243.054 90.4299 243.142 90.2678L244.516 87.6082C244.619 87.4115 244.783 87.2471 244.988 87.1355C245.192 87.0239 245.428 86.9701 245.666 86.9808C245.904 86.9916 246.133 87.0664 246.324 87.196C246.516 87.3255 246.662 87.504 246.743 87.7091Z" fill="black"/>
<path d="M263.1 127.956C263.1 128.133 255.059 128.284 245.148 128.284C235.237 128.284 227.195 128.133 227.195 127.956C227.195 127.78 235.223 127.628 245.148 127.628C255.072 127.628 263.1 127.767 263.1 127.956Z" fill="#263238"/>
<path d="M435.175 244.323C435.615 244.323 440.673 243.857 441.718 242.546C442.002 242.088 442.161 241.573 442.18 241.046C442.199 240.519 442.078 239.996 441.828 239.521C442.833 238.775 443.535 237.741 443.821 236.584C443.849 235.386 443.459 234.212 442.708 233.231L443.203 231.731C443.456 231.216 443.549 230.647 443.471 230.086C443.394 229.526 443.148 228.996 442.763 228.555C441.718 227.884 440.926 226.933 440.495 225.832C440 224.194 434.419 223.513 431.711 223.021C429.003 222.53 425.374 221.824 422.597 224.912C418.872 229.059 412.576 235.601 412.576 235.601L417.882 248.886C417.882 248.886 420.26 250.147 425.553 248.975C429.07 248.037 432.343 246.455 435.175 244.323Z" fill="#FFBF9D"/>
<path d="M432.068 241.727L468.853 425.529L470.365 425.063L436.096 238.626L432.068 241.727Z" fill="#455A64"/>
<path d="M429.484 234.58C429.484 234.58 426.817 227.522 423.752 224.761C420.687 222.001 417.937 220.778 421.264 218.723C424.59 216.669 432.962 213.682 433.897 216.001C434.831 218.32 433.663 217.261 433.306 219.139C432.948 221.017 436.797 229.16 437.911 232.5C439.024 235.841 443.244 246.366 441.718 247.223C440.632 247.815 435.23 248.357 432.275 248.622C432.022 248.644 431.766 248.62 431.524 248.549C431.282 248.479 431.058 248.364 430.865 248.212C430.673 248.06 430.515 247.874 430.403 247.665C430.291 247.456 430.226 247.228 430.213 246.996L429.484 234.58Z" fill="#263238"/>
<path d="M448.097 235.828C447.573 233.091 446.306 230.519 444.413 228.349C442.52 226.18 440.062 224.482 437.265 223.412C430.392 220.892 431.326 221.887 431.326 221.887L430.557 224.547C439.395 224.194 442.928 230.95 444 232.387C445.375 234.19 446.337 238.513 444.523 239.496C442.708 240.479 438.667 238.538 438.667 238.538L436.371 240.101C436.371 240.101 442.722 243.416 445.595 243.404C448.468 243.391 449.073 240.643 448.097 235.828Z" fill="#263238"/>
<path d="M454.076 326.783C454.097 327.366 453.93 327.942 453.594 328.437C453.259 328.933 452.771 329.326 452.192 329.567C451.613 329.809 450.969 329.887 450.341 329.793C449.714 329.699 449.131 329.436 448.666 329.038C448.201 328.64 447.875 328.124 447.73 327.557C447.584 326.989 447.626 326.394 447.849 325.848C448.072 325.302 448.466 324.829 448.983 324.488C449.499 324.147 450.114 323.955 450.749 323.934C451.602 323.911 452.43 324.197 453.053 324.73C453.676 325.264 454.044 326.002 454.076 326.783Z" fill="#455A64"/>
<path d="M465.184 385.421C465.183 385.914 465.025 386.396 464.729 386.807C464.432 387.219 464.011 387.541 463.516 387.735C463.022 387.929 462.476 387.986 461.947 387.898C461.418 387.811 460.928 387.583 460.539 387.243C460.149 386.903 459.877 386.466 459.756 385.985C459.635 385.505 459.67 385.002 459.857 384.54C460.045 384.078 460.376 383.676 460.809 383.384C461.243 383.093 461.76 382.924 462.297 382.9C462.67 382.883 463.042 382.935 463.392 383.054C463.741 383.173 464.061 383.356 464.331 383.592C464.601 383.828 464.816 384.111 464.962 384.426C465.109 384.74 465.184 385.079 465.184 385.421Z" fill="#455A64"/>
<path d="M441.223 233.496C439.424 234.086 437.556 234.48 435.656 234.668C434.776 234.756 433.896 234.794 433.017 234.958C432.137 235.084 431.306 235.409 430.597 235.903C430.244 236.149 429.953 236.463 429.745 236.822C429.536 237.181 429.414 237.577 429.388 237.983C429.374 238.391 429.499 238.794 429.746 239.135C429.992 239.475 430.347 239.738 430.762 239.886C430.35 240.085 430.027 240.408 429.846 240.801C429.665 241.194 429.64 241.633 429.773 242.042C429.922 242.446 430.169 242.815 430.495 243.121C430.821 243.426 431.218 243.661 431.656 243.806C432.537 244.098 433.469 244.24 434.405 244.222C435.787 244.267 437.17 244.169 438.529 243.932C439.722 243.769 440.823 243.251 441.663 242.458C442.06 242.05 442.288 241.528 442.309 240.982C442.329 240.436 442.139 239.901 441.773 239.47C442.519 238.915 443.01 238.123 443.148 237.252" fill="#FFBF9D"/>
<path d="M429.898 234.328C429.403 234.13 428.986 233.798 428.704 233.377C428.421 232.956 428.286 232.465 428.317 231.971C428.468 230.836 429.691 230.093 430.86 229.677C433.695 228.838 436.666 228.45 439.644 228.53L441.087 229.324C441.404 229.858 441.636 230.431 441.774 231.025C441.841 231.322 441.835 231.629 441.757 231.923C441.678 232.218 441.529 232.492 441.321 232.727C440.85 233.118 440.269 233.38 439.644 233.483C437.809 234.059 435.909 234.444 433.98 234.63C432.611 234.791 431.221 234.688 429.898 234.328Z" fill="#FFBF9D"/>
<path d="M441.828 239.521C440.831 239.391 439.823 239.353 438.818 239.407C436.962 239.407 434.392 239.407 431.56 239.521H430.501H430.185C430.05 239.553 429.926 239.618 429.828 239.71C429.672 239.859 429.559 240.041 429.498 240.239C429.379 240.869 429.416 241.515 429.608 242.13C429.76 242.71 430.143 243.218 430.68 243.554C431.121 243.833 431.616 244.034 432.137 244.147C432.863 244.321 433.614 244.398 434.364 244.373C434.9 244.373 435.189 244.31 435.175 244.273C435.161 244.235 434.007 244.273 432.275 243.756C431.786 243.665 431.333 243.454 430.965 243.145C430.597 242.837 430.327 242.442 430.185 242.004C430.022 241.483 429.994 240.935 430.103 240.403C430.118 240.298 430.171 240.2 430.254 240.126C430.35 240.063 430.254 240.126 430.529 240.126H431.587C434.419 240.05 436.976 239.937 438.832 239.836C439.84 239.829 440.844 239.723 441.828 239.521Z" fill="#7BD28E"/>
<path d="M442.708 233.231C441.864 233.21 441.019 233.282 440.193 233.445C438.653 233.647 436.509 233.975 434.145 234.353H433.952C432.735 234.37 431.544 234.683 430.502 235.26C430.064 235.514 429.706 235.869 429.465 236.289C429.224 236.71 429.107 237.181 429.127 237.655C429.173 238.273 429.407 238.867 429.801 239.37C430.076 239.71 430.282 239.861 430.309 239.836C430.337 239.811 430.213 239.609 430.021 239.256C429.737 238.762 429.586 238.214 429.581 237.655C429.587 237.26 429.704 236.872 429.921 236.53C430.137 236.188 430.446 235.903 430.818 235.702C431.781 235.208 432.863 234.944 433.966 234.933H434.268C436.619 234.542 438.749 234.151 440.275 233.849C441.111 233.735 441.928 233.528 442.708 233.231Z" fill="#7BD28E"/>
<path d="M442.763 228.555C441.545 228.873 440.362 229.295 439.23 229.815H439.326C437.305 229.815 434.57 229.815 431.573 229.815H429.649H429.498L429.415 229.903C428.948 230.383 428.576 230.933 428.315 231.529C428.058 232.106 428.024 232.747 428.219 233.344C428.31 233.624 428.467 233.882 428.678 234.099C428.889 234.317 429.15 234.49 429.443 234.605C429.881 234.77 430.345 234.872 430.817 234.907C431.501 234.96 432.189 234.935 432.865 234.832C433.333 234.756 433.594 234.681 433.58 234.643C433.566 234.605 432.522 234.731 430.831 234.529C430.047 234.428 428.92 234.176 428.645 233.269C428.562 232.742 428.622 232.204 428.818 231.703C429.015 231.202 429.342 230.753 429.772 230.395L429.553 230.483H431.491C434.487 230.483 437.209 230.408 439.244 230.332H439.45C440.611 229.834 441.72 229.239 442.763 228.555Z" fill="#7BD28E"/>
<path d="M416.756 234.945C416.756 234.945 423.546 225.631 423.876 225.479C424.206 225.328 435.079 224.042 437.623 225.051C440.166 226.059 443.121 227.496 443.121 227.496C443.121 227.496 443.492 230.017 439.162 230.244C434.832 230.471 430.337 230.332 430.337 230.332L427.973 233.509C427.973 233.509 428.935 242.004 420.729 244.399" fill="#FFBF9D"/>
<path d="M420.688 244.399C421.037 244.316 421.381 244.215 421.719 244.096C422.131 243.967 422.527 243.798 422.901 243.592C423.404 243.35 423.882 243.068 424.33 242.748C425.542 241.78 426.485 240.561 427.08 239.193C427.868 237.403 428.207 235.473 428.069 233.546V233.697L430.461 230.534L430.241 230.647C432.331 230.647 434.544 230.647 436.867 230.647C438.063 230.65 439.257 230.574 440.441 230.42C441.076 230.305 441.677 230.064 442.2 229.714C442.758 229.339 443.14 228.786 443.273 228.164C443.307 227.951 443.307 227.734 443.273 227.521V227.382H443.121L440.111 226.046L438.64 225.391C438.159 225.156 437.658 224.958 437.142 224.798C436.098 224.598 435.032 224.514 433.967 224.546C432.936 224.546 431.946 224.546 430.97 224.635C429.018 224.761 427.19 224.937 425.471 225.139L424.193 225.315H423.877H423.684L423.506 225.466C423.354 225.643 423.245 225.769 423.121 225.933L421.815 227.672C420.165 229.891 418.873 231.718 417.98 232.979L416.976 234.441C416.852 234.607 416.746 234.785 416.66 234.97C416.814 234.828 416.952 234.672 417.073 234.504L418.172 233.092L422.145 227.887L423.519 226.172L423.877 225.756C423.877 225.756 423.877 225.756 423.877 225.656C423.946 225.782 423.946 225.744 423.946 225.744H424.028H424.317L425.568 225.58C427.272 225.391 429.114 225.24 431.066 225.139C432.042 225.139 433.032 225.05 434.035 225.05C435.046 225.032 436.055 225.117 437.046 225.303C437.518 225.466 437.978 225.659 438.42 225.882L439.877 226.538L442.86 227.861L442.709 227.66C442.734 227.814 442.734 227.971 442.709 228.126C442.559 228.617 442.249 229.054 441.822 229.38C441.395 229.707 440.871 229.907 440.317 229.954C439.17 230.106 438.012 230.182 436.853 230.181C434.558 230.181 432.344 230.181 430.269 230.181H430.118L430.035 230.281C429.224 231.391 428.427 232.449 427.685 233.47V233.533V233.622C427.83 235.478 427.53 237.341 426.805 239.08C426.242 240.414 425.348 241.609 424.193 242.571C423.107 243.305 421.931 243.918 420.688 244.399Z" fill="#7BD28E"/>
<path d="M413.416 233.03L373.25 238.538L362.157 203.459L348.727 255.945L356.974 261.088C359.525 262.667 362.424 263.712 365.465 264.148C368.506 264.584 371.615 264.4 374.569 263.609L420.248 252.264L413.416 233.03Z" fill="#7BD28E"/>
<path d="M347.35 183.379L351.199 183.543L353.371 184.363C360.143 195.437 364.012 207.805 364.671 220.488L365.317 234.076L365.097 319.662L333.481 315.653L329.48 290.797L347.35 183.379Z" fill="#7BD28E"/>
<path opacity="0.3" d="M364.149 313.561C364.149 313.561 364.149 285.037 364.383 274.209C364.616 263.382 361.001 224.194 361.001 224.194C361.001 224.194 347.709 304.02 348.176 304.146C348.643 304.272 364.149 313.561 364.149 313.561Z" fill="black"/>
<path d="M360.094 202.236C360.193 202.43 360.272 202.633 360.327 202.841C360.465 203.32 360.644 203.9 360.85 204.606C361.262 206.169 361.771 208.387 362.224 211.261C363.159 216.908 363.791 224.786 364.245 233.483C364.699 242.181 364.891 250.046 365.139 255.743C365.276 258.516 365.386 260.785 365.469 262.487C365.469 263.218 365.537 263.823 365.565 264.315C365.589 264.528 365.589 264.744 365.565 264.957C365.486 264.755 365.439 264.542 365.427 264.327C365.427 263.836 365.29 263.231 365.207 262.5C365.029 260.911 364.836 258.617 364.644 255.769C364.273 250.071 363.97 242.193 363.544 233.509C363.118 224.824 362.541 216.971 361.743 211.324C361.358 208.501 360.932 206.282 360.616 204.669L360.204 202.867C360.13 202.663 360.093 202.45 360.094 202.236Z" fill="#263238"/>
<path d="M303.584 464.591L301.384 480.359L301.659 482.389C301.659 482.389 329.426 487.368 330.526 491.754L279.913 499.317L277.961 488.666L280.71 462.688L303.584 464.591Z" fill="#263238"/>
<path d="M285.659 482.767C285.197 482.975 284.835 483.332 284.643 483.769C284.45 484.206 284.44 484.693 284.614 485.137C284.82 485.57 285.202 485.914 285.679 486.095C286.156 486.276 286.691 486.28 287.171 486.107C287.661 485.886 288.044 485.505 288.245 485.039C288.445 484.573 288.45 484.055 288.257 483.586C287.991 483.162 287.556 482.848 287.043 482.712C286.53 482.576 285.98 482.627 285.508 482.855" fill="#E0E0E0"/>
<path d="M279.899 499.38L279.377 495.599L328.107 489.801C328.107 489.801 330.526 490.368 330.526 491.855L279.899 499.38Z" fill="#455A64"/>
<path d="M302.443 482.074C302.443 482.301 301.261 482.591 300.175 483.499C299.089 484.406 298.608 485.465 298.36 485.402C298.113 485.339 298.25 483.99 299.597 482.881C300.945 481.772 302.457 481.86 302.443 482.074Z" fill="white"/>
<path d="M308.105 483.296C308.202 483.511 307.198 484.053 306.538 485.137C305.879 486.221 305.796 487.267 305.549 487.292C305.301 487.317 304.916 486.032 305.782 484.771C306.648 483.511 308.064 483.082 308.105 483.296Z" fill="white"/>
<path d="M312.161 488.666C311.941 488.754 311.391 487.67 311.818 486.334C312.244 484.998 313.288 484.33 313.426 484.506C313.563 484.683 312.972 485.452 312.656 486.548C312.34 487.645 312.395 488.616 312.161 488.666Z" fill="white"/>
<path d="M434.337 422.314L434.475 438.209L435.052 440.188C435.052 440.188 463.3 441.688 465.018 445.898L415.986 459.662L412.481 449.364L411.354 423.285L434.337 422.314Z" fill="#263238"/>
<path d="M419.244 442.495C418.807 442.761 418.495 443.167 418.367 443.633C418.24 444.1 418.308 444.593 418.556 445.016C418.827 445.418 419.257 445.71 419.756 445.829C420.255 445.949 420.786 445.888 421.237 445.659C421.69 445.378 422.013 444.954 422.145 444.467C422.277 443.981 422.208 443.467 421.952 443.024C421.62 442.632 421.134 442.374 420.598 442.303C420.063 442.233 419.518 442.356 419.079 442.646" fill="#E0E0E0"/>
<path d="M415.986 459.663L414.914 455.982L462.324 444.171C462.324 444.171 464.799 444.424 465.074 445.898L415.986 459.663Z" fill="#455A64"/>
<path d="M435.779 439.735C435.779 439.961 434.68 440.39 433.731 441.424C432.783 442.457 432.467 443.566 432.219 443.541C431.972 443.516 431.903 442.142 433.071 440.907C434.24 439.671 435.752 439.52 435.779 439.735Z" fill="white"/>
<path d="M441.567 440.239C441.691 440.44 440.784 441.108 440.275 442.255C439.767 443.402 439.863 444.461 439.629 444.524C439.396 444.587 438.818 443.377 439.478 442.003C440.138 440.629 441.499 440.037 441.567 440.239Z" fill="white"/>
<path d="M446.323 445.067C446.117 445.168 445.416 444.172 445.636 442.798C445.856 441.424 446.804 440.63 447.011 440.781C447.217 440.932 446.694 441.777 446.529 442.911C446.364 444.046 446.598 444.978 446.323 445.067Z" fill="white"/>
<path d="M323.433 183.392L321.069 135.998C320.051 124.225 326.691 113.877 339.557 113.31H340.739C346.526 113.349 352.084 115.386 356.307 119.013C360.53 122.64 363.109 127.593 363.53 132.885C364.341 143.095 365.097 154.376 364.974 159.859C364.726 171.203 352.355 172.854 352.355 172.854C352.355 172.854 352.533 179.749 352.657 183.064L355.846 190.74L345.605 188.787L323.433 183.392Z" fill="#FFBF9D"/>
<path d="M352.356 172.829C346.669 172.774 341.118 171.23 336.355 168.379C336.355 168.379 340.163 176.925 352.493 175.942L352.356 172.829Z" fill="#7BD28E"/>
<path d="M359.476 142.716C359.476 143.138 359.296 143.543 358.975 143.844C358.654 144.146 358.217 144.32 357.758 144.33C357.534 144.345 357.309 144.319 357.097 144.254C356.884 144.188 356.688 144.084 356.521 143.948C356.353 143.811 356.216 143.646 356.119 143.46C356.023 143.275 355.967 143.073 355.957 142.868C355.953 142.444 356.131 142.036 356.453 141.732C356.774 141.428 357.214 141.252 357.675 141.242C357.9 141.228 358.125 141.256 358.337 141.323C358.55 141.39 358.746 141.495 358.913 141.632C359.081 141.77 359.217 141.936 359.314 142.122C359.41 142.309 359.466 142.51 359.476 142.716Z" fill="#263238"/>
<path d="M360.865 137.851C360.645 138.053 359.311 137.133 357.414 137.133C355.517 137.133 354.115 137.977 353.909 137.763C353.703 137.549 354.033 137.296 354.651 136.893C355.46 136.384 356.42 136.116 357.401 136.124C358.391 136.121 359.356 136.413 360.15 136.956C360.782 137.372 360.975 137.75 360.865 137.851Z" fill="#263238"/>
<path d="M342.142 142.969C342.142 143.39 341.963 143.795 341.641 144.096C341.32 144.398 340.883 144.572 340.424 144.582C340.2 144.598 339.974 144.572 339.761 144.506C339.547 144.441 339.351 144.337 339.182 144.201C339.013 144.065 338.875 143.899 338.777 143.713C338.678 143.528 338.622 143.326 338.609 143.12C338.609 142.697 338.788 142.291 339.109 141.988C339.43 141.684 339.867 141.507 340.328 141.494C340.553 141.479 340.78 141.505 340.994 141.571C341.208 141.637 341.405 141.742 341.575 141.88C341.744 142.017 341.881 142.185 341.979 142.372C342.076 142.559 342.132 142.762 342.142 142.969Z" fill="#263238"/>
<path d="M342.238 138.129C342.018 138.343 340.698 137.423 338.801 137.41C336.904 137.398 335.502 138.267 335.296 138.053C335.09 137.839 335.42 137.574 336.024 137.171C336.837 136.669 337.794 136.402 338.774 136.402C339.762 136.408 340.724 136.699 341.523 137.234C342.155 137.637 342.348 138.028 342.238 138.129Z" fill="#263238"/>
<path d="M348.946 151.54C349.948 151.266 350.982 151.105 352.026 151.061C352.52 151.061 352.974 150.935 353.057 150.62C353.093 150.182 352.987 149.743 352.754 149.359L351.379 145.956C349.428 141.129 348.025 137.133 348.245 137.133C349.797 139.908 351.107 142.791 352.163 145.754L353.538 149.17C353.839 149.71 353.926 150.33 353.785 150.922C353.711 151.078 353.6 151.217 353.459 151.329C353.319 151.44 353.153 151.521 352.974 151.565C352.705 151.633 352.428 151.667 352.149 151.666C351.08 151.753 350.003 151.711 348.946 151.54Z" fill="#263238"/>
<path d="M342.911 132.671C342.636 133.112 340.808 132.671 338.567 132.583C336.327 132.494 334.443 132.822 334.224 132.368C334.127 132.141 334.512 131.751 335.296 131.398C336.343 130.969 337.484 130.766 338.63 130.806C339.777 130.845 340.898 131.125 341.908 131.625C342.677 132.041 343.021 132.469 342.911 132.671Z" fill="#263238"/>
<path d="M360.987 132.721C360.602 133.124 359.049 132.721 357.193 132.721C355.337 132.721 353.756 133.011 353.399 132.595C353.234 132.393 353.481 132.003 354.169 131.612C355.115 131.149 356.176 130.918 357.248 130.944C358.319 130.945 359.37 131.215 360.286 131.725C360.946 132.129 361.165 132.532 360.987 132.721Z" fill="#263238"/>
<path d="M322.004 144.431C321.798 144.355 313.536 142.074 313.756 149.826C313.976 157.578 322.403 155.788 322.403 155.561C322.403 155.334 322.004 144.431 322.004 144.431Z" fill="#FFBF9D"/>
<path d="M319.736 152.649C319.736 152.649 319.585 152.737 319.338 152.851C319.164 152.92 318.977 152.956 318.788 152.956C318.599 152.956 318.411 152.92 318.238 152.851C317.687 152.542 317.235 152.105 316.926 151.585C316.617 151.065 316.463 150.48 316.478 149.888C316.442 149.225 316.564 148.563 316.836 147.947C316.906 147.702 317.043 147.477 317.232 147.292C317.422 147.107 317.659 146.968 317.922 146.889C318.09 146.84 318.272 146.848 318.434 146.913C318.596 146.978 318.726 147.095 318.802 147.241C318.912 147.456 318.87 147.607 318.912 147.62C318.953 147.632 319.09 147.481 319.008 147.166C318.96 146.973 318.838 146.803 318.664 146.687C318.548 146.61 318.417 146.555 318.278 146.524C318.139 146.494 317.994 146.489 317.853 146.51C317.503 146.582 317.18 146.736 316.915 146.957C316.65 147.178 316.452 147.458 316.341 147.771C316.002 148.45 315.846 149.193 315.887 149.939C315.863 150.631 316.063 151.314 316.462 151.901C316.861 152.489 317.441 152.955 318.128 153.241C318.362 153.302 318.608 153.312 318.846 153.27C319.085 153.229 319.309 153.137 319.503 153.002C319.723 152.825 319.764 152.662 319.736 152.649Z" fill="#7BD28E"/>
<path d="M343.022 152.801C343.311 152.801 343.393 154.553 345.112 155.763C346.83 156.973 348.878 156.696 348.906 156.948C348.933 157.2 348.452 157.313 347.531 157.364C346.395 157.415 345.276 157.098 344.369 156.469C343.93 156.168 343.56 155.791 343.282 155.358C343.003 154.925 342.822 154.446 342.747 153.948C342.692 153.255 342.899 152.801 343.022 152.801Z" fill="#263238"/>
<path d="M380.205 122.146C380.047 121.691 379.701 121.311 379.242 121.087C378.24 120.701 377.146 120.562 376.067 120.684C373.373 120.69 370.712 120.134 368.287 119.058C369.115 118.67 369.872 118.163 370.527 117.558C371.216 116.935 371.708 116.152 371.95 115.293C372.192 114.434 372.175 113.531 371.902 112.68C371.857 112.519 371.771 112.37 371.652 112.245C371.532 112.12 371.382 112.023 371.215 111.961C370.665 111.81 370.197 112.314 369.84 112.717C369.368 113.334 368.722 113.823 367.972 114.131C367.222 114.439 366.395 114.556 365.579 114.469C364.447 114.438 363.34 114.162 362.348 113.663C362.308 113.632 362.271 113.599 362.238 113.562L360.864 112.39C358.34 109.958 355.324 108.002 351.984 106.629C347.039 105.089 341.729 104.818 336.629 105.848C332.354 106.97 328.574 110.247 328.065 114.293C325.619 112.478 321.99 112.566 319.075 113.713H319.007C315.763 114.86 313.976 118.062 313.082 121.137C313.082 121.314 313 121.478 312.945 121.654C311.886 123.297 310.41 124.681 308.642 125.688C308.326 125.864 307.969 126.078 307.941 126.406C307.914 126.734 308.23 127.011 308.518 127.2C309.323 127.696 310.239 128.019 311.199 128.146C310.92 128.881 310.575 129.593 310.168 130.276C309.811 130.856 309.384 131.536 309.728 132.141C309.88 132.36 310.101 132.53 310.361 132.629C310.622 132.729 310.91 132.752 311.185 132.696C311.73 132.572 312.241 132.344 312.684 132.028L311.653 134.461C312.843 134.617 314.057 134.518 315.199 134.171C315.969 137.019 316.574 142.301 317.467 144.254C319.722 144.254 320.216 144.002 321.399 144.33C322.869 144.746 322.375 147.128 324.258 146.422C325.22 146.057 326.622 142.641 326.925 141.746C328.935 135.666 329.493 129.26 328.56 122.965C329.891 121.611 331.491 120.503 333.275 119.7L333.138 119.826C336.561 118.654 340.437 117.495 343.75 118.919C346.32 120.016 347.874 122.41 349.826 124.301C351.473 126.029 353.5 127.418 355.775 128.376C358.049 129.334 360.519 129.84 363.022 129.86C363.585 133.263 363.874 138.86 364.135 142.049L366.953 135.595C367.187 135.217 367.366 134.839 367.558 134.461V134.334C367.836 133.711 368.148 133.101 368.493 132.507C368.904 132.809 369.421 132.963 369.948 132.942C370.474 132.92 370.974 132.724 371.355 132.389C371.735 132.054 371.969 131.604 372.014 131.122C372.059 130.641 371.912 130.161 371.599 129.772C371.298 129.407 370.936 129.088 370.527 128.826C370.965 129.193 371.499 129.451 372.076 129.574C372.654 129.698 373.257 129.683 373.826 129.532C374.39 129.352 374.875 129.009 375.207 128.554C375.54 128.099 375.701 127.558 375.668 127.011C375.615 126.649 375.461 126.305 375.22 126.013C374.979 125.722 374.66 125.492 374.294 125.347C375.83 125.431 377.358 125.089 378.679 124.364C379.696 123.91 380.521 123.141 380.205 122.146Z" fill="#263238"/>
<path d="M332.08 115.516C331.652 115.848 331.247 116.206 330.87 116.587C329.921 117.684 329.296 118.986 329.056 120.368C328.864 121.32 328.781 122.287 328.809 123.255C328.809 124.301 328.946 125.41 329.07 126.595C329.214 127.826 329.274 129.063 329.248 130.301C329.224 130.965 329.146 131.627 329.015 132.28C328.925 132.973 328.641 133.633 328.19 134.196C327.983 134.423 327.713 134.596 327.408 134.696C327.104 134.795 326.776 134.819 326.458 134.763C325.846 134.675 325.284 134.399 324.863 133.982C324.178 133.151 323.746 132.168 323.612 131.133H323.86C323.536 131.994 323.073 132.806 322.485 133.54C321.896 134.222 321.046 134.673 320.107 134.801C319.67 134.847 319.228 134.782 318.829 134.612C318.459 134.446 318.153 134.183 317.949 133.856C317.755 133.55 317.655 133.201 317.66 132.847C317.672 132.523 317.803 132.212 318.032 131.965L318.169 132.066C317.455 132.856 316.564 133.496 315.557 133.944C315.295 134.065 315.024 134.17 314.746 134.259L314.361 134.347C314.446 134.297 314.539 134.259 314.636 134.234L315.434 133.881C316.402 133.406 317.257 132.759 317.949 131.977L318.087 132.078C317.894 132.324 317.791 132.62 317.791 132.923C317.791 133.226 317.894 133.521 318.087 133.767C318.27 134.064 318.548 134.301 318.884 134.448C319.248 134.588 319.646 134.64 320.038 134.599C320.927 134.459 321.721 134.007 322.252 133.339C322.828 132.62 323.291 131.831 323.626 130.994L323.791 130.629L323.887 131.019C324.016 132.008 324.429 132.948 325.083 133.742C325.446 134.108 325.928 134.355 326.458 134.448C326.729 134.491 327.007 134.469 327.265 134.383C327.523 134.296 327.752 134.149 327.929 133.956C328.344 133.428 328.609 132.813 328.699 132.166C328.818 131.529 328.891 130.885 328.918 130.238C328.948 129.005 328.893 127.771 328.754 126.545C328.644 125.373 328.534 124.251 328.534 123.192C328.521 122.211 328.613 121.232 328.809 120.268C329.07 118.853 329.734 117.527 330.733 116.423C331.123 116.054 331.579 115.747 332.08 115.516Z" fill="#455A64"/>
<path d="M370.61 125.776L370.514 125.851L370.198 126.066C370.042 126.188 369.871 126.294 369.689 126.381C369.455 126.528 369.207 126.654 368.947 126.759C367.304 127.483 365.49 127.821 363.669 127.742C360.965 127.636 358.353 126.813 356.149 125.372C353.484 123.587 351.244 121.323 349.565 118.717C348.63 117.368 347.874 115.969 347.036 114.696C346.263 113.444 345.3 112.298 344.177 111.293C343.173 110.387 341.933 109.732 340.575 109.39C339.961 109.243 339.325 109.188 338.692 109.226C338.104 109.265 337.526 109.379 336.974 109.566C336.019 109.882 335.151 110.385 334.431 111.041C333.872 111.529 333.408 112.1 333.056 112.73C332.783 113.277 332.585 113.853 332.465 114.444V114.318C332.465 114.23 332.465 114.116 332.465 113.978C332.56 113.544 332.708 113.121 332.905 112.717C333.254 112.067 333.718 111.475 334.279 110.965C335.01 110.288 335.891 109.763 336.864 109.428C337.429 109.231 338.021 109.108 338.623 109.062C339.283 109.013 339.947 109.064 340.589 109.213C341.995 109.558 343.282 110.226 344.328 111.154C345.47 112.167 346.447 113.326 347.228 114.595C348.08 115.856 348.85 117.28 349.771 118.616C351.429 121.191 353.636 123.433 356.259 125.209C358.419 126.637 360.982 127.464 363.641 127.591C365.43 127.687 367.218 127.385 368.851 126.709C369.456 126.428 370.043 126.116 370.61 125.776Z" fill="#455A64"/>
<path d="M371.613 120.772C371.478 120.883 371.331 120.98 371.173 121.062C370.757 121.307 370.32 121.522 369.867 121.704C369.2 121.977 368.511 122.201 367.805 122.372C366.934 122.565 366.046 122.692 365.152 122.751C364.257 122.785 363.36 122.747 362.471 122.637C361.749 122.535 361.036 122.379 360.341 122.171C359.868 122.04 359.408 121.871 358.966 121.667C358.65 121.528 358.485 121.44 358.499 121.414C358.513 121.389 359.214 121.679 360.396 121.994C361.085 122.173 361.788 122.304 362.499 122.385C363.37 122.484 364.248 122.518 365.124 122.486C366.003 122.427 366.876 122.309 367.736 122.133C368.432 121.971 369.116 121.769 369.784 121.528C370.925 121.099 371.585 120.721 371.613 120.772Z" fill="#455A64"/>
<path d="M297.865 333.174L287.679 391.66C287.679 391.66 274.455 464.238 274.111 478.86L308.257 479.452C308.257 479.452 318.181 410.454 324.752 400.307C331.323 390.16 345.303 309.276 345.303 309.276L297.865 333.174Z" fill="#263238"/>
<path d="M348.864 303.25C348.864 303.25 417.498 336.854 422.873 344.846C428.247 352.837 438.818 436.482 438.818 436.482L408.151 446.49L392.892 370.081L318.979 344.871C318.979 344.871 299.199 337.586 289.934 329.279C280.669 320.973 283.212 305.67 283.212 305.67L289.604 298.108L351.998 288.137L348.864 303.25Z" fill="#263238"/>
<path d="M303.639 340.296C303.914 340.451 304.209 340.574 304.518 340.661L307.089 341.569L316.601 344.821L347.942 355.598C360.19 359.808 371.311 363.564 379.366 366.186C383.407 367.509 386.679 368.543 388.988 369.236L391.6 370.03C391.901 370.139 392.215 370.216 392.535 370.257C392.253 370.117 391.959 369.999 391.655 369.904L389.085 368.997L379.572 365.745L348.204 354.93C335.956 350.707 324.835 346.964 316.78 344.329C312.739 343.069 309.467 341.972 307.158 341.279L304.546 340.498C304.249 340.411 303.946 340.344 303.639 340.296Z" fill="#455A64"/>
<path d="M349.22 303.49C346.437 303.022 343.684 302.416 340.972 301.675C336.45 300.616 332.725 300.036 332.725 299.86C335.574 299.894 338.405 300.289 341.137 301.032C343.924 301.57 346.635 302.394 349.22 303.49Z" fill="#455A64"/>
<path d="M355.31 187.4L352.561 181.186L351.406 182.762L350.334 181.136L320.958 169.061L318.484 174.682L308.862 178.073C305.854 179.134 303.194 180.887 301.139 183.163C299.083 185.439 297.7 188.161 297.123 191.068L293.535 230.761L293.631 237.189L292.614 259.134C293.535 260.571 281.397 277.171 281.04 283.083C280.682 288.995 287.198 293.885 287.198 293.885L351.887 298.385C351.887 298.385 355.159 298.826 357.867 293.343C360.231 288.541 360.039 255.63 360.039 255.63C360.039 255.63 360.19 237.983 360.822 225.933C360.876 218.678 360.204 211.433 358.815 204.291L355.31 187.4Z" fill="#EBEBEB"/>
<path d="M317.22 174.14L319.846 170.22C319.846 170.22 333.015 178.678 336.341 187.312C339.668 195.946 339.654 234.076 337.936 244.676C336.066 256.121 334.98 269.76 315.186 288.932C292.422 310.99 300.89 334.157 296.34 335.821C296.34 335.821 261.37 325.548 261.975 321.956C264.724 304.246 288.697 264.592 288.903 264.075L292.408 228.53L292.01 186.455C297.508 183.052 300.381 180.254 305.509 178.703L317.22 174.14Z" fill="#7BD28E"/>
<path opacity="0.3" d="M319.9 210.518L290.25 249.668L291.57 236.332L319.9 210.518Z" fill="black"/>
<path d="M333.289 261.655C333.336 261.332 333.405 261.012 333.495 260.697C333.646 260.003 333.866 259.108 334.127 257.974C334.636 255.604 335.323 252.163 335.804 247.89C336.038 245.747 336.231 243.39 336.258 240.857C336.26 238.158 336.099 235.46 335.777 232.777C335.213 227.08 334.608 220.828 333.962 214.261C333.495 209.219 333.028 204.467 332.588 199.98V199.891V199.803L335.681 194.32L335.901 194.736L332.519 193.942H332.409V193.866C327.955 187.904 324.161 182.963 321.55 179.522C320.175 177.808 319.172 176.472 318.416 175.577C318.044 175.123 317.742 174.795 317.55 174.569C317.357 174.342 317.22 174.253 317.233 174.241C317.247 174.228 319.117 175.942 321.852 179.283C324.588 182.623 328.423 187.564 332.918 193.488L332.739 193.375L336.121 194.156L336.519 194.245L336.327 194.572L333.261 200.08V199.904C333.701 204.391 334.169 209.206 334.636 214.185C335.255 220.765 335.846 227.017 336.395 232.727C336.697 235.428 336.835 238.142 336.808 240.857C336.808 243.378 336.533 245.773 336.272 247.928C335.841 251.32 335.198 254.687 334.347 258.012C334.045 259.197 333.784 260.104 333.591 260.709C333.528 261.033 333.426 261.35 333.289 261.655Z" fill="#263238"/>
<path d="M290.319 280.562C290.319 280.562 290.14 280.751 289.797 281.028L288.244 282.213L282.58 286.41L282.484 285.982L300.986 291.024L300.656 291.087L300.766 290.999L308.588 284.696L308.725 285.226L295.529 281.961L291.708 280.965C291.236 280.862 290.776 280.718 290.333 280.537C290.797 280.578 291.257 280.653 291.708 280.764L295.529 281.583C298.801 282.301 303.46 283.36 308.918 284.621L309.536 284.772L309.055 285.15L301.261 291.452L301.151 291.541L301 291.667H300.821L282.36 286.499L281.852 286.36L282.278 286.07L288.175 282.011C288.861 281.493 289.576 281.009 290.319 280.562Z" fill="#263238"/>
<path d="M356.355 191.736C356.273 191.736 355.846 190.955 354.843 189.732L353.001 187.564C352.186 186.631 351.499 185.611 350.953 184.526L351.53 184.589L348.382 188.371C347.557 189.367 346.76 190.312 346.018 191.219L345.839 191.421L345.592 191.308C342.76 190.047 340.3 189.051 338.581 188.27C337.615 187.912 336.693 187.46 335.832 186.921C336.825 187.167 337.792 187.496 338.719 187.904C340.492 188.585 342.98 189.568 345.839 190.741L345.427 190.829L347.764 187.98L350.953 184.199L351.31 183.783L351.53 184.262C352.572 186.096 353.781 187.846 355.145 189.493C355.704 190.161 356.115 190.923 356.355 191.736Z" fill="#263238"/>
<path d="M351.365 184.627C351.414 184.719 351.451 184.816 351.475 184.917L351.722 185.774C351.928 186.53 352.217 187.652 352.561 189.089C353.234 191.988 354.114 196.198 355.063 201.429C355.53 204.038 356.011 206.9 356.437 209.988C356.671 211.525 356.932 213.126 357.083 214.79C357.234 216.454 357.289 218.168 357.317 219.92C357.386 223.424 357.317 227.105 357.193 230.912C357.07 234.718 356.905 238.663 356.588 242.697C355.97 250.764 354.898 258.402 353.922 265.385C352.946 272.368 351.956 278.57 350.76 283.763C349.564 288.956 348.258 293.078 347.337 295.914C346.87 297.326 346.485 298.435 346.224 299.166L345.908 299.998C345.881 300.099 345.839 300.197 345.784 300.288C345.762 300.188 345.762 300.085 345.784 299.985L346.031 299.128C346.265 298.322 346.595 297.225 347.007 295.838C347.846 292.99 349.083 288.855 350.197 283.675C351.31 278.494 352.286 272.255 353.221 265.31C354.155 258.365 355.214 250.739 355.819 242.621C356.135 238.6 356.313 234.668 356.437 230.861C356.561 227.054 356.657 223.386 356.602 219.895C356.602 218.156 356.52 216.454 356.396 214.853C356.272 213.252 356.011 211.614 355.791 210.076C355.351 206.988 354.898 204.126 354.417 201.505C353.551 196.286 352.74 192.064 352.148 189.152C351.846 187.753 351.612 186.631 351.447 185.812L351.269 184.942C351.28 184.833 351.313 184.726 351.365 184.627Z" fill="#263238"/>
<path d="M257.396 317.532C257.723 319.194 257.834 320.887 257.726 322.574C257.437 324.338 254.193 330.578 254.193 330.578C254.193 330.578 252.365 330.691 252.818 326.519C253.005 324.499 253.392 322.5 253.973 320.544L257.396 317.532Z" fill="#FFBF9D"/>
<path d="M228.338 349.636C228.338 349.636 227.61 323.973 233.644 320.355C239.679 316.738 248.38 313.788 251.377 317.267C255.096 321.692 257.892 326.709 259.624 332.065C260.958 337.075 261.855 342.175 262.305 347.317L254.827 347.48C254.827 347.48 251.473 322.271 248.682 318.78C245.892 315.288 235.005 319.725 234.428 324.376C233.85 329.027 234.098 349.497 234.098 349.497L228.338 349.636Z" fill="#455A64"/>
<path d="M207.952 388.471C206.756 377.997 204.461 354.854 203.457 344.682C203.324 343.349 203.759 342.02 204.672 340.974C205.584 339.928 206.903 339.247 208.351 339.073L276.064 331.057C277.518 330.885 278.988 331.237 280.164 332.039C281.341 332.84 282.133 334.029 282.374 335.355L290.016 378.034C290.137 378.716 290.108 379.414 289.932 380.085C289.755 380.757 289.434 381.39 288.987 381.946C288.54 382.503 287.977 382.972 287.33 383.326C286.683 383.68 285.965 383.912 285.219 384.009L214.358 393.059C213.606 393.158 212.841 393.117 212.107 392.937C211.374 392.758 210.687 392.445 210.089 392.016C209.491 391.588 208.993 391.053 208.626 390.444C208.259 389.835 208.03 389.164 207.952 388.471Z" fill="#455A64"/>
<path d="M251.719 329.254L257.41 317.733L257.148 303.767L240.254 301.914L234.027 314.771C234.027 314.771 233.491 321.704 234.027 323.279C234.563 324.855 237.161 324.842 237.161 324.842C237.546 326.997 241.052 327.628 241.052 327.628C241.835 329.972 245.052 329.304 245.052 329.304C245.052 329.304 246.358 331.951 247.402 332.228C247.872 332.301 248.355 332.23 248.777 332.027C250.095 331.465 251.142 330.478 251.719 329.254Z" fill="#FFBF9D"/>
<path d="M237.383 321.363C237.548 321.363 237.616 322.132 237.548 323.065C237.479 323.998 237.273 324.742 237.094 324.729C236.915 324.716 236.86 323.947 236.929 323.027C236.998 322.107 237.218 321.351 237.383 321.363Z" fill="#7BD28E"/>
<path d="M241.507 322.763C241.584 323.607 241.519 324.457 241.314 325.284C241.299 326.117 241.156 326.945 240.888 327.742C240.436 326.084 240.656 324.333 241.507 322.813V322.763Z" fill="#7BD28E"/>
<path d="M245.905 324.93C246.07 324.993 245.782 325.926 245.507 327.086C245.232 328.245 245.053 329.191 244.874 329.191C244.612 328.467 244.612 327.684 244.874 326.96C245.19 325.75 245.754 324.867 245.905 324.93Z" fill="#7BD28E"/>
<path d="M255.54 321.313C255.114 322.876 254.496 324.39 253.698 325.825C253.081 327.328 252.279 328.762 251.307 330.098C252.323 327.011 253.745 324.048 255.54 321.275V321.313Z" fill="#7BD28E"/>
<path d="M238.248 318.931C238.248 319.006 238.096 319.132 237.739 319.17C237.278 319.221 236.812 319.114 236.433 318.868C236.051 318.626 235.781 318.262 235.677 317.847C235.595 317.531 235.677 317.342 235.746 317.33C235.815 317.317 236.117 317.985 236.791 318.414C237.464 318.842 238.206 318.779 238.248 318.931Z" fill="#7BD28E"/>
<path d="M242.605 321.464C242.605 321.54 242.413 321.641 242.041 321.666C241.551 321.665 241.072 321.529 240.667 321.275C240.254 321.024 239.94 320.657 239.773 320.229C239.65 319.901 239.691 319.687 239.773 319.674C239.856 319.662 240.227 320.33 241.011 320.809C241.794 321.288 242.591 321.313 242.605 321.464Z" fill="#7BD28E"/>
<path d="M251.98 324.111C252.062 324.111 252.2 324.565 251.595 324.918C251.242 325.075 250.858 325.165 250.465 325.183C250.073 325.2 249.681 325.144 249.313 325.018C248.57 324.792 247.928 324.35 247.485 323.758C247.155 323.317 247.114 322.976 247.182 322.951C247.838 323.591 248.628 324.101 249.506 324.451C250.116 324.649 250.776 324.675 251.403 324.527C251.829 324.426 251.897 324.111 251.98 324.111Z" fill="#7BD28E"/>
<path d="M284.917 377.53C284.917 377.53 284.917 377.416 284.807 377.177C284.697 376.937 284.67 376.547 284.56 376.093L283.653 371.946C282.883 368.291 281.797 363.123 280.45 356.656C279.776 353.43 279.075 349.9 278.278 346.106C277.879 344.203 277.481 342.237 277.068 340.22C276.958 339.716 276.862 339.199 276.752 338.695L276.587 337.938C276.545 337.721 276.435 337.52 276.271 337.359C276.118 337.189 275.92 337.06 275.696 336.982C275.471 336.905 275.229 336.882 274.992 336.917L273.247 337.132L242.675 340.774L212.104 344.379C211.559 344.401 211.022 344.499 210.509 344.669C210.301 344.779 210.125 344.934 209.998 345.121C209.871 345.308 209.797 345.521 209.781 345.741C209.781 346.711 209.932 347.808 210.001 348.816C210.166 350.871 210.317 352.862 210.468 354.791C210.761 358.648 211.032 362.224 211.279 365.518C211.76 372.034 212.145 377.328 212.42 381.047C212.544 382.836 212.626 384.248 212.695 385.269V386.366C212.71 386.491 212.71 386.618 212.695 386.744C212.68 386.618 212.68 386.491 212.695 386.366L212.571 385.282C212.461 384.261 212.338 382.849 212.159 381.059C211.829 377.353 211.362 372.059 210.784 365.543C210.496 362.266 210.193 358.686 209.877 354.829C209.712 352.9 209.547 350.909 209.368 348.867C209.3 347.821 209.176 346.837 209.135 345.69C209.159 345.375 209.267 345.071 209.449 344.803C209.632 344.535 209.882 344.312 210.179 344.153C210.472 344.004 210.795 343.913 211.128 343.888L212.008 343.787L242.593 340.132L273.123 336.527L274.869 336.325C275.384 336.266 275.906 336.384 276.332 336.656C276.758 336.928 277.06 337.336 277.178 337.8L277.343 338.581C277.439 339.098 277.535 339.602 277.645 340.106C278.044 342.136 278.443 344.102 278.814 346.005C279.57 349.787 280.271 353.341 280.903 356.581C282.154 363.009 283.171 368.24 283.886 371.896C284.216 373.673 284.477 375.072 284.656 376.068C284.738 376.521 284.793 376.874 284.848 377.164C284.887 377.283 284.91 377.406 284.917 377.53Z" fill="#263238"/>
<path d="M252.432 346.25L236.497 348.05C236.105 348.094 235.826 348.421 235.874 348.78L236.241 351.508C236.289 351.867 236.646 352.122 237.038 352.078L252.973 350.279C253.364 350.235 253.643 349.907 253.595 349.548L253.228 346.821C253.18 346.462 252.823 346.206 252.432 346.25Z" fill="#263238"/>
<path d="M313.44 216.278L272.49 253.601L261.493 306.175L236.75 303.465L245.822 251.786C247.25 243.609 250.8 235.867 256.173 229.211L286.868 191.069C288.895 188.363 291.573 186.12 294.696 184.514C297.818 182.908 301.301 181.981 304.876 181.804C309.109 181.758 313.204 183.191 316.326 185.813C322.512 191.926 321.99 200.006 321.825 202.463" fill="#7BD28E"/>
<path d="M321.783 202.413C321.929 201.393 321.989 200.365 321.962 199.337C321.946 196.375 321.292 193.445 320.037 190.716C319.115 188.737 317.806 186.93 316.175 185.384C314.095 183.696 311.577 182.528 308.862 181.993C305.712 181.376 302.44 181.532 299.377 182.447C295.928 183.408 292.767 185.086 290.139 187.35C288.731 188.559 287.468 189.902 286.373 191.358L282.799 195.77L275.225 205.135L258.523 225.782C257.066 227.61 255.527 229.412 254.125 231.366C249.796 237.437 246.889 244.265 245.588 251.42C243.884 261.151 242.111 271.222 240.296 281.533C239.004 288.957 237.726 296.255 236.475 303.364V303.704H236.846L261.589 306.402H261.919V306.112C266.043 286.385 269.754 268.537 272.916 253.525L272.833 253.664L302.525 226.362L310.649 218.799L312.752 216.845C313.219 216.391 313.439 216.152 313.439 216.152C313.439 216.152 313.178 216.354 312.697 216.782L310.539 218.799L302.291 226.198L272.297 253.386V253.474C269.122 268.474 265.424 286.247 261.176 306.024L261.561 305.772L236.818 303.049L237.134 303.427C238.385 296.305 239.664 289.007 240.97 281.596C242.77 271.272 244.53 261.201 246.234 251.47C247.094 246.721 248.672 242.106 250.922 237.756C252.008 235.65 253.253 233.616 254.647 231.668C256.022 229.74 257.547 227.887 259.005 226.097C264.874 218.811 270.441 211.891 275.651 205.4L283.198 196.022L286.758 191.598C287.832 190.168 289.062 188.842 290.428 187.64C292.995 185.417 296.085 183.765 299.459 182.812C302.443 181.889 305.642 181.715 308.724 182.308C311.403 182.812 313.892 183.95 315.941 185.611C317.556 187.114 318.86 188.873 319.79 190.804C321.064 193.501 321.755 196.399 321.824 199.337C321.824 200.333 321.824 201.102 321.824 201.619C321.824 202.135 321.783 202.413 321.783 202.413Z" fill="#263238"/>
</svg>
