<svg width="1382" height="988" viewBox="0 0 1382 988" fill="none" xmlns="http://www.w3.org/2000/svg">
<path d="M235.695 646C196.13 683.481 151.478 817.052 308.609 808.682M293.913 793.881L312 805.765L301.826 830" stroke="#9747FF" stroke-width="3.75047" stroke-linecap="round" stroke-dasharray="7.5 7.5"/>
<path d="M205.398 95.7312C207.286 148.978 301.497 219.681 330.02 187.341C349.494 165.261 319.642 121.131 299.258 146.702C258.912 161.485 290.837 257.368 346.596 239.154M346.596 239.154L333.564 227.941M346.596 239.154L332.38 253.944" stroke="#9747FF" stroke-width="3.75047" stroke-linecap="round" stroke-dasharray="7.5 7.5"/>
<path d="M761 378C742.507 425.266 685.592 524.724 633.358 482.065C602 456.455 634.254 406.596 677.408 429.164C720.562 451.732 697.52 546.672 602 538.871M602 538.871L614.823 524.724M602 538.871L621.814 555" stroke="#9747FF" stroke-width="3.75047" stroke-linecap="round" stroke-dasharray="7.5 7.5"/>
<path d="M92.1381 746.758L65.5854 756.395C64.2763 769.824 63.0109 780.908 61.7891 789.646C60.5673 798.384 59.3818 805.939 58.2327 812.309C57.0691 818.734 55.8763 824.599 54.6545 829.905C53.9022 833.521 52.4363 837.064 50.2909 840.451C48.334 843.334 45.4343 845.924 41.7818 848.051C40.6576 848.844 39.2125 849.428 37.6018 849.741C35.9911 850.054 34.2757 850.084 32.64 849.827C31.2044 849.575 29.9198 849.06 28.9488 848.347C27.9778 847.633 27.3641 846.754 27.1854 845.821C26.7431 844.412 26.6255 842.969 26.8363 841.539C27.0776 840.255 27.5011 838.988 28.1018 837.753C28.6896 836.541 29.3815 835.351 30.1745 834.187C30.9309 833.076 31.7382 831.947 32.5963 830.8C32.8145 830.455 34.1454 828.652 36.5672 825.389C38.6572 822.62 40.4787 819.774 42.0217 816.866C43.2364 814.475 44.0053 812.003 44.3127 809.5L51.2072 761.627L40.0581 765.689C36.5748 767.028 33.5308 768.776 31.0909 770.838C28.4634 772.917 26.2641 775.198 24.5454 777.626L19.5927 785.626L15.5781 787.181C16.6472 784.276 17.9999 780.779 19.5927 776.676C21.3174 772.364 23.5491 768.139 26.2691 764.037C28.5928 760.338 31.6028 756.825 35.2363 753.573C38.6197 750.382 43.0929 747.71 48.3272 745.753L136.145 713.755V730.731L106.495 741.539C104.575 757.648 103.614 773.505 103.614 789.109C103.557 791.711 104.138 794.302 105.338 796.792C105.992 798.571 107.474 800.187 109.593 801.432C110.767 801.88 112.092 802.147 113.46 802.212C114.829 802.277 116.202 802.137 117.469 801.803C120.567 801.152 123.724 799.178 126.938 795.883C128.61 794.213 129.909 792.407 130.8 790.513C131.535 788.938 132.054 787.326 132.349 785.694C132.589 784.318 132.807 782.817 133.047 781.385L137.978 779.581C137.803 789.301 134.585 798.902 128.509 807.834C126.504 810.789 124.002 813.6 121.047 816.219C118.388 818.574 115.121 820.632 111.382 822.305C107.694 823.929 104.335 824.439 101.258 823.805C96.2254 822.557 92.4 819.087 89.7818 813.396C88.0613 808.665 87.2265 803.822 87.2945 798.967C87.1054 792.68 87.3599 786.383 88.0581 780.077L92.1381 746.758Z" fill="#7BD28E"/>
<g opacity="0.2">
<path d="M92.1381 746.758L65.5854 756.395C64.2763 769.824 63.0109 780.908 61.7891 789.646C60.5673 798.384 59.3818 805.939 58.2327 812.309C57.0691 818.734 55.8763 824.599 54.6545 829.905C53.9022 833.521 52.4363 837.064 50.2909 840.451C48.334 843.334 45.4343 845.924 41.7818 848.051C40.6576 848.844 39.2125 849.428 37.6018 849.741C35.9911 850.054 34.2757 850.084 32.64 849.827C31.2044 849.575 29.9198 849.06 28.9488 848.347C27.9778 847.633 27.3641 846.754 27.1854 845.821C26.7431 844.412 26.6255 842.969 26.8363 841.539C27.0776 840.255 27.5011 838.988 28.1018 837.753C28.6896 836.541 29.3815 835.351 30.1745 834.187C30.9309 833.076 31.7382 831.947 32.5963 830.8C32.8145 830.455 34.1454 828.652 36.5672 825.389C38.6572 822.62 40.4787 819.774 42.0217 816.866C43.2364 814.475 44.0053 812.003 44.3127 809.5L51.2072 761.627L40.0581 765.689C36.5748 767.028 33.5308 768.776 31.0909 770.838C28.4634 772.917 26.2641 775.198 24.5454 777.626L19.5927 785.626L15.5781 787.181C16.6472 784.276 17.9999 780.779 19.5927 776.676C21.3174 772.364 23.5491 768.139 26.2691 764.037C28.5928 760.338 31.6028 756.825 35.2363 753.573C38.6197 750.382 43.0929 747.71 48.3272 745.753L136.145 713.755V730.731L106.495 741.539C104.575 757.648 103.614 773.505 103.614 789.109C103.557 791.711 104.138 794.302 105.338 796.792C105.992 798.571 107.474 800.187 109.593 801.432C110.767 801.88 112.092 802.147 113.46 802.212C114.829 802.277 116.202 802.137 117.469 801.803C120.567 801.152 123.724 799.178 126.938 795.883C128.61 794.213 129.909 792.407 130.8 790.513C131.535 788.938 132.054 787.326 132.349 785.694C132.589 784.318 132.807 782.817 133.047 781.385L137.978 779.581C137.803 789.301 134.585 798.902 128.509 807.834C126.504 810.789 124.002 813.6 121.047 816.219C118.388 818.574 115.121 820.632 111.382 822.305C107.694 823.929 104.335 824.439 101.258 823.805C96.2254 822.557 92.4 819.087 89.7818 813.396C88.0613 808.665 87.2265 803.822 87.2945 798.967C87.1054 792.68 87.3599 786.383 88.0581 780.077L92.1381 746.758Z" fill="white"/>
</g>
<path d="M120.589 708.014L32.7709 740.011C27.551 741.981 23.0818 744.651 19.68 747.832C16.0474 751.077 13.0305 754.58 10.6909 758.268C7.97755 762.371 5.75322 766.596 4.03638 770.907C2.42183 775.038 1.09091 778.508 0 781.413L15.5781 787.085C16.6472 784.18 18 780.683 19.5927 776.58C21.3174 772.268 23.5491 768.043 26.2691 763.941C27.6464 761.754 29.2724 759.632 31.1345 757.594C32.4 756.217 33.7309 754.84 35.2363 753.463C38.6197 750.272 43.0929 747.6 48.3273 745.643L136.145 713.645L120.589 708.014Z" fill="#7BD28E"/>
<g opacity="0.5">
<path d="M120.589 708.014L32.7709 740.011C27.551 741.981 23.0818 744.651 19.68 747.832C16.0474 751.077 13.0305 754.58 10.6909 758.268C7.97755 762.371 5.75322 766.596 4.03638 770.907C2.42183 775.038 1.09091 778.508 0 781.413L15.5781 787.085C16.6472 784.18 18 780.683 19.5927 776.58C21.3174 772.268 23.5491 768.043 26.2691 763.941C27.6464 761.754 29.2724 759.632 31.1345 757.594C32.4 756.217 33.7309 754.84 35.2363 753.463C38.6197 750.272 43.0929 747.6 48.3273 745.643L136.145 713.645L120.589 708.014Z" fill="white"/>
</g>
<g opacity="0.5">
<path d="M26.2691 763.982C27.6464 761.795 29.2724 759.674 31.1345 757.635C32.4 756.258 33.7309 754.881 35.2363 753.504C38.6197 750.313 43.0929 747.641 48.3272 745.684L136.145 713.686L120.567 708L130.647 713.686L48.1745 743.398C38.4872 746.882 24.3709 753.835 15.5781 787.127C16.6472 784.222 17.9999 780.724 19.5927 776.621C21.3174 772.309 23.5491 768.085 26.2691 763.982Z" fill="white"/>
</g>
<path d="M122.421 773.896L137.999 779.568L133.068 781.372L117.49 775.699L122.421 773.896Z" fill="#7BD28E"/>
<g opacity="0.5">
<path d="M122.421 773.896L137.999 779.568L133.068 781.372L117.49 775.699L122.421 773.896Z" fill="white"/>
</g>
<path d="M133.069 781.372L122.16 777.42L117.6 775.699C117.36 777.076 117.142 778.563 116.902 780.009C116.617 781.641 116.099 783.254 115.353 784.828C114.46 786.718 113.168 788.524 111.513 790.197C109.798 792.114 107.517 793.806 104.793 795.181C104.989 795.732 105.208 796.269 105.469 796.779C106.123 798.558 107.605 800.174 109.724 801.418C110.725 801.843 111.882 802.099 113.084 802.162C114.614 802.246 116.155 802.12 117.6 801.79C120.698 801.139 123.855 799.165 127.069 795.87C128.741 794.2 130.04 792.393 130.931 790.5C131.667 788.925 132.185 787.313 132.48 785.681C132.72 784.304 132.938 782.804 133.178 781.372" fill="#7BD28E"/>
<g opacity="0.15">
<path d="M133.069 781.372L122.16 777.42L117.6 775.699C117.36 777.076 117.142 778.563 116.902 780.009C116.617 781.641 116.099 783.254 115.353 784.828C114.46 786.718 113.168 788.524 111.513 790.197C109.798 792.114 107.517 793.806 104.793 795.181C104.989 795.732 105.208 796.269 105.469 796.779C106.123 798.558 107.605 800.174 109.724 801.418C110.725 801.843 111.882 802.099 113.084 802.162C114.614 802.246 116.155 802.12 117.6 801.79C120.698 801.139 123.855 799.165 127.069 795.87C128.741 794.2 130.04 792.393 130.931 790.5C131.667 788.925 132.185 787.313 132.48 785.681C132.72 784.304 132.938 782.804 133.178 781.372" fill="black"/>
</g>
<path d="M92.5319 817.789C91.4506 816.357 90.5673 814.869 89.8919 813.342C89.2495 811.808 88.7686 810.248 88.4519 808.674C87.825 805.435 87.4827 802.176 87.4265 798.912C87.2228 792.634 87.4701 786.337 88.1683 780.022C89.4556 769.324 91.1356 755.501 92.1828 746.73L75.1865 752.926L72.5901 774.336C71.8919 780.651 71.6446 786.948 71.8483 793.226C71.774 798.085 72.6015 802.932 74.3137 807.669C76.6701 812.809 80.0301 816.132 84.3937 817.637L99.5355 823.145C96.4264 821.827 93.9928 819.966 92.5319 817.789Z" fill="#7BD28E"/>
<path opacity="0.3" d="M92.5319 817.789C91.4506 816.357 90.5673 814.869 89.8919 813.342C89.2495 811.808 88.7686 810.248 88.4519 808.674C87.825 805.435 87.4827 802.176 87.4265 798.912C87.2228 792.634 87.4701 786.337 88.1683 780.022C89.4556 769.324 91.1356 755.501 92.1828 746.73L75.1865 752.926L72.5901 774.336C71.8919 780.651 71.6446 786.948 71.8483 793.226C71.774 798.085 72.6015 802.932 74.3137 807.669C76.6701 812.809 80.0301 816.132 84.3937 817.637L99.5355 823.145C96.4264 821.827 93.9928 819.966 92.5319 817.789Z" fill="black"/>
<path opacity="0.1" d="M75.185 752.954L74.2031 761.008L89.8032 764.987L89.9995 764.794C90.8068 758.158 91.5923 751.659 92.1814 746.758L75.185 752.954Z" fill="black"/>
<path d="M48.8072 762.536L40.0799 765.731C38.3829 766.362 36.8023 767.11 35.3672 767.961L33.8617 768.911L28.8218 803.842C28.5498 806.342 27.8176 808.814 26.6399 811.208C25.0881 814.111 23.2593 816.952 21.1635 819.716C18.7635 822.993 17.4326 824.797 17.2145 825.127C16.3636 826.284 15.5563 827.413 14.7927 828.528C13.9627 829.686 13.2343 830.872 12.6109 832.08C12.0126 833.321 11.5891 834.593 11.3454 835.88C11.1352 837.311 11.2527 838.753 11.6945 840.162C11.8433 840.874 12.2417 841.556 12.8607 842.159C13.4796 842.761 14.3036 843.269 15.2727 843.646L30.7636 849.318C29.8063 848.941 28.9941 848.434 28.3865 847.834C27.7788 847.234 27.3909 846.555 27.2508 845.849C26.8544 844.589 26.7151 843.303 26.8363 842.021C26.8363 841.87 26.8363 841.718 26.8363 841.567C27.0691 840.278 27.4928 839.006 28.1018 837.767C28.6895 836.56 29.3814 835.374 30.1745 834.214C30.8072 833.278 31.4836 832.342 32.1818 831.392C32.1818 831.185 32.4436 831.006 32.5745 830.814L36.5454 825.403C37.7672 823.751 38.7272 822.222 39.7308 820.79C39.7308 820.708 39.84 820.611 39.9054 820.529L40.6909 819.235C40.8654 818.959 41.0181 818.67 41.1927 818.395C41.4763 817.885 41.76 817.376 42 816.894C43.2119 814.502 43.9878 812.031 44.3127 809.528L51.2072 761.655L48.8072 762.536Z" fill="#7BD28E"/>
<path opacity="0.3" d="M48.8072 762.536L40.0799 765.731C38.3829 766.362 36.8023 767.11 35.3672 767.961L33.8617 768.911L28.8218 803.842C28.5498 806.342 27.8176 808.814 26.6399 811.208C25.0881 814.111 23.2593 816.952 21.1635 819.716C18.7635 822.993 17.4326 824.797 17.2145 825.127C16.3636 826.284 15.5563 827.413 14.7927 828.528C13.9627 829.686 13.2343 830.872 12.6109 832.08C12.0126 833.321 11.5891 834.593 11.3454 835.88C11.1352 837.311 11.2527 838.753 11.6945 840.162C11.8433 840.874 12.2417 841.556 12.8607 842.159C13.4796 842.761 14.3036 843.269 15.2727 843.646L30.7636 849.318C29.8063 848.941 28.9941 848.434 28.3865 847.834C27.7788 847.234 27.3909 846.555 27.2508 845.849C26.8544 844.589 26.7151 843.303 26.8363 842.021C26.8363 841.87 26.8363 841.718 26.8363 841.567C27.0691 840.278 27.4928 839.006 28.1018 837.767C28.6895 836.56 29.3814 835.374 30.1745 834.214C30.8072 833.278 31.4836 832.342 32.1818 831.392C32.1818 831.185 32.4436 831.006 32.5745 830.814L36.5454 825.403C37.7672 823.751 38.7272 822.222 39.7308 820.79C39.7308 820.708 39.84 820.611 39.9054 820.529L40.6909 819.235C40.8654 818.959 41.0181 818.67 41.1927 818.395C41.4763 817.885 41.76 817.376 42 816.894C43.2119 814.502 43.9878 812.031 44.3127 809.528L51.2072 761.655L48.8072 762.536Z" fill="black"/>
<g opacity="0.1">
<path d="M49.113 776.167L51.2948 761.724L48.8949 762.591L40.1676 765.785C38.4705 766.416 36.8899 767.164 35.4549 768.016L33.9494 768.966L33.4258 772.573L49.113 776.167Z" fill="black"/>
</g>
<path opacity="0.7" d="M1100.91 3.28678C1100.92 3.21192 1100.92 3.13679 1100.91 3.06193C1100.9 2.98525 1100.88 2.9099 1100.84 2.83709C1100.8 2.7218 1100.74 2.61192 1100.66 2.51104L1100.56 2.37614L1100.46 2.2862C1100.4 2.22264 1100.33 2.16905 1100.25 2.1288L1099.98 2.00513C1099.63 1.90091 1099.25 1.8659 1098.87 1.9031C1098.5 1.9403 1098.14 2.04861 1097.84 2.21874L938.231 74.9128C936.487 75.711 935.055 77.6672 935.055 80.4666V188.271C935.053 188.574 935.152 188.872 935.342 189.136C935.533 189.399 935.807 189.617 936.138 189.769C936.469 189.921 936.845 190 937.228 190C937.61 189.999 937.986 189.919 938.317 189.766L1097.75 117.005C1098.68 116.529 1099.45 115.885 1100 115.127C1100.55 114.369 1100.87 113.517 1100.93 112.643V3.59033C1101 3.50039 1100.91 3.38796 1100.91 3.28678Z" fill="#455A64"/>
<path d="M1099.89 1.93726C1099.54 1.83304 1099.16 1.79803 1098.79 1.83523C1098.42 1.87243 1098.06 1.98074 1097.75 2.15087L938.232 74.9124C937.304 75.4003 936.534 76.0546 935.985 76.8222C935.436 77.5898 935.122 78.4491 935.069 79.3307V84.1987L931.027 82.3212V77.4982C931.084 76.6281 931.4 75.7811 931.95 75.0267C932.5 74.2724 933.267 73.6321 934.19 73.1585L1093.72 0.397037C1094.05 0.205278 1094.44 0.0899681 1094.85 0.0641418C1095.25 0.0383155 1095.66 0.103005 1096.02 0.250888C1096.57 0.464496 1099.21 1.6562 1099.89 1.93726Z" fill="#BA68C8"/>
<path d="M1101 3.59071C1101 2.00551 1099.58 1.3422 1097.82 2.1629L938.233 74.9244C937.301 75.4059 936.527 76.0571 935.977 76.8238C935.427 77.5904 935.116 78.4502 935.07 79.3315V84.1995L1101 8.50368V3.59071Z" fill="#BA68C8"/>
<path opacity="0.3" d="M1097.75 2.15132L938.233 74.9128C937.303 75.3781 936.533 76.0194 935.993 76.7791L931.965 74.9353C932.496 74.1866 933.257 73.5563 934.177 73.1028L1093.71 0.34127C1094.04 0.150112 1094.43 0.0342816 1094.83 0.00651346C1095.24 -0.0212547 1095.64 0.0401151 1096.01 0.183876C1096.58 0.464939 1099.21 1.64541 1099.88 1.93771C1099.53 1.8335 1099.15 1.79849 1098.78 1.83571C1098.41 1.87293 1098.06 1.98127 1097.75 2.15132Z" fill="white"/>
<path opacity="0.15" d="M931 82.2769V77.4426C931.048 76.5556 931.38 75.6928 931.964 74.9355L936.006 76.7793C935.415 77.5496 935.092 78.4301 935.07 79.3314V84.1994L931 82.2769Z" fill="black"/>
<path d="M1088.44 8.75045C1088.05 8.9907 1087.74 9.29856 1087.53 9.64974C1087.32 10.0009 1087.22 10.3858 1087.23 10.7741C1087.23 11.5836 1087.77 11.9883 1088.44 11.6847C1088.83 11.4429 1089.15 11.1302 1089.36 10.7725C1089.57 10.4148 1089.67 10.0224 1089.66 9.62737C1089.66 8.85164 1089.1 8.50312 1088.44 8.75045Z" fill="white"/>
<path d="M1092.76 6.76048C1092.38 7.00415 1092.08 7.31295 1091.87 7.66354C1091.67 8.01412 1091.56 8.39731 1091.57 8.78413C1091.57 9.59359 1092.11 10.0096 1092.76 9.70603C1093.14 9.46405 1093.45 9.15586 1093.66 8.80508C1093.87 8.4543 1093.97 8.07025 1093.97 7.68237C1093.91 6.87291 1093.43 6.45693 1092.76 6.76048Z" fill="white"/>
<path d="M1097.1 4.77024C1096.72 5.01108 1096.41 5.31905 1096.2 5.67009C1095.99 6.02114 1095.89 6.40575 1095.9 6.7939C1095.9 7.60336 1096.43 8.01934 1097.1 7.71579C1097.48 7.47496 1097.79 7.16699 1098 6.81594C1098.21 6.4649 1098.32 6.08028 1098.31 5.69214C1098.31 4.88268 1097.77 4.4667 1097.1 4.77024Z" fill="white"/>
<path opacity="0.9" d="M936.19 189.789L936.034 189.722L932.687 188.193C932.242 187.987 931.862 187.704 931.575 187.365C931.287 187.026 931.1 186.64 931.027 186.236C931.027 186.113 931.027 186 931.027 185.877V82.2656L935.083 84.1431V188.271C935.087 188.483 935.14 188.693 935.239 188.89C935.418 189.266 935.753 189.584 936.19 189.789Z" fill="#263238"/>
<path d="M1101 112.642V100.141L935.07 176.016V188.271C935.068 188.574 935.168 188.872 935.358 189.135C935.548 189.398 935.823 189.617 936.154 189.769C936.485 189.92 936.861 190 937.244 190C937.626 189.999 938.002 189.919 938.332 189.766L1097.77 117.004C1098.7 116.534 1099.49 115.892 1100.05 115.134C1100.61 114.375 1100.94 113.521 1101 112.642Z" fill="#BA68C8"/>
<path d="M955.535 176.724V171.89C955.535 171.553 955.819 171.182 956.088 171.182H961.449C961.804 171.182 961.804 171.789 961.449 172.115L956.088 176.983C955.819 177.14 955.535 177.073 955.535 176.724Z" fill="white"/>
<path d="M968.043 171.003V166.179C968.043 165.831 968.312 165.46 968.582 165.46H973.957C974.311 165.46 974.311 166.067 973.957 166.393L968.582 171.261C968.312 171.52 968.043 171.351 968.043 171.003Z" fill="white"/>
<path d="M974.622 168.484C974.395 168.585 974.211 168.484 974.211 168.236V163.278C974.214 163.157 974.252 163.038 974.324 162.93C974.395 162.823 974.497 162.73 974.622 162.66C974.849 162.559 975.033 162.66 975.033 162.907V167.865C975.031 167.987 974.992 168.106 974.921 168.213C974.849 168.321 974.747 168.413 974.622 168.484Z" fill="white"/>
<path d="M949.25 179.613V174.79C949.25 174.441 948.966 174.329 948.697 174.565L943.336 179.444C942.982 179.759 942.982 180.378 943.336 180.378H948.697C948.938 180.333 949.25 179.962 949.25 179.613Z" fill="white"/>
<path d="M942.627 183.133C942.752 183.06 942.854 182.966 942.925 182.857C942.997 182.747 943.035 182.627 943.038 182.504V177.546C943.038 177.31 942.854 177.197 942.627 177.31C942.502 177.38 942.4 177.472 942.328 177.58C942.257 177.687 942.218 177.806 942.215 177.928V182.886C942.159 183.122 942.4 183.234 942.627 183.133Z" fill="white"/>
<path d="M1071.69 123.919C1071.61 123.935 1071.53 123.935 1071.46 123.919C1071.39 123.888 1071.32 123.841 1071.28 123.783C1071.24 123.725 1071.22 123.66 1071.22 123.593V118.084C1071.22 118.017 1071.24 117.952 1071.28 117.894C1071.32 117.836 1071.39 117.789 1071.46 117.758L1080.68 113.542C1080.75 113.511 1080.83 113.496 1080.91 113.497C1081 113.498 1081.08 113.516 1081.15 113.549C1081.22 113.581 1081.28 113.628 1081.32 113.684C1081.36 113.74 1081.39 113.803 1081.39 113.868V119.377C1081.39 119.444 1081.37 119.51 1081.33 119.567C1081.28 119.625 1081.22 119.672 1081.15 119.703L1071.93 123.919C1071.85 123.935 1071.77 123.935 1071.69 123.919ZM1072.15 118.298V122.952L1080.44 119.163V114.509L1072.15 118.298Z" fill="white"/>
<path d="M1087.91 113.059C1087.79 113.059 1087.67 113.02 1087.58 112.95C1087.49 112.881 1087.44 112.786 1087.44 112.688V110.439C1087.44 110.374 1087.46 110.31 1087.51 110.255C1087.55 110.199 1087.61 110.154 1087.68 110.124L1089.91 109.101C1089.96 109.075 1090.02 109.058 1090.08 109.051C1090.15 109.044 1090.21 109.046 1090.27 109.059C1090.33 109.071 1090.39 109.094 1090.44 109.124C1090.49 109.155 1090.53 109.193 1090.56 109.236C1090.62 109.322 1090.63 109.422 1090.6 109.516C1090.57 109.61 1090.5 109.691 1090.39 109.742L1088.39 110.664V112.654C1088.4 112.706 1088.39 112.758 1088.36 112.807C1088.34 112.856 1088.31 112.901 1088.26 112.939C1088.22 112.977 1088.16 113.007 1088.1 113.028C1088.04 113.048 1087.98 113.059 1087.91 113.059Z" fill="white"/>
<path d="M1093.99 110.225C1093.93 110.225 1093.87 110.215 1093.81 110.196C1093.76 110.178 1093.7 110.151 1093.66 110.116C1093.62 110.082 1093.58 110.041 1093.56 109.996C1093.54 109.951 1093.52 109.902 1093.52 109.854V108.291L1091.99 108.988C1091.88 109.037 1091.75 109.05 1091.63 109.024C1091.51 108.997 1091.41 108.934 1091.35 108.848C1091.29 108.761 1091.27 108.659 1091.3 108.563C1091.34 108.467 1091.42 108.385 1091.52 108.336L1093.75 107.313C1093.82 107.279 1093.91 107.262 1093.99 107.262C1094.08 107.262 1094.16 107.279 1094.23 107.313C1094.3 107.347 1094.36 107.396 1094.4 107.453C1094.44 107.51 1094.46 107.574 1094.46 107.639V109.887C1094.45 109.98 1094.4 110.066 1094.31 110.128C1094.22 110.191 1094.11 110.225 1093.99 110.225Z" fill="white"/>
<path d="M1091.77 115.419C1091.66 115.422 1091.56 115.397 1091.47 115.347C1091.39 115.298 1091.33 115.227 1091.3 115.146C1091.27 115.065 1091.28 114.979 1091.32 114.902C1091.36 114.825 1091.43 114.762 1091.53 114.722L1093.53 113.811V111.821C1093.53 111.723 1093.58 111.628 1093.66 111.559C1093.75 111.489 1093.87 111.45 1093.99 111.45C1094.12 111.45 1094.24 111.489 1094.33 111.559C1094.41 111.628 1094.46 111.723 1094.46 111.821V114.07C1094.46 114.135 1094.44 114.199 1094.4 114.256C1094.36 114.313 1094.31 114.361 1094.24 114.396L1091.99 115.419C1091.92 115.434 1091.84 115.434 1091.77 115.419Z" fill="white"/>
<path d="M1087.91 117.184C1087.84 117.199 1087.76 117.199 1087.68 117.184C1087.61 117.156 1087.55 117.111 1087.5 117.055C1087.46 116.999 1087.44 116.934 1087.44 116.869V114.621C1087.46 114.532 1087.52 114.451 1087.61 114.393C1087.69 114.335 1087.8 114.304 1087.92 114.304C1088.03 114.304 1088.14 114.335 1088.23 114.393C1088.31 114.451 1088.37 114.532 1088.39 114.621V116.183L1089.91 115.486C1090.02 115.437 1090.15 115.423 1090.27 115.448C1090.39 115.474 1090.5 115.536 1090.56 115.621C1090.62 115.709 1090.64 115.81 1090.6 115.906C1090.57 116.002 1090.5 116.085 1090.39 116.138L1088.15 117.15C1088.08 117.178 1087.99 117.189 1087.91 117.184Z" fill="white"/>
<path d="M1058.77 127.347L1059.66 127.032C1059.68 127.02 1059.7 127.014 1059.72 127.014C1059.75 127.014 1059.77 127.02 1059.79 127.032C1059.84 127.197 1059.91 127.356 1060.02 127.504C1060.02 127.504 1060.02 127.639 1060.02 127.729L1059.5 128.629C1059.5 128.719 1059.5 128.809 1059.5 128.831L1060.23 129.269C1060.23 129.269 1060.34 129.269 1060.4 129.157L1061.04 128.325C1061.04 128.246 1061.18 128.179 1061.22 128.19C1061.4 128.212 1061.59 128.212 1061.77 128.19C1061.77 128.19 1061.87 128.19 1061.87 128.28L1061.97 129.18C1061.97 129.191 1061.97 129.203 1061.98 129.214C1061.98 129.224 1061.99 129.233 1062 129.24C1062.02 129.246 1062.03 129.249 1062.05 129.248C1062.06 129.247 1062.07 129.243 1062.09 129.236L1063.08 128.786C1063.11 128.764 1063.14 128.736 1063.16 128.705C1063.18 128.674 1063.19 128.641 1063.19 128.606L1063.29 127.639C1063.3 127.559 1063.35 127.483 1063.42 127.426C1063.59 127.297 1063.75 127.153 1063.89 126.998C1063.96 126.931 1064.04 126.886 1064.09 126.897L1064.81 127.19C1064.81 127.19 1064.92 127.19 1064.99 127.055L1065.62 126.088C1065.62 125.998 1065.7 125.908 1065.62 125.885L1065.04 125.38C1065.02 125.348 1065.01 125.313 1065.01 125.278C1065.01 125.244 1065.02 125.209 1065.04 125.177C1065.11 124.981 1065.17 124.782 1065.22 124.581C1065.24 124.502 1065.3 124.431 1065.38 124.379L1066.26 123.873C1066.29 123.85 1066.31 123.822 1066.33 123.791C1066.35 123.76 1066.35 123.727 1066.35 123.693V122.659C1066.35 122.591 1066.35 122.558 1066.26 122.58L1065.36 122.884C1065.35 122.891 1065.34 122.897 1065.33 122.901C1065.32 122.905 1065.31 122.907 1065.3 122.907C1065.29 122.907 1065.27 122.905 1065.26 122.901C1065.25 122.897 1065.24 122.891 1065.23 122.884C1065.19 122.719 1065.11 122.56 1065.01 122.412C1065.01 122.412 1065.01 122.277 1065.01 122.175L1065.52 121.276C1065.52 121.186 1065.59 121.096 1065.52 121.074L1064.79 120.646C1064.79 120.646 1064.68 120.646 1064.62 120.759L1063.99 121.58C1063.99 121.67 1063.84 121.726 1063.8 121.726C1063.62 121.697 1063.43 121.697 1063.25 121.726C1063.22 121.723 1063.2 121.712 1063.18 121.696C1063.16 121.679 1063.15 121.658 1063.15 121.636L1063.05 120.736C1063.05 120.725 1063.05 120.713 1063.05 120.702C1063.04 120.692 1063.03 120.683 1063.02 120.676C1063.01 120.67 1062.99 120.667 1062.98 120.668C1062.96 120.669 1062.95 120.673 1062.94 120.68L1061.94 121.13C1061.91 121.149 1061.88 121.174 1061.86 121.204C1061.84 121.233 1061.83 121.265 1061.83 121.299L1061.73 122.277C1061.72 122.357 1061.68 122.433 1061.6 122.49C1061.43 122.621 1061.27 122.76 1061.12 122.906C1061.12 122.974 1060.98 123.03 1060.94 123.007L1060.21 122.726C1060.21 122.726 1060.1 122.726 1060.03 122.861L1059.41 123.817C1059.41 123.907 1059.32 124.008 1059.41 124.03L1059.99 124.536C1060 124.568 1060.01 124.603 1060.01 124.638C1060.01 124.672 1060 124.707 1059.99 124.739C1059.91 124.934 1059.85 125.133 1059.8 125.335C1059.78 125.414 1059.73 125.485 1059.65 125.537L1058.77 126.043C1058.74 126.064 1058.71 126.09 1058.7 126.119C1058.68 126.148 1058.67 126.18 1058.67 126.212V127.257C1058.67 127.325 1058.71 127.358 1058.77 127.347ZM1060.85 125.751C1060.86 125.257 1061.01 124.771 1061.3 124.333C1061.59 123.896 1062 123.518 1062.51 123.232C1063.43 122.805 1064.17 123.232 1064.17 124.222C1064.16 124.715 1064.01 125.201 1063.72 125.639C1063.43 126.077 1063.02 126.454 1062.51 126.74C1061.59 127.167 1060.85 126.717 1060.85 125.751Z" fill="white"/>
<path d="M1003.34 127.899C1000.03 127.928 996.763 127.257 993.884 125.954C987.105 122.851 983.375 116.443 983.375 107.899C983.375 90.8886 998.507 70.1462 1017.1 61.6581C1026.45 57.386 1035.32 56.7451 1042.1 59.8481C1048.88 62.951 1052.61 69.3705 1052.61 77.9148C1052.61 94.9134 1037.48 115.656 1018.89 124.155C1014.2 126.454 1008.85 127.745 1003.34 127.899ZM1018.94 64.1202C1001.34 72.1586 987.02 91.7993 987.02 107.899C987.02 115.375 990.111 120.917 995.728 123.492C1001.34 126.066 1008.96 125.426 1017.16 121.682C1034.76 113.643 1049.08 94.014 1049.08 77.9148C1049.08 70.4273 1045.99 64.8847 1040.37 62.3102C1034.76 59.7356 1027.14 60.3765 1018.94 64.1202Z" fill="white"/>
<path d="M1002.52 84.6486V115.093C1002.52 116.701 1003.6 117.016 1004.92 115.802L1039.73 83.9403C1041.05 82.7262 1040.48 81.748 1038.47 81.748H1006.18C1005.21 81.748 1004.28 82.0537 1003.59 82.5976C1002.91 83.1416 1002.52 83.8793 1002.52 84.6486Z" fill="white"/>
<path d="M1280.02 903.926C1281.44 904.161 1282.79 904.657 1284 905.382C1285.2 906.108 1286.24 907.049 1287.04 908.148C1288.62 910.368 1289.63 912.89 1289.99 915.522C1290.83 920.564 1289.26 926.274 1287.16 931.001C1281.59 928.48 1278.69 922.505 1277.44 919.367C1275.45 914.4 1275.13 904.329 1280.02 903.926Z" fill="#EBEBEB"/>
<path d="M1294.79 937.719C1294.07 936.396 1293.74 934.922 1293.84 933.446C1293.94 931.97 1294.46 930.544 1295.35 929.312C1296.27 928.096 1297.44 927.06 1298.8 926.263C1300.16 925.467 1301.68 924.926 1303.27 924.673C1303.98 924.485 1304.74 924.443 1305.47 924.55C1306.21 924.656 1306.91 924.909 1307.53 925.291C1308.04 925.728 1308.41 926.283 1308.6 926.898C1308.8 927.512 1308.81 928.163 1308.63 928.782C1308.27 930.02 1307.55 931.147 1306.55 932.047C1303.32 935.261 1299.56 937.832 1294.79 937.719Z" fill="#EBEBEB"/>
<path d="M1293.48 954.182C1293.4 953.838 1293.35 953.487 1293.34 953.135C1293.28 952.392 1293.18 951.434 1293.07 950.274C1292.68 947.119 1292.85 943.927 1293.56 940.821C1294.33 937.703 1296 934.831 1298.39 932.501C1299.12 931.808 1299.94 931.199 1300.84 930.686C1301.07 930.543 1301.32 930.412 1301.58 930.296C1301.74 930.22 1301.84 930.182 1301.85 930.195C1299.82 931.406 1298.08 932.978 1296.72 934.818C1295.36 936.658 1294.42 938.729 1293.95 940.909C1293.25 943.983 1293.05 947.134 1293.36 950.262C1293.43 951.522 1293.48 952.442 1293.5 953.123C1293.52 953.475 1293.52 953.83 1293.48 954.182Z" fill="#E0E0E0"/>
<path d="M1281 911.488C1281.08 911.624 1281.14 911.768 1281.18 911.917L1281.65 913.177C1282.03 914.261 1282.57 915.824 1283.23 917.778C1284.52 921.66 1286.24 927.055 1288 933.055C1289.76 939.055 1291.19 944.525 1292.12 948.496C1292.62 950.475 1293 952.088 1293.26 953.197C1293.37 953.727 1293.47 954.155 1293.54 954.458C1293.58 954.607 1293.6 954.759 1293.61 954.912C1293.54 954.768 1293.49 954.62 1293.45 954.47C1293.37 954.143 1293.25 953.727 1293.11 953.21C1292.79 952.063 1292.37 950.475 1291.85 948.534C1290.79 944.588 1289.3 939.143 1287.54 933.143C1285.78 927.143 1284.12 921.799 1282.9 917.841L1281.44 913.203C1281.27 912.686 1281.15 912.27 1281.05 911.942C1281.02 911.793 1281 911.641 1281 911.488Z" fill="#E0E0E0"/>
<path d="M1287.89 942.647C1286.46 939.814 1284.32 937.332 1281.65 935.408C1278.97 933.483 1275.83 932.171 1272.49 931.58C1270.8 931.29 1268.71 931.353 1267.78 932.689C1266.84 934.026 1267.67 935.79 1268.7 937.076C1270.9 939.71 1273.9 941.686 1277.33 942.754C1280.75 943.822 1284.45 943.934 1287.94 943.076" fill="#EBEBEB"/>
<path d="M1274.61 936.043C1274.97 936.059 1275.32 936.11 1275.67 936.194C1276.09 936.254 1276.5 936.338 1276.91 936.446C1277.37 936.572 1277.94 936.686 1278.51 936.887C1279.09 937.089 1279.75 937.291 1280.41 937.581C1281.12 937.871 1281.82 938.199 1282.49 938.564C1284.03 939.393 1285.47 940.383 1286.78 941.513C1288.06 942.647 1289.2 943.916 1290.16 945.295C1290.57 945.899 1290.95 946.526 1291.28 947.173C1291.59 947.728 1291.86 948.301 1292.08 948.887C1292.28 949.37 1292.46 949.862 1292.6 950.362C1292.73 950.728 1292.83 951.103 1292.89 951.484C1292.99 951.805 1293.04 952.135 1293.06 952.467C1292.97 952.467 1292.73 951.08 1291.82 948.988C1291.58 948.413 1291.3 947.853 1290.98 947.312C1290.64 946.677 1290.26 946.063 1289.84 945.471C1288.88 944.101 1287.76 942.833 1286.5 941.69C1285.21 940.587 1283.81 939.607 1282.31 938.766C1281.59 938.4 1280.93 938.047 1280.26 937.77C1279.59 937.493 1278.98 937.266 1278.42 937.051C1276.11 936.345 1274.58 936.119 1274.61 936.043Z" fill="#E0E0E0"/>
<path d="M1375.44 857.78C1372.24 854.938 1369.21 851.942 1366.36 848.805C1363.34 845.808 1360.5 842.669 1357.83 839.402C1364.05 845.237 1369.93 851.372 1375.44 857.78Z" fill="#E0E0E0"/>
<path d="M1380.98 857.679C1378.96 854.42 1377.15 851.053 1375.57 847.595C1373.77 844.217 1372.19 840.744 1370.83 837.196C1372.84 840.458 1374.64 843.825 1376.22 847.28C1378.02 850.659 1379.61 854.131 1380.98 857.679Z" fill="#E0E0E0"/>
<path d="M1138.68 968.563C1137.71 967.867 1136.82 967.086 1136.02 966.231C1134.26 964.58 1132.15 962.601 1129.85 960.408L1123.66 954.584C1122.76 953.811 1121.94 952.968 1121.2 952.063C1122.22 952.699 1123.16 953.43 1124.02 954.244C1125.68 955.656 1127.93 957.66 1130.35 959.941C1132.77 962.223 1134.89 964.34 1136.39 965.903C1137.25 966.719 1138.02 967.61 1138.68 968.563Z" fill="#E0E0E0"/>
<path d="M1147.87 968.979C1145.23 965.739 1142.78 962.373 1140.53 958.896C1138.07 955.53 1135.82 952.047 1133.78 948.459C1136.42 951.7 1138.87 955.066 1141.13 958.543C1143.58 961.907 1145.83 965.391 1147.87 968.979Z" fill="#E0E0E0"/>
<path d="M1157.86 947.678C1157.62 948.772 1157.3 949.85 1156.9 950.905C1155.29 956.053 1154.45 961.38 1154.42 966.736C1154.49 967.85 1154.47 968.966 1154.36 970.076C1154.06 968.984 1153.91 967.862 1153.92 966.736C1153.66 961.316 1154.51 955.901 1156.42 950.766C1156.75 949.683 1157.23 948.644 1157.86 947.678Z" fill="#E0E0E0"/>
<path d="M1386.13 555.809C1411.59 546.38 1423.89 519.81 1413.61 496.463C1403.33 473.115 1374.35 461.831 1348.89 471.26C1323.43 480.688 1311.12 507.258 1321.41 530.606C1331.69 553.953 1360.66 565.237 1386.13 555.809Z" fill="#E0E0E0"/>
<path d="M1386.13 550.78C1411.6 541.352 1423.9 514.782 1413.62 491.434C1403.34 468.087 1374.36 456.803 1348.9 466.231C1323.44 475.66 1311.13 502.23 1321.41 525.577C1331.7 548.925 1360.67 560.209 1386.13 550.78Z" fill="#EBEBEB"/>
<path d="M1367.52 539.082C1385.91 539.082 1400.82 525.408 1400.82 508.54C1400.82 491.673 1385.91 477.999 1367.52 477.999C1349.12 477.999 1334.21 491.673 1334.21 508.54C1334.21 525.408 1349.12 539.082 1367.52 539.082Z" fill="white"/>
<path d="M1379.65 518.498C1385.66 512.351 1385.1 502.9 1378.39 497.388C1371.69 491.876 1361.38 492.391 1355.37 498.539C1349.36 504.686 1349.92 514.137 1356.63 519.649C1363.33 525.16 1373.64 524.645 1379.65 518.498Z" fill="#EBEBEB"/>
<path d="M1418.71 457.505L1401.28 473.702L1373.61 499.415C1371.48 501.382 1369.36 503.361 1367.24 505.327C1365.13 507.293 1368.37 510.091 1370.39 508.213L1387.84 492.004L1415.51 466.303C1417.62 464.319 1419.75 462.349 1421.87 460.391C1423.88 458.513 1420.73 455.626 1418.71 457.505Z" fill="#E0E0E0"/>
<path d="M1235.83 466.542C1236.65 461.008 1228.13 456.458 1221.73 455.966C1218.66 455.752 1215.48 456.181 1212.6 455.248C1206.32 453.244 1203.81 445.819 1197.7 443.45C1193.12 441.673 1187.86 443.248 1183.42 445.303C1178.98 447.357 1174.59 449.929 1169.67 450.219C1165.35 450.471 1160.67 448.958 1156.9 450.937C1154.15 452.374 1152.61 455.336 1150.03 457.088C1147.44 458.84 1144.18 459.168 1141.04 459.332C1137.89 459.496 1134.64 459.508 1131.77 460.718C1128.9 461.928 1126.55 464.689 1127.14 467.525L1235.83 466.542Z" fill="#EBEBEB"/>
<path d="M931.931 496.794C932.714 491.563 924.687 487.277 918.638 486.823C915.765 486.609 912.769 487.013 910.047 486.143C904.136 484.252 901.799 477.319 895.998 475.025C891.696 473.362 886.733 474.836 882.555 476.765C878.376 478.693 874.307 481.126 869.565 481.403C865.441 481.643 861.097 480.256 857.537 482.071C854.897 483.433 853.509 486.231 851.062 487.882C848.615 489.533 845.564 489.836 842.595 489.987C839.626 490.138 836.574 490.164 833.866 491.248C831.158 492.332 828.945 495.029 829.495 497.664L931.931 496.794Z" fill="#EBEBEB"/>
<path d="M1047.96 430.758C1048.58 426.648 1042.26 423.283 1037.51 422.93C1035.24 422.754 1032.89 423.081 1030.75 422.388C1026.1 420.901 1024.25 415.405 1019.75 413.653C1016.37 412.392 1012.47 413.502 1009.18 415.027C1005.9 416.552 1002.65 418.443 998.982 418.657C995.779 418.846 992.315 417.762 989.525 419.199C987.436 420.258 986.35 422.464 984.425 423.762C982.428 424.89 980.117 425.463 977.772 425.413C975.432 425.359 973.101 425.706 970.899 426.434C968.782 427.329 967.023 429.384 967.462 431.476L1047.96 430.758Z" fill="#F5F5F5"/>
<path d="M943.325 581.598C943.944 577.501 937.621 574.123 932.878 573.77C930.61 573.606 928.26 573.922 926.115 573.241C921.469 571.754 919.613 566.245 915.118 564.493C911.737 563.233 907.833 564.355 904.547 565.867C901.262 567.38 898.004 569.296 894.334 569.51C891.145 569.699 887.681 568.602 884.89 570.039C882.801 571.098 881.715 573.304 879.791 574.602C877.778 575.725 875.45 576.281 873.096 576.203C870.755 576.147 868.423 576.498 866.223 577.237C864.106 578.119 862.347 580.186 862.787 582.279L943.325 581.598Z" fill="#F5F5F5"/>
<path d="M1347.97 416.652C1348.59 412.543 1342.27 409.165 1337.52 408.825C1335.25 408.648 1332.9 408.964 1330.76 408.283C1326.11 406.796 1324.26 401.3 1319.76 399.548C1316.38 398.287 1312.48 399.397 1309.19 400.909C1305.91 402.422 1302.66 404.338 1298.99 404.552C1295.79 404.741 1292.33 403.657 1289.54 405.081C1287.45 406.153 1286.36 408.346 1284.44 409.644C1282.41 410.792 1280.06 411.371 1277.69 411.308C1275.35 411.254 1273.02 411.6 1270.81 412.329C1268.7 413.224 1266.94 415.279 1267.38 417.371L1347.97 416.652Z" fill="#F5F5F5"/>
<path d="M1266.69 536.171C1267.31 532.061 1260.99 528.696 1256.24 528.343C1253.98 528.179 1251.62 528.494 1249.48 527.801C1244.83 526.326 1242.98 520.818 1238.48 519.066C1235.09 517.806 1231.18 518.915 1227.9 520.44C1224.61 521.965 1221.37 523.856 1217.7 524.07C1214.5 524.259 1211.03 523.175 1208.24 524.612C1206.17 525.671 1205.07 527.877 1203.16 529.175C1201.16 530.299 1198.85 530.873 1196.5 530.826C1194.16 530.774 1191.83 531.12 1189.63 531.847C1187.51 532.742 1185.75 534.797 1186.19 536.889L1266.69 536.171Z" fill="#F5F5F5"/>
<path d="M967.367 646.702L1030.53 586.829L1048.24 592.325L1110.16 687.617L1146.8 704.797L1178.14 788.354L1081.94 783.791L967.367 646.702Z" fill="#E0E0E0"/>
<path d="M1465.86 754.887C1465.93 755.051 1316.73 807.386 1132.65 871.746C948.579 936.105 799.227 988.175 799.145 987.999C799.062 987.823 948.249 935.513 1132.39 871.153C1316.54 806.793 1465.79 754.711 1465.86 754.887Z" fill="#263238"/>
<path d="M1341.97 449.135C1338.99 449.725 1335.95 449.992 1332.91 449.929C1328.46 449.901 1324.19 448.35 1320.93 445.58C1317.39 442.353 1315.56 437.412 1311.67 434.614C1308.19 432.093 1302.8 432.219 1299.05 434.299V456.987C1300.95 455.626 1304.47 452.866 1309.84 455.286C1311.96 456.244 1313.87 457.29 1315.92 458.412C1321.66 461.576 1327.57 461.323 1333.62 458.84C1337.18 457.225 1340.32 454.93 1342.83 452.109C1344.59 450.345 1343.2 448.895 1341.97 449.135Z" fill="#7BD28E"/>
<path d="M1299.05 429.824C1299.24 429.824 1299.41 441.168 1299.41 455.097C1299.41 469.025 1299.24 480.306 1299.05 480.306C1298.86 480.306 1298.69 468.962 1298.69 455.097C1298.69 441.231 1298.84 429.824 1299.05 429.824Z" fill="#263238"/>
<path d="M1443.53 620.824L1408.95 606.946L1314.35 482.336L1288.96 473.916L1185.81 577.716L1157.16 592.085L1049.54 694.738L1021.76 718.196L1170.18 857.78L1467 754.069V665.584L1443.53 620.824Z" fill="#EBEBEB"/>
<path d="M1314.35 482.336L1288.96 473.916L1235.97 527.234L1290.77 486.407L1306.16 506.436C1306.71 506.272 1312.59 497.802 1312.59 497.802C1312.59 497.802 1340.08 516.306 1339.75 515.802C1339.42 515.297 1314.35 482.336 1314.35 482.336Z" fill="white"/>
<path d="M1050.02 695.57L1172.34 608.257L1222.11 597.707L1259.9 503.146L1185.81 577.716L1157.16 592.085L1050.02 695.57Z" fill="#E0E0E0"/>
<path d="M1050.02 695.57L1050.5 695.078L1051.96 693.641L1057.68 688.057L1079.41 666.957L1156.94 591.896L1185.59 577.463H1185.51L1268.09 494.272C1275.02 487.289 1281.87 480.394 1288.64 473.588L1288.79 473.424L1289.03 473.499L1314.42 481.932H1314.51L1314.58 482.008L1409.1 606.681L1408.99 606.605L1443.55 620.471H1443.62V620.534L1459.58 651.138C1461.39 654.667 1462.79 657.377 1463.7 659.218C1464.15 660.125 1464.51 660.818 1464.76 661.285L1465.1 662.003C1465.1 662.003 1464.95 661.776 1464.7 661.31L1463.6 659.255L1459.33 651.214L1443.22 620.685L1443.31 620.773L1408.71 606.908H1408.65C1383.9 574.274 1350.91 531.04 1313.96 482.361L1314.13 482.474L1288.74 474.054L1289.12 473.966L1268.67 494.814L1186.04 577.917L1157.31 592.337L1157.39 592.274L1079.74 667.171L1057.89 688.171L1052.1 693.691L1050.61 695.103L1050.02 695.57Z" fill="#263238"/>
<path d="M980.457 597.694C976.787 598.421 973.036 598.755 969.282 598.69C963.813 598.642 958.559 596.728 954.546 593.32C950.175 589.35 947.934 583.237 943.137 579.821C938.848 576.72 932.222 576.884 927.59 579.43V607.425C929.94 605.736 934.27 602.383 940.882 605.333C943.494 606.505 945.858 607.791 948.374 609.114C955.44 613.009 962.725 612.694 970.162 609.643C972.911 608.509 976.773 606.24 981.516 601.35C983.674 599.182 981.983 597.429 980.457 597.694Z" fill="#7BD28E"/>
<path d="M927.588 573.922C927.794 573.922 927.959 587.85 927.959 605.043C927.959 622.236 927.794 636.151 927.588 636.151C927.382 636.151 927.23 622.223 927.23 605.043C927.23 587.863 927.395 573.922 927.588 573.922Z" fill="#263238"/>
<path d="M1076.68 752.568L1048.05 737.14L944.881 625.739L919.492 634.777L849.043 774.954L814.471 789.84L797 838.444L799.516 986.865L896.302 953.689L1171.72 857.238L1076.68 752.568Z" fill="#EBEBEB"/>
<path d="M849.043 774.954L862.789 767.379L876.755 742.018L887.931 749.757L922.145 644.331L946.159 626.949L944.881 625.739L919.492 634.777L849.043 774.954Z" fill="#E0E0E0"/>
<path d="M919.492 634.777L944.881 625.739L997.872 682.965C997.872 682.965 954.201 647.596 953.637 647.596C953.637 647.596 949.335 660.856 948.785 660.68C948.235 660.503 922.667 637.109 922.667 637.109L912.289 649.171L919.492 634.777Z" fill="white"/>
<path d="M1171.72 857.288C1171.72 857.288 1171.1 856.658 1169.95 855.41L1164.85 849.852C1160.38 844.974 1153.85 837.814 1145.52 828.688L1076.45 752.745L1076.53 752.808L1047.88 737.405C1021.85 709.321 992.429 677.558 961.39 644.054L944.62 625.941L945.018 626.042L919.615 635.08L919.808 634.903C892.439 689.305 868.054 737.871 849.277 775.055V775.131H849.194L814.554 790.017L814.664 789.903L801.701 825.701C800.189 829.835 799.021 833.024 798.237 835.192L797.33 837.625C797.124 838.18 797 838.444 797 838.444C797 838.444 797.082 838.167 797.275 837.612C797.467 837.058 797.756 836.238 798.127 835.154L801.495 825.638C804.464 817.306 808.794 805.155 814.279 789.79V789.714H814.348L848.905 774.778L848.795 774.891L919.176 634.638V634.525H919.313L944.702 625.475L945.032 625.361L945.197 625.538L961.899 643.563L1048.32 736.964H1048.24L1076.87 752.404L1145.75 828.449L1164.97 849.726L1170 855.322L1171.72 857.288Z" fill="#263238"/>
<path d="M909.897 891.156L919.698 852.649L963.768 791.516L998.6 783.701L1045.27 831.12L1086.82 840.75L1150.5 865.115L885.277 957.886L889.91 925.605L909.897 891.156Z" fill="#F5F5F5"/>
<path d="M909.898 891.144C909.898 891.144 909.472 891.926 908.62 893.438L904.798 900.144L890.049 925.681C888.757 934.845 887.217 945.71 885.471 957.962L885.169 957.747L1140.27 868.38L1150.33 864.863V865.468L1086.66 841.103L1045.12 831.448H1045.02V831.372L998.382 783.941L998.671 784.016L963.838 791.743L964.003 791.642L919.85 852.737L912.482 881.363C911.63 884.59 910.998 887.048 910.558 888.711C910.118 890.375 909.884 891.232 909.884 891.232C909.884 891.232 910.063 890.388 910.475 888.711C910.888 887.035 911.506 884.577 912.304 881.325C913.953 874.821 916.428 865.191 919.52 852.687L963.508 791.504V791.428H963.618L998.437 783.588H998.602L998.726 783.701L1045.46 831.095L1045.38 830.818L1086.93 840.448L1150.63 864.851L1151.46 865.166L1150.62 865.468L1140.54 868.985L885.361 958.126L885.004 958.252V957.911C886.777 945.659 888.358 934.794 889.691 925.643V925.58L904.565 900.081C906.283 897.182 907.589 894.963 908.469 893.451C909.348 891.938 909.898 891.144 909.898 891.144Z" fill="#263238"/>
<path d="M1360.77 765.967C1361.87 766.776 1362.88 767.679 1363.79 768.664C1366.1 770.95 1368.26 773.357 1370.25 775.874C1372.25 778.386 1374.08 780.999 1375.75 783.702C1376.51 784.792 1377.15 785.954 1377.64 787.168C1376.79 786.141 1376.02 785.063 1375.33 783.941C1373.95 781.937 1371.96 779.189 1369.62 776.265C1367.29 773.341 1365.03 770.782 1363.37 768.967C1362.43 768.022 1361.56 767.02 1360.77 765.967Z" fill="#263238"/>
<path d="M1373.08 754.585C1373.63 756.078 1374.09 757.597 1374.46 759.135C1375.27 761.959 1376.46 765.828 1377.98 770.064C1379.49 774.299 1381 778.08 1382.1 780.803C1382.78 782.258 1383.36 783.748 1383.85 785.265C1383.56 784.924 1383.34 784.546 1383.17 784.143C1382.79 783.412 1382.27 782.328 1381.63 780.979C1380.38 778.282 1378.79 774.513 1377.26 770.265C1375.74 766.017 1374.62 762.097 1373.94 759.249C1373.59 757.812 1373.33 756.652 1373.19 755.845C1373.09 755.432 1373.06 755.008 1373.08 754.585Z" fill="#263238"/>
<path d="M1004.37 918.497C1002.3 916.361 1000.02 914.4 997.568 912.636C994.955 911.054 992.195 909.688 989.32 908.552C990.27 908.61 991.201 908.823 992.07 909.182C994.179 909.908 996.172 910.891 997.994 912.106C999.824 913.307 1001.47 914.732 1002.87 916.341C1003.5 916.977 1004.01 917.706 1004.37 918.497Z" fill="#263238"/>
<path d="M1004.39 892.254C1004.51 892.254 1004.26 893.653 1004.22 895.897C1004.19 898.815 1004.61 901.722 1005.47 904.531C1006.36 907.336 1007.69 910.008 1009.42 912.459C1010.79 914.337 1011.75 915.396 1011.66 915.472C1011.36 915.285 1011.09 915.06 1010.86 914.804C1010.18 914.154 1009.56 913.459 1008.99 912.724C1005.19 907.82 1003.33 901.876 1003.71 895.871C1003.78 894.974 1003.9 894.081 1004.1 893.199C1004.13 892.871 1004.23 892.552 1004.39 892.254Z" fill="#263238"/>
<path d="M1018.59 898.884C1018.38 899.57 1018.12 900.244 1017.82 900.901C1017.25 902.528 1016.99 904.234 1017.05 905.942C1017.11 907.633 1017.49 909.3 1018.17 910.871C1018.53 911.504 1018.83 912.161 1019.08 912.837C1019.01 912.837 1018.38 912.27 1017.71 911.06C1016.86 909.489 1016.39 907.769 1016.33 906.018C1016.26 904.244 1016.61 902.478 1017.35 900.838C1017.58 900.104 1018.01 899.434 1018.59 898.884Z" fill="#263238"/>
<path d="M876.877 899.893C878.462 899.761 880.059 899.925 881.573 900.373C883.087 900.822 884.487 901.545 885.689 902.502C888.085 904.434 889.966 906.844 891.187 909.548C893.703 914.678 893.854 921.157 893.125 926.753C886.417 925.606 881.414 919.997 879.077 916.997C875.379 912.258 871.833 901.632 876.891 899.893" fill="#7BD28E"/>
<path d="M903.379 931.909C902.19 930.698 901.372 929.221 901.007 927.627C900.643 926.033 900.745 924.379 901.303 922.833C901.881 921.299 902.786 919.885 903.966 918.676C905.146 917.466 906.577 916.484 908.176 915.787C908.875 915.393 909.659 915.145 910.474 915.06C911.289 914.975 912.114 915.056 912.891 915.295C913.572 915.623 914.144 916.113 914.546 916.715C914.947 917.316 915.164 918.006 915.173 918.711C915.183 920.126 914.785 921.518 914.018 922.745C911.613 927.018 908.424 930.761 903.324 931.921" fill="#7BD28E"/>
<path d="M907.23 949.744C907.039 949.399 906.878 949.041 906.749 948.673L905.567 945.711C904.135 942.467 903.29 939.032 903.065 935.539C902.891 932.015 903.746 928.512 905.539 925.392C906.108 924.485 906.786 923.639 907.56 922.871C907.821 922.594 908.069 922.404 908.22 922.266C908.371 922.127 908.467 922.064 908.481 922.077C907.466 923.164 906.573 924.343 905.814 925.594C904.139 928.694 903.345 932.132 903.505 935.589C903.741 939.038 904.533 942.437 905.855 945.673C906.323 946.933 906.68 947.967 906.914 948.685C907.053 949.029 907.158 949.383 907.23 949.744Z" fill="#263238"/>
<path d="M880.422 907.707C880.542 907.835 880.652 907.969 880.752 908.11C880.972 908.426 881.274 908.816 881.632 909.308C882.388 910.354 883.46 911.829 884.779 913.77C887.405 917.551 890.951 922.82 894.718 928.732C898.484 934.643 901.783 940.076 904.093 944.009C905.261 945.975 906.182 947.588 906.842 948.698L907.543 949.958C907.636 950.105 907.71 950.261 907.763 950.424C907.65 950.296 907.553 950.157 907.474 950.009L906.691 948.748C905.99 947.614 905.041 946.038 903.859 944.122C901.481 940.202 898.154 934.82 894.388 928.908C890.622 922.997 887.006 917.791 884.449 914.009L881.425 909.484C881.095 908.98 880.834 908.564 880.614 908.224C880.524 908.061 880.459 907.887 880.422 907.707Z" fill="#263238"/>
<path d="M897.62 938.992C895.199 936.355 892.126 934.286 888.656 932.96C885.186 931.633 881.421 931.087 877.674 931.366C875.777 931.517 873.55 932.135 873.014 933.811C872.478 935.488 873.894 937.139 875.392 938.223C878.563 940.428 882.374 941.724 886.346 941.949C890.318 942.173 894.274 941.315 897.716 939.483" fill="#7BD28E"/>
<path d="M881.398 935.538C881.782 935.459 882.174 935.417 882.567 935.412C883.023 935.364 883.482 935.342 883.941 935.349C884.555 935.32 885.17 935.32 885.783 935.349C886.534 935.387 887.282 935.463 888.024 935.576C888.877 935.69 889.721 935.85 890.553 936.055C892.463 936.519 894.308 937.183 896.052 938.034C897.785 938.908 899.4 939.966 900.863 941.185C902.041 942.192 903.113 943.298 904.066 944.488C904.492 944.992 904.781 945.496 905.083 945.912C905.332 946.273 905.557 946.648 905.757 947.034C905.956 947.349 906.117 947.683 906.238 948.03C906.155 948.03 905.44 946.656 903.805 944.664C903.377 944.121 902.918 943.6 902.43 943.101C901.864 942.524 901.263 941.977 900.629 941.463C899.179 940.282 897.588 939.254 895.887 938.4C894.175 937.558 892.368 936.89 890.498 936.408C889.632 936.207 888.808 936.017 888.01 935.904C887.288 935.778 886.558 935.69 885.825 935.639C883.089 935.438 881.398 935.627 881.398 935.538Z" fill="#263238"/>
<path d="M1447.89 578.258C1440.09 579.808 1432.12 580.518 1424.14 580.375C1412.81 579.947 1401.24 576.594 1392.8 568.968C1383.49 560.523 1378.71 547.54 1368.52 540.229C1359.4 533.649 1345.29 533.927 1335.46 539.397V598.892C1340.44 595.324 1349.66 588.102 1363.71 594.455C1369.28 596.976 1374.3 599.686 1379.66 602.635C1394.68 610.916 1410.18 610.198 1426.01 603.757C1431.92 601.349 1440.06 596.534 1450.15 586.11C1454.74 581.434 1451.14 577.69 1447.89 578.258Z" fill="#7BD28E"/>
<path d="M1336.32 799.937V538.679C1336.32 535.175 1336.4 531.658 1336.32 528.141V527.7C1336.29 527.508 1336.19 527.332 1336.03 527.204C1335.87 527.076 1335.67 527.006 1335.46 527.006C1335.25 527.006 1335.04 527.076 1334.88 527.204C1334.73 527.332 1334.62 527.508 1334.6 527.7V788.139C1334.6 791.857 1334.6 795.588 1334.6 799.307V799.937C1334.62 800.129 1334.73 800.305 1334.88 800.433C1335.04 800.561 1335.25 800.631 1335.46 800.631C1335.67 800.631 1335.87 800.561 1336.03 800.433C1336.19 800.305 1336.29 800.129 1336.32 799.937Z" fill="#263238"/>
<path d="M1076.2 536.397L1074.65 527.46C1079.57 520.118 1081.32 511.353 1079.55 502.887C1077.78 494.421 1072.63 486.868 1065.1 481.712C1057.56 476.556 1048.2 474.169 1038.85 475.022C1029.49 475.875 1020.83 479.905 1014.55 486.32C1008.27 492.736 1004.84 501.072 1004.92 509.691C1005.01 518.31 1008.61 526.588 1015.01 532.897C1021.41 539.207 1030.16 543.092 1039.53 543.788C1048.9 544.485 1058.21 541.943 1065.64 536.662L1076.2 536.397Z" fill="white"/>
<path d="M1076.2 536.398H1075.54L1073.53 536.486L1065.63 536.776C1065.61 536.778 1065.59 536.776 1065.57 536.77C1065.55 536.765 1065.54 536.756 1065.52 536.744C1065.51 536.732 1065.5 536.718 1065.49 536.701C1065.48 536.685 1065.48 536.668 1065.48 536.65C1065.47 536.621 1065.47 536.591 1065.48 536.562L1065.68 536.738C1060.86 540.236 1055.16 542.583 1049.11 543.57C1045.14 544.205 1041.08 544.269 1037.09 543.759C1032.55 543.151 1028.17 541.793 1024.16 539.751C1019.74 537.458 1015.85 534.391 1012.72 530.726C1009.3 526.765 1006.89 522.159 1005.64 517.239C1004.33 512 1004.33 506.557 1005.64 501.319C1007.05 495.825 1009.94 490.74 1014.03 486.521C1016.09 484.359 1018.43 482.434 1020.99 480.786C1022.3 480.03 1023.61 479.261 1024.95 478.605L1027.03 477.71L1028.06 477.269L1029.13 476.916C1034.68 475.026 1040.63 474.332 1046.52 474.887C1052.05 475.429 1057.38 477.105 1062.11 479.79C1066.48 482.24 1070.27 485.462 1073.27 489.269C1075.95 492.696 1077.93 496.539 1079.11 500.613C1079.33 501.584 1079.55 502.542 1079.76 503.487C1079.97 504.432 1080.01 505.365 1080.13 506.285C1080.32 508.061 1080.35 509.849 1080.21 511.63C1079.82 517.231 1077.93 522.659 1074.71 527.436V527.348C1075.18 530.234 1075.54 532.478 1075.79 534.028C1075.9 534.759 1075.99 535.289 1076.05 535.742C1076.1 536.196 1076.13 536.31 1076.13 536.31C1076.13 536.31 1076.13 536.095 1075.99 535.705C1075.86 535.314 1075.8 534.709 1075.66 533.965C1075.37 532.44 1074.96 530.184 1074.43 527.386C1074.42 527.356 1074.42 527.326 1074.43 527.297C1077.57 522.54 1079.4 517.155 1079.77 511.604C1079.9 509.844 1079.85 508.077 1079.65 506.323C1079.53 505.428 1079.47 504.495 1079.26 503.563C1079.06 502.63 1078.84 501.697 1078.6 500.739C1076.11 492.206 1070.12 484.889 1061.88 480.319C1057.23 477.689 1051.99 476.056 1046.56 475.542C1040.78 474.997 1034.94 475.683 1029.49 477.546L1028.45 477.887L1027.43 478.328L1025.39 479.21C1024.02 479.853 1022.8 480.609 1021.5 481.353C1018.98 482.971 1016.67 484.858 1014.63 486.975C1010.61 491.114 1007.78 496.104 1006.38 501.495C1005.07 506.629 1005.04 511.968 1006.3 517.113C1007.49 521.948 1009.84 526.481 1013.17 530.385C1016.24 534 1020.05 537.028 1024.39 539.297C1028.34 541.322 1032.65 542.68 1037.12 543.305C1041.06 543.828 1045.06 543.786 1048.98 543.179C1054.98 542.229 1060.64 539.958 1065.48 536.562C1065.51 536.538 1065.54 536.525 1065.58 536.525C1065.62 536.525 1065.66 536.538 1065.68 536.562C1065.7 536.585 1065.72 536.614 1065.72 536.644C1065.72 536.674 1065.7 536.703 1065.68 536.726L1065.57 536.511L1073.38 536.373H1075.43L1076.2 536.398Z" fill="#263238"/>
<path d="M1063.25 476.625H1022.01C1021.88 476.953 1019.13 512.095 1042.63 512.763C1066.17 512.082 1063.42 476.94 1063.25 476.625Z" fill="#7BD28E"/>
<path d="M1065.88 473.172H1019.4C1018.37 473.172 1017.53 473.939 1017.53 474.886V475.894C1017.53 476.841 1018.37 477.609 1019.4 477.609H1065.88C1066.91 477.609 1067.75 476.841 1067.75 475.894V474.886C1067.75 473.939 1066.91 473.172 1065.88 473.172Z" fill="#7BD28E"/>
<path d="M1029.75 506.713C1022.31 504.923 1017.3 499.957 1015.26 492.331C1014.34 488.775 1014.06 485.105 1014.44 481.466L1014.59 480.382H1025.16V482.903H1017.04C1016.87 485.909 1017.16 488.922 1017.92 491.852C1019.73 498.583 1023.95 502.793 1030.44 504.356L1029.75 506.713Z" fill="#7BD28E"/>
<path d="M1055.47 506.713L1054.78 504.318C1061.31 502.755 1065.53 498.52 1067.33 491.714C1068.07 488.824 1068.36 485.854 1068.2 482.89H1060.07V480.407H1070.64L1070.8 481.491C1071.17 485.131 1070.89 488.802 1069.96 492.357C1067.94 499.957 1062.92 504.923 1055.47 506.713Z" fill="#7BD28E"/>
<path d="M1046.75 514.83C1046.01 512.36 1045.55 509.826 1045.38 507.268H1039.88C1039.71 509.826 1039.25 512.36 1038.51 514.83C1035.44 526.175 1024.46 526.818 1024.46 526.818V530.032H1060.75V526.818C1060.75 526.818 1049.82 526.2 1046.75 514.83Z" fill="#7BD28E"/>
<path d="M1064.63 477.458C1064.63 477.634 1054.87 477.785 1042.85 477.785C1030.84 477.785 1021.08 477.634 1021.08 477.458C1021.08 477.281 1030.82 477.13 1042.85 477.13C1054.88 477.13 1064.63 477.281 1064.63 477.458Z" fill="#263238"/>
<path d="M1059.13 501.835C1058.99 502.336 1058.79 502.822 1058.53 503.285C1057.86 504.557 1057.02 505.754 1056.05 506.852C1054.57 508.48 1052.75 509.825 1050.7 510.81C1048.17 511.992 1045.36 512.585 1042.52 512.536C1039.68 512.55 1036.88 511.904 1034.38 510.658C1032.38 509.606 1030.62 508.201 1029.21 506.524C1028.26 505.415 1027.42 504.225 1026.71 502.969C1026.42 502.527 1026.2 502.053 1026.04 501.558C1026.16 501.482 1027.17 503.511 1029.6 506.234C1031.03 507.807 1032.75 509.127 1034.7 510.129C1037.1 511.313 1039.79 511.936 1042.52 511.944C1045.25 511.988 1047.95 511.435 1050.4 510.331C1052.39 509.384 1054.17 508.101 1055.65 506.549C1056.96 505.079 1058.13 503.501 1059.13 501.835Z" fill="#263238"/>
<path opacity="0.3" d="M1043.74 486.709L1045.12 489.369C1045.21 489.531 1045.34 489.671 1045.5 489.776C1045.66 489.882 1045.84 489.949 1046.04 489.974L1049.24 490.402C1049.46 490.432 1049.67 490.518 1049.85 490.651C1050.02 490.784 1050.15 490.959 1050.22 491.156C1050.29 491.352 1050.3 491.563 1050.24 491.764C1050.19 491.965 1050.08 492.148 1049.92 492.293L1047.65 494.272C1047.5 494.397 1047.4 494.552 1047.34 494.724C1047.28 494.895 1047.27 495.078 1047.3 495.255L1047.85 498.179C1047.89 498.385 1047.86 498.595 1047.77 498.787C1047.69 498.979 1047.54 499.145 1047.36 499.267C1047.18 499.388 1046.96 499.461 1046.73 499.476C1046.51 499.491 1046.28 499.448 1046.08 499.352L1043.22 497.965C1043.05 497.884 1042.85 497.842 1042.66 497.842C1042.46 497.842 1042.27 497.884 1042.09 497.965L1039.23 499.352C1039.03 499.448 1038.81 499.491 1038.58 499.476C1038.35 499.461 1038.14 499.388 1037.95 499.267C1037.77 499.145 1037.63 498.979 1037.54 498.787C1037.45 498.595 1037.43 498.385 1037.46 498.179L1038.01 495.255C1038.05 495.078 1038.03 494.895 1037.97 494.724C1037.91 494.552 1037.81 494.397 1037.67 494.272L1035.34 492.192C1035.18 492.047 1035.07 491.864 1035.02 491.663C1034.96 491.462 1034.97 491.252 1035.04 491.055C1035.11 490.858 1035.24 490.683 1035.41 490.55C1035.58 490.417 1035.79 490.331 1036.02 490.301L1039.22 489.873C1039.42 489.849 1039.6 489.781 1039.76 489.675C1039.92 489.57 1040.05 489.43 1040.14 489.268L1041.52 486.608C1041.62 486.411 1041.78 486.247 1041.99 486.135C1042.19 486.024 1042.43 485.97 1042.67 485.981C1042.9 485.992 1043.13 486.066 1043.32 486.196C1043.52 486.326 1043.66 486.504 1043.74 486.709Z" fill="black"/>
<path d="M1060.1 526.956C1060.1 527.132 1052.06 527.283 1042.15 527.283C1032.24 527.283 1024.2 527.132 1024.2 526.956C1024.2 526.779 1032.23 526.628 1042.15 526.628C1052.08 526.628 1060.1 526.767 1060.1 526.956Z" fill="#263238"/>
<path d="M1232.18 643.323C1232.62 643.323 1237.68 642.857 1238.72 641.546C1239 641.088 1239.16 640.573 1239.18 640.046C1239.2 639.519 1239.08 638.996 1238.83 638.521C1239.83 637.775 1240.54 636.741 1240.82 635.584C1240.85 634.386 1240.46 633.212 1239.71 632.231L1240.2 630.731C1240.46 630.216 1240.55 629.647 1240.47 629.086C1240.4 628.526 1240.15 627.996 1239.76 627.555C1238.72 626.884 1237.93 625.933 1237.5 624.832C1237 623.194 1231.42 622.513 1228.71 622.021C1226 621.53 1222.38 620.824 1219.6 623.912C1215.87 628.059 1209.58 634.601 1209.58 634.601L1214.88 647.886C1214.88 647.886 1217.26 649.147 1222.55 647.975C1226.07 647.037 1229.35 645.455 1232.18 643.323Z" fill="#FFBF9D"/>
<path d="M1229.07 640.727L1265.85 824.529L1267.37 824.063L1233.1 637.626L1229.07 640.727Z" fill="#455A64"/>
<path d="M1226.49 633.58C1226.49 633.58 1223.82 626.522 1220.75 623.761C1217.69 621.001 1214.94 619.778 1218.27 617.723C1221.59 615.669 1229.96 612.682 1230.9 615.001C1231.83 617.32 1230.66 616.261 1230.31 618.139C1229.95 620.017 1233.8 628.16 1234.91 631.5C1236.03 634.841 1240.25 645.366 1238.72 646.223C1237.63 646.815 1232.23 647.357 1229.28 647.622C1229.02 647.644 1228.77 647.62 1228.53 647.549C1228.28 647.479 1228.06 647.364 1227.87 647.212C1227.67 647.06 1227.52 646.874 1227.41 646.665C1227.29 646.456 1227.23 646.228 1227.21 645.996L1226.49 633.58Z" fill="#263238"/>
<path d="M1245.1 634.828C1244.57 632.091 1243.31 629.519 1241.42 627.349C1239.52 625.18 1237.06 623.482 1234.27 622.412C1227.39 619.892 1228.33 620.887 1228.33 620.887L1227.56 623.547C1236.4 623.194 1239.93 629.95 1241 631.387C1242.38 633.19 1243.34 637.513 1241.52 638.496C1239.71 639.479 1235.67 637.538 1235.67 637.538L1233.37 639.101C1233.37 639.101 1239.72 642.416 1242.6 642.404C1245.47 642.391 1246.07 639.643 1245.1 634.828Z" fill="#263238"/>
<path d="M1251.08 725.784C1251.1 726.367 1250.93 726.942 1250.59 727.438C1250.26 727.933 1249.77 728.327 1249.19 728.568C1248.61 728.809 1247.97 728.888 1247.34 728.793C1246.71 728.699 1246.13 728.436 1245.67 728.038C1245.2 727.64 1244.88 727.125 1244.73 726.557C1244.58 725.989 1244.63 725.395 1244.85 724.849C1245.07 724.302 1245.47 723.829 1245.98 723.488C1246.5 723.148 1247.11 722.955 1247.75 722.935C1248.6 722.911 1249.43 723.197 1250.05 723.731C1250.68 724.264 1251.04 725.002 1251.08 725.784Z" fill="#455A64"/>
<path d="M1262.18 784.421C1262.18 784.914 1262.02 785.396 1261.73 785.807C1261.43 786.219 1261.01 786.541 1260.51 786.735C1260.02 786.929 1259.47 786.986 1258.95 786.898C1258.42 786.811 1257.93 786.583 1257.54 786.243C1257.15 785.903 1256.88 785.466 1256.75 784.985C1256.63 784.505 1256.67 784.002 1256.86 783.54C1257.04 783.078 1257.37 782.676 1257.81 782.384C1258.24 782.093 1258.76 781.924 1259.3 781.9C1259.67 781.883 1260.04 781.935 1260.39 782.054C1260.74 782.173 1261.06 782.356 1261.33 782.592C1261.6 782.828 1261.81 783.111 1261.96 783.426C1262.11 783.74 1262.18 784.079 1262.18 784.421Z" fill="#455A64"/>
<path d="M1238.22 632.496C1236.42 633.087 1234.56 633.48 1232.66 633.668C1231.78 633.757 1230.9 633.794 1230.02 633.958C1229.14 634.084 1228.31 634.409 1227.6 634.904C1227.24 635.15 1226.95 635.463 1226.74 635.822C1226.54 636.181 1226.41 636.577 1226.39 636.983C1226.37 637.392 1226.5 637.794 1226.75 638.135C1226.99 638.476 1227.35 638.738 1227.76 638.887C1227.35 639.085 1227.03 639.409 1226.85 639.802C1226.67 640.195 1226.64 640.633 1226.77 641.042C1226.92 641.447 1227.17 641.816 1227.49 642.121C1227.82 642.427 1228.22 642.661 1228.66 642.807C1229.54 643.099 1230.47 643.24 1231.41 643.223C1232.79 643.267 1234.17 643.17 1235.53 642.933C1236.72 642.77 1237.82 642.252 1238.66 641.458C1239.06 641.051 1239.29 640.529 1239.31 639.983C1239.33 639.437 1239.14 638.902 1238.77 638.471C1239.52 637.916 1240.01 637.124 1240.15 636.252" fill="#FFBF9D"/>
<path d="M1226.9 633.328C1226.4 633.13 1225.99 632.798 1225.7 632.377C1225.42 631.956 1225.29 631.465 1225.32 630.971C1225.47 629.836 1226.69 629.093 1227.86 628.677C1230.7 627.838 1233.67 627.45 1236.64 627.53L1238.09 628.324C1238.4 628.858 1238.64 629.431 1238.77 630.025C1238.84 630.322 1238.84 630.629 1238.76 630.923C1238.68 631.218 1238.53 631.492 1238.32 631.727C1237.85 632.118 1237.27 632.38 1236.64 632.483C1234.81 633.059 1232.91 633.444 1230.98 633.63C1229.61 633.791 1228.22 633.688 1226.9 633.328Z" fill="#FFBF9D"/>
<path d="M1238.83 638.521C1237.83 638.392 1236.82 638.354 1235.82 638.408C1233.96 638.408 1231.39 638.408 1228.56 638.521H1227.5H1227.19C1227.05 638.553 1226.93 638.619 1226.83 638.71C1226.67 638.859 1226.56 639.041 1226.5 639.24C1226.38 639.869 1226.42 640.516 1226.61 641.13C1226.76 641.711 1227.14 642.218 1227.68 642.555C1228.12 642.833 1228.62 643.034 1229.14 643.147C1229.86 643.322 1230.61 643.398 1231.36 643.374C1231.9 643.374 1232.19 643.311 1232.18 643.273C1232.16 643.235 1231.01 643.273 1229.27 642.756C1228.79 642.666 1228.33 642.455 1227.97 642.146C1227.6 641.837 1227.33 641.443 1227.19 641.004C1227.02 640.484 1226.99 639.936 1227.1 639.403C1227.12 639.298 1227.17 639.201 1227.25 639.126C1227.35 639.063 1227.25 639.126 1227.53 639.126H1228.59C1231.42 639.051 1233.98 638.937 1235.83 638.836C1236.84 638.83 1237.84 638.724 1238.83 638.521Z" fill="#7BD28E"/>
<path d="M1239.71 632.231C1238.86 632.21 1238.02 632.282 1237.19 632.445C1235.65 632.647 1233.51 632.975 1231.14 633.353H1230.95C1229.73 633.37 1228.54 633.683 1227.5 634.26C1227.06 634.514 1226.71 634.869 1226.47 635.289C1226.22 635.71 1226.11 636.181 1226.13 636.655C1226.17 637.273 1226.41 637.867 1226.8 638.37C1227.08 638.71 1227.28 638.861 1227.31 638.836C1227.34 638.811 1227.21 638.609 1227.02 638.256C1226.74 637.762 1226.59 637.214 1226.58 636.655C1226.59 636.26 1226.7 635.872 1226.92 635.53C1227.14 635.188 1227.45 634.903 1227.82 634.702C1228.78 634.208 1229.86 633.944 1230.97 633.933H1231.27C1233.62 633.542 1235.75 633.151 1237.28 632.849C1238.11 632.735 1238.93 632.528 1239.71 632.231Z" fill="#7BD28E"/>
<path d="M1239.76 627.555C1238.54 627.873 1237.36 628.295 1236.23 628.815H1236.33C1234.31 628.815 1231.57 628.815 1228.57 628.815H1226.65H1226.5L1226.42 628.903C1225.95 629.383 1225.58 629.933 1225.32 630.529C1225.06 631.106 1225.02 631.747 1225.22 632.344C1225.31 632.624 1225.47 632.882 1225.68 633.099C1225.89 633.317 1226.15 633.49 1226.44 633.605C1226.88 633.77 1227.34 633.872 1227.82 633.907C1228.5 633.96 1229.19 633.935 1229.87 633.832C1230.33 633.756 1230.59 633.681 1230.58 633.643C1230.57 633.605 1229.52 633.731 1227.83 633.529C1227.05 633.428 1225.92 633.176 1225.65 632.269C1225.56 631.742 1225.62 631.204 1225.82 630.703C1226.01 630.202 1226.34 629.753 1226.77 629.395L1226.55 629.483H1228.49C1231.49 629.483 1234.21 629.408 1236.24 629.332H1236.45C1237.61 628.834 1238.72 628.239 1239.76 627.555Z" fill="#7BD28E"/>
<path d="M1213.75 633.945C1213.75 633.945 1220.54 624.631 1220.87 624.479C1221.2 624.328 1232.08 623.042 1234.62 624.051C1237.16 625.059 1240.12 626.496 1240.12 626.496C1240.12 626.496 1240.49 629.017 1236.16 629.244C1231.83 629.471 1227.34 629.332 1227.34 629.332L1224.97 632.509C1224.97 632.509 1225.93 641.004 1217.73 643.399" fill="#FFBF9D"/>
<path d="M1217.69 643.399C1218.04 643.316 1218.38 643.215 1218.72 643.097C1219.13 642.967 1219.53 642.798 1219.9 642.593C1220.4 642.351 1220.88 642.068 1221.33 641.748C1222.54 640.78 1223.48 639.562 1224.08 638.193C1224.87 636.403 1225.21 634.473 1225.07 632.547V632.698L1227.46 629.534L1227.24 629.647C1229.33 629.647 1231.54 629.647 1233.87 629.647C1235.06 629.65 1236.26 629.575 1237.44 629.421C1238.08 629.305 1238.68 629.065 1239.2 628.715C1239.76 628.34 1240.14 627.786 1240.27 627.164C1240.31 626.951 1240.31 626.735 1240.27 626.522V626.383H1240.12L1237.11 625.047L1235.64 624.391C1235.16 624.157 1234.66 623.959 1234.14 623.799C1233.1 623.599 1232.03 623.514 1230.97 623.547C1229.94 623.547 1228.95 623.547 1227.97 623.635C1226.02 623.761 1224.19 623.938 1222.47 624.139L1221.19 624.316H1220.88H1220.68L1220.51 624.467C1220.35 624.643 1220.24 624.769 1220.12 624.933L1218.81 626.673C1217.17 628.891 1215.87 630.719 1214.98 631.979L1213.98 633.442C1213.85 633.608 1213.75 633.785 1213.66 633.971C1213.81 633.828 1213.95 633.672 1214.07 633.505L1215.17 632.093L1219.14 626.887L1220.52 625.173L1220.88 624.757C1220.88 624.757 1220.88 624.757 1220.88 624.656C1220.95 624.782 1220.95 624.744 1220.95 624.744H1221.03H1221.32L1222.57 624.58C1224.27 624.391 1226.11 624.24 1228.07 624.139C1229.04 624.139 1230.03 624.051 1231.04 624.051C1232.05 624.032 1233.06 624.117 1234.05 624.303C1234.52 624.466 1234.98 624.66 1235.42 624.883L1236.88 625.538L1239.86 626.862L1239.71 626.66C1239.73 626.815 1239.73 626.972 1239.71 627.127C1239.56 627.617 1239.25 628.054 1238.82 628.381C1238.4 628.707 1237.87 628.907 1237.32 628.954C1236.17 629.107 1235.01 629.183 1233.85 629.181C1231.56 629.181 1229.34 629.181 1227.27 629.181H1227.12L1227.04 629.282C1226.22 630.391 1225.43 631.45 1224.68 632.471V632.534V632.622C1224.83 634.479 1224.53 636.342 1223.8 638.08C1223.24 639.414 1222.35 640.61 1221.19 641.572C1220.11 642.305 1218.93 642.919 1217.69 643.399Z" fill="#7BD28E"/>
<path d="M1210.42 632.03L1170.25 637.538L1159.16 602.459L1145.73 654.945L1153.97 660.088C1156.52 661.667 1159.42 662.712 1162.47 663.148C1165.51 663.584 1168.61 663.4 1171.57 662.609L1217.25 651.264L1210.42 632.03Z" fill="#7BD28E"/>
<path d="M1144.35 582.38L1148.2 582.544L1150.37 583.363C1157.14 594.438 1161.01 606.806 1161.67 619.488L1162.32 633.076L1162.1 718.662L1130.48 714.654L1126.48 689.797L1144.35 582.38Z" fill="#7BD28E"/>
<path opacity="0.3" d="M1161.15 712.561C1161.15 712.561 1161.15 684.036 1161.38 673.209C1161.62 662.381 1158 623.193 1158 623.193C1158 623.193 1144.71 703.019 1145.18 703.145C1145.64 703.271 1161.15 712.561 1161.15 712.561Z" fill="black"/>
<path d="M1157.09 601.236C1157.19 601.43 1157.27 601.633 1157.33 601.841C1157.46 602.32 1157.64 602.9 1157.85 603.606C1158.26 605.169 1158.77 607.387 1159.22 610.261C1160.16 615.908 1160.79 623.786 1161.25 632.483C1161.7 641.181 1161.89 649.046 1162.14 654.743C1162.28 657.516 1162.39 659.785 1162.47 661.487C1162.47 662.218 1162.54 662.823 1162.56 663.315C1162.59 663.528 1162.59 663.744 1162.56 663.957C1162.49 663.755 1162.44 663.542 1162.43 663.327C1162.43 662.836 1162.29 662.231 1162.21 661.5C1162.03 659.911 1161.84 657.617 1161.64 654.769C1161.27 649.071 1160.97 641.193 1160.54 632.509C1160.12 623.824 1159.54 615.971 1158.74 610.324C1158.36 607.501 1157.93 605.282 1157.62 603.669L1157.2 601.867C1157.13 601.663 1157.09 601.45 1157.09 601.236Z" fill="#263238"/>
<path d="M1100.58 863.591L1098.38 879.359L1098.66 881.389C1098.66 881.389 1126.43 886.368 1127.53 890.754L1076.91 898.317L1074.96 887.666L1077.71 861.688L1100.58 863.591Z" fill="#263238"/>
<path d="M1082.66 881.767C1082.2 881.974 1081.84 882.331 1081.64 882.768C1081.45 883.205 1081.44 883.693 1081.62 884.136C1081.82 884.57 1082.2 884.914 1082.68 885.095C1083.16 885.276 1083.69 885.28 1084.17 885.107C1084.66 884.885 1085.05 884.505 1085.25 884.039C1085.45 883.572 1085.45 883.055 1085.26 882.586C1084.99 882.161 1084.56 881.848 1084.05 881.712C1083.53 881.575 1082.98 881.627 1082.51 881.855" fill="#E0E0E0"/>
<path d="M1076.9 898.38L1076.38 894.599L1125.11 888.801C1125.11 888.801 1127.52 889.368 1127.52 890.855L1076.9 898.38Z" fill="#455A64"/>
<path d="M1099.44 881.074C1099.44 881.301 1098.26 881.591 1097.17 882.499C1096.09 883.406 1095.61 884.465 1095.36 884.402C1095.11 884.339 1095.25 882.99 1096.6 881.881C1097.94 880.772 1099.45 880.86 1099.44 881.074Z" fill="white"/>
<path d="M1105.11 882.296C1105.2 882.51 1104.2 883.052 1103.54 884.136C1102.88 885.22 1102.8 886.266 1102.55 886.292C1102.3 886.317 1101.92 885.031 1102.78 883.771C1103.65 882.51 1105.06 882.082 1105.11 882.296Z" fill="white"/>
<path d="M1109.16 887.666C1108.94 887.754 1108.39 886.67 1108.82 885.334C1109.24 883.998 1110.29 883.33 1110.43 883.506C1110.56 883.683 1109.97 884.452 1109.66 885.548C1109.34 886.645 1109.39 887.616 1109.16 887.666Z" fill="white"/>
<path d="M1231.34 821.314L1231.47 837.209L1232.05 839.188C1232.05 839.188 1260.3 840.688 1262.02 844.898L1212.98 858.662L1209.48 848.364L1208.35 822.285L1231.34 821.314Z" fill="#263238"/>
<path d="M1216.24 841.495C1215.81 841.761 1215.49 842.167 1215.37 842.634C1215.24 843.1 1215.31 843.593 1215.56 844.016C1215.83 844.419 1216.26 844.71 1216.76 844.83C1217.26 844.95 1217.79 844.888 1218.24 844.659C1218.69 844.378 1219.01 843.954 1219.15 843.468C1219.28 842.981 1219.21 842.467 1218.95 842.025C1218.62 841.633 1218.13 841.374 1217.6 841.304C1217.06 841.233 1216.52 841.356 1216.08 841.647" fill="#E0E0E0"/>
<path d="M1212.99 858.663L1211.91 854.983L1259.32 843.172C1259.32 843.172 1261.8 843.424 1262.07 844.899L1212.99 858.663Z" fill="#455A64"/>
<path d="M1232.78 838.735C1232.78 838.961 1231.68 839.39 1230.73 840.424C1229.78 841.457 1229.47 842.566 1229.22 842.541C1228.97 842.516 1228.9 841.142 1230.07 839.907C1231.24 838.671 1232.75 838.52 1232.78 838.735Z" fill="white"/>
<path d="M1238.57 839.239C1238.69 839.44 1237.78 840.108 1237.28 841.255C1236.77 842.402 1236.86 843.461 1236.63 843.524C1236.4 843.587 1235.82 842.377 1236.48 841.003C1237.14 839.629 1238.5 839.037 1238.57 839.239Z" fill="white"/>
<path d="M1243.32 844.067C1243.12 844.168 1242.42 843.172 1242.64 841.798C1242.86 840.424 1243.8 839.63 1244.01 839.781C1244.22 839.932 1243.69 840.777 1243.53 841.911C1243.36 843.046 1243.6 843.978 1243.32 844.067Z" fill="white"/>
<path d="M1120.43 582.392L1118.07 534.998C1117.05 523.225 1123.69 512.877 1136.56 512.31H1137.74C1143.53 512.349 1149.09 514.386 1153.31 518.013C1157.53 521.64 1160.11 526.593 1160.53 531.885C1161.34 542.095 1162.1 553.376 1161.98 558.859C1161.73 570.203 1149.36 571.854 1149.36 571.854C1149.36 571.854 1149.54 578.749 1149.66 582.064L1152.85 589.74L1142.61 587.787L1120.43 582.392Z" fill="#FFBF9D"/>
<path d="M1149.36 571.829C1143.67 571.775 1138.12 570.231 1133.36 567.38C1133.36 567.38 1137.16 575.926 1149.49 574.943L1149.36 571.829Z" fill="#7BD28E"/>
<path d="M1156.48 541.716C1156.48 542.138 1156.3 542.543 1155.98 542.844C1155.65 543.146 1155.22 543.32 1154.76 543.33C1154.53 543.345 1154.31 543.319 1154.1 543.254C1153.88 543.188 1153.69 543.084 1153.52 542.948C1153.35 542.811 1153.22 542.646 1153.12 542.46C1153.02 542.275 1152.97 542.073 1152.96 541.868C1152.95 541.444 1153.13 541.036 1153.45 540.732C1153.77 540.428 1154.21 540.252 1154.68 540.242C1154.9 540.228 1155.12 540.256 1155.34 540.323C1155.55 540.39 1155.75 540.495 1155.91 540.632C1156.08 540.77 1156.22 540.936 1156.31 541.122C1156.41 541.309 1156.47 541.51 1156.48 541.716Z" fill="#263238"/>
<path d="M1157.86 536.851C1157.64 537.053 1156.31 536.133 1154.41 536.133C1152.52 536.133 1151.12 536.977 1150.91 536.763C1150.7 536.549 1151.03 536.296 1151.65 535.893C1152.46 535.384 1153.42 535.116 1154.4 535.124C1155.39 535.121 1156.36 535.413 1157.15 535.956C1157.78 536.372 1157.97 536.75 1157.86 536.851Z" fill="#263238"/>
<path d="M1139.14 541.969C1139.14 542.391 1138.96 542.795 1138.64 543.097C1138.32 543.398 1137.88 543.573 1137.42 543.583C1137.2 543.598 1136.97 543.572 1136.76 543.507C1136.55 543.441 1136.35 543.337 1136.18 543.201C1136.01 543.065 1135.87 542.899 1135.78 542.714C1135.68 542.528 1135.62 542.327 1135.61 542.121C1135.61 541.698 1135.79 541.292 1136.11 540.988C1136.43 540.685 1136.87 540.508 1137.33 540.495C1137.55 540.479 1137.78 540.505 1137.99 540.572C1138.21 540.638 1138.41 540.743 1138.57 540.88C1138.74 541.018 1138.88 541.185 1138.98 541.372C1139.08 541.559 1139.13 541.762 1139.14 541.969Z" fill="#263238"/>
<path d="M1139.24 537.128C1139.02 537.342 1137.7 536.422 1135.8 536.41C1133.9 536.397 1132.5 537.267 1132.3 537.053C1132.09 536.838 1132.42 536.574 1133.02 536.17C1133.84 535.669 1134.79 535.401 1135.77 535.401C1136.76 535.407 1137.72 535.698 1138.52 536.233C1139.16 536.637 1139.35 537.027 1139.24 537.128Z" fill="#263238"/>
<path d="M1145.95 550.54C1146.95 550.266 1147.98 550.105 1149.03 550.061C1149.52 550.061 1149.97 549.935 1150.06 549.62C1150.09 549.182 1149.99 548.743 1149.75 548.359L1148.38 544.956C1146.43 540.129 1145.03 536.133 1145.25 536.133C1146.8 538.908 1148.11 541.791 1149.16 544.754L1150.54 548.17C1150.84 548.71 1150.93 549.33 1150.79 549.922C1150.71 550.078 1150.6 550.217 1150.46 550.329C1150.32 550.44 1150.15 550.521 1149.97 550.565C1149.71 550.633 1149.43 550.667 1149.15 550.666C1148.08 550.753 1147 550.711 1145.95 550.54Z" fill="#263238"/>
<path d="M1139.91 531.671C1139.64 532.112 1137.81 531.671 1135.57 531.583C1133.33 531.494 1131.45 531.822 1131.23 531.368C1131.13 531.141 1131.51 530.751 1132.3 530.398C1133.35 529.969 1134.49 529.766 1135.63 529.806C1136.78 529.845 1137.9 530.125 1138.91 530.625C1139.68 531.041 1140.02 531.469 1139.91 531.671Z" fill="#263238"/>
<path d="M1157.99 531.721C1157.6 532.124 1156.05 531.721 1154.19 531.721C1152.34 531.721 1150.76 532.01 1150.4 531.595C1150.24 531.393 1150.48 531.002 1151.17 530.611C1152.12 530.148 1153.18 529.918 1154.25 529.943C1155.32 529.945 1156.37 530.215 1157.29 530.725C1157.95 531.128 1158.17 531.531 1157.99 531.721Z" fill="#263238"/>
<path d="M1119 543.431C1118.8 543.355 1110.53 541.074 1110.75 548.826C1110.97 556.578 1119.4 554.788 1119.4 554.561C1119.4 554.334 1119 543.431 1119 543.431Z" fill="#FFBF9D"/>
<path d="M1116.73 551.649C1116.73 551.649 1116.58 551.738 1116.34 551.851C1116.16 551.92 1115.98 551.956 1115.79 551.956C1115.6 551.956 1115.41 551.92 1115.24 551.851C1114.69 551.542 1114.23 551.106 1113.92 550.586C1113.62 550.066 1113.46 549.481 1113.48 548.889C1113.44 548.226 1113.56 547.563 1113.83 546.948C1113.9 546.702 1114.04 546.477 1114.23 546.292C1114.42 546.107 1114.66 545.969 1114.92 545.889C1115.09 545.84 1115.27 545.849 1115.43 545.914C1115.59 545.979 1115.72 546.095 1115.8 546.242C1115.91 546.456 1115.87 546.608 1115.91 546.62C1115.95 546.633 1116.09 546.481 1116.01 546.166C1115.96 545.974 1115.84 545.804 1115.66 545.687C1115.55 545.61 1115.41 545.555 1115.28 545.525C1115.14 545.495 1114.99 545.49 1114.85 545.511C1114.5 545.582 1114.18 545.736 1113.91 545.957C1113.65 546.178 1113.45 546.459 1113.34 546.771C1113 547.45 1112.84 548.194 1112.89 548.939C1112.86 549.631 1113.06 550.314 1113.46 550.902C1113.86 551.49 1114.44 551.956 1115.13 552.242C1115.36 552.302 1115.61 552.312 1115.84 552.271C1116.08 552.229 1116.31 552.137 1116.5 552.002C1116.72 551.826 1116.76 551.662 1116.73 551.649Z" fill="#7BD28E"/>
<path d="M1140.02 551.801C1140.31 551.801 1140.39 553.553 1142.11 554.763C1143.83 555.973 1145.88 555.696 1145.91 555.948C1145.93 556.2 1145.45 556.313 1144.53 556.364C1143.4 556.415 1142.28 556.098 1141.37 555.469C1140.93 555.168 1140.56 554.791 1140.28 554.358C1140 553.925 1139.82 553.446 1139.75 552.948C1139.69 552.255 1139.9 551.801 1140.02 551.801Z" fill="#263238"/>
<path d="M1177.21 521.146C1177.05 520.691 1176.7 520.311 1176.24 520.087C1175.24 519.701 1174.15 519.562 1173.07 519.684C1170.37 519.69 1167.71 519.134 1165.29 518.058C1166.12 517.67 1166.87 517.163 1167.53 516.558C1168.22 515.935 1168.71 515.152 1168.95 514.293C1169.19 513.434 1169.18 512.531 1168.9 511.68C1168.86 511.519 1168.77 511.37 1168.65 511.245C1168.53 511.12 1168.38 511.023 1168.22 510.961C1167.67 510.81 1167.2 511.314 1166.84 511.717C1166.37 512.334 1165.72 512.823 1164.97 513.131C1164.22 513.439 1163.4 513.556 1162.58 513.469C1161.45 513.438 1160.34 513.162 1159.35 512.663C1159.31 512.632 1159.27 512.599 1159.24 512.562L1157.87 511.39C1155.34 508.958 1152.33 507.002 1148.99 505.629C1144.04 504.089 1138.73 503.818 1133.63 504.848C1129.36 505.97 1125.58 509.247 1125.07 513.293C1122.62 511.478 1118.99 511.566 1116.08 512.713H1116.01C1112.76 513.86 1110.98 517.062 1110.08 520.137C1110.08 520.314 1110 520.478 1109.95 520.654C1108.89 522.297 1107.41 523.681 1105.64 524.688C1105.33 524.864 1104.97 525.078 1104.94 525.406C1104.92 525.734 1105.23 526.011 1105.52 526.2C1106.33 526.696 1107.24 527.019 1108.2 527.146C1107.92 527.881 1107.58 528.593 1107.17 529.276C1106.81 529.856 1106.39 530.536 1106.73 531.141C1106.88 531.36 1107.1 531.53 1107.36 531.629C1107.62 531.729 1107.91 531.752 1108.19 531.696C1108.73 531.572 1109.24 531.344 1109.69 531.028L1108.65 533.461C1109.85 533.617 1111.06 533.518 1112.2 533.171C1112.97 536.019 1113.58 541.301 1114.47 543.254C1116.72 543.254 1117.22 543.002 1118.4 543.33C1119.87 543.746 1119.38 546.128 1121.26 545.422C1122.22 545.057 1123.62 541.641 1123.93 540.746C1125.94 534.666 1126.49 528.26 1125.56 521.965C1126.89 520.611 1128.49 519.503 1130.28 518.7L1130.14 518.826C1133.56 517.654 1137.44 516.495 1140.75 517.919C1143.32 519.016 1144.88 521.41 1146.83 523.301C1148.47 525.029 1150.5 526.418 1152.78 527.376C1155.05 528.334 1157.52 528.84 1160.02 528.86C1160.59 532.263 1160.88 537.86 1161.14 541.049L1163.96 534.595C1164.19 534.217 1164.37 533.839 1164.56 533.461V533.334C1164.84 532.711 1165.15 532.101 1165.49 531.507C1165.91 531.809 1166.42 531.963 1166.95 531.942C1167.48 531.92 1167.98 531.724 1168.36 531.389C1168.74 531.054 1168.97 530.604 1169.02 530.122C1169.06 529.641 1168.91 529.161 1168.6 528.772C1168.3 528.407 1167.94 528.088 1167.53 527.826C1167.97 528.193 1168.5 528.451 1169.08 528.574C1169.66 528.698 1170.26 528.683 1170.83 528.532C1171.39 528.352 1171.88 528.009 1172.21 527.554C1172.54 527.099 1172.7 526.558 1172.67 526.011C1172.62 525.649 1172.46 525.305 1172.22 525.013C1171.98 524.722 1171.66 524.492 1171.3 524.347C1172.83 524.431 1174.36 524.089 1175.68 523.364C1176.7 522.91 1177.52 522.141 1177.21 521.146Z" fill="#263238"/>
<path d="M1129.08 514.516C1128.65 514.848 1128.25 515.206 1127.87 515.587C1126.92 516.684 1126.29 517.986 1126.05 519.368C1125.86 520.32 1125.78 521.287 1125.81 522.255C1125.81 523.301 1125.94 524.41 1126.07 525.595C1126.21 526.826 1126.27 528.063 1126.25 529.301C1126.22 529.965 1126.14 530.627 1126.01 531.28C1125.92 531.973 1125.64 532.633 1125.19 533.196C1124.98 533.423 1124.71 533.596 1124.41 533.696C1124.1 533.795 1123.77 533.819 1123.46 533.763C1122.84 533.675 1122.28 533.399 1121.86 532.982C1121.18 532.151 1120.74 531.168 1120.61 530.133H1120.86C1120.53 530.994 1120.07 531.806 1119.48 532.54C1118.89 533.222 1118.04 533.673 1117.11 533.801C1116.67 533.847 1116.23 533.782 1115.83 533.612C1115.46 533.446 1115.15 533.183 1114.95 532.856C1114.75 532.55 1114.65 532.201 1114.66 531.847C1114.67 531.523 1114.8 531.212 1115.03 530.965L1115.17 531.066C1114.45 531.856 1113.56 532.496 1112.56 532.944C1112.29 533.065 1112.02 533.17 1111.74 533.259L1111.36 533.347C1111.44 533.297 1111.54 533.259 1111.63 533.234L1112.43 532.881C1113.4 532.406 1114.26 531.759 1114.95 530.977L1115.08 531.078C1114.89 531.324 1114.79 531.62 1114.79 531.923C1114.79 532.226 1114.89 532.521 1115.08 532.767C1115.27 533.064 1115.55 533.301 1115.88 533.448C1116.25 533.588 1116.64 533.64 1117.04 533.599C1117.93 533.459 1118.72 533.007 1119.25 532.339C1119.83 531.62 1120.29 530.831 1120.62 529.994L1120.79 529.629L1120.89 530.019C1121.01 531.008 1121.43 531.948 1122.08 532.742C1122.44 533.108 1122.93 533.355 1123.46 533.448C1123.73 533.491 1124 533.469 1124.26 533.383C1124.52 533.296 1124.75 533.149 1124.93 532.956C1125.34 532.428 1125.61 531.813 1125.7 531.166C1125.82 530.529 1125.89 529.885 1125.92 529.238C1125.95 528.005 1125.89 526.771 1125.75 525.545C1125.64 524.373 1125.53 523.251 1125.53 522.192C1125.52 521.211 1125.61 520.232 1125.81 519.268C1126.07 517.853 1126.73 516.527 1127.73 515.423C1128.12 515.054 1128.58 514.747 1129.08 514.516Z" fill="#455A64"/>
<path d="M1167.61 524.776L1167.51 524.851L1167.2 525.066C1167.04 525.188 1166.87 525.294 1166.69 525.381C1166.46 525.528 1166.21 525.654 1165.95 525.759C1164.3 526.483 1162.49 526.821 1160.67 526.742C1157.96 526.636 1155.35 525.813 1153.15 524.372C1150.48 522.587 1148.24 520.323 1146.57 517.717C1145.63 516.368 1144.87 514.969 1144.04 513.696C1143.26 512.444 1142.3 511.298 1141.18 510.293C1140.17 509.387 1138.93 508.732 1137.58 508.39C1136.96 508.243 1136.33 508.188 1135.69 508.226C1135.1 508.265 1134.53 508.379 1133.97 508.566C1133.02 508.882 1132.15 509.385 1131.43 510.041C1130.87 510.529 1130.41 511.1 1130.06 511.73C1129.78 512.277 1129.58 512.853 1129.46 513.444V513.318C1129.46 513.23 1129.46 513.116 1129.46 512.978C1129.56 512.544 1129.71 512.121 1129.9 511.717C1130.25 511.067 1130.72 510.475 1131.28 509.965C1132.01 509.288 1132.89 508.763 1133.86 508.428C1134.43 508.231 1135.02 508.108 1135.62 508.062C1136.28 508.013 1136.95 508.064 1137.59 508.213C1138.99 508.558 1140.28 509.226 1141.33 510.154C1142.47 511.167 1143.45 512.326 1144.23 513.595C1145.08 514.856 1145.85 516.28 1146.77 517.616C1148.43 520.191 1150.64 522.433 1153.26 524.209C1155.42 525.637 1157.98 526.464 1160.64 526.591C1162.43 526.687 1164.22 526.385 1165.85 525.709C1166.46 525.428 1167.04 525.116 1167.61 524.776Z" fill="#455A64"/>
<path d="M1168.61 519.772C1168.48 519.884 1168.33 519.981 1168.17 520.062C1167.76 520.307 1167.32 520.522 1166.87 520.705C1166.2 520.978 1165.51 521.201 1164.81 521.373C1163.94 521.566 1163.05 521.692 1162.15 521.751C1161.26 521.785 1160.36 521.747 1159.47 521.638C1158.75 521.535 1158.04 521.379 1157.34 521.171C1156.87 521.04 1156.41 520.871 1155.97 520.667C1155.65 520.528 1155.49 520.44 1155.5 520.415C1155.51 520.39 1156.22 520.68 1157.4 520.995C1158.09 521.174 1158.79 521.304 1159.5 521.386C1160.37 521.484 1161.25 521.518 1162.13 521.486C1163.01 521.427 1163.88 521.309 1164.74 521.133C1165.43 520.971 1166.12 520.769 1166.79 520.528C1167.93 520.1 1168.59 519.722 1168.61 519.772Z" fill="#455A64"/>
<path d="M1094.87 732.174L1084.68 790.66C1084.68 790.66 1071.46 863.238 1071.11 877.859L1105.26 878.452C1105.26 878.452 1115.18 809.454 1121.75 799.307C1128.32 789.16 1142.3 708.275 1142.3 708.275L1094.87 732.174Z" fill="#263238"/>
<path d="M1145.86 702.251C1145.86 702.251 1214.5 735.855 1219.87 743.846C1225.25 751.838 1235.82 835.483 1235.82 835.483L1205.15 845.491L1189.89 769.081L1115.98 743.872C1115.98 743.872 1096.2 736.586 1086.93 728.28C1077.67 719.973 1080.21 704.671 1080.21 704.671L1086.6 697.108L1149 687.138L1145.86 702.251Z" fill="#263238"/>
<path d="M1100.64 739.296C1100.91 739.451 1101.21 739.574 1101.52 739.661L1104.09 740.569L1113.6 743.821L1144.94 754.598C1157.19 758.808 1168.31 762.564 1176.36 765.186C1180.41 766.509 1183.68 767.543 1185.99 768.236L1188.6 769.03C1188.9 769.139 1189.21 769.216 1189.53 769.257C1189.25 769.117 1188.96 768.999 1188.65 768.904L1186.08 767.997L1176.57 764.745L1145.2 753.93C1132.95 749.707 1121.83 745.964 1113.78 743.329C1109.74 742.069 1106.47 740.972 1104.16 740.279L1101.54 739.498C1101.25 739.411 1100.94 739.344 1100.64 739.296Z" fill="#455A64"/>
<path d="M1146.22 702.491C1143.44 702.022 1140.69 701.416 1137.97 700.675C1133.45 699.617 1129.73 699.037 1129.73 698.86C1132.58 698.895 1135.41 699.289 1138.14 700.033C1140.93 700.57 1143.64 701.395 1146.22 702.491Z" fill="#455A64"/>
<path d="M1152.31 586.4L1149.56 580.186L1148.41 581.762L1147.34 580.136L1117.96 568.061L1115.49 573.682L1105.86 577.073C1102.86 578.134 1100.2 579.887 1098.14 582.163C1096.08 584.439 1094.7 587.161 1094.12 590.068L1090.54 629.761L1090.63 636.189L1089.62 658.134C1090.54 659.571 1078.4 676.171 1078.04 682.083C1077.68 687.995 1084.2 692.885 1084.2 692.885L1148.89 697.385C1148.89 697.385 1152.16 697.826 1154.87 692.343C1157.23 687.541 1157.04 654.63 1157.04 654.63C1157.04 654.63 1157.19 636.983 1157.82 624.933C1157.88 617.678 1157.21 610.433 1155.82 603.291L1152.31 586.4Z" fill="#EBEBEB"/>
<path d="M1114.22 573.141L1116.84 569.221C1116.84 569.221 1130.01 577.678 1133.34 586.313C1136.67 594.947 1136.65 633.076 1134.93 643.677C1133.06 655.122 1131.98 668.76 1112.18 687.932C1089.42 709.99 1097.89 733.158 1093.34 734.822C1093.34 734.822 1058.37 724.549 1058.97 720.956C1061.72 703.247 1085.7 663.592 1085.9 663.076L1089.41 627.53L1089.01 585.456C1094.51 582.052 1097.38 579.254 1102.51 577.704L1114.22 573.141Z" fill="#7BD28E"/>
<path opacity="0.3" d="M1116.9 609.518L1087.25 648.668L1088.57 635.332L1116.9 609.518Z" fill="black"/>
<path d="M1130.29 660.655C1130.34 660.332 1130.41 660.012 1130.5 659.697C1130.65 659.004 1130.87 658.109 1131.13 656.974C1131.64 654.605 1132.33 651.164 1132.81 646.891C1133.04 644.748 1133.23 642.391 1133.26 639.857C1133.26 637.158 1133.1 634.461 1132.78 631.778C1132.22 626.08 1131.61 619.828 1130.96 613.261C1130.5 608.219 1130.03 603.467 1129.59 598.98V598.892V598.804L1132.68 593.321L1132.9 593.737L1129.52 592.942H1129.41V592.867C1124.96 586.905 1121.16 581.964 1118.55 578.523C1117.18 576.808 1116.17 575.472 1115.42 574.577C1115.05 574.124 1114.74 573.796 1114.55 573.569C1114.36 573.342 1114.22 573.254 1114.24 573.241C1114.25 573.229 1116.12 574.943 1118.85 578.283C1121.59 581.623 1125.42 586.564 1129.92 592.489L1129.74 592.375L1133.12 593.157L1133.52 593.245L1133.33 593.573L1130.26 599.081V598.905C1130.7 603.392 1131.17 608.207 1131.64 613.186C1132.26 619.765 1132.85 626.017 1133.4 631.727C1133.7 634.428 1133.84 637.142 1133.81 639.857C1133.81 642.378 1133.53 644.773 1133.27 646.929C1132.84 650.321 1132.2 653.688 1131.35 657.012C1131.05 658.197 1130.79 659.105 1130.59 659.71C1130.53 660.034 1130.43 660.351 1130.29 660.655Z" fill="#263238"/>
<path d="M1087.32 679.561C1087.32 679.561 1087.14 679.75 1086.8 680.028L1085.24 681.213L1079.58 685.41L1079.48 684.981L1097.99 690.023L1097.66 690.086L1097.77 689.998L1105.59 683.696L1105.73 684.225L1092.53 680.96L1088.71 679.965C1088.24 679.861 1087.78 679.718 1087.33 679.536C1087.8 679.577 1088.26 679.653 1088.71 679.763L1092.53 680.582C1095.8 681.301 1100.46 682.36 1105.92 683.62L1106.54 683.771L1106.06 684.149L1098.26 690.452L1098.15 690.54L1098 690.666H1097.82L1079.36 685.498L1078.85 685.36L1079.28 685.07L1085.17 681.011C1085.86 680.493 1086.58 680.009 1087.32 679.561Z" fill="#263238"/>
<path d="M1153.35 590.736C1153.27 590.736 1152.85 589.954 1151.84 588.732L1150 586.564C1149.19 585.631 1148.5 584.611 1147.95 583.526L1148.53 583.589L1145.38 587.37C1144.56 588.366 1143.76 589.311 1143.02 590.219L1142.84 590.421L1142.59 590.307C1139.76 589.047 1137.3 588.051 1135.58 587.27C1134.61 586.911 1133.69 586.459 1132.83 585.921C1133.83 586.166 1134.79 586.496 1135.72 586.904C1137.49 587.585 1139.98 588.568 1142.84 589.74L1142.43 589.828L1144.76 586.98L1147.95 583.198L1148.31 582.782L1148.53 583.261C1149.57 585.096 1150.78 586.845 1152.15 588.492C1152.7 589.16 1153.12 589.923 1153.35 590.736Z" fill="#263238"/>
<path d="M1148.37 583.627C1148.42 583.719 1148.45 583.816 1148.48 583.917L1148.72 584.774C1148.93 585.53 1149.22 586.652 1149.56 588.089C1150.24 590.988 1151.12 595.198 1152.06 600.429C1152.53 603.038 1153.01 605.9 1153.44 608.988C1153.67 610.525 1153.93 612.126 1154.09 613.79C1154.24 615.454 1154.29 617.168 1154.32 618.92C1154.39 622.424 1154.32 626.105 1154.2 629.912C1154.07 633.718 1153.91 637.663 1153.59 641.697C1152.97 649.764 1151.9 657.402 1150.92 664.385C1149.95 671.368 1148.96 677.57 1147.76 682.763C1146.57 687.956 1145.26 692.078 1144.34 694.914C1143.87 696.326 1143.49 697.435 1143.23 698.166L1142.91 698.998C1142.88 699.099 1142.84 699.197 1142.79 699.288C1142.76 699.188 1142.76 699.085 1142.79 698.985L1143.03 698.128C1143.27 697.322 1143.6 696.225 1144.01 694.838C1144.85 691.99 1146.09 687.855 1147.2 682.675C1148.31 677.494 1149.29 671.255 1150.22 664.31C1151.16 657.365 1152.22 649.739 1152.82 641.621C1153.14 637.6 1153.32 633.668 1153.44 629.861C1153.56 626.054 1153.66 622.386 1153.6 618.895C1153.6 617.156 1153.52 615.454 1153.4 613.853C1153.27 612.252 1153.01 610.614 1152.79 609.076C1152.35 605.988 1151.9 603.126 1151.42 600.505C1150.55 595.286 1149.74 591.064 1149.15 588.152C1148.85 586.753 1148.61 585.631 1148.45 584.812L1148.27 583.942C1148.28 583.833 1148.31 583.726 1148.37 583.627Z" fill="#263238"/>
<path d="M1054.4 716.531C1054.72 718.194 1054.83 719.886 1054.73 721.573C1054.44 723.338 1051.19 729.577 1051.19 729.577C1051.19 729.577 1049.36 729.691 1049.82 725.518C1050.01 723.499 1050.39 721.499 1050.97 719.544L1054.4 716.531Z" fill="#FFBF9D"/>
<path d="M1025.34 748.636C1025.34 748.636 1024.61 722.973 1030.64 719.355C1036.68 715.738 1045.38 712.788 1048.37 716.267C1052.09 720.692 1054.89 725.709 1056.62 731.065C1057.96 736.075 1058.85 741.175 1059.3 746.317L1051.82 746.48C1051.82 746.48 1048.47 721.271 1045.68 717.78C1042.89 714.288 1032 718.725 1031.43 723.376C1030.85 728.027 1031.1 748.497 1031.1 748.497L1025.34 748.636Z" fill="#455A64"/>
<path d="M1004.95 787.471C1003.76 776.996 1001.46 753.854 1000.46 743.682C1000.32 742.348 1000.76 741.019 1001.67 739.973C1002.58 738.928 1003.9 738.246 1005.35 738.073L1073.06 730.056C1074.52 729.885 1075.99 730.237 1077.16 731.038C1078.34 731.84 1079.13 733.028 1079.37 734.354L1087.02 777.034C1087.14 777.716 1087.11 778.413 1086.93 779.085C1086.75 779.757 1086.43 780.389 1085.99 780.946C1085.54 781.502 1084.98 781.971 1084.33 782.325C1083.68 782.68 1082.97 782.912 1082.22 783.009L1011.36 792.059C1010.61 792.158 1009.84 792.116 1009.11 791.937C1008.37 791.758 1007.69 791.444 1007.09 791.016C1006.49 790.587 1005.99 790.052 1005.63 789.443C1005.26 788.834 1005.03 788.163 1004.95 787.471Z" fill="#455A64"/>
<path d="M1048.72 728.254L1054.41 716.733L1054.15 702.767L1037.25 700.914L1031.03 713.771C1031.03 713.771 1030.49 720.704 1031.03 722.279C1031.56 723.855 1034.16 723.842 1034.16 723.842C1034.55 725.997 1038.05 726.628 1038.05 726.628C1038.84 728.972 1042.05 728.304 1042.05 728.304C1042.05 728.304 1043.36 730.951 1044.4 731.228C1044.87 731.301 1045.36 731.23 1045.78 731.027C1047.1 730.465 1048.14 729.478 1048.72 728.254Z" fill="#FFBF9D"/>
<path d="M1034.38 720.363C1034.55 720.363 1034.61 721.132 1034.55 722.065C1034.48 722.998 1034.27 723.742 1034.09 723.729C1033.91 723.716 1033.86 722.947 1033.93 722.027C1034 721.107 1034.22 720.351 1034.38 720.363Z" fill="#7BD28E"/>
<path d="M1038.5 721.763C1038.58 722.607 1038.52 723.457 1038.31 724.284C1038.3 725.117 1038.15 725.945 1037.89 726.742C1037.43 725.084 1037.65 723.333 1038.5 721.813V721.763Z" fill="#7BD28E"/>
<path d="M1042.9 723.931C1043.07 723.994 1042.78 724.927 1042.5 726.086C1042.23 727.246 1042.05 728.191 1041.87 728.191C1041.61 727.467 1041.61 726.685 1041.87 725.96C1042.19 724.75 1042.75 723.868 1042.9 723.931Z" fill="#7BD28E"/>
<path d="M1052.54 720.313C1052.12 721.876 1051.5 723.39 1050.7 724.826C1050.08 726.329 1049.28 727.763 1048.31 729.099C1049.33 726.011 1050.75 723.049 1052.54 720.275V720.313Z" fill="#7BD28E"/>
<path d="M1035.25 717.931C1035.25 718.007 1035.1 718.133 1034.74 718.171C1034.28 718.222 1033.81 718.114 1033.44 717.868C1033.05 717.626 1032.78 717.262 1032.68 716.847C1032.6 716.532 1032.68 716.343 1032.75 716.33C1032.82 716.318 1033.12 716.986 1033.79 717.414C1034.47 717.843 1035.21 717.78 1035.25 717.931Z" fill="#7BD28E"/>
<path d="M1039.61 720.464C1039.61 720.54 1039.41 720.64 1039.04 720.666C1038.55 720.665 1038.07 720.528 1037.67 720.275C1037.25 720.024 1036.94 719.657 1036.77 719.229C1036.65 718.901 1036.69 718.687 1036.77 718.674C1036.86 718.661 1037.23 719.329 1038.01 719.808C1038.79 720.287 1039.59 720.313 1039.61 720.464Z" fill="#7BD28E"/>
<path d="M1048.98 723.111C1049.06 723.111 1049.2 723.565 1048.6 723.918C1048.24 724.075 1047.86 724.165 1047.47 724.183C1047.08 724.2 1046.68 724.144 1046.32 724.018C1045.57 723.792 1044.93 723.35 1044.49 722.758C1044.16 722.317 1044.12 721.976 1044.18 721.951C1044.84 722.591 1045.63 723.101 1046.51 723.451C1047.12 723.649 1047.78 723.675 1048.4 723.527C1048.83 723.426 1048.9 723.111 1048.98 723.111Z" fill="#7BD28E"/>
<path d="M1081.92 776.53C1081.92 776.53 1081.92 776.417 1081.81 776.177C1081.7 775.938 1081.67 775.547 1081.56 775.093L1080.65 770.946C1079.88 767.291 1078.79 762.123 1077.45 755.657C1076.77 752.43 1076.07 748.901 1075.28 745.107C1074.88 743.203 1074.48 741.237 1074.07 739.22C1073.96 738.716 1073.86 738.199 1073.75 737.695L1073.59 736.939C1073.54 736.722 1073.43 736.52 1073.27 736.359C1073.12 736.19 1072.92 736.06 1072.69 735.983C1072.47 735.905 1072.23 735.883 1071.99 735.918L1070.24 736.132L1039.67 739.775L1009.1 743.38C1008.56 743.402 1008.02 743.499 1007.51 743.67C1007.3 743.779 1007.12 743.935 1007 744.122C1006.87 744.309 1006.79 744.521 1006.78 744.741C1006.78 745.712 1006.93 746.808 1007 747.817C1007.16 749.871 1007.31 751.863 1007.47 753.791C1007.76 757.649 1008.03 761.224 1008.28 764.518C1008.76 771.035 1009.14 776.329 1009.42 780.047C1009.54 781.837 1009.62 783.249 1009.69 784.27V785.366C1009.71 785.492 1009.71 785.619 1009.69 785.744C1009.68 785.619 1009.68 785.492 1009.69 785.366L1009.57 784.282C1009.46 783.261 1009.34 781.85 1009.16 780.06C1008.83 776.354 1008.36 771.06 1007.78 764.543C1007.49 761.266 1007.19 757.686 1006.88 753.829C1006.71 751.901 1006.55 749.909 1006.37 747.867C1006.3 746.821 1006.17 745.838 1006.13 744.691C1006.16 744.376 1006.27 744.071 1006.45 743.803C1006.63 743.535 1006.88 743.312 1007.18 743.153C1007.47 743.004 1007.79 742.914 1008.13 742.888L1009.01 742.788L1039.59 739.132L1070.12 735.527L1071.87 735.325C1072.38 735.266 1072.9 735.384 1073.33 735.657C1073.76 735.929 1074.06 736.336 1074.18 736.8L1074.34 737.582C1074.44 738.099 1074.53 738.603 1074.64 739.107C1075.04 741.136 1075.44 743.103 1075.81 745.006C1076.57 748.787 1077.27 752.342 1077.9 755.581C1079.15 762.01 1080.17 767.241 1080.88 770.896C1081.21 772.673 1081.48 774.072 1081.65 775.068C1081.74 775.522 1081.79 775.875 1081.85 776.165C1081.88 776.284 1081.91 776.406 1081.92 776.53Z" fill="#263238"/>
<path d="M1049.43 745.25L1033.49 747.05C1033.1 747.094 1032.82 747.421 1032.87 747.78L1033.24 750.508C1033.29 750.867 1033.64 751.122 1034.04 751.078L1049.97 749.279C1050.36 749.235 1050.64 748.907 1050.59 748.548L1050.23 745.821C1050.18 745.462 1049.82 745.206 1049.43 745.25Z" fill="#263238"/>
<path d="M1110.44 615.278L1069.49 652.6L1058.49 705.175L1033.75 702.465L1042.82 650.785C1044.25 642.609 1047.8 634.866 1053.17 628.21L1083.87 590.068C1085.9 587.362 1088.57 585.12 1091.7 583.513C1094.82 581.907 1098.3 580.98 1101.88 580.804C1106.11 580.757 1110.2 582.19 1113.33 584.812C1119.51 590.925 1118.99 599.005 1118.82 601.463" fill="#7BD28E"/>
<path d="M1118.79 601.412C1118.93 600.393 1118.99 599.365 1118.96 598.337C1118.95 595.375 1118.29 592.445 1117.04 589.715C1116.12 587.737 1114.81 585.93 1113.18 584.383C1111.1 582.695 1108.58 581.528 1105.86 580.993C1102.71 580.375 1099.44 580.532 1096.38 581.446C1092.93 582.408 1089.77 584.086 1087.14 586.35C1085.73 587.558 1084.47 588.902 1083.38 590.358L1079.8 594.77L1072.23 604.135L1055.53 624.781C1054.07 626.609 1052.53 628.412 1051.13 630.365C1046.8 636.436 1043.89 643.265 1042.59 650.419C1040.89 660.15 1039.11 670.221 1037.3 680.532C1036.01 687.956 1034.73 695.254 1033.48 702.364V702.704H1033.85L1058.59 705.401H1058.92V705.111C1063.04 685.385 1066.76 667.537 1069.92 652.524L1069.84 652.663L1099.53 625.361L1107.65 617.798L1109.75 615.845C1110.22 615.391 1110.44 615.151 1110.44 615.151C1110.44 615.151 1110.18 615.353 1109.7 615.782L1107.54 617.798L1099.29 625.197L1069.3 652.386V652.474C1066.12 667.474 1062.43 685.246 1058.18 705.023L1058.56 704.771L1033.82 702.048L1034.14 702.427C1035.39 695.305 1036.67 688.007 1037.97 680.595C1039.77 670.272 1041.53 660.201 1043.24 650.47C1044.1 645.721 1045.67 641.105 1047.92 636.756C1049.01 634.65 1050.25 632.616 1051.65 630.668C1053.02 628.739 1054.55 626.886 1056.01 625.097C1061.88 617.811 1067.44 610.891 1072.65 604.4L1080.2 595.022L1083.76 590.597C1084.83 589.168 1086.06 587.842 1087.43 586.64C1090 584.416 1093.09 582.764 1096.46 581.812C1099.45 580.889 1102.64 580.715 1105.73 581.308C1108.41 581.811 1110.89 582.95 1112.94 584.61C1114.56 586.113 1115.86 587.873 1116.79 589.803C1118.07 592.5 1118.76 595.398 1118.83 598.337C1118.83 599.332 1118.83 600.101 1118.83 600.618C1118.83 601.135 1118.79 601.412 1118.79 601.412Z" fill="#263238"/>
</svg>
