<svg width="839" height="670" viewBox="0 0 839 670" fill="none" xmlns="http://www.w3.org/2000/svg">
<g opacity="0.3">
<path d="M161.273 9.96509H42.2324V151.212H161.273V9.96509Z" stroke="black" stroke-linecap="round" stroke-linejoin="round"/>
<path d="M288.498 9.96497H169.457V151.212H288.498V9.96497Z" stroke="black" stroke-linecap="round" stroke-linejoin="round"/>
<path d="M415.705 9.96497H296.664V151.212H415.705V9.96497Z" stroke="black" stroke-linecap="round" stroke-linejoin="round"/>
<path d="M161.273 157.981H42.2324V299.229H161.273V157.981Z" stroke="black" stroke-linecap="round" stroke-linejoin="round"/>
<path d="M288.498 157.981H169.457V299.229H288.498V157.981Z" stroke="black" stroke-linecap="round" stroke-linejoin="round"/>
<path d="M415.705 157.981H296.664V299.229H415.705V157.981Z" stroke="black" stroke-linecap="round" stroke-linejoin="round"/>
<path d="M161.273 306.013H42.2324V447.26H161.273V306.013Z" stroke="black" stroke-linecap="round" stroke-linejoin="round"/>
<path d="M288.498 306.013H169.457V447.26H288.498V306.013Z" stroke="black" stroke-linecap="round" stroke-linejoin="round"/>
<path d="M415.705 306.013H296.664V447.26H415.705V306.013Z" stroke="black" stroke-linecap="round" stroke-linejoin="round"/>
</g>
<path d="M770.004 31.25V480.72C770.004 486.646 767.166 492.329 762.113 496.52C757.06 500.711 750.206 503.068 743.058 503.072H508.764C501.616 503.068 494.762 500.711 489.71 496.52C484.657 492.329 481.818 486.646 481.818 480.72V31.2351C481.818 25.3151 484.655 19.6375 489.705 15.4513C494.755 11.2652 501.605 8.91345 508.746 8.91345H609.311L609.401 9.16526C611.902 16.6453 617.674 21.5037 624.071 21.5037H627.644C634.059 21.5037 639.813 16.6453 642.332 9.16526L642.422 8.91345H742.969C746.515 8.90371 750.028 9.47426 753.308 10.5924C756.587 11.7106 759.568 13.3543 762.08 15.4294C764.592 17.5045 766.585 19.9702 767.944 22.685C769.304 25.3998 770.004 28.3104 770.004 31.25Z" fill="white"/>
<path d="M770.004 353.544V31.25C770.004 25.3259 767.165 19.6446 762.112 15.4557C757.058 11.2668 750.204 8.91345 743.058 8.91345H642.511L642.422 9.16526C639.902 16.6453 634.149 21.5037 627.734 21.5037H624.16C617.763 21.5037 611.991 16.6453 609.49 9.16526L609.401 8.91345H508.746C501.605 8.91345 494.755 11.2652 489.705 15.4513C484.655 19.6375 481.818 25.3151 481.818 31.2351V353.544H770.004Z" fill="#9262E2"/>
<path d="M642.421 9.16526C639.902 16.6453 634.148 21.5037 627.733 21.5037H624.159C617.762 21.5037 611.991 16.6453 609.489 9.16526L609.4 8.91345H524.56C514.39 8.9133 504.552 11.9179 496.814 17.3879C489.076 22.8579 483.942 30.4352 482.336 38.7596H769.467C767.861 30.4377 762.731 22.8624 754.996 17.3927C747.261 11.923 737.428 8.91682 727.261 8.91345H642.511L642.421 9.16526Z" fill="#D4D4D4"/>
<path d="M788.319 138.607V93.7122H783.369V36.2416C783.369 26.8449 778.866 17.833 770.851 11.1886C762.835 4.5441 751.963 0.811279 740.628 0.811279H511.123C505.51 0.811279 499.952 1.72771 494.766 3.50825C489.58 5.28879 484.869 7.89857 480.9 11.1886C476.931 14.4786 473.782 18.3844 471.634 22.683C469.486 26.9816 468.381 31.5888 468.381 36.2416V492.94C468.381 497.593 469.486 502.2 471.634 506.499C473.782 510.797 476.931 514.703 480.9 517.993C484.869 521.283 489.58 523.893 494.766 525.673C499.952 527.454 505.51 528.37 511.123 528.37H740.681C752.008 528.359 762.866 524.62 770.87 517.977C778.874 511.334 783.369 502.329 783.369 492.94V176.867H788.265V150.338H783.369V138.607H788.319ZM770.004 467.641C769.999 477.037 765.494 486.046 757.48 492.69C749.465 499.333 738.596 503.068 727.262 503.071H524.56C518.947 503.071 513.389 502.155 508.203 500.374C503.018 498.594 498.306 495.984 494.337 492.694C490.368 489.404 487.22 485.498 485.072 481.2C482.924 476.901 481.818 472.294 481.818 467.641V44.3141C481.828 34.9226 486.335 25.9183 494.35 19.2803C502.364 12.6422 513.23 8.91344 524.56 8.91345H609.311L609.4 9.16525C611.902 16.6453 617.673 21.5036 624.07 21.5036H627.644C634.059 21.5036 639.813 16.6453 642.332 9.16525L642.421 8.91345H727.262C738.59 8.91736 749.453 12.6474 757.467 19.2846C765.481 25.9218 769.989 34.9238 770.004 44.3141V467.641Z" fill="#707070" stroke="#263238" stroke-linejoin="round"/>
<path d="M737.268 5.69922H514.553C509.139 5.69728 503.777 6.57981 498.775 8.29639C493.773 10.013 489.227 12.5299 485.399 15.7034C481.57 18.8769 478.534 22.6447 476.463 26.7914C474.392 30.9382 473.328 35.3825 473.33 39.8705V489.326C473.33 493.813 474.397 498.255 476.468 502.401C478.54 506.546 481.577 510.312 485.405 513.483C489.233 516.655 493.778 519.171 498.779 520.887C503.78 522.602 509.14 523.484 514.553 523.482H737.268C742.679 523.482 748.037 522.599 753.036 520.882C758.036 519.166 762.578 516.65 766.404 513.478C770.231 510.307 773.266 506.541 775.336 502.397C777.407 498.253 778.473 493.811 778.473 489.326V39.8705C778.475 35.3838 777.411 30.9406 775.342 26.7948C773.272 22.6491 770.237 18.882 766.411 15.7087C762.584 12.5354 758.041 10.0181 753.041 8.30065C748.04 6.5832 742.681 5.69922 737.268 5.69922ZM770.003 468.9C770.003 477.963 765.66 486.655 757.929 493.063C750.199 499.471 739.713 503.072 728.78 503.072H523.041C512.108 503.072 501.622 499.471 493.892 493.063C486.161 486.655 481.818 477.963 481.818 468.9V43.0699C481.818 34.011 486.159 25.3232 493.886 18.9176C501.614 12.512 512.095 8.91343 523.023 8.91343H609.311L609.4 9.16523C611.901 16.6453 617.673 21.5036 624.07 21.5036H627.644C634.059 21.5036 639.812 16.6453 642.332 9.16523L642.421 8.91343H728.691C739.624 8.91343 750.109 12.5136 757.84 18.922C765.571 25.3303 769.914 34.0219 769.914 43.0847L770.003 468.9Z" fill="#263238" stroke="#263238" stroke-linejoin="round"/>
<path d="M629.037 10.6021C629.037 9.94297 628.801 9.29862 628.359 8.75056C627.918 8.2025 627.29 7.77534 626.555 7.5231C625.82 7.27085 625.012 7.20486 624.232 7.33345C623.452 7.46204 622.736 7.77945 622.174 8.24554C621.611 8.71162 621.228 9.30545 621.073 9.95193C620.918 10.5984 620.998 11.2685 621.302 11.8775C621.606 12.4865 622.122 13.0069 622.783 13.3732C623.444 13.7394 624.221 13.9348 625.017 13.9348C625.545 13.9368 626.069 13.8519 626.558 13.6851C627.047 13.5183 627.491 13.2729 627.865 12.9631C628.238 12.6532 628.535 12.285 628.736 11.8798C628.937 11.4746 629.039 11.0403 629.037 10.6021Z" fill="white"/>
<path d="M507.425 23.3551C507.425 26.7174 502.868 27.932 502.85 30.4945V30.6722H507.282V31.7979H501.367V30.85C501.367 27.2506 505.924 26.5397 505.924 23.444C505.924 22.3034 505.459 21.6961 504.351 21.6961C503.243 21.6961 502.779 22.3479 502.779 23.3403V24.3179H501.367V23.4143C501.367 21.711 502.314 20.5704 504.387 20.5704C506.46 20.5704 507.425 21.6517 507.425 23.3551Z" fill="#263238"/>
<path d="M514.804 23.3403V23.5773C514.867 24.0559 514.741 24.5386 514.444 24.9527C514.148 25.3668 513.697 25.6898 513.16 25.8731C513.7 26.0572 514.153 26.3825 514.45 26.7996C514.747 27.2167 514.871 27.7028 514.804 28.1838V29.0429C514.804 30.7611 513.839 31.872 511.766 31.872C509.693 31.872 508.746 30.7611 508.746 29.0429V28.2875H510.14V29.1318C510.14 30.139 510.64 30.7463 511.712 30.7463C512.784 30.7463 513.303 30.1538 513.303 29.0133V28.1542C513.303 27.0581 512.731 26.5249 511.605 26.4952H510.801V25.3843H511.766C511.994 25.3853 512.219 25.3465 512.428 25.2706C512.636 25.1947 512.823 25.0833 512.976 24.9437C513.13 24.804 513.246 24.6392 513.318 24.46C513.389 24.2807 513.414 24.091 513.392 23.9031V23.3847C513.392 22.2442 512.909 21.6517 511.802 21.6517C510.694 21.6517 510.229 22.2738 510.229 23.281V23.8439H508.835V23.3403C508.835 21.6369 509.782 20.526 511.855 20.526C513.928 20.526 514.804 21.6369 514.804 23.3403Z" fill="#263238"/>
<path d="M517.699 24.1847V25.6659H516.27V24.1847H517.699ZM517.699 30.2576V31.7388H516.27V30.2576H517.699Z" fill="#263238"/>
<path d="M520.701 25.1918C520.898 24.8985 521.19 24.6561 521.543 24.4914C521.896 24.3267 522.297 24.2462 522.702 24.2587C524.489 24.2587 525.204 25.3103 525.204 26.91V29.0874C525.204 30.8056 524.239 31.9165 522.166 31.9165C520.094 31.9165 519.146 30.8056 519.146 29.0874V28.3468H520.558V29.1762C520.558 30.1835 521.058 30.7908 522.131 30.7908C523.203 30.7908 523.703 30.1835 523.703 29.1762V26.9989C523.703 26.0065 523.203 25.3992 522.131 25.3992C521.937 25.3933 521.743 25.4193 521.562 25.4758C521.38 25.5324 521.214 25.6182 521.072 25.7285C520.931 25.8387 520.818 25.9711 520.738 26.118C520.659 26.2649 520.616 26.4233 520.612 26.5841V26.8508H519.218L519.575 20.6445H524.936V21.7554H520.969L520.701 25.1918Z" fill="#263238"/>
<path d="M532.725 23.3255V23.5773H531.421V23.281C531.421 22.2886 530.92 21.6962 529.813 21.6962C528.705 21.6962 528.187 22.3034 528.187 23.4884V25.9472C528.345 25.58 528.643 25.2656 529.037 25.0517C529.43 24.8379 529.897 24.7363 530.366 24.7622C532.153 24.7622 532.868 25.7991 532.868 27.3988V29.0873C532.868 30.8055 531.832 31.9164 529.777 31.9164C527.722 31.9164 526.686 30.8055 526.686 29.0873V23.3995C526.686 21.6369 527.65 20.526 529.777 20.526C531.903 20.526 532.725 21.6221 532.725 23.3255ZM528.097 27.5025V29.1762C528.097 30.1834 528.597 30.7907 529.687 30.7907C530.777 30.7907 531.296 30.1834 531.296 29.1762V27.5025C531.296 26.4952 530.777 25.888 529.687 25.888C528.597 25.888 528.097 26.5397 528.097 27.5025Z" fill="#263238"/>
<path d="M679.749 23.8143H675.943V31.6943H679.749V23.8143Z" fill="#263238"/>
<path d="M684.824 22.2294H681.018V31.6942H684.824V22.2294Z" fill="#263238"/>
<path d="M689.88 21.1185H686.074V31.6943H689.88V21.1185Z" fill="#263238"/>
<path d="M694.954 19.1633H691.148V31.6943H694.954V19.1633Z" fill="#263238"/>
<path d="M742.004 31.4722H719.186V19.9188H742.004V31.4722ZM720.454 30.4205H740.735V20.9705H720.454V30.4205Z" fill="#263238"/>
<path d="M734.409 22.111H722.365V29.28H734.409V22.111Z" fill="#263238"/>
<path d="M744.094 24.3328H741.217V27.0582H744.094V24.3328Z" fill="#263238"/>
<path d="M710.823 28.9689C710.672 28.9644 710.525 28.9288 710.394 28.8653C705.748 26.5694 702.675 28.7023 702.55 28.8653C702.466 28.9265 702.368 28.9732 702.262 29.0027C702.156 29.0322 702.044 29.0438 701.933 29.0369C701.821 29.03 701.712 29.0047 701.613 28.9626C701.513 28.9204 701.425 28.8621 701.353 28.7912C701.197 28.6584 701.109 28.4804 701.109 28.295C701.109 28.1096 701.197 27.9316 701.353 27.7988C701.514 27.6803 705.445 24.8364 711.198 27.7988C711.294 27.846 711.377 27.9085 711.444 27.9826C711.51 28.0567 711.558 28.141 711.584 28.2306C711.611 28.3202 711.616 28.4133 711.599 28.5044C711.581 28.5956 711.543 28.683 711.484 28.7616C711.398 28.8323 711.294 28.8873 711.18 28.923C711.066 28.9587 710.945 28.9744 710.823 28.9689Z" fill="#263238"/>
<path d="M712.539 26.5397C712.389 26.5403 712.242 26.5097 712.11 26.4508C705.391 23.1329 700.888 26.3323 700.835 26.3619C700.751 26.4232 700.654 26.4703 700.549 26.5004C700.444 26.5306 700.332 26.5433 700.221 26.5378C700.11 26.5323 700.001 26.5087 699.901 26.4684C699.801 26.428 699.711 26.3717 699.638 26.3027C699.564 26.2336 699.507 26.1532 699.47 26.0659C699.434 25.9787 699.419 25.8864 699.425 25.7942C699.432 25.702 699.46 25.6119 699.509 25.5288C699.558 25.4458 699.626 25.3715 699.709 25.3103C699.709 25.3103 705.213 21.3999 712.985 25.2362C713.081 25.2834 713.164 25.3459 713.231 25.42C713.297 25.4941 713.345 25.5784 713.371 25.668C713.398 25.7576 713.403 25.8507 713.386 25.9418C713.368 26.033 713.33 26.1204 713.271 26.199C713.195 26.3031 713.087 26.3891 712.959 26.4488C712.83 26.5084 712.686 26.5397 712.539 26.5397Z" fill="#263238"/>
<path d="M714.111 23.844C713.954 23.8395 713.801 23.8039 713.664 23.7403C705.159 19.5485 699.512 23.4885 699.28 23.7403C699.196 23.8015 699.098 23.8483 698.992 23.8778C698.886 23.9072 698.774 23.9189 698.663 23.912C698.551 23.9051 698.442 23.8798 698.343 23.8376C698.243 23.7954 698.155 23.7371 698.083 23.6662C698.003 23.6015 697.94 23.5242 697.897 23.439C697.854 23.3538 697.832 23.2624 697.832 23.17C697.832 23.0777 697.854 22.9862 697.897 22.901C697.94 22.8159 698.003 22.7386 698.083 22.6738C698.083 22.6738 704.855 17.8599 714.468 22.5998C714.661 22.6954 714.801 22.8498 714.857 23.0298C714.914 23.2098 714.883 23.401 714.772 23.5626C714.694 23.6468 714.594 23.7157 714.479 23.7643C714.365 23.8129 714.239 23.8401 714.111 23.844Z" fill="#263238"/>
<path d="M708.322 30.1391C708.325 30.4913 708.202 30.8363 707.969 31.1306C707.736 31.4248 707.402 31.655 707.01 31.7918C706.619 31.9286 706.187 31.9659 705.77 31.899C705.353 31.8321 704.969 31.664 704.668 31.416C704.366 31.168 704.16 30.8513 704.076 30.5061C703.992 30.161 704.033 29.8028 704.195 29.4772C704.356 29.1515 704.631 28.873 704.984 28.6771C705.337 28.4811 705.752 28.3765 706.177 28.3765C706.743 28.3764 707.286 28.5617 707.687 28.8918C708.089 29.222 708.317 29.6703 708.322 30.1391Z" fill="#263238"/>
<path d="M754.582 130.505H500.025V265.546H754.582V130.505Z" fill="white" stroke="#263238" stroke-linecap="round" stroke-linejoin="round"/>
<path d="M754.582 250.512H500.025V265.561H754.582V250.512Z" fill="white" stroke="#263238" stroke-linecap="round" stroke-linejoin="round"/>
<path d="M754.582 255.844H500.025V260.229H754.582V255.844Z" fill="white" stroke="#263238" stroke-linecap="round" stroke-linejoin="round"/>
<path d="M504.119 115.945L504.512 97.0597H509.426L512.249 108.909L515.251 97.0597H520.022L520.415 115.945H517.128L516.752 103.147L513.858 115.945H510.873L507.836 103.044L507.514 115.945H504.119Z" fill="#263238"/>
<path d="M526.578 115.945V108.539L522.129 97.1338H526.489L528.937 103.77L531.206 97.1338H535.441L531.045 108.539V115.945H526.578Z" fill="#263238"/>
<path d="M550.576 116.212C549.171 116.271 547.775 115.994 546.556 115.412C545.585 114.894 544.859 114.114 544.501 113.205C544.091 112.148 543.898 111.041 543.929 109.931V103.147C543.899 102.002 544.098 100.861 544.519 99.7703C544.88 98.8857 545.6 98.132 546.556 97.6374C547.782 97.0735 549.175 96.8067 550.576 96.8672C551.905 96.8119 553.228 97.0415 554.418 97.5337C555.325 97.9651 556.02 98.6465 556.383 99.4593C556.79 100.374 556.984 101.344 556.955 102.318V103.858H552.452V102.081C552.481 101.672 552.481 101.261 552.452 100.852C552.417 100.508 552.255 100.182 551.988 99.9184C551.807 99.789 551.597 99.6908 551.37 99.6297C551.143 99.5687 550.903 99.546 550.665 99.563C550.423 99.5459 550.18 99.57 549.949 99.6337C549.719 99.6973 549.507 99.7993 549.325 99.9333C549.029 100.199 548.841 100.536 548.789 100.896C548.715 101.333 548.679 101.773 548.682 102.214V110.805C548.678 111.267 548.726 111.728 548.825 112.183C548.898 112.533 549.104 112.855 549.415 113.101C549.774 113.324 550.217 113.435 550.665 113.412C550.898 113.432 551.133 113.411 551.355 113.35C551.577 113.288 551.78 113.188 551.952 113.057C552.221 112.775 552.389 112.436 552.434 112.079C552.472 111.655 552.472 111.229 552.434 110.805V108.969H556.937V110.539C556.964 111.545 556.776 112.548 556.383 113.501C556.026 114.331 555.339 115.036 554.436 115.501C553.255 116.034 551.918 116.28 550.576 116.212Z" fill="#263238"/>
<path d="M566.158 116.212C564.777 116.268 563.404 116.007 562.191 115.456C561.222 114.963 560.485 114.211 560.101 113.323C559.658 112.256 559.446 111.133 559.475 110.005V102.955C559.446 101.827 559.658 100.704 560.101 99.6369C560.486 98.7619 561.225 98.0242 562.191 97.5485C563.411 97.0159 564.781 96.7652 566.158 96.8227C567.552 96.7623 568.941 97.0129 570.179 97.5485C571.148 98.0318 571.891 98.7732 572.287 99.6518C572.745 100.711 572.963 101.83 572.93 102.955V110.005C572.963 111.135 572.745 112.259 572.287 113.323C571.902 114.215 571.157 114.968 570.179 115.456C568.948 116.01 567.557 116.271 566.158 116.212ZM566.158 113.427C566.398 113.448 566.64 113.429 566.87 113.37C567.101 113.312 567.314 113.215 567.498 113.086C567.789 112.839 567.982 112.524 568.052 112.183C568.147 111.778 568.195 111.366 568.195 110.953V102.081C568.195 101.673 568.148 101.266 568.052 100.866C567.975 100.528 567.783 100.214 567.498 99.9628C567.117 99.718 566.638 99.6016 566.158 99.6369C565.706 99.6103 565.259 99.7267 564.907 99.9628C564.611 100.209 564.411 100.524 564.336 100.866C564.24 101.266 564.192 101.673 564.193 102.081V110.968C564.196 111.38 564.238 111.791 564.318 112.198C564.379 112.541 564.574 112.858 564.872 113.101C565.233 113.344 565.694 113.461 566.158 113.427Z" fill="#263238"/>
<path d="M582.436 116.212C581.039 116.276 579.648 116.019 578.415 115.471C577.457 114.989 576.74 114.237 576.396 113.353C575.982 112.261 575.789 111.12 575.824 109.976V97.0597H580.399V110.509C580.404 110.97 580.445 111.43 580.524 111.887C580.588 112.289 580.786 112.668 581.096 112.983C581.266 113.133 581.475 113.249 581.707 113.324C581.939 113.398 582.188 113.428 582.436 113.412C582.686 113.423 582.936 113.391 583.17 113.317C583.404 113.243 583.616 113.129 583.794 112.983C584.104 112.67 584.297 112.289 584.348 111.887C584.42 111.43 584.456 110.97 584.455 110.509V97.0597H589.047V109.976C589.075 111.12 588.882 112.26 588.475 113.353C588.111 114.213 587.397 114.941 586.456 115.412C585.229 115.977 583.839 116.254 582.436 116.212Z" fill="#263238"/>
<path d="M592.281 115.945V97.0597H598.196C599.531 97.0316 600.863 97.1765 602.145 97.4892C603.174 97.7217 604.071 98.2458 604.682 98.9704C605.313 99.8672 605.617 100.896 605.558 101.933C605.57 102.624 605.493 103.314 605.325 103.992C605.171 104.528 604.885 105.032 604.486 105.473C604.013 105.952 603.397 106.319 602.699 106.539L605.861 115.752H601.108L598.482 107.191H596.856V115.752L592.281 115.945ZM596.927 105.103H598.267C598.885 105.129 599.501 105.022 600.054 104.792C600.488 104.593 600.814 104.264 600.965 103.873C601.153 103.395 601.243 102.895 601.233 102.392C601.285 101.693 601.086 100.998 600.662 100.392C600.396 100.141 600.06 99.9473 599.683 99.8285C599.306 99.7098 598.9 99.6694 598.5 99.711H596.927V105.103Z" fill="#263238"/>
<path d="M614.51 116.212C613.271 116.255 612.039 116.031 610.937 115.56C609.995 115.125 609.249 114.45 608.81 113.634C608.293 112.585 608.015 111.465 607.988 110.331L611.991 109.768C612.005 110.422 612.101 111.072 612.277 111.709C612.382 112.149 612.636 112.555 613.009 112.879C613.346 113.133 613.787 113.271 614.242 113.264C614.476 113.287 614.713 113.256 614.927 113.175C615.142 113.094 615.325 112.966 615.457 112.805C615.677 112.474 615.787 112.101 615.779 111.724C615.806 111.02 615.568 110.326 615.1 109.739C614.583 109.14 613.983 108.593 613.313 108.109L610.954 106.406C610.132 105.842 609.431 105.166 608.882 104.406C608.32 103.565 608.042 102.613 608.078 101.651C608.027 100.991 608.148 100.33 608.432 99.7117C608.715 99.0934 609.155 98.5326 609.722 98.0669C610.984 97.1919 612.6 96.7472 614.242 96.8227C615.208 96.7886 616.17 96.946 617.048 97.2819C617.772 97.5565 618.391 97.9923 618.835 98.5409C619.234 99.0631 619.518 99.6398 619.674 100.244C619.828 100.845 619.93 101.454 619.978 102.066L615.993 102.555C615.968 102.059 615.908 101.564 615.815 101.074C615.773 100.7 615.599 100.344 615.314 100.052C615.157 99.9201 614.967 99.8178 614.758 99.7517C614.549 99.6856 614.326 99.6572 614.103 99.6685C613.879 99.6797 613.662 99.7302 613.464 99.8168C613.266 99.9033 613.093 100.024 612.956 100.17C612.703 100.503 612.567 100.888 612.563 101.281C612.54 101.863 612.733 102.437 613.117 102.925C613.561 103.415 614.064 103.867 614.618 104.273L616.923 105.947C617.879 106.622 618.71 107.411 619.388 108.287C620.113 109.265 620.473 110.399 620.425 111.546C620.437 112.385 620.185 113.212 619.692 113.945C619.212 114.652 618.507 115.236 617.655 115.634C616.685 116.048 615.601 116.247 614.51 116.212Z" fill="#263238"/>
<path d="M622.445 115.945V97.0597H632.38V99.711H627.02V104.732H631.112V107.413H627.02V113.338H632.38V115.945H622.445Z" fill="#263238"/>
<path d="M503.047 291.571V276.67H505.513V291.571H503.047Z" fill="#263238"/>
<path d="M508.424 291.571V276.67H510.121L515.232 286.564V276.67H517.322V291.571H515.714L510.55 281.395V291.571H508.424Z" fill="#263238"/>
<path d="M522.112 291.571V278.24H519.074V276.759H527.58V278.24H524.631V291.571H522.112Z" fill="#263238"/>
<path d="M529.312 291.571V276.67H532.886C533.903 276.644 534.915 276.78 535.87 277.07C536.635 277.29 537.272 277.739 537.657 278.329C538.069 279.045 538.265 279.833 538.229 280.625C538.239 281.155 538.161 281.683 537.997 282.195C537.877 282.634 537.639 283.044 537.3 283.395C536.955 283.723 536.511 283.968 536.013 284.106L538.551 291.512H536.138L533.78 284.52H531.832V291.512L529.312 291.571ZM531.814 283.084H532.761C533.367 283.111 533.974 283.041 534.548 282.876C534.981 282.74 535.334 282.469 535.531 282.121C535.762 281.652 535.866 281.146 535.835 280.64C535.904 279.977 535.703 279.315 535.263 278.759C534.954 278.532 534.59 278.363 534.195 278.263C533.8 278.164 533.384 278.136 532.976 278.181H531.868L531.814 283.084Z" fill="#263238"/>
<path d="M545.431 291.675C544.414 291.715 543.403 291.515 542.518 291.097C541.784 290.696 541.236 290.101 540.964 289.408C540.629 288.584 540.471 287.716 540.499 286.846V281.306C540.48 280.446 540.637 279.59 540.964 278.773C541.251 278.107 541.798 277.539 542.518 277.159C543.409 276.753 544.416 276.559 545.431 276.596C546.437 276.555 547.436 276.756 548.308 277.174C549.027 277.551 549.569 278.121 549.845 278.788C550.188 279.596 550.352 280.45 550.327 281.306V286.979C550.345 287.84 550.182 288.697 549.845 289.512C549.572 290.2 549.031 290.794 548.308 291.201C547.426 291.59 546.425 291.755 545.431 291.675ZM545.431 290.045C545.963 290.075 546.492 289.955 546.932 289.705C547.285 289.455 547.529 289.117 547.629 288.742C547.747 288.254 547.801 287.758 547.79 287.261V280.729C547.803 280.231 547.749 279.735 547.629 279.247C547.524 278.886 547.279 278.564 546.932 278.329C546.483 278.097 545.958 277.989 545.431 278.018C544.893 277.989 544.356 278.098 543.894 278.329C543.548 278.564 543.303 278.886 543.197 279.247C543.071 279.734 543.011 280.231 543.019 280.729V287.261C543.013 287.758 543.073 288.255 543.197 288.742C543.297 289.117 543.542 289.455 543.894 289.705C544.339 289.975 544.88 290.115 545.431 290.105V290.045Z" fill="#263238"/>
<path d="M552.863 291.571V276.67H556.777C557.864 276.628 558.948 276.801 559.939 277.174C560.686 277.49 561.274 278.015 561.601 278.655C561.957 279.461 562.127 280.315 562.101 281.173V286.653C562.124 287.559 561.955 288.462 561.601 289.319C561.304 290.006 560.729 290.587 559.975 290.964C559.056 291.377 558.017 291.572 556.973 291.526L552.863 291.571ZM555.365 290.09H556.794C557.488 290.146 558.181 289.987 558.742 289.645C559.161 289.304 559.41 288.844 559.439 288.357C559.533 287.678 559.575 286.995 559.564 286.313V281.469C559.581 280.839 559.521 280.208 559.385 279.588C559.353 279.38 559.268 279.18 559.136 279.001C559.003 278.822 558.826 278.669 558.617 278.551C558.036 278.295 557.38 278.177 556.723 278.21H555.365V290.09Z" fill="#263238"/>
<path d="M569.124 291.675C568.073 291.733 567.027 291.51 566.14 291.038C565.427 290.589 564.923 289.951 564.711 289.231C564.445 288.334 564.319 287.413 564.335 286.49V276.611H566.73V286.579C566.724 287.164 566.778 287.749 566.891 288.327C566.957 288.794 567.194 289.233 567.57 289.586C567.776 289.747 568.021 289.872 568.289 289.951C568.556 290.03 568.841 290.062 569.124 290.045C569.413 290.062 569.703 290.029 569.976 289.95C570.249 289.872 570.501 289.748 570.714 289.586C571.077 289.228 571.307 288.791 571.376 288.327C571.481 287.749 571.529 287.164 571.519 286.579V276.611H573.895V286.49C573.912 287.413 573.786 288.334 573.52 289.231C573.315 289.95 572.816 290.589 572.108 291.038C571.223 291.512 570.176 291.735 569.124 291.675Z" fill="#263238"/>
<path d="M581.042 291.675C580 291.725 578.966 291.497 578.094 291.023C577.378 290.577 576.862 289.947 576.628 289.231C576.337 288.419 576.199 287.574 576.217 286.727V281.469C576.194 280.578 576.333 279.689 576.628 278.833C576.86 278.132 577.378 277.519 578.094 277.1C578.953 276.71 579.913 276.496 580.893 276.478C581.872 276.46 582.843 276.638 583.722 276.996C584.389 277.339 584.894 277.862 585.152 278.477C585.458 279.22 585.603 280.003 585.581 280.788V281.958H583.24V280.906C583.246 280.411 583.211 279.916 583.133 279.425C583.101 279.052 582.911 278.701 582.596 278.433C582.172 278.168 581.642 278.047 581.113 278.092C580.557 278.049 580.002 278.181 579.559 278.462C579.214 278.752 578.988 279.126 578.915 279.529C578.816 280.063 578.768 280.603 578.773 281.143V287.068C578.748 287.662 578.827 288.255 579.005 288.831C579.093 289.209 579.356 289.544 579.737 289.764C580.151 289.971 580.631 290.07 581.113 290.045C581.376 290.064 581.641 290.04 581.892 289.974C582.144 289.908 582.377 289.801 582.579 289.66C582.892 289.372 583.086 289.009 583.133 288.623C583.206 288.132 583.242 287.637 583.24 287.142V286.031H585.616V287.142C585.626 287.954 585.493 288.762 585.223 289.542C584.996 290.197 584.504 290.767 583.829 291.156C582.989 291.568 582.014 291.75 581.042 291.675Z" fill="#263238"/>
<path d="M589.96 291.571V278.24H586.904V276.759H595.41V278.24H592.461V291.571H589.96Z" fill="#263238"/>
<path d="M597.268 291.571V276.67H599.733V291.571H597.268Z" fill="#263238"/>
<path d="M607.237 291.675C606.226 291.718 605.22 291.517 604.343 291.097C603.609 290.696 603.061 290.101 602.788 289.408C602.453 288.584 602.296 287.716 602.324 286.846V281.306C602.295 280.446 602.453 279.588 602.788 278.773C603.076 278.107 603.623 277.539 604.343 277.159C605.224 276.749 606.228 276.554 607.237 276.596C608.249 276.553 609.255 276.754 610.132 277.174C610.847 277.555 611.387 278.123 611.669 278.788C612.013 279.596 612.176 280.45 612.151 281.306V286.979C612.169 287.84 612.006 288.697 611.669 289.512C611.39 290.198 610.851 290.79 610.132 291.201C609.244 291.591 608.238 291.756 607.237 291.675ZM607.237 290.045C607.775 290.076 608.31 289.956 608.756 289.705C609.11 289.458 609.35 289.118 609.435 288.742C609.57 288.256 609.63 287.759 609.614 287.261V280.729C609.632 280.231 609.571 279.733 609.435 279.247C609.344 278.885 609.104 278.561 608.756 278.329C608.302 278.095 607.771 277.986 607.237 278.018C606.705 277.99 606.175 278.099 605.719 278.329C605.372 278.564 605.127 278.886 605.022 279.247C604.886 279.733 604.825 280.231 604.843 280.729V287.261C604.827 287.759 604.887 288.256 605.022 288.742C605.121 289.117 605.366 289.455 605.719 289.705C606.158 289.973 606.692 290.113 607.237 290.105V290.045Z" fill="#263238"/>
<path d="M614.617 291.571V276.67H616.315L621.425 286.564V276.67H623.516V291.571H621.908L616.744 281.395V291.571H614.617Z" fill="#263238"/>
<path d="M512.303 158.055V143.94H516.216C516.891 143.932 517.565 144.002 518.217 144.147C518.742 144.272 519.225 144.495 519.629 144.799C520.025 145.099 520.315 145.483 520.469 145.91C520.674 146.415 520.771 146.946 520.755 147.48C520.763 147.982 520.672 148.482 520.487 148.961C520.336 149.347 520.057 149.691 519.682 149.953C519.287 150.216 518.81 150.38 518.307 150.427C518.92 150.521 519.493 150.745 519.968 151.079C520.399 151.402 520.724 151.809 520.915 152.264C521.128 152.824 521.231 153.41 521.219 153.997C521.223 154.557 521.139 155.114 520.969 155.656C520.811 156.122 520.537 156.556 520.165 156.93C519.797 157.287 519.331 157.566 518.807 157.744C518.179 157.939 517.512 158.035 516.841 158.026L512.303 158.055ZM514.679 149.835H516.091C516.63 149.85 517.166 149.769 517.663 149.598C518.035 149.441 518.317 149.17 518.45 148.842C518.624 148.403 518.702 147.942 518.682 147.48C518.753 146.967 518.628 146.449 518.325 145.998C518.197 145.847 518.032 145.72 517.841 145.626C517.651 145.531 517.438 145.472 517.217 145.45C516.567 145.364 515.909 145.325 515.251 145.332H514.679V149.835ZM514.679 156.648H516.27C516.661 156.692 517.059 156.659 517.432 156.551C517.805 156.442 518.141 156.263 518.414 156.026C518.829 155.419 519.016 154.723 518.95 154.027C518.961 153.523 518.864 153.021 518.664 152.545C518.494 152.166 518.172 151.847 517.753 151.642C517.243 151.415 516.669 151.307 516.091 151.331H514.679V156.648Z" fill="#263238"/>
<path d="M527.706 158.204C526.704 158.261 525.708 158.048 524.865 157.596C524.186 157.174 523.711 156.565 523.524 155.878C523.273 155.035 523.153 154.169 523.167 153.301V143.94H525.436V153.39C525.434 153.94 525.482 154.49 525.579 155.034C525.649 155.473 525.872 155.885 526.223 156.219C526.417 156.376 526.651 156.497 526.906 156.574C527.162 156.65 527.435 156.681 527.706 156.663C527.98 156.681 528.255 156.651 528.514 156.574C528.772 156.498 529.008 156.376 529.207 156.219C529.55 155.883 529.768 155.471 529.832 155.034C529.929 154.49 529.977 153.94 529.975 153.39V143.94H532.227V153.301C532.24 154.169 532.12 155.035 531.869 155.878C531.683 156.565 531.208 157.174 530.529 157.596C529.694 158.051 528.702 158.264 527.706 158.204Z" fill="#263238"/>
<path d="M538.729 158.204C537.87 158.232 537.019 158.052 536.281 157.685C535.622 157.323 535.106 156.808 534.798 156.204C534.457 155.522 534.263 154.794 534.227 154.056L536.317 153.582C536.364 154.082 536.46 154.577 536.603 155.063C536.726 155.489 536.978 155.882 537.336 156.204C537.516 156.357 537.733 156.476 537.974 156.553C538.214 156.629 538.472 156.662 538.729 156.648C538.988 156.666 539.249 156.637 539.492 156.563C539.736 156.489 539.958 156.371 540.141 156.219C540.474 155.871 540.64 155.433 540.606 154.989C540.621 154.463 540.44 153.946 540.087 153.508C539.69 153.086 539.248 152.694 538.765 152.338L535.906 150.235C535.378 149.876 534.951 149.426 534.655 148.917C534.372 148.349 534.238 147.738 534.262 147.124C534.229 146.684 534.307 146.244 534.492 145.83C534.676 145.417 534.963 145.04 535.334 144.725C535.726 144.428 536.186 144.199 536.686 144.051C537.186 143.904 537.717 143.841 538.247 143.866C538.854 143.855 539.458 143.93 540.034 144.088C540.514 144.224 540.949 144.452 541.303 144.754C541.677 145.078 541.958 145.468 542.124 145.895C542.349 146.415 542.488 146.958 542.535 147.509L540.516 147.954C540.484 147.523 540.4 147.097 540.266 146.68C540.159 146.318 539.93 145.989 539.605 145.732C539.224 145.474 538.738 145.347 538.247 145.376C537.997 145.364 537.747 145.394 537.511 145.462C537.275 145.531 537.057 145.638 536.871 145.776C536.696 145.929 536.563 146.112 536.479 146.311C536.396 146.51 536.365 146.722 536.389 146.932C536.376 147.298 536.462 147.662 536.639 147.998C536.858 148.322 537.149 148.608 537.497 148.842L540.355 150.961C541.022 151.437 541.595 151.997 542.053 152.62C542.569 153.307 542.83 154.106 542.803 154.915C542.824 155.542 542.638 156.161 542.267 156.708C541.938 157.201 541.441 157.602 540.838 157.863C540.178 158.115 539.455 158.232 538.729 158.204Z" fill="#263238"/>
<path d="M544.787 158.056V143.94H547.128V158.056H544.787Z" fill="#263238"/>
<path d="M549.879 158.056V143.94H551.487L556.33 153.316V143.94H558.224V158.056H556.723L551.827 148.428V158.056H549.879Z" fill="#263238"/>
<path d="M560.977 158.056V143.94H567.57V145.421H563.353V150.087H566.766V151.479H563.353V156.663H567.606V158.07L560.977 158.056Z" fill="#263238"/>
<path d="M573.538 158.204C572.678 158.236 571.826 158.055 571.09 157.685C570.431 157.323 569.915 156.808 569.607 156.204C569.25 155.525 569.05 154.796 569.018 154.056L571.126 153.582C571.155 154.083 571.251 154.58 571.412 155.063C571.529 155.488 571.775 155.881 572.127 156.204C572.309 156.359 572.529 156.479 572.773 156.556C573.017 156.633 573.278 156.664 573.538 156.648C573.794 156.664 574.051 156.634 574.292 156.559C574.532 156.485 574.751 156.369 574.932 156.219C575.278 155.876 575.451 155.435 575.415 154.989C575.431 154.461 575.244 153.942 574.878 153.508C574.492 153.079 574.048 152.686 573.556 152.338L570.697 150.235C570.18 149.871 569.76 149.422 569.464 148.917C569.174 148.35 569.034 147.739 569.053 147.124C569.022 146.683 569.103 146.242 569.291 145.829C569.479 145.415 569.769 145.039 570.143 144.725C570.535 144.428 570.995 144.199 571.495 144.051C571.995 143.904 572.526 143.841 573.056 143.866C573.662 143.855 574.267 143.93 574.843 144.088C575.33 144.22 575.772 144.449 576.129 144.754C576.497 145.083 576.777 145.471 576.951 145.895C577.168 146.417 577.306 146.959 577.362 147.509L575.343 147.954C575.31 147.523 575.227 147.097 575.093 146.68C574.978 146.321 574.75 145.994 574.432 145.732C574.049 145.477 573.564 145.35 573.074 145.376C572.823 145.359 572.571 145.386 572.334 145.455C572.097 145.524 571.88 145.633 571.698 145.776C571.52 145.928 571.383 146.11 571.297 146.309C571.21 146.508 571.176 146.721 571.198 146.932C571.182 147.3 571.274 147.666 571.466 147.998C571.685 148.322 571.976 148.608 572.323 148.842L575.2 150.946C575.867 151.422 576.439 151.982 576.898 152.605C577.4 153.297 577.654 154.093 577.63 154.901C577.648 155.525 577.47 156.143 577.112 156.693C576.773 157.185 576.271 157.586 575.665 157.848C575.002 158.111 574.272 158.233 573.538 158.204Z" fill="#263238"/>
<path d="M583.472 158.204C582.612 158.234 581.761 158.054 581.024 157.685C580.365 157.323 579.849 156.808 579.541 156.204C579.184 155.525 578.984 154.796 578.951 154.056L581.06 153.582C581.097 154.082 581.193 154.578 581.346 155.063C581.469 155.486 581.715 155.877 582.06 156.204C582.242 156.359 582.463 156.479 582.707 156.556C582.951 156.633 583.212 156.664 583.472 156.648C583.728 156.664 583.985 156.634 584.225 156.56C584.466 156.485 584.684 156.369 584.866 156.219C585.212 155.876 585.385 155.435 585.348 154.989C585.365 154.461 585.177 153.942 584.812 153.508C584.425 153.079 583.982 152.686 583.49 152.338L580.631 150.235C580.113 149.871 579.693 149.422 579.398 148.917C579.114 148.349 578.98 147.738 579.005 147.124C578.971 146.684 579.05 146.244 579.234 145.83C579.419 145.417 579.706 145.04 580.077 144.725C580.469 144.428 580.928 144.199 581.429 144.051C581.929 143.904 582.459 143.841 582.989 143.866C583.596 143.855 584.2 143.93 584.776 144.088C585.257 144.224 585.692 144.452 586.045 144.754C586.412 145.083 586.692 145.471 586.867 145.895C587.092 146.415 587.23 146.958 587.278 147.509L585.259 147.954C585.226 147.523 585.142 147.097 585.009 146.68C584.902 146.318 584.672 145.989 584.347 145.732C583.964 145.477 583.48 145.35 582.989 145.376C582.74 145.364 582.489 145.394 582.253 145.462C582.017 145.531 581.8 145.638 581.614 145.776C581.439 145.929 581.305 146.112 581.222 146.311C581.139 146.51 581.108 146.722 581.131 146.932C581.11 147.299 581.195 147.665 581.381 147.998C581.601 148.322 581.892 148.608 582.239 148.842L585.116 150.946C585.782 151.422 586.355 151.982 586.813 152.605C587.324 153.294 587.579 154.092 587.546 154.901C587.572 155.526 587.393 156.145 587.028 156.693C586.689 157.185 586.186 157.586 585.58 157.848C584.923 158.108 584.199 158.231 583.472 158.204Z" fill="#263238"/>
<path d="M516.573 179.103C515.579 179.158 514.591 178.933 513.768 178.466C513.093 178.045 512.603 177.452 512.374 176.778C512.107 176.008 511.974 175.209 511.981 174.408V169.431C511.97 168.59 512.102 167.752 512.374 166.943C512.594 166.277 513.087 165.695 513.768 165.298C514.585 164.923 515.499 164.717 516.433 164.699C517.367 164.681 518.292 164.851 519.129 165.195C519.75 165.526 520.227 166.014 520.487 166.587C520.776 167.287 520.915 168.024 520.898 168.765V169.89H518.646V168.898C518.651 168.432 518.616 167.967 518.539 167.505C518.511 167.155 518.334 166.824 518.039 166.572C517.634 166.321 517.13 166.205 516.627 166.246C516.102 166.206 515.578 166.333 515.162 166.602C514.825 166.869 514.61 167.225 514.554 167.609C514.459 168.099 514.411 168.594 514.411 169.09V174.689C514.393 175.253 514.465 175.816 514.626 176.363C514.722 176.715 514.97 177.026 515.323 177.237C515.716 177.431 516.17 177.524 516.627 177.504C516.874 177.527 517.123 177.507 517.36 177.446C517.597 177.385 517.816 177.283 518.003 177.148C518.306 176.88 518.495 176.536 518.539 176.171C518.616 175.679 518.651 175.184 518.646 174.689V173.638H520.898V174.689C520.917 175.457 520.784 176.223 520.505 176.956C520.278 177.555 519.819 178.075 519.2 178.437C518.431 178.882 517.512 179.115 516.573 179.103Z" fill="#263238"/>
<path d="M527.473 179.103C526.509 179.141 525.553 178.946 524.721 178.54C524.032 178.163 523.516 177.605 523.256 176.956C522.938 176.168 522.787 175.342 522.809 174.512V169.179C522.785 168.369 522.936 167.561 523.256 166.795C523.543 166.181 524.064 165.661 524.739 165.313C525.587 164.958 526.523 164.773 527.473 164.773C528.423 164.773 529.359 164.958 530.207 165.313C530.875 165.663 531.389 166.183 531.672 166.795C531.992 167.561 532.143 168.369 532.119 169.179V174.556C532.142 175.371 531.99 176.184 531.672 176.956C531.401 177.604 530.888 178.165 530.207 178.555C529.379 178.955 528.429 179.145 527.473 179.103ZM527.473 177.622C527.981 177.654 528.486 177.539 528.902 177.296C529.243 177.07 529.471 176.749 529.546 176.393C529.676 175.947 529.736 175.489 529.724 175.03V168.735C529.736 168.281 529.676 167.828 529.546 167.387C529.463 167.042 529.235 166.732 528.902 166.513C528.462 166.319 527.972 166.217 527.473 166.217C526.974 166.217 526.483 166.319 526.043 166.513C525.703 166.731 525.463 167.04 525.364 167.387C525.25 167.83 525.196 168.282 525.204 168.735V174.926C525.196 175.384 525.25 175.841 525.364 176.289C525.458 176.646 525.698 176.965 526.043 177.193C526.443 177.472 526.95 177.624 527.473 177.622Z" fill="#263238"/>
<path d="M534.406 178.955L534.728 164.854H537.051L540.071 176.289L543.09 164.854H545.395L545.717 178.955H543.805L543.609 168.72L540.732 178.955H539.392L536.533 168.72L536.336 178.955H534.406Z" fill="#263238"/>
<path d="M548.271 178.955L548.593 164.854H550.934L553.936 176.289L556.956 164.854H559.261L559.582 178.955H557.67L557.474 168.72L554.651 178.955H553.31L550.451 168.72L550.273 178.955H548.271Z" fill="#263238"/>
<path d="M566.586 179.103C565.586 179.153 564.592 178.941 563.745 178.496C563.066 178.073 562.591 177.464 562.405 176.778C562.145 175.931 562.025 175.059 562.048 174.186V164.839H564.317V174.275C564.307 174.83 564.354 175.385 564.46 175.934C564.522 176.374 564.746 176.788 565.103 177.119C565.524 177.397 566.047 177.549 566.586 177.549C567.125 177.549 567.648 177.397 568.069 177.119C568.414 176.783 568.632 176.371 568.695 175.934C568.807 175.386 568.86 174.83 568.856 174.275V164.839H571.107V174.186C571.124 175.06 570.998 175.932 570.732 176.778C570.539 177.458 570.073 178.064 569.409 178.496C568.57 178.942 567.581 179.154 566.586 179.103Z" fill="#263238"/>
<path d="M573.592 178.955V164.854H575.218L580.06 174.215V164.854H582.026V178.955H580.507L575.611 169.327V178.955H573.592Z" fill="#263238"/>
<path d="M584.83 178.955V164.854H587.153V178.955H584.83Z" fill="#263238"/>
<path d="M594.177 179.103C593.182 179.158 592.194 178.933 591.372 178.466C590.701 178.041 590.213 177.45 589.978 176.778C589.71 176.008 589.578 175.209 589.585 174.408V169.431C589.573 168.59 589.705 167.753 589.978 166.943C590.205 166.28 590.696 165.7 591.372 165.299C592.208 164.86 593.19 164.653 594.177 164.706C595.061 164.67 595.94 164.839 596.714 165.195C597.323 165.534 597.791 166.02 598.054 166.587C598.344 167.288 598.483 168.024 598.465 168.765V169.89H596.214V168.898C596.215 168.433 596.186 167.968 596.125 167.506C596.079 167.156 595.897 166.828 595.606 166.572C595.202 166.321 594.698 166.205 594.195 166.247C593.67 166.206 593.146 166.333 592.73 166.602C592.393 166.869 592.178 167.225 592.122 167.609C592.027 168.099 591.979 168.594 591.979 169.09V174.689C591.961 175.253 592.033 175.816 592.194 176.363C592.29 176.715 592.537 177.026 592.89 177.237C593.284 177.431 593.738 177.524 594.195 177.504C594.698 177.542 595.199 177.415 595.589 177.148C595.879 176.875 596.06 176.533 596.107 176.171C596.183 175.679 596.219 175.185 596.214 174.689V173.638H598.465V174.689C598.481 175.456 598.355 176.221 598.09 176.956C597.855 177.551 597.399 178.07 596.786 178.437C596.018 178.874 595.108 179.106 594.177 179.103Z" fill="#263238"/>
<path d="M599.805 178.955L603.378 164.854H605.683L609.257 178.955H607.006L606.237 175.4H602.896L602.074 178.955H599.805ZM603.164 173.993H606.005L604.576 167.639L603.164 173.993Z" fill="#263238"/>
<path d="M612.26 178.955V166.306H609.383V164.825H617.442V166.306H614.636V178.955H612.26Z" fill="#263238"/>
<path d="M619.211 178.955V164.854H621.534V178.955H619.211Z" fill="#263238"/>
<path d="M628.644 179.103C627.675 179.141 626.713 178.945 625.874 178.54C625.19 178.159 624.675 177.602 624.409 176.956C624.1 176.167 623.949 175.341 623.962 174.512V169.179C623.944 168.368 624.101 167.56 624.427 166.795C624.704 166.18 625.219 165.659 625.892 165.313C626.73 164.924 627.684 164.739 628.644 164.78C629.594 164.744 630.537 164.934 631.36 165.328C632.028 165.678 632.542 166.198 632.825 166.809C633.145 167.576 633.296 168.383 633.272 169.194V174.571C633.295 175.386 633.144 176.199 632.825 176.97C632.554 177.619 632.041 178.18 631.36 178.57C630.538 178.967 629.593 179.152 628.644 179.103ZM628.644 177.622C629.146 177.654 629.646 177.539 630.056 177.296C630.403 177.073 630.638 176.751 630.717 176.393C630.831 175.945 630.885 175.488 630.878 175.03V168.735C630.885 168.282 630.831 167.83 630.717 167.387C630.63 167.039 630.395 166.729 630.056 166.513C629.634 166.294 629.14 166.191 628.644 166.217C628.136 166.189 627.631 166.293 627.197 166.513C626.857 166.729 626.622 167.039 626.536 167.387C626.421 167.83 626.367 168.282 626.375 168.735V174.926C626.367 175.384 626.421 175.841 626.536 176.289C626.623 176.645 626.857 176.964 627.197 177.193C627.602 177.474 628.115 177.627 628.644 177.622Z" fill="#263238"/>
<path d="M635.613 178.955V164.854H637.239L642.064 174.215V164.854H643.994V178.955H642.475L637.579 169.327V178.955H635.613Z" fill="#263238"/>
<path d="M701.299 311.108H747.614" stroke="#263238" stroke-miterlimit="10"/>
<path d="M597.107 311.108H692.401" stroke="#263238" stroke-miterlimit="10"/>
<path d="M504.477 311.108H588.191" stroke="#263238" stroke-miterlimit="10"/>
<path d="M565.926 322.187H747.614" stroke="#263238" stroke-miterlimit="10"/>
<path d="M504.477 322.187H557.904" stroke="#263238" stroke-miterlimit="10"/>
<path d="M721.795 333.267H747.615" stroke="#263238" stroke-miterlimit="10"/>
<path d="M601.557 333.267H712.878" stroke="#263238" stroke-miterlimit="10"/>
<path d="M504.477 333.267H591.765" stroke="#263238" stroke-miterlimit="10"/>
<path d="M734.266 344.331H747.614" stroke="#263238" stroke-miterlimit="10"/>
<path d="M698.637 344.331H725.35" stroke="#263238" stroke-miterlimit="10"/>
<path d="M566.818 344.331H691.506" stroke="#263238" stroke-miterlimit="10"/>
<path d="M504.477 344.331H558.797" stroke="#263238" stroke-miterlimit="10"/>
<path d="M726.243 144.577L687.95 156.397L702.192 161.566L679.034 186.672L662.112 171.164L602.449 219.896L566.819 202.906L510.336 244.765H553.596L572.161 227.272L606.005 241.299L656.769 194.049L686.163 204.388L711.108 165.995L728.03 173.371L726.243 144.577Z" fill="#263238" stroke="#263238" stroke-linecap="round" stroke-linejoin="round"/>
<path d="M721.593 231.85C735.326 220.466 735.326 202.009 721.593 190.625C707.86 179.241 685.595 179.241 671.862 190.625C658.129 202.009 658.129 220.466 671.862 231.85C685.595 243.233 707.86 243.233 721.593 231.85Z" fill="white" stroke="#263238" stroke-linecap="round" stroke-linejoin="round"/>
<path d="M696.725 236.337C713.452 236.337 727.012 225.096 727.012 211.231C727.012 197.365 713.452 186.124 696.725 186.124C679.998 186.124 666.438 197.365 666.438 211.231C666.438 225.096 679.998 236.337 696.725 236.337Z" fill="white" stroke="#263238" stroke-linecap="round" stroke-linejoin="round"/>
<path d="M697.403 234.56V230.116C695.85 230.136 694.309 229.882 692.882 229.371C691.456 228.861 690.177 228.105 689.13 227.154C687.295 225.327 686.307 222.522 686.164 218.74L694.347 217.733C694.345 218.983 694.507 220.23 694.83 221.451C694.998 222.219 695.433 222.929 696.081 223.495C696.633 223.909 697.356 224.131 698.1 224.117C698.49 224.159 698.886 224.101 699.235 223.95C699.583 223.799 699.867 223.562 700.047 223.273C700.347 222.713 700.5 222.107 700.494 221.495C700.549 220.17 700.113 218.862 699.243 217.748C698.263 216.599 697.103 215.563 695.795 214.667L691.989 211.956C690.951 211.193 689.978 210.371 689.076 209.498C688.177 208.615 687.464 207.614 686.968 206.535C686.398 205.266 686.125 203.919 686.164 202.566C686.081 201.358 686.297 200.149 686.798 199.013C687.299 197.878 688.074 196.838 689.076 195.959C691.205 194.293 693.994 193.329 696.92 193.249V189.042H699.637V193.204C701.394 193.221 703.115 193.625 704.622 194.375C705.811 195.017 706.778 195.905 707.427 196.952C708.052 197.973 708.486 199.067 708.714 200.196C708.933 201.243 709.064 202.303 709.107 203.365L700.816 204.195C700.816 203.143 700.709 202.21 700.584 201.41C700.52 200.756 700.262 200.125 699.833 199.574C699.625 199.352 699.35 199.18 699.037 199.073C698.723 198.967 698.382 198.93 698.046 198.966C697.643 198.95 697.242 199.029 696.891 199.194C696.54 199.359 696.252 199.604 696.063 199.899C695.654 200.464 695.432 201.108 695.42 201.766C695.345 203.004 695.808 204.223 696.724 205.202C697.608 206.075 698.563 206.897 699.583 207.661L703.157 210.283C704.358 211.199 705.475 212.19 706.498 213.245C707.519 214.29 708.339 215.459 708.928 216.711C709.572 218.13 709.882 219.639 709.84 221.155C709.863 222.644 709.459 224.116 708.66 225.45C707.898 226.738 706.739 227.837 705.301 228.635C703.72 229.473 701.917 229.981 700.047 230.116V234.56H697.403Z" fill="#263238"/>
<path d="M522.274 211.542H513.375V244.765H522.274V211.542Z" fill="#9262E2"/>
<path d="M538.301 223.48H529.402V244.75H538.301V223.48Z" fill="#9262E2"/>
<path d="M554.348 224.206H545.449V244.765H554.348V224.206Z" fill="#9262E2"/>
<path d="M570.375 211.542H561.477V244.765H570.375V211.542Z" fill="#9262E2"/>
<path d="M586.402 218.785H577.504V244.765H586.402V218.785Z" fill="#9262E2"/>
<path d="M602.432 222.043H593.533V244.765H602.432V222.043Z" fill="#9262E2"/>
<path d="M618.459 211.542H609.561V244.765H618.459V211.542Z" fill="#9262E2"/>
<path d="M634.506 201.766H625.607V244.765H634.506V201.766Z" fill="#9262E2"/>
<path d="M650.533 191.634H641.635V244.765H650.533V191.634Z" fill="#9262E2"/>
<path d="M684.484 377.421H580.738V386.027H684.484V377.421Z" fill="#263238" stroke="#263238" stroke-linecap="round" stroke-linejoin="round"/>
<path d="M716.54 392.663H580.738V401.268H716.54V392.663Z" fill="#263238" stroke="#263238" stroke-linecap="round" stroke-linejoin="round"/>
<path d="M684.484 443.675H580.738V452.281H684.484V443.675Z" fill="#263238" stroke="#263238" stroke-linecap="round" stroke-linejoin="round"/>
<path d="M716.54 458.917H580.738V467.523H716.54V458.917Z" fill="#263238" stroke="#263238" stroke-linecap="round" stroke-linejoin="round"/>
<path d="M554.578 363.039H511.872C507.185 363.039 503.385 366.189 503.385 370.075V405.92C503.385 409.805 507.185 412.955 511.872 412.955H554.578C559.266 412.955 563.066 409.805 563.066 405.92V370.075C563.066 366.189 559.266 363.039 554.578 363.039Z" fill="#D4D4D4"/>
<path d="M533.226 400.395C541.486 400.395 548.182 394.844 548.182 387.997C548.182 381.15 541.486 375.599 533.226 375.599C524.966 375.599 518.27 381.15 518.27 387.997C518.27 394.844 524.966 400.395 533.226 400.395Z" fill="#263238"/>
<path d="M541.893 388.264L528.885 382.043V394.5L541.893 388.264Z" fill="white"/>
<path d="M554.578 427.486H511.872C507.185 427.486 503.385 430.636 503.385 434.522V470.367C503.385 474.252 507.185 477.402 511.872 477.402H554.578C559.266 477.402 563.066 474.252 563.066 470.367V434.522C563.066 430.636 559.266 427.486 554.578 427.486Z" fill="#D4D4D4"/>
<path d="M546.796 457.642C550.264 451.428 546.997 444.06 539.5 441.186C532.003 438.311 523.115 441.019 519.647 447.234C516.18 453.448 519.447 460.816 526.944 463.69C534.441 466.565 543.329 463.857 546.796 457.642Z" fill="#263238"/>
<path d="M541.893 452.726L528.885 446.49V458.947L541.893 452.726Z" fill="white"/>
<path d="M506.584 420.035H748.525" stroke="#263238" stroke-miterlimit="10"/>
<path d="M739.234 56.4304H758.122" stroke="#263238" stroke-linecap="round" stroke-linejoin="round"/>
<path d="M739.234 63.8512H758.122" stroke="#263238" stroke-linecap="round" stroke-linejoin="round"/>
<path d="M739.234 71.2572H758.122" stroke="#263238" stroke-linecap="round" stroke-linejoin="round"/>
<path d="M731.658 51.4979H501.51V76.2043H731.658V51.4979Z" fill="white" stroke="#263238" stroke-linecap="round" stroke-linejoin="round"/>
<path d="M528.849 59.7779C528.852 58.6195 528.441 57.4862 527.667 56.5218C526.892 55.5574 525.79 54.8052 524.5 54.3606C523.209 53.9159 521.789 53.7988 520.418 54.0241C519.047 54.2493 517.788 54.8069 516.8 55.626C515.812 56.4451 515.139 57.489 514.867 58.6253C514.595 59.7616 514.737 60.9392 515.273 62.0089C515.81 63.0786 516.717 63.9922 517.88 64.634C519.044 65.2757 520.411 65.6167 521.808 65.6138C523.676 65.6138 525.466 64.999 526.787 63.9045C528.107 62.8101 528.849 61.3257 528.849 59.7779Z" fill="white" stroke="#263238" stroke-linecap="round" stroke-linejoin="round"/>
<path d="M513.303 67.969L508.104 73.405" stroke="#263238" stroke-width="2" stroke-linecap="round" stroke-linejoin="round"/>
<path d="M517.109 63.9994L513.303 67.969" stroke="#263238" stroke-linecap="round" stroke-linejoin="round"/>
<path d="M536.281 51.6609V76.3229" stroke="#263238" stroke-linecap="round" stroke-linejoin="round"/>
<path d="M103.18 380.68C103.197 380.646 103.197 380.609 103.18 380.576C103.163 380.542 103.131 380.516 103.091 380.502C103.051 380.488 103.005 380.488 102.965 380.502C102.925 380.516 102.893 380.543 102.876 380.576C97.8729 390.498 93.9209 400.762 91.0652 411.252C88.1689 421.742 85.9914 432.359 84.5432 443.053L83.6319 451.096C83.4889 452.444 83.3102 453.777 83.1852 455.125L82.9171 459.139C82.7921 461.835 82.5776 464.516 82.4883 467.212L82.5776 475.299L82.6848 479.328C82.6848 480.676 82.8814 482.024 82.9886 483.357C83.2388 486.052 83.4353 488.733 83.7212 491.414C84.3466 496.776 85.3294 502.094 86.3122 507.397C86.3205 507.43 86.343 507.461 86.3756 507.483C86.4083 507.504 86.4491 507.516 86.4909 507.515C86.4909 507.515 86.6695 507.515 86.6517 507.382C86.6517 504.701 86.5087 502.02 86.4373 499.339C86.3658 496.658 86.062 493.992 86.0977 491.311C86.1335 488.63 86.0978 485.964 85.9905 483.297V479.283V475.284V467.286L86.2407 459.272L86.3479 455.273C86.3479 453.94 86.5266 452.607 86.6159 451.274L87.2056 443.275C88.305 432.623 90.1305 422.03 92.6734 411.548C95.0972 401.027 98.6125 390.699 103.18 380.68Z" fill="#263238"/>
<path d="M104.556 422.539C104.57 422.503 104.567 422.465 104.547 422.431C104.527 422.398 104.491 422.373 104.449 422.361C104.406 422.349 104.36 422.352 104.319 422.368C104.279 422.385 104.249 422.414 104.234 422.45C101.5 429.11 99.2098 435.889 97.3728 442.757C95.5431 449.655 94.1829 456.632 93.2987 463.657C92.441 470.663 91.5119 477.684 91.3868 484.719C91.1724 491.774 91.4767 498.832 92.2981 505.856C92.302 505.886 92.3183 505.915 92.3443 505.936C92.3703 505.958 92.4044 505.971 92.441 505.975C92.4858 505.979 92.5309 505.969 92.5674 505.947C92.6038 505.925 92.6289 505.893 92.6376 505.856C93.6204 498.835 94.21 491.844 94.7997 484.853C95.3894 477.861 95.4787 470.841 96.0326 463.849C96.5492 456.877 97.5395 449.934 98.9988 443.053C100.403 436.137 102.258 429.289 104.556 422.539Z" fill="#263238"/>
<path d="M132.557 437.262C132.525 437.239 132.484 437.226 132.441 437.226C132.399 437.226 132.357 437.239 132.325 437.262C125.32 440.993 119.011 445.554 113.599 450.8C110.884 453.436 108.44 456.255 106.29 459.228L104.789 461.583L103.61 464.027C103.208 464.819 102.862 465.631 102.574 466.456C102.27 467.301 101.93 468.13 101.662 468.959C99.5211 475.659 98.2217 482.524 97.7849 489.444C97.3708 496.327 97.6817 503.225 98.714 510.063C98.724 510.093 98.7446 510.121 98.7731 510.142C98.8017 510.163 98.8371 510.177 98.8749 510.181C98.9193 510.181 98.9623 510.168 98.9953 510.143C99.0283 510.119 99.0491 510.085 99.0535 510.048L101.198 489.637C101.799 482.884 102.855 476.163 104.361 469.507C104.593 468.693 104.879 467.893 105.129 467.078C105.36 466.261 105.647 465.455 105.987 464.664L106.987 462.309L108.274 460.087C110.22 457.123 112.461 454.299 114.975 451.644C119.981 446.237 125.903 441.458 132.557 437.454C132.573 437.442 132.585 437.427 132.594 437.41C132.602 437.394 132.607 437.376 132.607 437.358C132.607 437.34 132.602 437.322 132.594 437.306C132.585 437.289 132.573 437.274 132.557 437.262Z" fill="#263238"/>
<path d="M119.012 463.494C115.373 465.695 112.45 468.612 110.507 471.981C108.451 475.277 106.85 478.756 105.736 482.349C105.396 483.238 105.128 484.142 104.896 485.045L104.128 487.756C103.723 489.578 103.442 491.417 103.288 493.266C103.288 495.117 103.198 496.969 103.288 498.82C103.448 500.67 103.74 502.51 104.163 504.33C104.163 504.33 104.163 504.434 104.288 504.434C104.333 504.443 104.381 504.437 104.421 504.418C104.461 504.399 104.49 504.367 104.503 504.33C105.015 502.538 105.409 500.723 105.682 498.894C106.022 497.102 106.361 495.325 106.629 493.532C106.897 491.74 107.219 489.978 107.398 488.185C107.576 486.393 107.844 484.601 108.309 482.853C109.033 479.322 110.232 475.869 111.883 472.559C113.382 469.169 115.832 466.123 119.03 463.671C119.046 463.659 119.058 463.644 119.067 463.628C119.075 463.611 119.08 463.593 119.08 463.575C119.08 463.557 119.075 463.539 119.067 463.523C119.058 463.506 119.046 463.491 119.03 463.479C119.024 463.483 119.018 463.488 119.012 463.494Z" fill="#263238"/>
<path d="M79.7369 483.934C78.8256 474.869 77.0208 465.893 75.3233 456.932C73.6258 447.971 71.7496 439.024 69.7483 430.108C67.747 421.191 65.5492 412.333 63.2441 403.446C63.2297 403.412 63.2031 403.383 63.168 403.361C63.1329 403.34 63.0909 403.328 63.0475 403.328C63.0239 403.331 63.0013 403.338 62.9811 403.349C62.961 403.36 62.9438 403.375 62.9304 403.391C62.9171 403.408 62.9079 403.426 62.9035 403.446C62.899 403.466 62.8994 403.486 62.9046 403.505C64.7808 412.392 66.4783 421.383 68.0686 430.359C69.6589 439.335 71.2493 448.282 72.6073 457.273C73.9653 466.264 74.9838 475.269 76.3597 484.246L80.3444 511.218C80.3544 511.249 80.3749 511.276 80.4035 511.297C80.4321 511.318 80.4674 511.332 80.5052 511.337C80.5278 511.339 80.5506 511.337 80.5723 511.331C80.5939 511.325 80.6138 511.316 80.6307 511.303C80.6475 511.291 80.661 511.275 80.6702 511.258C80.6794 511.241 80.684 511.222 80.6839 511.203C80.809 508.937 80.8269 506.656 80.8805 504.375C80.9341 502.094 80.7732 499.843 80.7196 497.561C80.6303 492.985 80.1657 488.467 79.7369 483.934Z" fill="#263238"/>
<path d="M73.1972 483.801C72.6075 480.216 71.8034 476.647 70.9815 473.092L69.4447 467.789C68.9444 466.027 68.4798 464.264 67.8544 462.531C65.6758 455.499 62.8809 448.608 59.4919 441.913L58.1875 439.424L56.7223 436.98C55.7931 435.351 54.6852 433.781 53.6131 432.196C51.4705 429.017 48.8199 426.092 45.733 423.501C45.718 423.488 45.7 423.478 45.6801 423.471C45.6601 423.464 45.6386 423.46 45.6169 423.46C45.5952 423.46 45.5737 423.464 45.5538 423.471C45.5338 423.478 45.5158 423.488 45.5008 423.501C45.4851 423.514 45.4726 423.529 45.4641 423.545C45.4556 423.562 45.4512 423.58 45.4512 423.598C45.4512 423.616 45.4556 423.633 45.4641 423.65C45.4726 423.666 45.4851 423.681 45.5008 423.694C48.3531 426.377 50.7571 429.366 52.6482 432.581C53.5953 434.196 54.6138 435.78 55.4179 437.439L56.7044 439.898L57.848 442.416C60.8686 449.135 63.2991 456.025 65.1205 463.035C66.1212 466.515 66.7823 470.07 67.6043 473.581L68.6228 478.898C68.998 480.661 69.4447 482.409 69.7485 484.186C70.4275 487.741 71.2137 491.266 71.9642 494.806C72.7147 498.346 73.4116 501.916 74.305 505.471C74.3162 505.504 74.3394 505.533 74.3714 505.554C74.4035 505.575 74.4427 505.588 74.4837 505.589C74.5279 505.586 74.5689 505.569 74.5987 505.541C74.6284 505.514 74.6447 505.478 74.6445 505.441C74.6445 501.827 74.6445 498.198 74.3408 494.584C74.037 490.97 73.6439 487.4 73.1972 483.801Z" fill="#263238"/>
<path d="M64.1374 484.231C62.1182 479.476 59.7774 474.825 57.2222 470.263C54.644 465.713 51.7381 461.296 48.5202 457.036C48.4878 457.013 48.4466 457 48.404 457C48.3614 457 48.3202 457.013 48.2879 457.036C48.2722 457.048 48.2597 457.063 48.2512 457.08C48.2427 457.096 48.2383 457.114 48.2383 457.132C48.2383 457.15 48.2427 457.168 48.2512 457.184C48.2597 457.201 48.2722 457.216 48.2879 457.228C51.0722 461.658 53.5306 466.224 55.6498 470.9C57.8833 475.536 59.8846 480.231 61.5464 485.016C63.2082 489.8 64.4769 494.643 66.0136 499.443C67.5503 504.242 68.9261 509.07 70.713 513.914C70.723 513.944 70.7436 513.972 70.7721 513.993C70.8007 514.014 70.836 514.028 70.8738 514.032C70.9199 514.029 70.963 514.012 70.9957 513.985C71.0284 513.958 71.0485 513.922 71.0525 513.884C71.0932 508.82 70.4943 503.766 69.2657 498.806C68.0349 493.84 66.3198 488.966 64.1374 484.231Z" fill="#263238"/>
<path d="M63.7638 500.094C62.6571 497.132 61.038 494.318 58.9571 491.74C57.0244 489.081 54.6684 486.65 51.9526 484.512C50.5646 483.484 49.0765 482.552 47.5033 481.727C45.9483 480.869 44.2426 480.214 42.4465 479.787C42.4183 479.769 42.3838 479.759 42.3482 479.759C42.3126 479.759 42.2781 479.769 42.2499 479.787C42.2222 479.814 42.207 479.848 42.207 479.883C42.207 479.919 42.2222 479.953 42.2499 479.98C45.5287 481.296 48.429 483.18 50.7554 485.504C53.0935 487.719 55.0591 490.185 56.5985 492.836C58.2602 495.443 59.1179 498.317 60.5474 500.998C61.1907 502.375 61.8161 503.753 62.5666 505.13C63.1824 506.568 63.9167 507.968 64.7644 509.322C64.7777 509.344 64.798 509.363 64.8233 509.376C64.8485 509.389 64.8776 509.396 64.9074 509.396C64.9299 509.398 64.9528 509.396 64.9744 509.391C64.996 509.385 65.0159 509.375 65.0328 509.363C65.0497 509.35 65.0632 509.335 65.0724 509.318C65.0815 509.3 65.0862 509.282 65.0861 509.263C65.1548 507.716 65.0891 506.166 64.8895 504.627C64.6036 503.116 64.2105 501.605 63.7638 500.094Z" fill="#263238"/>
<path d="M64.4426 416.406C58.9856 415.139 54.0496 412.66 50.167 409.238C46.2844 405.816 43.6025 401.581 42.4106 396.988C38.2472 380.991 51.595 387.849 39.6409 362.772C27.6868 337.695 30.4564 331.889 34.6734 324.646C38.8904 317.403 41.0883 319.699 44.7692 329.223C48.4502 338.747 61.6908 353.589 66.837 381.376C71.9832 409.163 64.4426 416.406 64.4426 416.406Z" fill="#92E3A9"/>
<path d="M99.8045 389.434C99.8045 389.434 87.8683 385.997 87.4037 367.349C86.9391 348.701 96.1415 352.537 97.5174 329.282C98.8932 306.027 100.734 289.69 105.773 289.29C110.812 288.89 124.16 300.71 128.752 326.601C133.344 352.493 122.766 369.556 113.581 377.229C104.397 384.901 99.8045 389.434 99.8045 389.434Z" fill="#92E3A9"/>
<path d="M58.0085 438.861C58.0085 438.861 55.2567 425.16 49.7532 418.687C44.2496 412.215 32.2955 406.497 24.4869 393.877C16.6783 381.258 7.95843 375.229 8.40515 393.122C8.85186 411.015 18.5903 420.213 30.4551 426.301C42.3198 432.389 58.0085 438.861 58.0085 438.861Z" fill="#92E3A9"/>
<path d="M52.9701 462.472C52.9701 462.472 41.9451 444.949 25.8634 432.004C9.78157 419.058 -3.06599 412.6 1.52625 419.058C6.1185 425.516 11.6399 425.146 19.3949 436.566C27.1499 447.986 24.9163 456.354 35.9413 462.827C46.9662 469.3 52.9701 462.472 52.9701 462.472Z" fill="#92E3A9"/>
<path d="M51.5947 484.927C51.1301 483.786 50.6655 475.403 35.0483 468.559C19.4311 461.716 4.67163 464.368 6.58358 467.789C8.49552 471.211 18.0552 476.928 27.7043 480.365C37.3534 483.801 51.5947 484.927 51.5947 484.927Z" fill="#92E3A9"/>
<path d="M98.8934 439.617C98.8934 439.617 91.9961 432.389 95.677 417.162C99.358 401.935 107.613 405.727 116.869 397.743C126.125 389.76 124.231 388.604 133.416 380.236C142.6 371.867 150.855 367.29 154.536 370.711C158.217 374.133 152.75 384.798 147.192 390.9C141.635 397.003 132.897 400.024 128.823 407.638C124.749 415.251 126.518 427.441 115.958 433.144C105.398 438.847 98.8934 439.617 98.8934 439.617Z" fill="#92E3A9"/>
<path d="M121.854 443.809C121.854 443.809 138.311 428.197 150.336 416.777C162.362 405.357 166.865 396.603 167.329 404.216C167.794 411.829 171.457 417.917 161.808 427.826C152.159 437.736 121.854 443.809 121.854 443.809Z" fill="#92E3A9"/>
<path d="M113.133 468.93C113.133 468.93 112.669 462.842 138.846 448.756C165.024 434.669 176.049 432.003 173.297 437.721C170.545 443.438 159.002 449.141 146.655 459.42C134.308 469.7 113.133 468.93 113.133 468.93Z" fill="#92E3A9"/>
<path d="M65.5313 414.777C65.5313 414.777 59.4024 387.464 53.0233 368.045C46.6442 348.627 42.4629 336.836 42.4629 336.836" stroke="#263238" stroke-linecap="round" stroke-linejoin="round"/>
<path d="M98.75 389.656C98.75 389.656 109.918 360.032 113.581 342.169C117.244 324.305 113.134 310.945 111.294 302.946" stroke="#263238" stroke-linecap="round" stroke-linejoin="round"/>
<path d="M56.5608 438.313C51.6199 431.264 45.9586 424.579 39.6392 418.332C29.5434 408.438 21.7706 403.105 17.1426 393.581" stroke="#263238" stroke-linecap="round" stroke-linejoin="round"/>
<path d="M98.8926 439.617C98.8926 439.617 102.574 421.354 111.293 411.83C120.013 402.305 137.471 387.464 144.35 377.954" stroke="#263238" stroke-linecap="round" stroke-linejoin="round"/>
<path d="M50.5045 484.512C50.5045 484.512 35.0481 476.173 24.041 471.596" stroke="#263238" stroke-linecap="round" stroke-linejoin="round"/>
<path d="M138.989 561.253C137.971 538.161 107.004 522.742 107.004 522.742H59.5452C59.5452 522.742 28.5788 538.146 27.5246 561.253C26.4703 584.36 62.6186 669.07 62.6186 669.07H103.895C103.895 669.07 140.097 584.345 138.989 561.253Z" fill="#263238" stroke="#263238" stroke-linecap="round" stroke-linejoin="round"/>
<path d="M113.115 500.035H52.5586L59.5452 522.742H106.129L113.115 500.035Z" fill="#263238" stroke="#263238" stroke-linecap="round" stroke-linejoin="round"/>
<path d="M353.183 373.97C353.183 373.97 337.512 387.745 337.512 392.07C337.512 396.395 339.406 406.645 338.459 410.57C337.512 414.496 298.576 439.306 298.576 439.306L310.441 464.101C310.441 464.101 342.247 422.39 351.753 411.37C361.259 400.35 371.695 388.93 372.642 383.02C373.589 377.11 357.453 371.659 353.183 373.97Z" fill="#D4D4D4" stroke="#263238" stroke-miterlimit="10"/>
<path d="M355.79 476.158L401.945 461.079C401.945 461.079 432 432.937 455.015 412.318C478.03 391.7 506.834 396.41 506.834 411.252C506.834 426.093 498.525 448.282 490.86 457.91C483.194 467.537 467.827 492.362 467.827 492.362C467.827 492.362 521.558 502.968 536.264 509.855C550.97 516.743 610.043 551.492 640.42 569.636C660.397 581.486 671.994 586.315 675.193 586.315C676.05 586.315 677.587 586.196 679.41 586.019C686.718 585.308 695.491 578.924 701.781 575.65C710.412 571.207 723.617 565.06 731.3 564.393C743.451 563.327 738.984 578.168 730.031 588.774C721.079 599.379 705.015 602.564 699.333 606.267C693.651 609.97 681.464 612.102 676.944 612.636C672.423 613.169 632.183 599.379 614.904 593.543C597.625 587.707 565.05 586.374 545.359 566.881C538.835 560.296 531.492 554.299 523.452 548.989C523.452 548.989 416.651 552.692 397.46 554.291C378.269 555.891 334.152 556.943 315.604 556.943C297.056 556.943 287.604 550.855 287.604 550.855C287.604 550.855 280.456 542.619 291.302 529.377C302.149 516.136 355.79 476.158 355.79 476.158Z" fill="#6E6E6E" stroke="#263238" stroke-miterlimit="10"/>
<path d="M730.033 588.848C738.967 578.242 743.452 563.401 731.301 564.467C723.618 565.134 710.413 571.296 701.782 575.724C695.51 578.924 686.719 585.308 679.411 586.093C677.624 586.27 676.051 586.389 675.194 586.389C672.496 586.389 663.74 582.953 648.998 574.673C646.925 581.812 640.922 590.833 624.84 597.054C644.263 603.615 673.192 613.228 676.945 612.784C681.43 612.251 693.581 610.133 699.334 606.415C705.088 602.697 721.08 599.453 730.033 588.848Z" fill="#D4D4D4" stroke="#263238" stroke-miterlimit="10"/>
<path d="M730.032 588.848C738.966 578.242 743.451 563.401 731.301 564.467C723.617 565.134 710.412 571.296 701.782 575.724C695.51 578.924 686.719 585.308 679.41 586.093C677.623 586.27 676.051 586.389 675.193 586.389C674.299 586.328 673.42 586.158 672.584 585.885C674.764 590.181 676.694 599.379 661.863 609.096C669.583 611.421 675.443 612.962 676.998 612.784C681.483 612.251 693.634 610.133 699.387 606.415C705.141 602.697 721.08 599.453 730.032 588.848Z" fill="white" stroke="#263238" stroke-miterlimit="10"/>
<path d="M398.032 479.994C396.658 479.191 395.232 478.449 393.762 477.773" stroke="#263238" stroke-miterlimit="10"/>
<path d="M467.81 492.362L409.915 489.548C407.525 486.881 404.76 484.459 401.678 482.335" stroke="#263238" stroke-miterlimit="10"/>
<path d="M364.529 500.968C367.051 499.088 369.947 497.584 373.088 496.524" stroke="#263238" stroke-miterlimit="10"/>
<path d="M347.893 516.328C351.398 512.328 355.231 508.532 359.364 504.967" stroke="#263238" stroke-miterlimit="10"/>
<path d="M354.361 501.872C354.361 501.872 341.442 511.499 338.279 523.823" stroke="#263238" stroke-miterlimit="10"/>
<path d="M355.791 476.158C355.701 477.603 355.358 479.03 354.772 480.394C353.736 482.957 347.089 504.212 329.131 522.475C317.483 533.975 303.412 543.626 287.604 550.958C265.964 537.032 246.195 521.215 228.637 503.782C198.368 474.025 180.392 445.556 181.446 412.392C182.501 379.228 195.312 358.417 195.312 358.417L194.276 332.911C196.331 328.66 207.106 322.72 221.454 330.363C235.803 338.006 247.096 355.87 247.096 355.87L245.041 366.06C245.041 366.06 251.188 369.467 254.779 371.17C258.371 372.874 271.701 382.635 283.494 394.959C295.287 407.282 307.599 444.282 309.654 453.629C311.709 462.975 328.63 464.664 328.63 464.664L346.052 472.336L355.791 476.158Z" fill="#9262E2" stroke="#263238" stroke-miterlimit="10"/>
<path d="M247.097 355.87L245.042 366.06C245.042 366.06 213.254 357.558 195.314 358.417L194.277 332.911C196.332 328.66 207.107 322.72 221.456 330.363C235.804 338.006 247.097 355.87 247.097 355.87Z" fill="#D4D4D4" stroke="#263238" stroke-miterlimit="10"/>
<path d="M265.053 287.142C265.053 287.142 273.773 305.968 271.522 310.841C270.221 313.673 269.123 316.567 268.234 319.506C268.234 319.506 281.528 331.489 278.955 334.674C276.382 337.858 269.521 339.325 269.521 339.325C269.521 339.325 267.734 359.262 266.251 362.535C264.768 365.809 260.157 369.23 250.651 366.979C241.145 364.727 227.225 357.44 222.061 353.944C216.897 350.449 213.717 325.313 213.717 325.313L224.438 322.498C224.438 322.498 221.847 311.552 223.151 309.538C224.456 307.523 239.233 308.96 236.696 301.436C234.159 293.911 228.887 290.83 231.853 288.105C234.82 285.379 265.053 287.142 265.053 287.142Z" fill="#D4D4D4" stroke="#263238" stroke-miterlimit="10"/>
<path d="M267.555 346.479C267.555 346.479 252.42 347.575 250.348 336.673" stroke="#263238" stroke-miterlimit="10"/>
<path d="M254.602 335.77L244.846 339.103" stroke="#263238" stroke-miterlimit="10"/>
<path d="M260.944 320.01C260.48 322.217 259.158 323.861 258.068 323.698C256.978 323.535 256.442 321.624 256.906 319.417C257.371 317.21 258.693 315.581 259.783 315.744C260.873 315.907 261.409 317.818 260.944 320.01Z" fill="#263238"/>
<path d="M253.047 313.804C253.047 313.804 259.998 308.486 266.073 312.915" stroke="#263238" stroke-miterlimit="10"/>
<path d="M276.616 285.75C275.955 290.386 265.055 287.231 265.055 287.231L242.594 292.771C242.594 292.771 243.059 300.503 242.844 305.627C242.63 310.752 229.782 314.204 229.782 314.204L227.995 337.577L194.045 336.422L189.167 326.972C189.167 326.972 167.725 310.353 170.065 293.882C171.495 283.795 180.644 273.959 195.367 268.701C200.496 266.896 205.913 265.713 211.449 265.191C217.39 264.629 223.392 264.679 229.318 265.339C263.483 269.027 277.277 281.054 276.616 285.75Z" fill="#263238" stroke="#263238" stroke-miterlimit="10"/>
<path d="M211.304 315.625L198.493 321.55C197.957 320.736 186.556 303.332 195.455 268.671C200.584 266.866 206 265.684 211.537 265.161C206.355 281.765 206.176 293.985 207.195 301.613C208.338 310.93 211.287 315.581 211.304 315.625Z" fill="white" stroke="#263238" stroke-miterlimit="10"/>
<path d="M215.51 343.201C226.322 339.683 231.647 329.565 227.403 320.602C223.16 311.64 210.954 307.226 200.142 310.744C189.33 314.261 184.005 324.379 188.249 333.342C192.492 342.304 204.698 346.718 215.51 343.201Z" fill="white" stroke="#263238" stroke-miterlimit="10"/>
<path d="M215.809 410.274C222.511 426.847 230.917 442.913 240.932 458.295C257.353 483.371 282.03 510.581 291.196 508.878C300.363 507.174 352.2 433.218 355.792 426.849C359.383 420.48 365.03 411.118 365.03 411.118C365.03 411.118 376.823 403.89 377.841 400.913C378.86 397.936 376.483 383.82 376.483 383.82C376.483 383.82 382.737 377.006 380.7 374.029C378.663 371.052 375.215 371.985 371.641 373.689C368.067 375.392 360.259 380.147 360.259 380.147C361.255 376.827 361.329 373.362 360.473 370.015C358.936 365.349 354.255 366.919 353.737 369.897C353.218 372.874 353.236 375.821 351.7 378.784C349.504 382.351 347.922 386.155 347 390.085C345.982 395.181 343.212 408.971 343.212 408.971C343.212 408.971 314.819 435.247 307.117 441.646C303.311 444.786 295.253 449.911 295.253 449.911L274.275 415.34C274.275 415.34 263.554 383.894 252.225 375.347C246.741 371.226 239.883 368.574 232.549 367.739C225.216 366.903 217.749 367.924 211.127 370.667" fill="#9262E2"/>
<path d="M215.809 410.274C222.511 426.847 230.917 442.913 240.932 458.295C257.353 483.371 282.03 510.581 291.196 508.878C300.363 507.174 352.2 433.218 355.792 426.849C359.383 420.48 365.03 411.118 365.03 411.118C365.03 411.118 376.823 403.89 377.841 400.913C378.86 397.936 376.483 383.82 376.483 383.82C376.483 383.82 382.737 377.006 380.7 374.029C378.663 371.052 375.215 371.985 371.641 373.689C368.067 375.392 360.259 380.147 360.259 380.147C361.255 376.827 361.329 373.362 360.473 370.015C358.936 365.349 354.255 366.919 353.737 369.897C353.218 372.874 353.236 375.821 351.7 378.784C349.504 382.351 347.922 386.155 347 390.085C345.982 395.181 343.212 408.971 343.212 408.971C343.212 408.971 314.819 435.247 307.117 441.646C303.311 444.786 295.253 449.911 295.253 449.911L274.275 415.34C274.275 415.34 263.554 383.894 252.225 375.347C246.741 371.226 239.883 368.574 232.549 367.739C225.216 366.903 217.749 367.924 211.127 370.667" stroke="#263238" stroke-miterlimit="10"/>
<path d="M360.562 390.915C360.219 390.86 359.893 390.749 359.602 390.589C359.311 390.428 359.062 390.221 358.869 389.98C358.676 389.738 358.543 389.468 358.478 389.183C358.413 388.898 358.417 388.606 358.489 388.323L371.122 339.369C371.269 338.818 371.667 338.336 372.234 338.024C372.8 337.712 373.491 337.594 374.16 337.695C374.503 337.75 374.83 337.861 375.12 338.022C375.411 338.182 375.66 338.389 375.853 338.631C376.046 338.872 376.179 339.143 376.245 339.427C376.31 339.712 376.306 340.004 376.233 340.288L363.582 389.167C363.46 389.73 363.074 390.231 362.508 390.558C361.942 390.886 361.242 391.014 360.562 390.915Z" fill="#263238" stroke="#263238" stroke-miterlimit="10"/>
<path d="M377.841 400.913C378.86 397.951 376.483 383.82 376.483 383.82C376.483 383.82 382.737 377.006 380.7 374.029C378.663 371.052 375.214 371.985 371.641 373.689C368.067 375.392 360.258 380.147 360.258 380.147C361.255 376.827 361.328 373.362 360.473 370.015C358.936 365.349 354.254 366.919 353.736 369.897C353.218 372.874 353.236 375.821 351.699 378.784C349.504 382.351 347.922 386.155 347 390.085C345.981 395.181 343.212 408.971 343.212 408.971C343.212 408.971 338.423 413.414 332.24 419.073L352.736 431.589C354.308 429.248 355.38 427.589 355.791 426.849C359.365 420.465 365.029 411.119 365.029 411.119C365.029 411.119 376.823 403.89 377.841 400.913Z" fill="#D4D4D4" stroke="#263238" stroke-miterlimit="10"/>
<path d="M360.258 380.147C360.258 380.147 354.362 383.998 352.664 386.96" stroke="#263238" stroke-miterlimit="10"/>
<path d="M472.152 420.02C472.152 420.02 468.471 436.077 474.457 448.311C480.443 460.546 508.586 504.878 510.426 512.907C512.267 520.935 505.816 534.325 510.891 539.287C515.966 544.249 540.41 545.789 563.46 544.649C586.511 543.508 599.895 541.198 602.664 533.169C605.434 525.141 607.274 520.935 600.359 520.935C593.444 520.935 586.511 521.705 577.291 520.179C568.071 518.654 547.79 509.085 545.02 507.559C542.25 506.034 539.945 501.442 539.945 501.442C539.945 501.442 533.495 485.771 527.026 449.067C520.558 412.363 525.239 396.706 504.44 391.3C483.641 385.894 459.572 408.008 455.016 412.274" fill="#6E6E6E"/>
<path d="M472.152 420.02C472.152 420.02 468.471 436.077 474.457 448.311C480.443 460.546 508.586 504.878 510.426 512.907C512.267 520.935 505.816 534.325 510.891 539.287C515.966 544.249 540.41 545.789 563.46 544.649C586.511 543.508 599.895 541.198 602.664 533.169C605.434 525.141 607.274 520.935 600.359 520.935C593.444 520.935 586.511 521.705 577.291 520.179C568.071 518.654 547.79 509.085 545.02 507.559C542.25 506.034 539.945 501.442 539.945 501.442C539.945 501.442 533.495 485.771 527.026 449.067C520.558 412.363 525.239 396.706 504.44 391.3C483.641 385.894 459.572 408.008 455.016 412.274" stroke="#263238" stroke-miterlimit="10"/>
<path d="M602.665 533.11C605.435 525.082 607.275 520.875 600.36 520.875C593.445 520.875 586.512 521.646 577.292 520.12C568.071 518.594 547.79 509.026 545.021 507.5C542.251 505.975 539.946 501.383 539.946 501.383C537.386 494.507 535.28 487.52 533.638 480.454C517.396 475.788 505.049 484.645 498.938 490.57C504.87 500.85 509.659 509.692 510.427 512.788C512.214 520.816 505.817 534.206 510.892 539.168C515.966 544.13 540.411 545.671 563.461 544.53C586.512 543.39 599.895 541.198 602.665 533.11Z" fill="#D4D4D4" stroke="#263238" stroke-miterlimit="10"/>
<path d="M600.359 520.935C593.444 520.935 586.511 521.705 577.291 520.179C568.071 518.654 547.79 509.085 545.02 507.559C542.251 506.034 539.946 501.442 539.946 501.442C539.946 501.442 539.392 500.109 538.463 497.309C522.059 496.48 512.964 502.36 508.211 507.545C509.132 509.276 509.874 511.07 510.427 512.906C512.213 520.935 505.817 534.325 510.891 539.287C515.966 544.249 540.41 545.789 563.461 544.649C586.511 543.508 599.895 541.197 602.665 533.169C605.434 525.141 607.275 520.935 600.359 520.935Z" fill="white" stroke="#263238" stroke-miterlimit="10"/>
<path d="M377.376 611.88H197.742V620.723H377.376V611.88Z" fill="#919191" stroke="#263238" stroke-miterlimit="10"/>
<path d="M354.254 566.171L412.399 661.886C412.828 662.596 413.031 663.386 412.989 664.18C412.947 664.974 412.661 665.745 412.158 666.422C411.655 667.098 410.952 667.657 410.115 668.045C409.279 668.434 408.337 668.638 407.378 668.64C406.373 668.639 405.387 668.415 404.523 667.99C403.658 667.565 402.947 666.956 402.464 666.226L338.244 569.118L354.254 566.171Z" fill="#919191" stroke="#263238" stroke-miterlimit="10"/>
<path d="M224.081 540.635L171.208 662.715C170.861 663.457 170.749 664.259 170.883 665.047C171.017 665.834 171.392 666.58 171.973 667.213C172.554 667.846 173.321 668.345 174.2 668.662C175.08 668.979 176.043 669.104 176.997 669.025C178.001 668.946 178.96 668.645 179.775 668.152C180.589 667.659 181.228 666.994 181.625 666.226L240.27 542.264L224.081 540.635Z" fill="#919191" stroke="#263238" stroke-miterlimit="10"/>
<path d="M209.304 394.425C209.304 394.425 184.413 366.416 173.745 367.882C163.078 369.349 152.303 432.018 164.811 474.04C177.319 516.061 220.883 559.49 281.261 572.806C351.521 588.285 411.47 560.957 411.988 555.861C412.506 550.766 347.143 530.059 209.304 394.425Z" fill="#D4D4D4"/>
<path opacity="0.29" d="M281.262 572.806C351.521 588.285 411.471 560.957 411.989 555.861C412.203 553.714 401.053 548.9 378.038 534.325C262.732 537.717 195.599 499.887 165.58 476.721C179.178 517.883 222.17 559.772 281.262 572.806Z" fill="black"/>
<path d="M209.304 394.425C209.304 394.425 184.413 366.416 173.745 367.882C163.078 369.349 152.303 432.018 164.811 474.04C177.319 516.061 220.883 559.49 281.261 572.806C351.521 588.285 411.47 560.957 411.988 555.861C412.506 550.766 347.143 530.059 209.304 394.425Z" stroke="#263238" stroke-miterlimit="10"/>
<path d="M731.3 607.17C731.3 607.17 710.751 601.097 662.828 598.283C614.904 595.469 569.464 599.764 567.677 603.452C566.319 606.267 573.288 643.148 576.611 660.33C577.083 662.764 578.585 664.978 580.847 666.577C583.11 668.176 585.986 669.054 588.959 669.055H719.668C722.657 669.055 725.548 668.168 727.816 666.554C730.084 664.94 731.58 662.706 732.033 660.256L739.967 617.42C740.451 615.139 739.843 612.792 738.271 610.877C736.699 608.963 734.288 607.633 731.551 607.17H731.3Z" fill="#D4D4D4"/>
<path opacity="0.29" d="M729.032 665.559C665.652 665.678 631.916 639.505 615.96 616.576C609.741 607.689 599.61 602.297 589.157 599.142C576.506 600.312 568.358 601.927 567.714 603.452C566.356 606.267 573.325 643.149 576.649 660.331C577.12 662.764 578.622 664.978 580.884 666.577C583.147 668.176 586.023 669.054 588.996 669.055H719.705C721.469 669.05 723.212 668.737 724.82 668.134C726.427 667.532 727.863 666.654 729.032 665.559Z" fill="black"/>
<path d="M731.3 607.17C731.3 607.17 710.751 601.097 662.828 598.283C614.904 595.469 569.464 599.764 567.677 603.452C566.319 606.267 573.288 643.148 576.611 660.33C577.083 662.764 578.585 664.978 580.847 666.577C583.11 668.176 585.986 669.054 588.959 669.055H719.668C722.657 669.055 725.548 668.168 727.816 666.554C730.084 664.94 731.58 662.706 732.033 660.256L739.967 617.42C740.451 615.139 739.843 612.792 738.271 610.877C736.699 608.963 734.288 607.633 731.551 607.17H731.3Z" stroke="#263238" stroke-miterlimit="10"/>
<path d="M791.178 669.055H826.915" stroke="#263238" stroke-miterlimit="10"/>
<path d="M4.49219 669.055H776.275" stroke="#263238" stroke-miterlimit="10"/>
</svg>
