<svg width="404" height="368" viewBox="0 0 404 368" fill="none" xmlns="http://www.w3.org/2000/svg">
<g style="mix-blend-mode:darken">
<path d="M204.398 367.956C314.635 367.956 404.001 319.034 404.001 258.685C404.001 198.337 314.635 149.414 204.398 149.414C94.1602 149.414 4.79492 198.337 4.79492 258.685C4.79492 319.034 94.1602 367.956 204.398 367.956Z" fill="#F5F5F5"/>
<path d="M191.898 348.414L373.655 248.918C375.799 247.744 375.799 245.839 373.655 244.665L224.711 163.12C223.507 162.541 222.176 162.239 220.826 162.239C219.476 162.239 218.145 162.541 216.941 163.12L35.1932 262.658C33.0398 263.832 33.0398 265.738 35.1932 266.912L184.137 348.456C185.343 349.028 186.675 349.321 188.023 349.314C189.371 349.307 190.699 348.998 191.898 348.414Z" fill="#E0E0E0"/>
<path d="M48.0601 233.282C47.4589 226.195 44.0404 214.565 35.346 203.505C26.0504 191.654 14.7092 184.236 6.29294 187.707C-1.54905 190.94 1.42086 201.2 14.9245 211.324C24.3905 218.436 34.2155 227.675 39.4913 238.845L48.0601 253.028V233.282Z" fill="#B9B8E7"/>
<g opacity="0.2">
<path d="M48.0601 233.282C47.4589 226.195 44.0404 214.565 35.346 203.505C26.0504 191.654 14.7092 184.236 6.29294 187.707C-1.54905 190.94 1.42086 201.2 14.9245 211.324C24.3905 218.436 34.2155 227.675 39.4913 238.845L48.0601 253.028V233.282Z" fill="black"/>
</g>
<path d="M47.3059 238.684C47.1962 238.685 47.0889 238.653 46.9989 238.594C46.9089 238.534 46.8406 238.45 46.8034 238.352C39.3024 218.708 23.6094 198.826 10.357 192.114C10.2333 192.05 10.1406 191.944 10.0987 191.817C10.0568 191.689 10.069 191.552 10.1327 191.433C10.2011 191.315 10.3151 191.227 10.4507 191.187C10.5863 191.148 10.7329 191.16 10.8595 191.22C24.3182 198.026 40.1996 218.155 47.7994 238.012C47.8237 238.074 47.8349 238.14 47.8323 238.206C47.8297 238.272 47.8133 238.337 47.7841 238.397C47.7549 238.457 47.7135 238.511 47.6622 238.556C47.6109 238.601 47.5508 238.635 47.4853 238.658C47.4279 238.678 47.3669 238.687 47.3059 238.684Z" fill="white"/>
<path d="M51.3349 267.056C46.9857 270.296 41.8157 272.397 36.3418 273.148C26.8937 274.56 22.7215 270.281 22.7215 270.281C22.7215 270.281 26.4451 261.875 31.8107 259.519C31.8107 259.519 22.7126 261.28 15.4179 265.899C15.4179 265.899 9.64855 265.985 7.34261 257.63C7.34261 257.63 10.7611 252.611 22.228 249.897C22.228 249.897 15.2474 248.195 5.18023 250.662C4.42654 250.943 1.21437 240.156 0.236367 235.179C-0.741638 230.202 1.37588 230.244 5.46735 229.223C9.55883 228.203 23.5021 227.522 26.1042 229.666C28.7062 231.81 29.9713 239.101 29.9713 239.101C30.4408 236.19 30.5282 233.235 30.2315 230.304C33.7133 230.139 37.1993 230.536 40.541 231.478C45.1439 233.001 44.8478 235.128 44.8478 238.284C44.8661 241.48 44.4039 244.663 43.475 247.736C43.475 247.736 46.6513 245.124 46.7589 235.519C46.7589 235.519 52.9769 240.564 55.4712 244.877C57.9656 249.191 57.3286 260.591 51.3349 267.056Z" fill="#B9B8E7"/>
<path d="M51.3346 267.558C51.2361 267.552 51.1407 267.523 51.0564 267.474C50.9721 267.425 50.9014 267.358 50.8501 267.278C39.9754 252.44 14.8882 234.813 4.74031 232.941C4.60268 232.913 4.48203 232.835 4.40347 232.724C4.32492 232.613 4.29452 232.477 4.3186 232.346C4.34684 232.216 4.42724 232.102 4.54278 232.027C4.65832 231.952 4.79995 231.923 4.9377 231.946C15.2561 233.852 41.088 251.139 51.8102 266.827C51.8446 266.886 51.8654 266.951 51.8712 267.018C51.877 267.085 51.8678 267.153 51.844 267.216C51.8203 267.28 51.7826 267.338 51.7335 267.387C51.6843 267.435 51.6248 267.474 51.559 267.499C51.49 267.535 51.4132 267.555 51.3346 267.558Z" fill="white"/>
<path d="M347.248 226.331L339.433 222.077C339.433 222.077 335.682 202.51 338.491 185.648C342.43 161.98 359.424 153.813 365.597 156.169C371.77 158.526 373.223 165.528 362.07 179.208C355.494 187.307 347.059 204.364 347.248 226.331Z" fill="#B9B8E7"/>
<g opacity="0.2">
<path d="M347.248 226.331L339.433 222.077C339.433 222.077 335.682 202.51 338.491 185.648C342.43 161.98 359.424 153.813 365.597 156.169C371.77 158.526 373.223 165.528 362.07 179.208C355.494 187.307 347.059 204.364 347.248 226.331Z" fill="black"/>
</g>
<path d="M344.412 216.93H344.493C344.639 216.909 344.77 216.835 344.858 216.724C344.947 216.613 344.987 216.473 344.969 216.335C341.739 194.172 351.133 169.892 361.694 160.108C361.799 160.01 361.86 159.876 361.862 159.736C361.863 159.595 361.806 159.46 361.703 159.36C361.599 159.259 361.458 159.202 361.31 159.2C361.162 159.199 361.019 159.253 360.913 159.351C350.146 169.313 340.581 193.985 343.865 216.479C343.883 216.605 343.948 216.72 344.049 216.803C344.15 216.886 344.279 216.931 344.412 216.93Z" fill="white"/>
<path d="M368.935 238.207C370.165 238.88 372.713 237.416 373.682 236.795C375.351 235.719 376.701 234.254 377.603 232.541C378.612 230.594 378.957 228.396 378.59 226.254C378.388 225.123 378.107 224.006 377.746 222.911C377.423 221.83 377.091 220.75 376.759 219.661C376.361 218.615 376.193 217.504 376.266 216.394C376.562 214.174 378.644 212.617 380.528 211.29C382.618 209.809 384.79 207.887 384.781 205.173C384.63 203.1 383.755 201.133 382.295 199.583C380.95 197.958 379.352 196.529 378.132 194.828C377.172 193.635 376.672 192.167 376.714 190.667C376.848 189.751 377.171 188.869 377.666 188.073C378.662 186.371 379.981 184.738 380.662 182.875C381.344 181.011 381.255 178.68 379.711 177.336C378.446 176.239 376.571 176.085 374.866 176.196C373.274 176.385 371.743 176.899 370.38 177.702C365.894 180.058 363.354 185.086 358.599 186.899C356.804 187.605 354.759 187.749 352.857 188.234C350.954 188.719 348.998 189.638 348.11 191.314C346.369 194.615 349.608 198.681 348.379 202.187C347.294 205.283 344.117 206.44 342.332 209.265C341.605 210.499 341.313 211.92 341.497 213.323C341.649 215.696 342.257 218.023 343.292 220.188C344.456 222.337 345.785 224.401 347.267 226.365C347.321 226.399 368.738 238.105 368.935 238.207Z" fill="#B9B8E7"/>
<path d="M356.247 231.801C356.321 231.799 356.394 231.783 356.462 231.754C356.529 231.725 356.59 231.684 356.641 231.632C356.692 231.581 356.732 231.521 356.758 231.455C356.784 231.389 356.796 231.319 356.794 231.248C355.897 210.277 366.296 187.12 373.842 180.39C373.95 180.294 374.014 180.162 374.019 180.021C374.024 179.881 373.97 179.744 373.869 179.642C373.768 179.539 373.628 179.479 373.479 179.474C373.331 179.469 373.187 179.52 373.079 179.616C365.345 186.482 354.712 210.022 355.636 231.291C355.64 231.363 355.658 231.433 355.691 231.498C355.724 231.563 355.77 231.621 355.827 231.669C355.884 231.717 355.951 231.753 356.023 231.776C356.095 231.798 356.171 231.807 356.247 231.801Z" fill="white"/>
<path d="M359.558 207.019C359.611 207.027 359.666 207.027 359.719 207.019C364.958 205.637 370.341 204.804 375.771 204.535C375.918 204.526 376.055 204.463 376.154 204.36C376.253 204.257 376.306 204.121 376.301 203.982C376.301 203.911 376.286 203.841 376.256 203.777C376.226 203.712 376.182 203.655 376.127 203.607C376.072 203.56 376.007 203.524 375.937 203.502C375.866 203.48 375.791 203.472 375.717 203.48C370.194 203.744 364.718 204.583 359.387 205.981C359.247 206.022 359.13 206.114 359.061 206.237C358.992 206.359 358.977 206.503 359.019 206.636C359.051 206.747 359.122 206.846 359.219 206.915C359.317 206.984 359.436 207.021 359.558 207.019Z" fill="white"/>
<path d="M50.3398 264.249C50.4524 265.706 50.9254 267.118 51.7203 268.37C52.5153 269.622 53.61 270.679 54.9158 271.455L183.223 341.676C184.642 342.36 186.212 342.716 187.803 342.716C189.395 342.716 190.965 342.36 192.384 341.676L367.869 245.592C369.251 244.899 370.408 243.862 371.215 242.593C372.022 241.323 372.448 239.868 372.448 238.386C372.448 236.904 372.022 235.449 371.215 234.18C370.408 232.91 369.251 231.873 367.869 231.18L239.561 160.951C238.143 160.271 236.575 159.917 234.985 159.917C233.396 159.917 231.828 160.271 230.409 160.951L54.9158 257.035C53.6089 257.812 52.5134 258.87 51.7184 260.123C50.9233 261.377 50.4511 262.79 50.3398 264.249Z" fill="#37474F"/>
<path d="M187.771 333.321V342.68C186.177 342.713 184.601 342.356 183.195 341.642L54.8881 271.421C53.5458 270.75 52.4154 269.753 51.6125 268.532C50.8095 267.312 50.3629 265.911 50.3182 264.473C50.2735 263.035 50.6323 261.611 51.358 260.347C52.0836 259.084 53.1502 258.026 54.4485 257.281C52.3938 258.676 52.5553 260.684 54.9151 262.02L183.222 332.241C184.617 332.961 186.183 333.333 187.771 333.321Z" fill="#263238"/>
<path d="M46.042 257.196C44.7684 256.372 43.7162 255.276 42.9699 253.997C42.2235 252.717 41.8037 251.29 41.7441 249.829V104.682C41.8319 103.176 42.2917 101.711 43.0866 100.404C43.8815 99.0979 44.9891 97.987 46.3201 97.1612L221.841 1.07723C223.204 0.396537 224.717 0.028142 226.258 0.00154979C227.799 -0.0250425 229.325 0.290907 230.715 0.924093C231.988 1.74843 233.04 2.84425 233.787 4.12369C234.533 5.40313 234.953 6.83059 235.012 8.29161V153.438C234.925 154.943 234.466 156.408 233.671 157.713C232.876 159.018 231.768 160.127 230.436 160.951L54.9158 257.035C53.5527 257.717 52.0401 258.086 50.4991 258.114C48.9582 258.143 47.4317 257.828 46.042 257.196Z" fill="#455A64"/>
<path d="M54.3783 257.281C53.0645 257.841 51.6376 258.12 50.1976 258.101C48.7576 258.082 47.3395 257.765 46.0428 257.171C44.7685 256.35 43.7162 255.256 42.971 253.977C42.2259 252.699 41.8089 251.272 41.7539 249.812V104.682C41.8063 103.179 42.2668 101.713 43.0908 100.428L51.6775 105.116C50.8584 106.404 50.3955 107.867 50.3316 109.37V254.533C50.3316 257.103 52.0992 258.251 54.3783 257.281Z" fill="#263238"/>
<path d="M50.3398 109.386V254.533C50.3398 257.298 52.3856 258.421 54.9158 257.035L230.418 160.951C231.75 160.127 232.858 159.018 233.653 157.713C234.448 156.408 234.907 154.943 234.994 153.438V8.2916C234.994 5.51815 232.94 4.40366 230.418 5.78188L54.9158 101.866C53.5828 102.69 52.4737 103.8 51.6786 105.107C50.8834 106.414 50.4248 107.88 50.3398 109.386Z" fill="#37474F"/>
<path d="M54.9153 262.054L183.222 332.275C184.643 332.955 186.212 333.309 187.803 333.309C189.394 333.309 190.963 332.955 192.383 332.275L367.868 236.191C370.389 234.804 370.389 232.558 367.868 231.18L239.561 160.951C238.142 160.271 236.575 159.917 234.985 159.917C233.395 159.917 231.828 160.271 230.409 160.951L54.9153 257.034C52.385 258.421 52.385 260.684 54.9153 262.054Z" fill="#455A64"/>
<path d="M57.3745 109.922L226.596 17.3096C228.113 16.4588 229.342 17.1479 229.342 18.8154V144.463C229.29 145.366 229.014 146.245 228.537 147.028C228.06 147.812 227.395 148.478 226.596 148.972L57.3745 241.585C55.8581 242.436 54.6289 241.738 54.6289 240.079V114.431C54.681 113.528 54.9567 112.649 55.4337 111.866C55.9107 111.083 56.5756 110.417 57.3745 109.922Z" fill="#B9B8E7"/>
<path opacity="0.9" d="M57.3745 109.922L226.596 17.3096C228.113 16.4588 229.342 17.1479 229.342 18.8154V144.463C229.29 145.366 229.014 146.245 228.537 147.028C228.06 147.812 227.395 148.478 226.596 148.972L57.3745 241.585C55.8581 242.436 54.6289 241.738 54.6289 240.079V114.431C54.681 113.528 54.9567 112.649 55.4337 111.866C55.9107 111.083 56.5756 110.417 57.3745 109.922Z" fill="white"/>
<path d="M69.811 258.294L232.725 169.109C233.433 168.765 234.218 168.586 235.013 168.586C235.809 168.586 236.593 168.765 237.301 169.109L245.637 173.669C246.902 174.358 246.902 175.481 245.637 176.171L82.6956 265.346C81.9845 265.686 81.1993 265.863 80.4031 265.863C79.6069 265.863 78.8217 265.686 78.1106 265.346L69.811 260.795C68.5369 260.106 68.5369 258.983 69.811 258.294Z" fill="#37474F"/>
<path d="M91.2817 270.042L252.985 181.564C253.694 181.225 254.478 181.048 255.273 181.048C256.067 181.048 256.851 181.225 257.561 181.564L308.812 209.639C310.077 210.337 310.077 211.46 308.812 212.191L147.306 300.567C146.595 300.907 145.81 301.084 145.014 301.084C144.217 301.084 143.432 300.907 142.721 300.567L91.2907 272.62C90.0166 271.855 90.0166 270.74 91.2817 270.042Z" fill="#263238"/>
<path d="M237.319 220.988L242.424 218.198C242.639 218.079 242.621 217.874 242.424 217.747L236.529 214.522C236.403 214.461 236.263 214.429 236.121 214.429C235.979 214.429 235.839 214.461 235.713 214.522L230.58 217.296C230.365 217.415 230.374 217.611 230.58 217.738L236.475 220.971C236.604 221.039 236.748 221.077 236.895 221.079C237.042 221.082 237.187 221.051 237.319 220.988ZM227.252 209.928L222.155 212.719C221.94 212.838 221.949 213.034 222.155 213.161L228.05 216.394C228.176 216.455 228.316 216.487 228.458 216.487C228.6 216.487 228.74 216.455 228.867 216.394L233.972 213.595C234.187 213.476 234.169 213.28 233.972 213.153L228.077 209.92C227.952 209.853 227.811 209.816 227.668 209.812C227.524 209.807 227.381 209.836 227.252 209.894V209.928ZM210.778 218.946L202.137 223.668C201.922 223.787 201.94 223.991 202.137 224.119L208.032 227.343C208.159 227.405 208.299 227.436 208.441 227.436C208.583 227.436 208.722 227.405 208.849 227.343L217.48 222.622C217.696 222.503 217.687 222.298 217.48 222.171L211.576 218.929C211.454 218.868 211.318 218.835 211.179 218.832C211.041 218.829 210.903 218.856 210.778 218.912V218.946ZM219.795 214.003L214.699 216.802C214.484 216.913 214.493 217.117 214.699 217.245L220.594 220.469C220.72 220.53 220.86 220.562 221.002 220.562C221.144 220.562 221.284 220.53 221.41 220.469L226.516 217.679C226.731 217.56 226.713 217.364 226.516 217.236L220.621 214.003C220.496 213.936 220.356 213.897 220.212 213.891C220.069 213.885 219.926 213.912 219.795 213.969V214.003ZM199.787 224.953L194.69 227.743C194.466 227.862 194.484 228.066 194.69 228.194L200.585 231.418C200.712 231.48 200.851 231.512 200.993 231.512C201.135 231.512 201.275 231.48 201.402 231.418L206.498 228.628C206.713 228.509 206.704 228.305 206.498 228.177L200.603 224.953C200.477 224.891 200.337 224.86 200.195 224.86C200.053 224.86 199.913 224.891 199.787 224.953ZM192.33 229.036L187.234 231.827C187.019 231.946 187.028 232.142 187.234 232.269L193.129 235.502C193.255 235.563 193.395 235.595 193.537 235.595C193.679 235.595 193.819 235.563 193.945 235.502L199.042 232.703C199.266 232.584 199.248 232.388 199.042 232.261L193.147 229.036C193.023 228.971 192.884 228.935 192.742 228.93C192.6 228.926 192.459 228.953 192.33 229.011V229.036ZM215.533 242.163L220.63 239.373C220.854 239.254 220.836 239.05 220.63 238.922L214.735 235.698C214.608 235.636 214.469 235.604 214.327 235.604C214.185 235.604 214.045 235.636 213.918 235.698L208.822 238.488C208.607 238.607 208.616 238.811 208.822 238.939L214.717 242.163C214.845 242.221 214.986 242.248 215.128 242.244C215.27 242.239 215.409 242.203 215.533 242.138V242.163ZM208.077 246.221L213.183 243.431C213.398 243.312 213.38 243.108 213.183 242.98L207.288 239.756C207.161 239.695 207.021 239.663 206.879 239.663C206.737 239.663 206.598 239.695 206.471 239.756L201.375 242.546C201.159 242.665 201.168 242.861 201.375 242.989L207.27 246.221C207.395 246.281 207.533 246.312 207.673 246.312C207.814 246.312 207.952 246.281 208.077 246.221ZM200.621 250.305L205.726 247.506C205.942 247.387 205.924 247.191 205.726 247.064L199.831 243.831C199.705 243.77 199.565 243.738 199.423 243.738C199.281 243.738 199.141 243.77 199.015 243.831L193.919 246.621C193.703 246.74 193.712 246.936 193.919 247.064L199.814 250.297C199.938 250.358 200.076 250.39 200.216 250.392C200.356 250.393 200.495 250.364 200.621 250.305ZM193.165 254.38L198.27 251.59C198.486 251.471 198.468 251.275 198.27 251.147L192.366 247.914C192.24 247.853 192.1 247.821 191.958 247.821C191.816 247.821 191.676 247.853 191.55 247.914L186.453 250.688C186.238 250.807 186.247 251.011 186.453 251.139L192.357 254.363C192.481 254.426 192.619 254.46 192.759 254.463C192.899 254.466 193.038 254.437 193.165 254.38ZM229.863 225.063L234.968 222.273C235.183 222.154 235.165 221.958 234.968 221.83L229.064 218.598C228.939 218.538 228.8 218.507 228.66 218.507C228.52 218.507 228.382 218.538 228.256 218.598L223.151 221.397C222.936 221.516 222.945 221.711 223.151 221.839L229.055 225.072C229.181 225.13 229.32 225.16 229.46 225.159C229.6 225.157 229.738 225.124 229.863 225.063ZM222.99 238.054L234.367 231.827C234.582 231.708 234.573 231.512 234.367 231.384L220.011 223.54C219.885 223.481 219.747 223.449 219.607 223.449C219.467 223.449 219.328 223.481 219.203 223.54L213.317 226.765C213.102 226.884 213.111 227.08 213.317 227.207L220.899 231.359C221.132 231.486 221.141 231.691 220.899 231.81L216.197 234.362C215.973 234.481 215.991 234.677 216.197 234.804L222.092 238.029C222.226 238.107 222.38 238.151 222.537 238.156C222.695 238.16 222.851 238.125 222.99 238.054ZM184.874 233.086L179.778 235.885C179.563 236.004 179.572 236.2 179.778 236.327L185.673 239.56C185.799 239.621 185.939 239.653 186.081 239.653C186.223 239.653 186.363 239.621 186.489 239.56L191.595 236.77C191.81 236.651 191.792 236.455 191.595 236.327L185.7 233.094C185.573 233.03 185.432 232.996 185.288 232.995C185.144 232.993 185.003 233.025 184.874 233.086ZM177.418 237.169L172.322 239.96C172.106 240.079 172.115 240.283 172.322 240.411L178.217 243.635C178.343 243.696 178.483 243.728 178.625 243.728C178.767 243.728 178.907 243.696 179.033 243.635L184.139 240.845C184.354 240.726 184.336 240.521 184.139 240.402L178.244 237.169C178.116 237.107 177.974 237.074 177.831 237.074C177.687 237.074 177.546 237.107 177.418 237.169ZM140.164 282.931C140.291 282.993 140.43 283.025 140.572 283.025C140.714 283.025 140.854 282.993 140.981 282.931L146.086 280.141C146.301 280.022 146.283 279.826 146.086 279.699L140.191 276.466C140.065 276.404 139.925 276.373 139.783 276.373C139.641 276.373 139.501 276.404 139.375 276.466L134.278 279.256C134.063 279.375 134.072 279.579 134.278 279.707L140.164 282.931ZM117.778 269.821L112.681 272.595C112.466 272.714 112.475 272.91 112.681 273.037L118.576 276.27C118.703 276.331 118.843 276.363 118.985 276.363C119.126 276.363 119.266 276.331 119.393 276.27L124.489 273.48C124.713 273.36 124.696 273.156 124.489 273.029L118.594 269.804C118.466 269.746 118.326 269.717 118.184 269.72C118.042 269.723 117.903 269.757 117.778 269.821ZM129.783 279.401C129.908 279.461 130.046 279.492 130.187 279.492C130.327 279.492 130.465 279.461 130.59 279.401L135.696 276.61C135.911 276.491 135.893 276.296 135.696 276.168L129.801 272.935C129.675 272.874 129.535 272.842 129.393 272.842C129.251 272.842 129.111 272.874 128.984 272.935L123.888 275.734C123.673 275.853 123.682 276.049 123.888 276.176L129.783 279.401ZM153.327 285.424L158.432 282.634C158.648 282.515 158.639 282.31 158.432 282.183L152.528 278.958C152.403 278.899 152.265 278.867 152.125 278.867C151.984 278.867 151.846 278.899 151.721 278.958L146.615 281.749C146.4 281.868 146.409 282.072 146.615 282.2L152.519 285.424C152.645 285.483 152.784 285.512 152.924 285.511C153.064 285.509 153.202 285.477 153.327 285.416V285.424ZM145.063 289.491C145.188 289.551 145.327 289.582 145.467 289.582C145.607 289.582 145.745 289.551 145.871 289.491L150.976 286.692C151.191 286.573 151.182 286.377 150.976 286.249L145.072 283.025C144.947 282.965 144.809 282.934 144.668 282.934C144.528 282.934 144.39 282.965 144.265 283.025L139.159 285.815C138.944 285.935 138.953 286.13 139.159 286.258L145.063 289.491ZM125.234 265.746L120.137 268.537C119.913 268.656 119.931 268.86 120.137 268.988L126.032 272.212C126.159 272.273 126.299 272.305 126.441 272.305C126.583 272.305 126.723 272.273 126.849 272.212L131.945 269.421C132.17 269.302 132.152 269.107 131.945 268.979L126.05 265.746C125.925 265.684 125.785 265.65 125.643 265.649C125.501 265.647 125.361 265.678 125.234 265.738V265.746ZM162.515 245.328L157.409 248.119C157.194 248.238 157.203 248.433 157.409 248.561L163.313 251.794C163.439 251.854 163.577 251.885 163.717 251.885C163.857 251.885 163.996 251.854 164.121 251.794L169.226 248.995C169.442 248.876 169.433 248.68 169.226 248.553L163.322 245.32C163.193 245.268 163.052 245.245 162.912 245.254C162.772 245.263 162.636 245.303 162.515 245.371V245.328ZM132.69 261.646L127.585 264.445C127.369 264.564 127.387 264.759 127.585 264.887L133.48 268.12C133.606 268.181 133.746 268.213 133.888 268.213C134.03 268.213 134.17 268.181 134.296 268.12L139.393 265.329C139.608 265.21 139.599 265.015 139.393 264.887L133.498 261.654C133.372 261.594 133.234 261.563 133.094 261.563C132.954 261.563 132.815 261.594 132.69 261.654V261.646ZM169.962 241.228L164.866 244.018C164.65 244.137 164.659 244.333 164.866 244.46L170.769 247.693C170.895 247.753 171.033 247.784 171.173 247.784C171.313 247.784 171.452 247.753 171.577 247.693L176.682 244.903C176.898 244.784 176.88 244.58 176.682 244.452L170.778 241.228C170.65 241.17 170.509 241.143 170.367 241.147C170.225 241.152 170.086 241.188 169.962 241.253V241.228ZM155.05 249.412L149.953 252.177C149.738 252.296 149.747 252.5 149.953 252.628L155.857 255.852C155.984 255.913 156.123 255.945 156.265 255.945C156.407 255.945 156.547 255.913 156.674 255.852L161.77 253.062C161.985 252.942 161.976 252.747 161.77 252.619L155.866 249.386C155.738 249.329 155.597 249.301 155.455 249.306C155.313 249.31 155.174 249.347 155.05 249.412ZM147.593 253.495L142.488 256.286C142.273 256.405 142.291 256.609 142.488 256.737L148.383 259.961C148.509 260.022 148.649 260.054 148.791 260.054C148.933 260.054 149.073 260.022 149.199 259.961L154.296 257.171C154.511 257.052 154.502 256.847 154.296 256.72L148.401 253.495C148.277 253.437 148.14 253.407 148.002 253.407C147.863 253.407 147.726 253.437 147.602 253.495H147.593ZM140.137 257.579L135.032 260.369C134.817 260.489 134.834 260.684 135.032 260.812L140.927 264.045C141.053 264.106 141.193 264.138 141.335 264.138C141.477 264.138 141.617 264.106 141.743 264.045L146.84 261.246C147.055 261.135 147.046 260.931 146.84 260.803L140.945 257.579C140.821 257.521 140.684 257.49 140.546 257.49C140.407 257.49 140.27 257.521 140.146 257.579H140.137ZM178.244 262.547L183.349 259.748C183.564 259.638 183.555 259.434 183.349 259.306L177.445 256.082C177.32 256.022 177.181 255.991 177.041 255.991C176.901 255.991 176.763 256.022 176.637 256.082L171.532 258.872C171.317 258.991 171.326 259.187 171.532 259.315L177.436 262.547C177.562 262.609 177.702 262.641 177.844 262.641C177.986 262.641 178.126 262.609 178.253 262.547H178.244ZM243.743 200.868L238.638 203.684C238.413 203.803 238.431 204.007 238.638 204.135L244.533 207.359C244.659 207.42 244.799 207.452 244.941 207.452C245.083 207.452 245.223 207.42 245.349 207.359L250.445 204.569C250.661 204.45 250.652 204.254 250.445 204.126L244.551 200.893C244.426 200.828 244.287 200.792 244.146 200.787C244.004 200.783 243.863 200.811 243.734 200.868H243.743ZM234.717 205.811L229.62 208.601C229.396 208.72 229.414 208.916 229.62 209.044L235.515 212.276C235.642 212.338 235.782 212.37 235.923 212.37C236.065 212.37 236.205 212.338 236.332 212.276L241.428 209.486C241.652 209.367 241.634 209.163 241.428 209.035L235.533 205.811C235.406 205.748 235.264 205.715 235.12 205.715C234.977 205.715 234.835 205.748 234.708 205.811H234.717ZM251.199 196.784L246.094 199.583C245.878 199.702 245.896 199.898 246.094 200.026L251.989 203.258C252.115 203.32 252.255 203.352 252.397 203.352C252.539 203.352 252.679 203.32 252.805 203.258L257.902 200.468C258.117 200.349 258.108 200.153 257.902 200.026L252.007 196.793C251.881 196.73 251.741 196.697 251.6 196.695C251.458 196.694 251.317 196.724 251.19 196.784H251.199ZM212.617 234.515L217.723 231.725C217.938 231.606 217.92 231.41 217.723 231.282L211.828 228.049C211.701 227.988 211.561 227.956 211.419 227.956C211.278 227.956 211.138 227.988 211.011 228.049L205.915 230.848C205.7 230.967 205.708 231.163 205.915 231.291L211.81 234.524C211.933 234.579 212.069 234.608 212.206 234.606C212.342 234.605 212.477 234.574 212.599 234.515H212.617ZM259.472 192.726C259.347 192.666 259.208 192.635 259.068 192.635C258.928 192.635 258.79 192.666 258.664 192.726L253.559 195.517C253.344 195.636 253.362 195.831 253.559 195.959L259.454 199.192C259.58 199.253 259.72 199.285 259.862 199.285C260.004 199.285 260.144 199.253 260.27 199.192L265.367 196.393C265.582 196.274 265.573 196.078 265.367 195.951L259.472 192.726ZM185.727 258.464L190.832 255.673C191.047 255.554 191.038 255.35 190.832 255.222L184.928 251.998C184.803 251.938 184.665 251.907 184.524 251.907C184.384 251.907 184.246 251.938 184.121 251.998L179.015 254.789C178.8 254.908 178.809 255.112 179.015 255.231L184.919 258.464C185.042 258.521 185.177 258.551 185.314 258.551C185.451 258.551 185.586 258.521 185.709 258.464H185.727ZM277.157 208.414L282.253 205.624C282.468 205.504 282.459 205.3 282.253 205.173L276.313 201.982C276.187 201.921 276.047 201.889 275.905 201.889C275.763 201.889 275.623 201.921 275.497 201.982L270.391 204.773C270.176 204.892 270.194 205.096 270.391 205.224L276.286 208.448C276.42 208.51 276.568 208.539 276.717 208.533C276.866 208.527 277.011 208.486 277.139 208.414H277.157ZM261.275 207.887L266.372 205.088C266.587 204.968 266.578 204.773 266.372 204.645L260.477 201.412C260.35 201.351 260.21 201.319 260.069 201.319C259.927 201.319 259.787 201.351 259.66 201.412L254.564 204.203C254.34 204.322 254.358 204.518 254.564 204.645L260.459 207.878C260.582 207.938 260.719 207.97 260.857 207.971C260.996 207.973 261.133 207.944 261.257 207.887H261.275ZM267.906 197.337C267.78 197.276 267.64 197.244 267.498 197.244C267.356 197.244 267.216 197.276 267.09 197.337L261.984 200.128C261.769 200.247 261.787 200.451 261.984 200.57L267.879 203.803C268.005 203.864 268.145 203.896 268.287 203.896C268.429 203.896 268.569 203.864 268.696 203.803L273.792 201.012C274.007 200.893 273.998 200.689 273.792 200.562L267.906 197.337ZM269.476 196.487L283.832 204.322C283.959 204.383 284.099 204.415 284.24 204.415C284.382 204.415 284.522 204.383 284.649 204.322L289.745 201.531C289.96 201.412 289.952 201.217 289.745 201.089L275.389 193.245C275.264 193.185 275.126 193.154 274.985 193.154C274.845 193.154 274.707 193.185 274.582 193.245L269.422 196.027C269.207 196.146 269.225 196.35 269.458 196.478L269.476 196.487ZM252.177 205.487L247.081 208.286C246.856 208.397 246.874 208.601 247.081 208.729L252.976 211.953C253.102 212.014 253.242 212.046 253.384 212.046C253.526 212.046 253.666 212.014 253.792 211.953L258.889 209.163C259.113 209.044 259.095 208.848 258.889 208.72L252.994 205.487C252.866 205.422 252.723 205.387 252.578 205.386C252.432 205.384 252.289 205.416 252.159 205.479L252.177 205.487ZM196.054 236.2L190.94 238.99C190.724 239.109 190.733 239.305 190.94 239.432L196.844 242.665C196.969 242.725 197.107 242.756 197.247 242.756C197.388 242.756 197.526 242.725 197.651 242.665L202.757 239.875C202.972 239.756 202.954 239.552 202.757 239.424L196.853 236.2C196.729 236.141 196.592 236.111 196.453 236.111C196.315 236.111 196.178 236.141 196.054 236.2ZM268.866 212.481C268.992 212.542 269.132 212.574 269.274 212.574C269.416 212.574 269.556 212.542 269.683 212.481L274.779 209.69C275.003 209.571 274.985 209.367 274.779 209.239L268.884 206.015C268.758 205.954 268.618 205.922 268.476 205.922C268.334 205.922 268.194 205.954 268.068 206.015L262.944 208.788C262.72 208.907 262.738 209.103 262.944 209.231L268.866 212.481ZM203.501 232.116L198.405 234.906C198.189 235.026 198.198 235.23 198.405 235.357L204.309 238.582C204.434 238.642 204.572 238.673 204.713 238.673C204.853 238.673 204.991 238.642 205.116 238.582L210.222 235.791C210.437 235.672 210.419 235.468 210.222 235.349L204.327 232.116C204.199 232.053 204.058 232.021 203.914 232.021C203.77 232.021 203.629 232.053 203.501 232.116ZM147.62 278.856C147.747 278.918 147.887 278.949 148.029 278.949C148.171 278.949 148.31 278.918 148.437 278.856L153.533 276.057C153.758 275.938 153.74 275.743 153.533 275.615L147.638 272.382C147.512 272.321 147.372 272.289 147.23 272.289C147.088 272.289 146.948 272.321 146.822 272.382L141.698 275.147C141.474 275.266 141.492 275.462 141.698 275.589L147.62 278.856ZM136.405 268.851L131.308 271.642C131.093 271.761 131.102 271.957 131.308 272.084L137.203 275.317C137.33 275.378 137.47 275.41 137.611 275.41C137.753 275.41 137.893 275.378 138.02 275.317L143.125 272.518C143.34 272.399 143.323 272.203 143.125 272.076L137.23 268.843C137.102 268.782 136.96 268.75 136.816 268.752C136.673 268.753 136.532 268.788 136.405 268.851ZM155.893 274.807L160.989 272.016C161.205 271.897 161.196 271.693 160.989 271.565L155.05 268.341C154.923 268.28 154.783 268.248 154.641 268.248C154.499 268.248 154.359 268.28 154.233 268.341L149.128 271.131C148.912 271.251 148.93 271.446 149.128 271.574L155.023 274.807C155.157 274.874 155.308 274.908 155.46 274.905C155.612 274.902 155.761 274.862 155.893 274.79V274.807ZM163.349 270.723L168.446 267.933C168.661 267.814 168.652 267.609 168.446 267.49L162.551 264.257C162.424 264.196 162.284 264.164 162.142 264.164C162 264.164 161.861 264.196 161.734 264.257L156.629 267.048C156.413 267.167 156.431 267.371 156.629 267.499L162.524 270.723C162.653 270.783 162.795 270.813 162.939 270.81C163.082 270.807 163.223 270.771 163.349 270.706V270.723ZM170.805 266.64L175.902 263.849C176.117 263.73 176.108 263.534 175.902 263.407L169.998 260.174C169.873 260.114 169.734 260.083 169.594 260.083C169.454 260.083 169.316 260.114 169.19 260.174L164.022 262.939C163.807 263.058 163.825 263.254 164.022 263.381L169.917 266.605C170.049 266.684 170.201 266.728 170.356 266.734C170.512 266.74 170.667 266.708 170.805 266.64ZM143.888 264.785L138.791 267.575C138.576 267.694 138.585 267.89 138.791 268.018L144.686 271.251C144.813 271.312 144.953 271.344 145.095 271.344C145.237 271.344 145.376 271.312 145.503 271.251L150.608 268.46C150.824 268.341 150.806 268.137 150.608 268.009L144.713 264.785C144.584 264.715 144.438 264.677 144.289 264.674C144.141 264.671 143.993 264.703 143.861 264.768L143.888 264.785ZM151.344 260.701L146.248 263.492C146.023 263.611 146.041 263.815 146.248 263.943L152.142 267.167C152.269 267.228 152.409 267.26 152.551 267.26C152.693 267.26 152.833 267.228 152.959 267.167L158.055 264.377C158.28 264.257 158.262 264.062 158.055 263.934L152.16 260.701C152.032 260.633 151.888 260.596 151.741 260.593C151.594 260.59 151.448 260.621 151.317 260.684L151.344 260.701ZM181.169 244.375L176.063 247.166C175.848 247.285 175.857 247.489 176.063 247.617L181.967 250.841C182.092 250.901 182.231 250.932 182.371 250.932C182.511 250.932 182.649 250.901 182.775 250.841L187.88 248.051C188.095 247.931 188.086 247.736 187.88 247.608L181.976 244.375C181.849 244.309 181.706 244.272 181.561 244.269C181.416 244.266 181.272 244.297 181.142 244.358L181.169 244.375ZM173.712 248.459L168.607 251.249C168.392 251.369 168.41 251.573 168.607 251.7L174.502 254.925C174.628 254.986 174.768 255.018 174.91 255.018C175.052 255.018 175.192 254.986 175.319 254.925L180.415 252.134C180.63 252.015 180.621 251.811 180.415 251.683L174.511 248.459C174.385 248.394 174.244 248.358 174.1 248.355C173.957 248.352 173.815 248.382 173.686 248.442L173.712 248.459ZM188.598 240.266L183.492 243.057C183.277 243.176 183.286 243.371 183.492 243.499L189.396 246.732C189.522 246.792 189.66 246.823 189.8 246.823C189.94 246.823 190.079 246.792 190.204 246.732L195.309 243.933C195.525 243.814 195.516 243.618 195.309 243.491L189.405 240.258C189.279 240.199 189.141 240.169 189.001 240.171C188.86 240.172 188.722 240.205 188.598 240.266ZM158.773 256.601L153.677 259.4C153.452 259.519 153.47 259.714 153.677 259.842L159.572 263.075C159.698 263.136 159.838 263.168 159.98 263.168C160.122 263.168 160.262 263.136 160.388 263.075L165.485 260.284C165.7 260.165 165.691 259.97 165.485 259.842L159.59 256.609C159.464 256.547 159.324 256.513 159.183 256.512C159.041 256.51 158.9 256.541 158.773 256.601ZM166.229 252.526L161.124 255.316C160.909 255.435 160.927 255.631 161.124 255.758L167.019 258.991C167.145 259.053 167.285 259.084 167.427 259.084C167.569 259.084 167.709 259.053 167.835 258.991L172.932 256.192C173.147 256.082 173.138 255.878 172.932 255.75L167.037 252.526C166.912 252.466 166.773 252.435 166.633 252.435C166.493 252.435 166.355 252.466 166.229 252.526ZM160.783 281.332L165.888 278.542C166.104 278.422 166.086 278.227 165.888 278.099L159.984 274.866C159.859 274.806 159.721 274.775 159.581 274.775C159.44 274.775 159.302 274.806 159.177 274.866L154.072 277.657C153.856 277.776 153.865 277.98 154.072 278.108L159.976 281.332C160.101 281.392 160.239 281.423 160.379 281.423C160.52 281.423 160.658 281.392 160.783 281.332ZM117.033 277.146L111.138 273.913C111.012 273.852 110.872 273.82 110.73 273.82C110.588 273.82 110.448 273.852 110.322 273.913L105.225 276.704C105.01 276.823 105.019 277.019 105.225 277.146L111.12 280.379C111.246 280.44 111.386 280.472 111.528 280.472C111.67 280.472 111.81 280.44 111.937 280.379L117.042 277.58C117.284 277.47 117.266 277.274 117.033 277.146ZM128.213 280.252L122.309 277.027C122.184 276.967 122.045 276.936 121.905 276.936C121.765 276.936 121.627 276.967 121.501 277.027L113.65 281.324C113.435 281.443 113.444 281.638 113.65 281.766L119.554 284.999C119.68 285.059 119.818 285.09 119.958 285.09C120.098 285.09 120.237 285.059 120.362 284.999L128.213 280.702C128.455 280.583 128.446 280.379 128.213 280.252ZM107.989 270.893L102.112 267.677C101.986 267.618 101.848 267.586 101.708 267.586C101.568 267.586 101.429 267.618 101.304 267.677L95.0234 271.08C94.8081 271.2 94.817 271.395 95.0234 271.523L100.927 274.756C101.053 274.816 101.191 274.847 101.331 274.847C101.471 274.847 101.61 274.816 101.735 274.756L108.016 271.353C108.231 271.234 108.222 271.029 107.989 270.893ZM112.798 268.256C112.924 268.317 113.064 268.349 113.206 268.349C113.348 268.349 113.488 268.317 113.614 268.256L118.711 265.465C118.935 265.346 118.917 265.151 118.711 265.023L112.816 261.79C112.69 261.729 112.55 261.697 112.408 261.697C112.266 261.697 112.126 261.729 111.999 261.79L106.903 264.589C106.679 264.708 106.697 264.904 106.903 265.032L112.798 268.256ZM138.594 283.782L132.699 280.558C132.573 280.497 132.433 280.465 132.291 280.465C132.149 280.465 132.009 280.497 131.883 280.558L122.076 285.926C121.86 286.045 121.869 286.249 122.076 286.377L127.979 289.601C128.105 289.661 128.243 289.692 128.383 289.692C128.523 289.692 128.662 289.661 128.787 289.601L138.603 284.233C138.845 284.122 138.827 283.918 138.594 283.791V283.782ZM143.493 290.333L137.589 287.1C137.464 287.04 137.326 287.009 137.185 287.009C137.045 287.009 136.907 287.04 136.782 287.1L130.501 290.503C130.285 290.622 130.294 290.826 130.501 290.954L136.405 294.178C136.53 294.238 136.668 294.269 136.808 294.269C136.949 294.269 137.087 294.238 137.212 294.178L143.493 290.775C143.735 290.665 143.726 290.461 143.493 290.341V290.333ZM168.23 237.918C168.357 237.979 168.497 238.011 168.638 238.011C168.78 238.011 168.92 237.979 169.047 237.918L174.143 235.119C174.358 235 174.349 234.804 174.143 234.677L168.248 231.444C168.122 231.383 167.982 231.351 167.84 231.351C167.698 231.351 167.558 231.383 167.432 231.444L162.326 234.234C162.111 234.353 162.129 234.549 162.326 234.677L168.23 237.918ZM153.318 246.077C153.444 246.138 153.584 246.17 153.726 246.17C153.868 246.17 154.008 246.138 154.134 246.077L159.231 243.286C159.455 243.167 159.437 242.963 159.231 242.835L153.336 239.611C153.209 239.55 153.07 239.518 152.928 239.518C152.786 239.518 152.646 239.55 152.519 239.611L147.423 242.402C147.199 242.521 147.217 242.725 147.423 242.852L153.318 246.077ZM120.254 264.181C120.381 264.242 120.52 264.274 120.662 264.274C120.804 264.274 120.944 264.242 121.071 264.181L126.167 261.382C126.382 261.263 126.373 261.067 126.167 260.939L120.272 257.707C120.146 257.645 120.006 257.613 119.864 257.613C119.722 257.613 119.582 257.645 119.456 257.707L114.35 260.497C114.135 260.616 114.153 260.812 114.35 260.939L120.254 264.181ZM160.774 241.968C160.9 242.029 161.04 242.061 161.182 242.061C161.324 242.061 161.464 242.029 161.591 241.968L166.687 239.177C166.902 239.058 166.893 238.862 166.687 238.735L160.792 235.502C160.666 235.441 160.526 235.409 160.384 235.409C160.242 235.409 160.102 235.441 159.976 235.502L154.879 238.301C154.655 238.412 154.673 238.616 154.879 238.743L160.774 241.968ZM145.862 250.135C145.988 250.196 146.128 250.228 146.27 250.228C146.412 250.228 146.552 250.196 146.678 250.135L151.784 247.344C151.999 247.225 151.981 247.021 151.784 246.894L145.889 243.669C145.762 243.608 145.622 243.576 145.48 243.576C145.338 243.576 145.199 243.608 145.072 243.669L139.976 246.46C139.76 246.579 139.769 246.774 139.976 246.902L145.862 250.135ZM147.593 290.835C147.467 290.774 147.327 290.742 147.185 290.742C147.043 290.742 146.903 290.774 146.777 290.835L138.899 295.148C138.684 295.267 138.702 295.463 138.899 295.591L144.803 298.815C144.929 298.876 145.069 298.908 145.211 298.908C145.353 298.908 145.493 298.876 145.619 298.815L153.461 294.561C153.677 294.442 153.668 294.246 153.461 294.119L147.593 290.835ZM135.166 255.954C135.293 256.015 135.433 256.047 135.575 256.047C135.717 256.047 135.857 256.015 135.983 255.954L141.079 253.164C141.295 253.045 141.286 252.849 141.079 252.721L135.184 249.488C135.058 249.427 134.918 249.395 134.776 249.395C134.634 249.395 134.494 249.427 134.368 249.488L129.263 252.279C129.047 252.398 129.065 252.602 129.263 252.73L135.166 255.954ZM127.71 260.038C127.837 260.099 127.977 260.131 128.119 260.131C128.26 260.131 128.4 260.099 128.527 260.038L133.623 257.247C133.839 257.128 133.83 256.924 133.623 256.796L127.728 253.572C127.602 253.511 127.462 253.479 127.32 253.479C127.178 253.479 127.038 253.511 126.912 253.572L121.779 256.43C121.564 256.55 121.582 256.754 121.779 256.873L127.71 260.038ZM285.708 215.254C285.581 215.193 285.441 215.161 285.299 215.161C285.157 215.161 285.017 215.193 284.891 215.254L272.329 222.128C272.114 222.247 272.123 222.451 272.329 222.579L278.233 225.803C278.359 225.863 278.497 225.894 278.637 225.894C278.777 225.894 278.916 225.863 279.041 225.803L291.602 218.929C291.818 218.81 291.8 218.615 291.602 218.487L285.708 215.254ZM269.225 224.272C269.1 224.212 268.961 224.181 268.821 224.181C268.681 224.181 268.543 224.212 268.417 224.272L263.312 227.063C263.097 227.182 263.106 227.377 263.312 227.505L269.216 230.738C269.341 230.798 269.48 230.829 269.62 230.829C269.76 230.829 269.898 230.798 270.024 230.738L275.129 227.939C275.344 227.82 275.335 227.624 275.129 227.496L269.225 224.272ZM168.239 277.257L173.345 274.458C173.56 274.339 173.542 274.143 173.345 274.016L167.45 270.783C167.323 270.721 167.183 270.69 167.041 270.69C166.899 270.69 166.76 270.721 166.633 270.783L161.537 273.573C161.321 273.692 161.33 273.888 161.537 274.016L167.441 277.248C167.564 277.308 167.7 277.34 167.839 277.342C167.977 277.343 168.114 277.314 168.239 277.257ZM254.322 232.439C254.195 232.378 254.055 232.346 253.913 232.346C253.771 232.346 253.632 232.378 253.505 232.439L248.364 235.213C248.149 235.332 248.166 235.536 248.364 235.664L254.259 238.888C254.385 238.949 254.525 238.981 254.667 238.981C254.809 238.981 254.949 238.949 255.075 238.888L260.172 236.098C260.387 235.978 260.378 235.774 260.172 235.647L254.322 232.439ZM293.164 211.17C293.037 211.109 292.897 211.077 292.755 211.077C292.613 211.077 292.474 211.109 292.347 211.17L287.251 213.969C287.035 214.089 287.044 214.284 287.251 214.412L293.146 217.645C293.272 217.706 293.412 217.738 293.554 217.738C293.696 217.738 293.836 217.706 293.962 217.645L299.068 214.854C299.283 214.735 299.265 214.539 299.068 214.412L293.164 211.17ZM306.515 210.32L292.159 202.476C292.032 202.415 291.892 202.383 291.751 202.383C291.609 202.383 291.469 202.415 291.342 202.476L286.246 205.266C286.022 205.385 286.04 205.581 286.246 205.709L300.602 213.553C300.728 213.614 300.868 213.646 301.01 213.646C301.152 213.646 301.292 213.614 301.418 213.553L306.515 210.754C306.766 210.652 306.748 210.49 306.515 210.32ZM226.462 247.693C226.336 247.632 226.196 247.6 226.054 247.6C225.912 247.6 225.772 247.632 225.645 247.693L219.365 251.096C219.149 251.215 219.158 251.411 219.365 251.539L225.269 254.772C225.394 254.831 225.532 254.863 225.672 254.863C225.813 254.863 225.951 254.831 226.076 254.772L232.357 251.369C232.572 251.258 232.563 251.054 232.357 250.926L226.462 247.693ZM245.304 237.382C245.178 237.321 245.038 237.289 244.896 237.289C244.754 237.289 244.614 237.321 244.488 237.382L236.637 241.678C236.421 241.798 236.439 241.993 236.637 242.121L242.532 245.354C242.658 245.415 242.798 245.447 242.94 245.447C243.082 245.447 243.222 245.415 243.348 245.354L251.19 241.1C251.406 240.981 251.397 240.777 251.19 240.649L245.304 237.382ZM209.199 257.137C209.074 257.077 208.935 257.046 208.795 257.046C208.655 257.046 208.517 257.077 208.391 257.137L166.4 280.107C166.184 280.226 166.202 280.43 166.4 280.558L172.295 283.782C172.421 283.843 172.561 283.875 172.703 283.875C172.845 283.875 172.985 283.843 173.111 283.782L215.094 260.812C215.309 260.693 215.3 260.497 215.094 260.369L209.199 257.137ZM164.866 281.417C164.739 281.356 164.599 281.324 164.457 281.324C164.315 281.324 164.175 281.356 164.049 281.417L157.768 284.82C157.553 284.939 157.571 285.135 157.768 285.263L163.663 288.495C163.79 288.557 163.93 288.589 164.071 288.589C164.213 288.589 164.353 288.557 164.48 288.495L170.76 285.092C170.976 284.973 170.967 284.778 170.76 284.65L164.866 281.417ZM217.803 252.415C217.678 252.355 217.54 252.324 217.4 252.324C217.259 252.324 217.121 252.355 216.996 252.415L210.715 255.818C210.5 255.937 210.509 256.141 210.715 256.26L216.619 259.493C216.744 259.553 216.883 259.584 217.023 259.584C217.163 259.584 217.301 259.553 217.427 259.493L223.707 256.09C223.923 255.971 223.914 255.775 223.707 255.648L217.803 252.415ZM156.207 286.139C156.081 286.078 155.941 286.046 155.799 286.046C155.657 286.046 155.517 286.078 155.391 286.139L149.11 289.542C148.894 289.661 148.912 289.865 149.11 289.984L155.014 293.217C155.14 293.278 155.28 293.31 155.422 293.31C155.564 293.31 155.704 293.278 155.83 293.217L162.111 289.814C162.326 289.695 162.317 289.499 162.111 289.372L156.207 286.139ZM235.076 242.963C234.949 242.902 234.809 242.87 234.667 242.87C234.525 242.87 234.385 242.902 234.259 242.963L227.978 246.366C227.763 246.485 227.781 246.689 227.978 246.817L233.882 250.041C234.009 250.103 234.149 250.135 234.29 250.135C234.432 250.135 234.572 250.103 234.699 250.041L240.979 246.638C241.195 246.519 241.186 246.324 240.979 246.196L235.076 242.963ZM261.769 228.356C261.644 228.296 261.505 228.265 261.365 228.265C261.225 228.265 261.087 228.296 260.961 228.356L255.856 231.155C255.641 231.265 255.659 231.469 255.856 231.597L261.76 234.821C261.885 234.881 262.023 234.912 262.164 234.912C262.304 234.912 262.442 234.881 262.567 234.821L267.673 232.031C267.888 231.912 267.879 231.716 267.673 231.589L261.769 228.356ZM278.108 217.109L283.204 214.318C283.428 214.199 283.411 213.995 283.204 213.867L277.309 210.643C277.183 210.582 277.043 210.55 276.901 210.55C276.759 210.55 276.619 210.582 276.493 210.643L271.396 213.433C271.181 213.553 271.19 213.757 271.396 213.884L277.291 217.109C277.418 217.17 277.558 217.202 277.7 217.202C277.841 217.202 277.981 217.17 278.108 217.109ZM244.775 216.905L249.88 214.114C250.096 213.995 250.078 213.791 249.88 213.663L243.985 210.439C243.859 210.378 243.719 210.346 243.577 210.346C243.435 210.346 243.295 210.378 243.169 210.439L238.072 213.229C237.857 213.348 237.866 213.553 238.072 213.68L243.967 216.905C244.093 216.964 244.231 216.996 244.371 216.996C244.511 216.996 244.65 216.964 244.775 216.905ZM227.88 244.605L242.792 236.438C243.007 236.319 242.998 236.123 242.792 235.995L236.897 232.763C236.771 232.701 236.631 232.669 236.489 232.669C236.347 232.669 236.207 232.701 236.08 232.763L221.168 240.921C220.953 241.04 220.962 241.236 221.168 241.364L227.072 244.597C227.197 244.658 227.335 244.69 227.475 244.692C227.615 244.693 227.754 244.664 227.88 244.605ZM269.835 221.175C269.962 221.237 270.101 221.268 270.243 221.268C270.385 221.268 270.525 221.237 270.652 221.175L275.757 218.376C275.972 218.266 275.954 218.062 275.757 217.934L269.826 214.744C269.7 214.682 269.56 214.65 269.418 214.65C269.276 214.65 269.136 214.682 269.01 214.744L263.913 217.534C263.698 217.653 263.707 217.849 263.913 217.976L269.835 221.175ZM262.226 216.581L267.332 213.782C267.547 213.663 267.529 213.468 267.332 213.34L261.437 210.107C261.31 210.046 261.171 210.014 261.029 210.014C260.887 210.014 260.747 210.046 260.62 210.107L255.524 212.906C255.309 213.025 255.318 213.221 255.524 213.348L261.419 216.581C261.544 216.641 261.682 216.672 261.823 216.672C261.963 216.672 262.101 216.641 262.226 216.581ZM220.423 248.689L225.529 245.89C225.744 245.771 225.735 245.575 225.529 245.447L219.625 242.214C219.5 242.155 219.361 242.123 219.221 242.123C219.081 242.123 218.943 242.155 218.817 242.214L213.712 245.013C213.497 245.132 213.506 245.328 213.712 245.456L219.616 248.689C219.741 248.748 219.879 248.78 220.02 248.78C220.16 248.78 220.298 248.748 220.423 248.689ZM253.362 230.193C253.487 230.253 253.625 230.284 253.765 230.284C253.906 230.284 254.044 230.253 254.169 230.193L259.274 227.403C259.49 227.284 259.481 227.08 259.274 226.96L253.371 223.728C253.245 223.668 253.107 223.637 252.967 223.637C252.827 223.637 252.688 223.668 252.563 223.728L247.467 226.518C247.251 226.637 247.26 226.841 247.467 226.969L253.362 230.193ZM183.152 269.09L188.248 266.299C188.463 266.18 188.445 265.976 188.248 265.848L182.353 262.624C182.227 262.563 182.087 262.531 181.945 262.531C181.803 262.531 181.663 262.563 181.536 262.624L176.44 265.414C176.225 265.534 176.234 265.738 176.44 265.865L182.335 269.09C182.461 269.151 182.601 269.183 182.743 269.183C182.885 269.183 183.025 269.151 183.152 269.09ZM190.608 265.006L195.704 262.216C195.928 262.096 195.91 261.901 195.704 261.773L189.809 258.54C189.683 258.479 189.543 258.447 189.401 258.447C189.259 258.447 189.119 258.479 188.993 258.54L183.896 261.339C183.672 261.458 183.69 261.654 183.896 261.782L189.791 265.006C189.918 265.067 190.058 265.099 190.199 265.099C190.341 265.099 190.481 265.067 190.608 265.006ZM175.686 273.173L180.792 270.383C181.007 270.264 180.989 270.06 180.792 269.932L174.897 266.708C174.77 266.646 174.631 266.614 174.489 266.614C174.347 266.614 174.207 266.646 174.08 266.708L168.984 269.498C168.769 269.617 168.778 269.813 168.984 269.94L174.879 273.173C175.004 273.233 175.142 273.264 175.283 273.264C175.423 273.264 175.561 273.233 175.686 273.173ZM205.511 256.847L210.607 254.057C210.823 253.938 210.814 253.734 210.607 253.606L204.713 250.382C204.586 250.32 204.446 250.288 204.304 250.288C204.162 250.288 204.022 250.32 203.896 250.382L198.791 253.172C198.575 253.291 198.593 253.495 198.791 253.615L204.686 256.847C204.814 256.911 204.957 256.945 205.103 256.945C205.248 256.945 205.391 256.911 205.52 256.847H205.511ZM198.055 260.931L203.151 258.132C203.367 258.013 203.358 257.817 203.151 257.69L197.22 254.465C197.094 254.404 196.954 254.372 196.812 254.372C196.67 254.372 196.53 254.404 196.404 254.465L191.317 257.281C191.101 257.4 191.119 257.596 191.317 257.724L197.211 260.957C197.345 261.02 197.492 261.05 197.641 261.046C197.79 261.041 197.935 261.002 198.064 260.931H198.055ZM212.967 252.764L218.064 249.973C218.279 249.854 218.27 249.659 218.064 249.531L212.16 246.298C212.034 246.238 211.896 246.207 211.756 246.207C211.616 246.207 211.477 246.238 211.352 246.298L206.193 249.071C205.978 249.191 205.996 249.395 206.193 249.522L212.088 252.747C212.222 252.822 212.374 252.864 212.53 252.867C212.685 252.87 212.839 252.834 212.976 252.764H212.967ZM247.063 192.36C247.189 192.422 247.329 192.454 247.471 192.454C247.613 192.454 247.753 192.422 247.879 192.36L252.976 189.57C253.191 189.451 253.182 189.255 252.976 189.128L251.406 188.277C251.279 188.216 251.139 188.184 250.997 188.184C250.855 188.184 250.715 188.216 250.589 188.277L245.493 191.067C245.277 191.186 245.286 191.382 245.493 191.51L247.063 192.36ZM210.383 214.803C210.508 214.863 210.647 214.894 210.787 214.894C210.927 214.894 211.065 214.863 211.191 214.803L216.296 212.013C216.511 211.894 216.502 211.698 216.296 211.57L210.392 208.337C210.267 208.278 210.129 208.246 209.988 208.246C209.848 208.246 209.71 208.278 209.585 208.337L204.479 211.128C204.264 211.247 204.273 211.451 204.479 211.579L210.383 214.803ZM225.296 206.644C225.421 206.704 225.559 206.735 225.699 206.735C225.839 206.735 225.978 206.704 226.103 206.644L231.208 203.854C231.424 203.735 231.406 203.531 231.208 203.403L225.313 200.179C225.187 200.118 225.047 200.086 224.905 200.086C224.763 200.086 224.623 200.118 224.497 200.179L219.401 202.969C219.185 203.088 219.194 203.284 219.401 203.412L225.296 206.644ZM201.294 219.848C201.42 219.909 201.56 219.941 201.702 219.941C201.844 219.941 201.984 219.909 202.11 219.848L207.207 217.058C207.422 216.939 207.413 216.734 207.207 216.607L201.312 213.382C201.186 213.321 201.046 213.289 200.904 213.289C200.762 213.289 200.622 213.321 200.495 213.382L195.399 216.173C195.175 216.292 195.193 216.496 195.399 216.624L201.294 219.848ZM217.857 210.762C217.983 210.822 218.121 210.853 218.261 210.853C218.401 210.853 218.54 210.822 218.665 210.762L223.77 207.963C223.986 207.844 223.977 207.648 223.77 207.521L217.866 204.288C217.741 204.228 217.603 204.197 217.462 204.197C217.322 204.197 217.184 204.228 217.059 204.288L211.926 207.087C211.711 207.206 211.72 207.402 211.926 207.529L217.857 210.762ZM186.382 227.99C186.508 228.051 186.648 228.083 186.79 228.083C186.932 228.083 187.072 228.051 187.198 227.99L192.304 225.199C192.519 225.08 192.501 224.885 192.304 224.757L186.409 221.524C186.282 221.463 186.142 221.431 186 221.431C185.858 221.431 185.718 221.463 185.592 221.524L180.496 224.323C180.28 224.442 180.289 224.638 180.496 224.765L186.382 227.99ZM193.838 223.906C193.964 223.967 194.104 223.999 194.246 223.999C194.388 223.999 194.528 223.967 194.654 223.906L199.751 221.107C199.975 220.997 199.957 220.792 199.751 220.665L193.856 217.441C193.729 217.379 193.589 217.347 193.448 217.347C193.306 217.347 193.166 217.379 193.039 217.441L187.943 220.231C187.719 220.35 187.737 220.546 187.943 220.673L193.838 223.906ZM232.213 200.553C232.34 200.614 232.48 200.646 232.622 200.646C232.763 200.646 232.903 200.614 233.03 200.553L238.126 197.763C238.342 197.644 238.333 197.439 238.126 197.312L236.556 196.461C236.43 196.4 236.29 196.368 236.148 196.368C236.006 196.368 235.866 196.4 235.74 196.461L230.643 199.26C230.428 199.379 230.437 199.575 230.643 199.702L232.213 200.553ZM254.582 188.311C254.708 188.372 254.848 188.404 254.99 188.404C255.132 188.404 255.272 188.372 255.398 188.311L260.495 185.512C260.71 185.393 260.701 185.197 260.495 185.069L258.925 184.219C258.798 184.157 258.658 184.125 258.516 184.125C258.374 184.125 258.234 184.157 258.108 184.219L253.012 187.009C252.787 187.128 252.805 187.332 253.012 187.46L254.582 188.311ZM266.973 195.117C267.098 195.177 267.236 195.208 267.377 195.208C267.517 195.208 267.655 195.177 267.78 195.117L272.886 192.326C273.101 192.207 273.092 192.003 272.886 191.875L266.982 188.651C266.857 188.591 266.718 188.56 266.578 188.56C266.438 188.56 266.3 188.591 266.174 188.651L261.069 191.442C260.854 191.561 260.863 191.765 261.069 191.892L266.973 195.117ZM285.564 213.042L290.66 210.252C290.885 210.133 290.867 209.937 290.66 209.809L284.765 206.576C284.639 206.515 284.499 206.483 284.357 206.483C284.215 206.483 284.075 206.515 283.949 206.576L278.87 209.333C278.646 209.452 278.664 209.656 278.87 209.784L284.765 213.008C284.887 213.072 285.022 213.108 285.16 213.114C285.299 213.12 285.437 213.095 285.564 213.042ZM239.625 196.487C239.751 196.548 239.891 196.58 240.033 196.58C240.175 196.58 240.315 196.548 240.441 196.487L245.538 193.696C245.753 193.577 245.744 193.373 245.538 193.245L243.967 192.394C243.841 192.333 243.701 192.301 243.559 192.301C243.417 192.301 243.277 192.333 243.151 192.394L238.028 195.176C237.812 195.295 237.821 195.491 238.028 195.619L239.625 196.487ZM178.925 232.082C179.052 232.143 179.192 232.175 179.334 232.175C179.476 232.175 179.616 232.143 179.742 232.082L184.847 229.292C185.063 229.172 185.045 228.977 184.847 228.849L178.952 225.616C178.826 225.555 178.686 225.523 178.544 225.523C178.402 225.523 178.262 225.555 178.136 225.616L172.995 228.356C172.779 228.475 172.788 228.679 172.995 228.807L178.925 232.082Z" fill="#455A64"/>
<path d="M211.989 274.5L262.325 246.945C263.177 246.534 264.119 246.319 265.075 246.319C266.031 246.319 266.973 246.534 267.825 246.945L296.689 262.743C298.206 263.594 298.206 264.921 296.689 265.746L246.345 293.311C245.493 293.717 244.553 293.929 243.599 293.929C242.645 293.929 241.705 293.717 240.853 293.311L211.989 277.504C210.472 276.678 210.472 275.326 211.989 274.5Z" fill="#263238"/>
<path d="M184.371 124.931L192.266 111.898L162.756 95.6481C157.812 92.9683 150.993 93.3681 143.465 97.4943C128.265 105.73 116 125.841 116 142.388C116 150.675 119.069 156.494 124.075 159.191L153.828 175.568L161.903 162.177C173.469 153.695 182.585 138.645 184.371 124.931Z" fill="#455A64"/>
<path d="M173.074 113.812C157.964 122.081 145.717 142.193 145.717 158.74C145.717 175.287 157.964 181.982 173.074 173.713C188.184 165.444 200.431 145.323 200.431 128.785C200.431 112.246 188.184 105.534 173.074 113.812Z" fill="#263238"/>
<path d="M200.87 133.277L208.317 120.924L193.585 112.859C188.901 110.307 182.432 110.689 175.299 114.603C160.943 122.438 149.377 141.495 149.377 157.14C149.377 164.993 152.293 170.506 156.995 173.067L171.961 181.259L179.614 168.566C190.534 160.586 199.174 146.293 200.87 133.277Z" fill="#F5F5F5"/>
<path d="M150.15 149.586C149.615 152.084 149.338 154.625 149.324 157.175C149.324 165.027 152.24 170.54 156.942 173.101L171.908 181.293L179.562 168.6C180.306 168.064 181.033 167.486 181.76 166.899L150.15 149.586Z" fill="#EBEBEB"/>
<path d="M190.158 122.761C175.802 130.605 164.236 149.662 164.236 165.342C164.236 181.021 175.847 187.368 190.158 179.532C204.469 171.697 216.089 152.631 216.089 136.995C216.089 121.358 204.478 114.926 190.158 122.761Z" fill="#E0E0E0"/>
<path d="M317.524 220.556C314.374 222.759 307.367 221.006 306.927 220.904C307.268 221.041 312.723 223.457 314.105 228.629C314.607 230.577 313.001 232.883 311.539 233.827C306.703 236.967 299.561 233.725 295.693 231.734C297.248 233.168 298.446 234.912 299.202 236.839C299.901 239.034 299.489 241.45 297.658 242.582C293.719 245.015 288.309 245.21 270.786 235.248C271.452 236.132 271.869 237.163 271.997 238.243C272.006 238.33 272.006 238.419 271.997 238.506C272.001 239.029 271.875 239.545 271.629 240.012C271.488 240.275 271.31 240.518 271.1 240.735C270.43 241.393 269.597 241.881 268.677 242.156C262.737 244.206 246.847 234.499 236.071 228.11C225.295 221.721 210.051 211.401 202.523 204.791C191.486 195.118 193.191 190.541 182.532 182.484C179.332 180.107 175.966 177.938 172.456 175.993C172.142 175.857 168.266 173.577 164.982 171.62C164.481 169.567 164.237 167.466 164.255 165.359C164.252 164.153 164.324 162.949 164.47 161.752C166.031 146.872 176.942 130.027 190.176 122.787C192.349 121.571 194.685 120.638 197.121 120.014C200.594 122.098 205.448 125.008 205.771 125.212C208.741 127.2 211.922 128.888 215.264 130.248C216.879 130.886 218.449 131.414 220.073 131.899C224.891 133.345 240.862 136.842 249.96 140.032C259.059 143.222 267.439 146.838 270.938 148.956C274.437 151.075 283.948 162.202 290.426 166.848C296.905 171.493 297.605 175.185 291.988 176.206C286.371 177.227 278.206 176.963 271.351 172.122C264.496 167.281 262.316 165.597 259.965 165.75C257.614 165.903 262.782 170.2 265.887 172.939C267.926 174.85 269.815 176.9 271.539 179.073C273.083 180.944 274.778 182.699 276.609 184.322C280.252 187.546 286.416 192.702 292.23 196.096C301.256 201.371 311.727 206.901 315.559 210.27C319.39 213.639 320.781 218.284 317.524 220.556Z" fill="#EEBCBC"/>
<path d="M316.419 217.944C314.229 219.143 311.206 218.701 306.253 217.025C301.3 215.349 289.349 209.453 284.988 207.063C282.503 205.71 272.83 200.35 264.961 196.003C264.857 195.94 264.73 195.919 264.609 195.944C264.487 195.97 264.382 196.04 264.315 196.139C264.249 196.238 264.226 196.359 264.253 196.473C264.28 196.588 264.354 196.688 264.459 196.751C271.359 201.235 279.82 206.68 283.579 208.875C291.996 213.792 298.967 217.042 306.908 220.913C306.908 220.913 314.265 222.844 317.522 220.573C319.622 219.101 319.766 216.642 318.581 214.175C318.569 214.922 318.366 215.655 317.989 216.312C317.613 216.968 317.074 217.528 316.419 217.944Z" fill="#F6C4C4"/>
<path d="M310.47 232.075C306.45 233.164 299.703 229.88 297.011 228.569C294.319 227.259 275.648 217.756 272.525 215.978L254.58 205.769C254.476 205.706 254.361 205.663 254.239 205.642C254.118 205.622 253.994 205.624 253.873 205.649C253.753 205.674 253.639 205.721 253.538 205.787C253.436 205.854 253.35 205.939 253.284 206.037C253.217 206.136 253.171 206.245 253.15 206.36C253.128 206.475 253.13 206.593 253.156 206.707C253.183 206.822 253.232 206.93 253.303 207.026C253.373 207.122 253.462 207.204 253.566 207.267C262.781 213.222 273.889 219.067 279.246 221.883C284.942 224.804 290.417 228.099 295.629 231.743C299.497 233.734 306.639 236.983 311.475 233.836C312.946 232.891 314.543 230.586 314.041 228.638C314.068 228.629 313.996 231.113 310.47 232.075Z" fill="#F6C4C4"/>
<path d="M297.622 242.564C299.273 241.544 299.767 239.468 299.327 237.46C299.3 238.278 298.963 239.059 298.378 239.661C297.793 240.262 296.999 240.644 296.142 240.735C292.974 241.212 290.112 240.514 286.272 239.23C282.432 237.945 270.516 230.816 266.694 228.825C264.307 227.583 250.418 219.33 240.306 213.299C239.686 212.924 239.57 213.741 240.18 214.149C247.681 218.854 251.772 221.687 255.173 223.95C261.508 228.161 267.627 231.862 270.722 235.248C288.273 245.193 293.656 244.998 297.622 242.564Z" fill="#F6C4C4"/>
<path d="M271.977 238.489C271.982 239.012 271.856 239.528 271.61 239.995C271.468 240.258 271.29 240.501 271.08 240.718C270.41 241.376 269.577 241.864 268.658 242.139C262.718 244.189 246.827 234.482 236.051 228.093C225.275 221.704 210.031 211.384 202.503 204.774C191.467 195.101 193.172 190.524 182.512 182.467C179.313 180.09 175.946 177.921 172.436 175.976C172.122 175.84 168.246 173.56 164.962 171.603C164.461 169.55 164.217 167.449 164.235 165.342C164.232 164.136 164.304 162.932 164.451 161.734C174.733 167.775 187.259 174.496 191.305 178.239C191.449 178.375 191.584 178.494 191.709 178.622C196.94 183.565 198.887 188.644 202.476 196.607C206.209 204.774 221.121 213.435 236.033 223.397C250.946 233.359 261.076 238.957 265.867 240.267C266.611 240.485 267.385 240.6 268.164 240.608C268.987 240.684 269.812 240.488 270.5 240.054C271.188 239.62 271.697 238.974 271.942 238.226C271.977 238.294 271.977 238.396 271.977 238.489Z" fill="#F6C4C4"/>
<path d="M199.318 121.366L197.102 120.039C194.666 120.663 192.33 121.596 190.157 122.813C176.922 130.01 166.012 146.889 164.451 161.735C164.304 162.932 164.232 164.136 164.235 165.342C164.217 167.449 164.461 169.55 164.962 171.603C168.246 173.56 172.14 175.857 172.436 175.976C173.701 176.699 174.868 177.388 175.962 178.052C176.16 175.083 176.33 171.961 176.447 168.694C177.766 131.865 199.318 121.366 199.318 121.366Z" fill="#F6C4C4"/>
<path opacity="0.5" d="M265.887 172.93C262.773 170.182 257.623 165.903 259.974 165.741C254.707 165.988 248.866 171.96 234.304 173.075C219.741 174.189 206.229 168.03 206.229 168.03C206.229 168.03 219.284 175.176 221.141 186.406C222.253 193.085 220.1 199.78 227.368 200.018C234.896 200.265 241.805 196.7 250.535 184.603C257.614 174.793 267.071 174.717 272.598 180.306C272.329 179.958 271.916 179.524 271.54 179.064C269.815 176.892 267.926 174.842 265.887 172.93Z" fill="#F6C4C4"/>
<path d="M269.619 188.448C265.841 195.152 249.188 211.963 232.777 215.23C241.325 215.194 249.585 212.302 256.106 207.063C267.322 198.223 269.619 188.448 269.619 188.448Z" fill="#F6C4C4"/>
<path d="M313.786 81.5735L316.971 75.261L301.799 66.9576C300.151 66.0437 298.383 65.34 296.541 64.8648C295.904 64.7031 295.249 64.567 294.594 64.4564C291.334 63.95 288.003 64.0366 284.778 64.7116C283.579 64.9477 282.396 65.2488 281.234 65.6134C279.99 65.9973 278.768 66.4432 277.573 66.9491C275.962 67.6194 274.395 68.3808 272.88 69.2291C271.193 70.1635 269.558 71.1801 267.981 72.2748C266.785 73.1199 265.589 74.0132 264.392 74.9547C247.075 88.8134 233.455 113.536 230.001 137.306C229.761 138.923 229.573 140.533 229.435 142.139C229.229 144.436 229.13 146.716 229.139 148.945C229.139 150.791 229.22 152.577 229.373 154.296C229.498 155.785 229.678 157.231 229.902 158.626C230.126 160.021 230.404 161.349 230.718 162.642C231.56 166.208 232.925 169.645 234.774 172.851C235.142 173.489 235.537 174.101 235.94 174.688C237.59 177.125 239.68 179.268 242.114 181.018C242.843 181.528 243.604 181.997 244.393 182.422L258.802 190.3L261.718 184.523C262.499 184.361 263.28 184.174 264.069 183.945C267.278 183.005 270.358 181.712 273.248 180.091C275.108 179.052 276.905 177.916 278.632 176.688C280.954 175.036 283.166 173.249 285.253 171.336C299.708 158.15 311.085 137.519 315.249 116.982C315.87 113.969 316.329 110.928 316.621 107.87C316.855 105.318 316.98 102.851 316.971 100.384C316.981 96.8271 316.681 93.2759 316.074 89.7663C315.576 86.975 314.81 84.2327 313.786 81.5735Z" fill="#B9B8E7"/>
<path opacity="0.25" d="M233.176 123.243L262.695 139.408L266.428 129.199L236.872 113.034C235.473 116.369 234.226 119.789 233.176 123.243Z" fill="white"/>
<path opacity="0.25" d="M301.798 66.9576C300.151 66.0437 298.383 65.34 296.541 64.8648C295.904 64.7031 295.249 64.567 294.594 64.4564C291.334 63.95 288.003 64.0366 284.778 64.7116C284.347 64.7967 283.88 64.8988 283.477 65.0094L313.813 81.6161C313.81 81.5935 313.81 81.5706 313.813 81.548L316.998 75.2354L301.798 66.9576Z" fill="white"/>
<path opacity="0.25" d="M299.986 106.815L303.719 102.562L260.058 78.7405C258.713 80.0109 257.394 81.3409 256.102 82.7305L299.986 106.815Z" fill="white"/>
<path opacity="0.25" d="M247.094 94.1137L285.074 114.906L289.121 104.876L253.671 85.4615C251.314 88.2302 249.119 91.1186 247.094 94.1137Z" fill="white"/>
<path opacity="0.4" d="M301.799 66.9576C300.151 66.0437 298.384 65.34 296.541 64.8648C295.904 64.7031 295.249 64.567 294.594 64.4564C291.335 63.95 288.004 64.0366 284.778 64.7116C283.58 64.9477 282.396 65.2488 281.234 65.6134C279.99 65.9973 278.768 66.4432 277.573 66.9491C275.963 67.6194 274.396 68.3808 272.881 69.2291C271.193 70.1635 269.558 71.1801 267.982 72.2748C266.785 73.1199 265.589 74.0132 264.393 74.9547C248.242 87.8606 235.349 110.176 230.854 132.363L291.113 165.381C302.777 152.373 311.669 134.652 315.249 116.99C315.871 113.977 316.329 110.936 316.622 107.879C316.855 105.327 316.981 102.859 316.972 100.392C316.982 96.8356 316.682 93.2844 316.075 89.7748C315.586 86.9815 314.829 84.2363 313.814 81.5735L316.999 75.261L301.799 66.9576Z" fill="white"/>
<path opacity="0.1" d="M258.802 190.3L261.718 184.523C262.499 184.361 263.28 184.174 264.069 183.945C267.278 183.005 270.358 181.712 273.248 180.091C275.108 179.052 276.905 177.916 278.632 176.688C280.954 175.036 283.166 173.249 285.253 171.336C287.312 169.448 289.268 167.46 291.112 165.381L230.853 132.389C230.518 134.022 230.219 135.656 229.956 137.289C229.692 138.923 229.504 140.533 229.39 142.122C229.184 144.419 229.085 146.699 229.094 148.928C229.094 150.774 229.175 152.56 229.328 154.279C229.453 155.768 229.633 157.214 229.857 158.609C230.081 160.004 230.359 161.332 230.673 162.625C231.515 166.191 232.88 169.627 234.729 172.834C235.097 173.472 235.492 174.084 235.895 174.671C237.545 177.108 239.635 179.251 242.069 181.001C242.798 181.511 243.559 181.98 244.348 182.405L258.802 190.3Z" fill="black"/>
<path opacity="0.1" d="M234.774 172.834C235.142 173.472 235.537 174.084 235.941 174.671C237.591 177.108 239.68 179.251 242.114 181.001C242.844 181.511 243.605 181.98 244.393 182.405L258.803 190.283L261.719 184.506H261.835L262.051 182.141L231.535 165.381C232.326 167.969 233.412 170.468 234.774 172.834Z" fill="black"/>
<path d="M330.96 97.9335C330.344 94.3036 329.246 90.762 327.694 87.3927C325.84 83.1873 322.896 79.4942 319.134 76.6562C316.847 74.9848 314.234 73.7588 311.445 73.049C310.808 72.8874 310.153 72.7598 309.498 72.6492C306.239 72.1356 302.907 72.2193 299.682 72.8959C298.483 73.136 297.3 73.4399 296.138 73.8062C294.896 74.1858 293.677 74.6288 292.486 75.1334C290.875 75.8103 289.306 76.5715 287.784 77.4134C286.096 78.3497 284.461 79.3692 282.885 80.4676C281.683 81.3183 280.481 82.1691 279.296 83.139C261.979 96.9977 248.359 121.695 244.905 145.448C244.659 147.076 244.471 148.687 244.339 150.28C244.136 152.549 244.037 154.818 244.043 157.086C244.043 158.924 244.133 160.711 244.277 162.429C244.402 163.926 244.582 165.364 244.806 166.759C245.03 168.155 245.308 169.49 245.631 170.783C246.472 174.349 247.834 177.785 249.678 180.992C250.055 181.622 250.441 182.235 250.844 182.822C252.492 185.263 254.586 187.406 257.026 189.151C260.556 191.671 264.806 193.121 269.22 193.311C272.521 193.453 275.822 193.044 278.973 192.103C282.183 191.168 285.264 189.874 288.152 188.249C290.013 187.212 291.81 186.076 293.536 184.846C295.86 183.197 298.072 181.41 300.157 179.495C314.612 166.308 325.989 145.678 330.162 125.149C330.76 122.092 331.214 119.052 331.525 116.029C331.768 113.477 331.884 111.01 331.875 108.542C331.883 104.988 331.577 101.439 330.96 97.9335Z" fill="#B9B8E7"/>
<path opacity="0.05" d="M245.774 140.522C245.443 142.164 245.146 143.806 244.877 145.448C244.608 147.09 244.447 148.681 244.312 150.28C244.109 152.549 244.01 154.818 244.016 157.086C244.016 158.924 244.106 160.71 244.249 162.429C244.375 163.926 244.554 165.364 244.779 166.759C245.003 168.155 245.281 169.49 245.604 170.783C246.445 174.349 247.807 177.785 249.651 180.992C250.027 181.622 250.413 182.234 250.817 182.821C252.465 185.263 254.558 187.406 256.999 189.151C260.537 191.675 264.797 193.126 269.22 193.311C272.52 193.453 275.821 193.044 278.973 192.103C282.183 191.168 285.264 189.874 288.152 188.249C289.776 187.347 291.364 186.344 292.943 185.255L245.774 140.522Z" fill="black"/>
<path opacity="0.05" d="M246.457 173.684C247.253 176.226 248.336 178.679 249.687 181.001C250.064 181.63 250.45 182.243 250.854 182.83C252.502 185.271 254.595 187.415 257.036 189.16C259.931 191.222 263.324 192.567 266.905 193.073L246.457 173.684Z" fill="black"/>
<path opacity="0.25" d="M251.778 121.193C250.369 124.545 249.14 127.999 248.09 131.402L299.467 180.116L300.166 179.495C302.382 177.452 304.479 175.297 306.447 173.038L251.778 121.193Z" fill="white"/>
<path opacity="0.25" d="M268.573 93.6287C266.232 96.3954 264.051 99.2809 262.041 102.272L318.568 155.87C320.362 152.62 322.076 149.217 323.584 145.814L268.573 93.6287Z" fill="white"/>
<path opacity="0.25" d="M274.99 86.8907C273.635 88.1669 272.298 89.5111 271.006 90.9063L325.074 142.173C325.828 140.258 326.537 138.327 327.183 136.37L274.99 86.8907Z" fill="white"/>
<path opacity="0.25" d="M331.758 104.85C331.704 103.855 331.614 102.885 331.516 101.932C331.516 101.617 331.453 101.294 331.417 100.988C331.381 100.681 331.336 100.341 331.291 100.018C331.193 99.3118 331.085 98.6141 330.959 97.9335C330.343 94.3036 329.245 90.762 327.693 87.3927C325.839 83.1873 322.895 79.4942 319.134 76.6562C316.846 74.9848 314.233 73.7588 311.444 73.049C310.807 72.8874 310.161 72.7598 309.497 72.6492C306.239 72.1356 302.906 72.2193 299.681 72.8959C299.25 72.981 298.784 73.0916 298.371 73.1937L331.758 104.85Z" fill="white"/>
<path d="M320.694 114.923C320.694 136.838 307.235 162.148 290.187 172.91C289.47 173.361 288.734 173.804 287.989 174.203C269.919 184.098 255.275 173.599 255.275 150.748C255.275 127.897 269.919 101.353 287.989 91.4592C288.734 91.0594 289.47 90.6936 290.187 90.3533C307.217 82.4498 320.694 93.0076 320.694 114.923Z" fill="#B9B8E7"/>
<path opacity="0.4" d="M320.694 114.923C320.694 136.838 307.235 162.148 290.187 172.91C289.47 173.361 288.734 173.804 287.989 174.203C269.919 184.098 255.275 173.599 255.275 150.748C255.275 127.897 269.919 101.353 287.989 91.4592C288.734 91.0594 289.47 90.6936 290.187 90.3533C307.217 82.4498 320.694 93.0076 320.694 114.923Z" fill="black"/>
<path d="M319.242 115.723C319.242 116.42 319.242 117.135 319.188 117.85C318.362 138.268 305.81 161.187 290.063 171.124L289.641 171.387C289.085 171.728 288.529 172.059 287.963 172.366C284.956 174.094 281.621 175.25 278.147 175.769C270.808 176.722 264.689 173.667 260.866 167.431C258.641 163.765 257.215 159 256.82 153.292C256.739 152.22 256.703 151.114 256.703 149.974C256.703 148.834 256.703 147.873 256.802 146.809C256.933 144.551 257.197 142.302 257.591 140.071C260.355 124.29 269.256 108.185 280.525 98.5204C282.097 97.1698 283.764 95.9219 285.514 94.7856C286.321 94.2667 287.138 93.7732 287.963 93.3223C288.789 92.8714 289.381 92.5822 290.063 92.2589L290.655 92.0037C295.339 89.9363 299.717 89.3408 303.585 90.0469C310.161 91.2465 315.249 96.2234 317.662 104.169C318.756 107.932 319.287 111.821 319.242 115.723Z" fill="#B9B8E7"/>
<path opacity="0.7" d="M319.242 115.723C319.242 116.42 319.242 117.135 319.188 117.85C318.362 138.268 305.81 161.187 290.063 171.124L289.641 171.387C289.085 171.728 288.529 172.059 287.963 172.366C284.956 174.094 281.621 175.25 278.147 175.769C270.808 176.722 264.689 173.667 260.866 167.431C258.641 163.765 257.215 159 256.82 153.292C256.739 152.22 256.703 151.114 256.703 149.974C256.703 148.834 256.703 147.873 256.802 146.809C256.933 144.551 257.197 142.302 257.591 140.071C260.355 124.29 269.256 108.185 280.525 98.5204C282.097 97.1698 283.764 95.9219 285.514 94.7856C286.321 94.2667 287.138 93.7732 287.963 93.3223C288.789 92.8714 289.381 92.5822 290.063 92.2589L290.655 92.0037C295.339 89.9363 299.717 89.3408 303.585 90.0469C310.161 91.2465 315.249 96.2234 317.662 104.169C318.756 107.932 319.287 111.821 319.242 115.723Z" fill="black"/>
<path d="M314 114.991C314 114.276 314 113.562 314 112.856C314.051 108.951 313.522 105.059 312.43 101.294C311.013 96.6573 308.689 93.0416 305.701 90.583C304.995 90.351 304.272 90.1662 303.538 90.03C299.671 89.3238 295.293 89.9194 290.609 91.9867L290.017 92.2419C289.335 92.5652 288.626 92.9225 287.917 93.3054C287.208 93.6882 286.275 94.2497 285.468 94.7687C283.718 95.905 282.051 97.1528 280.479 98.5035C269.219 108.168 260.354 124.273 257.554 140.054C257.16 142.285 256.896 144.534 256.765 146.792C256.693 147.856 256.666 148.902 256.666 149.957C256.666 151.012 256.666 152.203 256.783 153.275C257.177 158.983 258.577 163.748 260.829 167.414C261.91 169.22 263.302 170.842 264.948 172.213C267.509 173.033 270.24 173.267 272.915 172.893C276.391 172.37 279.727 171.215 282.74 169.49C283.305 169.184 283.862 168.852 284.409 168.512L284.84 168.248C300.622 158.32 313.184 135.418 314 114.991Z" fill="#B9B8E7"/>
<path opacity="0.6" d="M314 114.991C314 114.276 314 113.562 314 112.856C314.051 108.951 313.522 105.059 312.43 101.294C311.013 96.6573 308.689 93.0416 305.701 90.583C304.995 90.351 304.272 90.1662 303.538 90.03C299.671 89.3238 295.293 89.9194 290.609 91.9867L290.017 92.2419C289.335 92.5652 288.626 92.9225 287.917 93.3054C287.208 93.6882 286.275 94.2497 285.468 94.7687C283.718 95.905 282.051 97.1528 280.479 98.5035C269.219 108.168 260.354 124.273 257.554 140.054C257.16 142.285 256.896 144.534 256.765 146.792C256.693 147.856 256.666 148.902 256.666 149.957C256.666 151.012 256.666 152.203 256.783 153.275C257.177 158.983 258.577 163.748 260.829 167.414C261.91 169.22 263.302 170.842 264.948 172.213C267.509 173.033 270.24 173.267 272.915 172.893C276.391 172.37 279.727 171.215 282.74 169.49C283.305 169.184 283.862 168.852 284.409 168.512L284.84 168.248C300.622 158.32 313.184 135.418 314 114.991Z" fill="black"/>
<path d="M309.498 72.6491C306.7 72.2363 303.849 72.2708 301.063 72.7512C299.683 73.0101 298.317 73.3366 296.972 73.7296C296.632 73.8123 296.296 73.9117 295.967 74.0273L294.989 74.3931L293.015 75.1333C290.436 76.2028 287.962 77.4868 285.622 78.9702C284.446 79.7274 283.298 80.459 282.212 81.3183C281.127 82.1775 279.951 82.9687 278.946 83.8705C277.941 84.7723 276.82 85.6486 275.833 86.5929C274.846 87.5373 273.841 88.4731 272.899 89.4685L270.117 92.4546L267.425 95.6194L264.931 98.8523C264.115 99.9412 263.361 101.073 262.571 102.179C261.064 104.433 259.592 106.713 258.273 109.07L257.26 110.831L256.362 112.626C255.734 113.826 255.088 115.008 254.568 116.242C253.392 118.666 252.343 121.15 251.311 123.635L249.902 127.412C249.454 128.68 249.068 129.964 248.646 131.24C248.224 132.517 247.91 133.793 247.533 135.103C247.157 136.413 246.869 137.655 246.573 138.999L246.134 140.965L245.784 142.938C245.559 144.265 245.299 145.55 245.174 146.894C245.048 148.238 244.842 149.566 244.716 150.884C244.59 152.203 244.51 153.547 244.465 154.874C244.465 155.546 244.465 156.21 244.42 156.882C244.375 157.554 244.465 158.209 244.483 158.873C244.546 160.209 244.555 161.578 244.662 162.871L245.129 166.853L245.909 170.8C246.725 174.329 248.037 177.737 249.812 180.933C250.288 181.699 250.755 182.507 251.275 183.255C251.795 184.004 252.37 184.736 252.971 185.433C254.178 186.836 255.554 188.101 257.071 189.202C255.525 188.13 254.116 186.891 252.872 185.51C252.253 184.821 251.661 184.106 251.078 183.357C250.494 182.609 250.064 181.826 249.543 181.052C247.67 177.871 246.275 174.458 245.398 170.911V170.851V170.894L244.563 166.946L244.034 162.939C243.9 161.561 243.882 160.251 243.801 158.907C243.801 158.226 243.729 157.58 243.711 156.882C243.693 156.184 243.711 155.529 243.711 154.857C243.711 153.513 243.81 152.169 243.908 150.825C244.007 149.481 244.205 148.153 244.348 146.809C244.492 145.465 244.725 144.129 244.949 142.811L245.29 140.82L245.721 138.846C246.008 137.527 246.295 136.209 246.672 134.907C247.049 133.606 247.336 132.287 247.776 131.011C248.215 129.735 248.574 128.458 249.023 127.148L250.432 123.337L251.993 119.585C252.495 118.326 253.132 117.118 253.698 115.884C254.263 114.651 254.918 113.451 255.546 112.252L256.497 110.44L257.556 108.636C258.902 106.262 260.391 103.965 261.925 101.702C262.715 100.588 263.487 99.4563 264.312 98.3588L266.842 95.109L269.534 91.9782C270.431 90.9573 271.427 89.9704 272.378 88.975C273.329 87.9797 274.388 87.0608 275.384 86.0995C276.38 85.1381 277.493 84.3044 278.542 83.4026C279.592 82.5008 280.759 81.7011 281.871 80.8929C282.988 80.0559 284.15 79.2749 285.353 78.5533C287.733 77.0731 290.261 75.8165 292.898 74.8015L294.881 74.0954L295.877 73.7466C296.216 73.6383 296.56 73.5475 296.909 73.4743C298.272 73.1016 299.656 72.8005 301.055 72.5725C303.854 72.1488 306.708 72.1747 309.498 72.6491Z" fill="#F5F5F5"/>
<mask id="mask0_300_2778" style="mask-type:luminance" maskUnits="userSpaceOnUse" x="256" y="89" width="64" height="87">
<path d="M319.242 115.723C319.242 116.42 319.242 117.135 319.188 117.85C318.362 138.268 305.81 161.187 290.063 171.124L289.641 171.387C289.085 171.728 288.529 172.059 287.963 172.366C284.956 174.094 281.621 175.25 278.147 175.769C270.808 176.722 264.689 173.667 260.866 167.431C258.641 163.765 257.215 159 256.82 153.292C256.739 152.22 256.703 151.114 256.703 149.974C256.703 148.834 256.703 147.873 256.802 146.809C256.933 144.551 257.197 142.302 257.591 140.071C260.355 124.29 269.256 108.185 280.525 98.5204C282.097 97.1698 283.764 95.9219 285.514 94.7856C286.321 94.2667 287.138 93.7732 287.963 93.3223C288.789 92.8714 289.381 92.5822 290.063 92.2589L290.655 92.0037C295.339 89.9363 299.717 89.3408 303.585 90.0469C310.161 91.2465 315.249 96.2234 317.662 104.169C318.756 107.932 319.287 111.821 319.242 115.723Z" fill="white"/>
</mask>
<g mask="url(#mask0_300_2778)">
<path d="M280.705 101.09L286.107 104.059L293.868 99.8051L288.466 96.8445L280.705 101.09Z" fill="#B9B8E7"/>
<path opacity="0.2" d="M280.705 101.09L286.107 104.059L293.868 99.8051L288.466 96.8445L280.705 101.09Z" fill="black"/>
<path d="M283.406 105.531L278.005 102.57L270.234 106.815L275.645 109.784L283.406 105.531Z" fill="#B9B8E7"/>
<path opacity="0.2" d="M283.406 105.531L278.005 102.57L270.234 106.815L275.645 109.784L283.406 105.531Z" fill="black"/>
<path d="M270.235 112.099L275.645 115.059L270.235 118.028L264.824 115.059L270.235 112.099Z" fill="#B9B8E7"/>
<path opacity="0.2" d="M270.235 112.099L275.645 115.059L270.235 118.028L264.824 115.059L270.235 112.099Z" fill="black"/>
<path d="M264.824 124.868L270.235 127.837V118.028L264.824 115.059V124.868Z" fill="#B9B8E7"/>
<path opacity="0.35" d="M264.824 124.868L270.235 127.837V118.028L264.824 115.059V124.868Z" fill="black"/>
<path d="M270.234 106.815V112.098L275.645 115.059V109.784L270.234 106.815Z" fill="#B9B8E7"/>
<path opacity="0.35" d="M270.234 106.815V112.098L275.645 115.059V109.784L270.234 106.815Z" fill="black"/>
<path d="M280.705 101.09V104.05L283.406 105.531V110.814L286.107 109.334V104.059L280.705 101.09Z" fill="#B9B8E7"/>
<path opacity="0.35" d="M280.705 101.09V104.05L283.406 105.531V110.814L286.107 109.334V104.059L280.705 101.09Z" fill="black"/>
<path d="M264.824 155.249L270.235 158.218L273.913 156.201L268.512 153.241L264.824 155.249Z" fill="#B9B8E7"/>
<path opacity="0.2" d="M264.824 155.249L270.235 158.218L273.913 156.201L268.512 153.241L264.824 155.249Z" fill="black"/>
<path d="M268.512 153.241L273.913 156.201V125.821L270.234 127.837L268.512 126.893V153.241Z" fill="#B9B8E7"/>
<path opacity="0.45" d="M268.512 153.241L273.913 156.201V125.821L270.234 127.837L268.512 126.893V153.241Z" fill="black"/>
<path d="M264.824 155.249L270.235 158.218V168.035L264.824 165.066V155.249Z" fill="#B9B8E7"/>
<path opacity="0.35" d="M264.824 155.249L270.235 158.218V168.035L264.824 165.066V155.249Z" fill="black"/>
<path d="M275.646 165.066V169.38L271.707 167.227L275.646 165.066Z" fill="#B9B8E7"/>
<path opacity="0.45" d="M275.646 165.066V169.38L271.707 167.227L275.646 165.066Z" fill="black"/>
<path d="M286.107 159.341V163.654L283.406 162.174V160.821L286.107 159.341Z" fill="#B9B8E7"/>
<path opacity="0.45" d="M286.107 159.341V163.654L283.406 162.174V160.821L286.107 159.341Z" fill="black"/>
<path d="M296.381 104.374C296.702 104.321 297.026 104.292 297.35 104.289C298.368 104.255 299.376 104.475 300.276 104.927L295.027 102.043C294.66 101.843 294.272 101.68 293.869 101.558V105.139C294.346 104.923 294.842 104.744 295.35 104.603C295.595 104.535 295.843 104.478 296.094 104.433L296.381 104.374Z" fill="#B9B8E7"/>
<path opacity="0.2" d="M296.381 104.374C296.702 104.321 297.026 104.292 297.35 104.289C298.368 104.255 299.376 104.475 300.276 104.927L295.027 102.043C294.66 101.843 294.272 101.68 293.869 101.558V105.139C294.346 104.923 294.842 104.744 295.35 104.603C295.595 104.535 295.843 104.478 296.094 104.433L296.381 104.374Z" fill="black"/>
<path d="M297.933 137.213V138.063C297.933 140.828 296.139 144.019 293.967 145.244L283.075 151.199L281.666 151.965V146.009L288.575 142.232C290.728 141.041 292.505 137.876 292.541 135.137L293.016 134.873L293.967 134.346C296.139 133.172 297.933 134.456 297.933 137.213Z" fill="#B9B8E7"/>
<path opacity="0.45" d="M297.933 137.213V138.063C297.933 140.828 296.139 144.019 293.967 145.244L283.075 151.199L281.666 151.965V146.009L288.575 142.232C290.728 141.041 292.505 137.876 292.541 135.137L293.016 134.873L293.967 134.346C296.139 133.172 297.933 134.456 297.933 137.213Z" fill="black"/>
<path d="M296.568 117.901V118.666C296.568 121.133 294.98 124.009 292.979 125.081L281.629 131.291V125.336L287.569 122.086C288.551 121.427 289.371 120.576 289.975 119.589C290.579 118.603 290.952 117.504 291.068 116.369L292.979 115.323C294.98 114.336 296.568 115.425 296.568 117.901Z" fill="#B9B8E7"/>
<path opacity="0.45" d="M296.568 117.901V118.666C296.568 121.133 294.98 124.009 292.979 125.081L281.629 131.291V125.336L287.569 122.086C288.551 121.427 289.371 120.576 289.975 119.589C290.579 118.603 290.952 117.504 291.068 116.369L292.979 115.323C294.98 114.336 296.568 115.425 296.568 117.901Z" fill="black"/>
<path d="M302.05 124.239C303.491 121.142 304.266 117.805 304.329 114.421V113.647C304.329 106.186 299.744 102.476 293.867 105.139V99.8051L286.106 104.059V109.333L283.414 110.814V105.531L275.653 109.784V115.059L270.27 118.028V127.837L273.948 125.821V156.201L270.27 158.218V168.027L275.653 165.066V169.38L283.414 165.126V160.813L286.106 159.332V163.68L293.867 159.426V155.087L293.984 155.027C300.444 151.488 305.711 141.96 305.711 133.759V132.908C305.711 128.935 304.374 125.762 302.05 124.239ZM296.568 117.901V118.666C296.568 121.133 294.98 124.017 292.979 125.081L281.629 131.3V121.576L283.037 120.802L292.979 115.357C294.98 114.336 296.568 115.433 296.568 117.901ZM281.674 141.109L293.024 134.899L293.984 134.371C296.164 133.172 297.95 134.448 297.95 137.213V138.063C297.95 140.828 296.155 144.019 293.984 145.252L283.082 151.208L281.674 151.982V141.109Z" fill="#B9B8E7"/>
<path opacity="0.3" d="M293.869 105.139V102.357L292.164 100.741L286.951 103.599L303.694 119.44C304.103 117.784 304.317 116.089 304.331 114.387V113.613C304.331 113.119 304.331 112.643 304.268 112.184L296.058 104.399C295.299 104.559 294.564 104.808 293.869 105.139Z" fill="white"/>
<path opacity="0.3" d="M296.559 117.739C296.559 117.79 296.559 117.85 296.559 117.909V118.675C296.559 121.142 294.971 124.026 292.97 125.09L290.18 126.621L304.643 140.335C305.292 138.208 305.633 136.007 305.657 133.793V132.942C305.657 128.909 304.32 125.736 301.997 124.213C302.131 123.907 302.257 123.592 302.391 123.277L296.559 117.739Z" fill="white"/>
<path opacity="0.3" d="M284.914 150.187L283.084 151.182L281.675 151.956V147.115L273.914 139.756V153.462L283.407 162.463V160.821L286.108 159.341V163.654L293.869 159.4V158.677L284.914 150.187Z" fill="white"/>
<path opacity="0.25" d="M283.73 120.444L293.025 115.34C293.254 115.219 293.494 115.119 293.743 115.042L286.107 107.802V109.317L283.416 110.797V105.514L275.654 109.767V112.762L283.73 120.444Z" fill="white"/>
<path d="M273.912 125.821V156.201C274.002 154.934 274.047 153.649 274.11 152.407C274.173 151.165 274.191 149.855 274.235 148.604C274.316 146.052 274.352 143.542 274.361 141.015C274.37 138.489 274.361 135.911 274.361 133.418C274.361 132.151 274.316 130.866 274.28 129.624L274.164 125.821V125.464L273.859 125.651C272.665 126.383 271.463 127.089 270.27 127.837L273.912 125.821Z" fill="#F5F5F5"/>
<path d="M277.717 108.934C278.39 108.636 279.063 108.313 279.727 107.989C280.391 107.666 281.046 107.317 281.692 106.968C282.132 106.739 282.589 106.492 283.002 106.245C283.002 106.892 283.056 107.53 283.101 108.176C283.101 108.61 283.172 109.027 283.226 109.495C283.28 109.963 283.325 110.346 283.406 110.814V105.531L275.645 109.784C275.994 109.657 276.344 109.512 276.685 109.368C277.026 109.223 277.376 109.087 277.717 108.934Z" fill="#F5F5F5"/>
<path d="M288.18 103.208C288.853 102.902 289.526 102.587 290.19 102.255C291.303 101.711 292.388 101.115 293.465 100.511C293.465 101.166 293.51 101.821 293.564 102.476C293.564 102.919 293.635 103.327 293.689 103.804C293.743 104.28 293.788 104.654 293.869 105.139V99.8051L286.107 104.059C286.457 103.931 286.807 103.787 287.148 103.642C287.489 103.497 287.839 103.361 288.18 103.208Z" fill="#F5F5F5"/>
<path d="M296.57 117.901V118.666C296.57 121.133 294.982 124.018 292.981 125.081L281.648 131.291L282.725 130.807C283.389 130.483 284.367 130.049 285.507 129.471C286.646 128.892 287.983 128.237 289.401 127.497L291.572 126.349L292.685 125.745L293.241 125.447C293.444 125.331 293.639 125.203 293.824 125.064C294.543 124.521 295.151 123.857 295.619 123.107C296.059 122.399 296.397 121.638 296.624 120.844C296.841 120.103 296.934 119.333 296.902 118.564C296.919 117.878 296.828 117.192 296.633 116.531C296.464 115.941 296.066 115.434 295.52 115.11C295.098 114.875 294.598 114.799 294.12 114.897C293.827 114.958 293.545 115.061 293.286 115.204L293.026 115.357C294.991 114.336 296.57 115.442 296.57 117.901Z" fill="#F5F5F5"/>
<path d="M298.282 137.842C298.292 137.084 298.174 136.328 297.932 135.605C297.732 134.965 297.287 134.419 296.685 134.073C296.22 133.821 295.672 133.745 295.151 133.861C294.835 133.927 294.533 134.039 294.253 134.193L293.957 134.363H294.029C296.182 133.223 297.932 134.49 297.932 137.23V138.08C297.932 140.845 296.138 144.036 293.966 145.269L283.065 151.225L281.674 151.99L282.831 151.454C283.567 151.088 284.626 150.604 285.891 149.957C287.156 149.31 288.583 148.596 290.171 147.779L292.558 146.511C293.416 146.083 294.244 145.6 295.034 145.065C296.479 143.814 297.503 142.186 297.977 140.386C298.212 139.557 298.315 138.7 298.282 137.842Z" fill="#F5F5F5"/>
<path d="M305.712 133.784V132.933C305.712 128.901 304.375 125.728 302.051 124.205L302.366 124.468C302.657 124.732 302.927 125.016 303.173 125.319C304.011 126.374 304.602 127.586 304.905 128.875C305.128 129.729 305.264 130.6 305.309 131.479C305.362 132.465 305.362 133.453 305.309 134.439C305.295 134.957 305.25 135.474 305.174 135.988C305.111 136.507 305.039 137.034 304.932 137.562C304.824 138.089 304.725 138.625 304.582 139.152C304.438 139.68 304.304 140.207 304.124 140.726C303.945 141.245 303.792 141.773 303.595 142.283C303.397 142.794 303.2 143.304 302.976 143.798C302.751 144.291 302.527 144.784 302.285 145.261C302.056 145.741 301.802 146.21 301.522 146.665C301.271 147.124 301.011 147.558 300.733 147.983C300.454 148.409 300.212 148.834 299.925 149.208C299.408 149.944 298.851 150.654 298.256 151.335C297.682 151.956 297.161 152.526 296.641 152.986C296.21 153.393 295.758 153.779 295.286 154.143C294.47 154.73 293.994 155.053 293.994 155.053C300.445 151.488 305.712 141.96 305.712 133.784Z" fill="#F5F5F5"/>
<path d="M279.323 166.921C278.044 167.667 276.815 168.488 275.645 169.38L283.406 165.126V160.813C283.182 162.162 283.047 163.523 283.002 164.888C281.746 165.523 280.52 166.201 279.323 166.921Z" fill="#F5F5F5"/>
<path d="M293.869 155.087C293.662 156.457 293.573 157.818 293.501 159.179C292.227 159.792 290.988 160.464 289.777 161.178C288.495 161.922 287.269 162.749 286.107 163.654L293.869 159.4V155.087Z" fill="#F5F5F5"/>
</g>
</g>
</svg>
