<svg width="40" height="32" viewBox="0 0 40 32" fill="none" xmlns="http://www.w3.org/2000/svg">
<rect width="40" height="32" fill="white"/>
<path d="M20.2125 5.325L14.1625 10.225C13.1562 11.0375 12.9625 12.5 13.725 13.5437C14.5312 14.6562 16.1 14.875 17.1812 14.0312L23.3875 9.20625C23.825 8.86875 24.45 8.94375 24.7938 9.38125C25.1375 9.81875 25.0562 10.4438 24.6187 10.7875L23.3125 11.8L32 19.8V8H31.9562L31.7125 7.84375L27.175 4.9375C26.2188 4.325 25.1 4 23.9625 4C22.6 4 21.275 4.46875 20.2125 5.325ZM21.6375 13.1L18.4062 15.6125C16.4375 17.15 13.5813 16.75 12.1062 14.725C10.7188 12.8188 11.0687 10.1562 12.9 8.675L18.1 4.46875C17.375 4.1625 16.5938 4.00625 15.8 4.00625C14.625 4 13.4812 4.35 12.5 5L8 8V22H9.7625L15.475 27.2125C16.7 28.3312 18.5938 28.2437 19.7125 27.0187C20.0562 26.6375 20.2875 26.1938 20.4062 25.7313L21.4688 26.7062C22.6875 27.825 24.5875 27.7437 25.7062 26.525C25.9875 26.2188 26.1938 25.8625 26.325 25.4937C27.5375 26.3062 29.1875 26.1375 30.2062 25.025C31.325 23.8062 31.2437 21.9062 30.025 20.7875L21.6375 13.1ZM1 8C0.45 8 0 8.45 0 9V22C0 23.1063 0.89375 24 2 24H4C5.10625 24 6 23.1063 6 22V8H1ZM3 20C3.26522 20 3.51957 20.1054 3.70711 20.2929C3.89464 20.4804 4 20.7348 4 21C4 21.2652 3.89464 21.5196 3.70711 21.7071C3.51957 21.8946 3.26522 22 3 22C2.73478 22 2.48043 21.8946 2.29289 21.7071C2.10536 21.5196 2 21.2652 2 21C2 20.7348 2.10536 20.4804 2.29289 20.2929C2.48043 20.1054 2.73478 20 3 20ZM34 8V22C34 23.1063 34.8937 24 36 24H38C39.1063 24 40 23.1063 40 22V9C40 8.45 39.55 8 39 8H34ZM36 21C36 20.7348 36.1054 20.4804 36.2929 20.2929C36.4804 20.1054 36.7348 20 37 20C37.2652 20 37.5196 20.1054 37.7071 20.2929C37.8946 20.4804 38 20.7348 38 21C38 21.2652 37.8946 21.5196 37.7071 21.7071C37.5196 21.8946 37.2652 22 37 22C36.7348 22 36.4804 21.8946 36.2929 21.7071C36.1054 21.5196 36 21.2652 36 21Z" fill="#9747FF"/>
</svg>
