<svg width="175" height="198" viewBox="0 0 175 198" fill="none" xmlns="http://www.w3.org/2000/svg">
<path d="M88.8153 59.0578L71.7246 30.6348L88.36 2.99805H122.299L122.815 3.84257L139.389 31.4793L122.754 59.116H88.8153V59.0578ZM73.9407 31.4793L89.5742 57.4269H121.084L137.173 30.693L121.54 4.74536H90.0296L73.9407 31.4793Z" fill="black"/>
<path d="M138.662 84.5394L123.028 58.5918L139.117 31.8578H170.627L170.809 32.1199C170.809 31.7996 171.022 31.4793 171.143 31.1589C171.265 30.8386 171.386 30.6347 171.508 30.3726V30.1396H137.448L120.873 57.8346L137.478 85.4131L137.994 86.2576" fill="black"/>
<path d="M88.8203 113.43L71.6992 85.0068L88.365 57.3701H122.304L139.394 85.7931L122.759 113.43H88.8203ZM73.9457 85.7931L89.5792 111.741H121.089L137.148 85.0068L121.545 59.0592H90.0346L73.9457 85.7931Z" fill="black"/>
<path d="M39.7371 140.63L22.6465 112.207L39.2818 84.541H73.2203L90.3414 113.022L73.6757 140.688H39.7371V140.63ZM24.8928 113.022L40.496 138.97H72.0061L88.095 112.265L72.4614 86.2883H40.9514L24.8928 113.022Z" fill="black"/>
<path d="M70.7007 140.629V140.425C71.2654 139.903 71.8979 139.453 72.5828 139.086L72.9471 138.911H39.2818L22.6465 166.577L39.7068 194.942L40.7085 193.398H40.4353L24.8321 167.422L40.8907 140.717L70.7007 140.629Z" fill="black"/>
<path d="M24.1275 111.74H23.7328C23.7328 112.294 23.5204 112.876 23.3686 113.429L38.9111 139.377L22.8222 166.111H-8.5968L-8.86999 165.703C-8.96838 166.223 -9.1749 166.718 -9.47716 167.159L-9.62891 167.334L-9.35571 167.8H24.5828L41.2182 140.163L24.1275 111.74Z" fill="black"/>
<path d="M130.954 58.2151C130.954 59.943 130.42 61.6322 129.419 63.0689C128.419 64.5056 126.996 65.6254 125.332 66.2866C123.668 66.9479 121.837 67.1209 120.071 66.7838C118.304 66.4467 116.681 65.6146 115.408 64.3928C114.134 63.171 113.267 61.6142 112.915 59.9195C112.564 58.2248 112.744 56.4681 113.433 54.8717C114.123 53.2753 115.29 51.9109 116.788 50.9509C118.285 49.9909 120.046 49.4785 121.847 49.4785C124.262 49.4785 126.579 50.399 128.287 52.0374C129.995 53.6758 130.954 55.898 130.954 58.2151Z" fill="#BA68C8"/>
<path d="M147.315 31.0139C147.315 32.7419 146.781 34.431 145.781 35.8677C144.78 37.3044 143.358 38.4242 141.694 39.0855C140.03 39.7467 138.198 39.9197 136.432 39.5826C134.665 39.2455 133.043 38.4134 131.769 37.1916C130.495 35.9698 129.628 34.4131 129.277 32.7183C128.925 31.0236 129.106 29.267 129.795 27.6706C130.484 26.0742 131.651 24.7097 133.149 23.7497C134.647 22.7897 136.407 22.2773 138.208 22.2773C140.624 22.2773 142.94 23.1978 144.648 24.8362C146.356 26.4747 147.315 28.6968 147.315 31.0139Z" fill="#BA68C8"/>
<path d="M98.2276 112.585C98.2276 114.313 97.6935 116.002 96.6928 117.439C95.6921 118.876 94.2697 119.996 92.6057 120.657C90.9416 121.318 89.1105 121.491 87.3439 121.154C85.5774 120.817 83.9546 119.985 82.681 118.763C81.4073 117.541 80.5401 115.984 80.1887 114.29C79.8373 112.595 80.0176 110.838 80.7069 109.242C81.3962 107.645 82.5634 106.281 84.061 105.321C85.5587 104.361 87.3194 103.849 89.1206 103.849C91.5359 103.849 93.8523 104.769 95.5602 106.408C97.268 108.046 98.2276 110.268 98.2276 112.585Z" fill="#BA68C8"/>
<path d="M49.1377 139.786C49.1377 141.514 48.6036 143.203 47.6029 144.64C46.6022 146.077 45.1799 147.197 43.5158 147.858C41.8517 148.519 40.0207 148.692 38.2541 148.355C36.4875 148.018 34.8649 147.186 33.5912 145.964C32.3176 144.742 31.4502 143.186 31.0988 141.491C30.7474 139.796 30.9278 138.039 31.6171 136.443C32.3063 134.847 33.4736 133.482 34.9712 132.522C36.4688 131.562 38.2296 131.05 40.0308 131.05C42.4461 131.05 44.7625 131.97 46.4704 133.609C48.1783 135.247 49.1377 137.469 49.1377 139.786Z" fill="#BA68C8"/>
<path d="M32.8369 112.585C32.8369 114.313 32.3028 116.002 31.3022 117.439C30.3015 118.876 28.8791 119.996 27.215 120.657C25.551 121.318 23.7199 121.491 21.9533 121.154C20.1867 120.817 18.5641 119.985 17.2904 118.763C16.0168 117.541 15.1494 115.984 14.798 114.29C14.4466 112.595 14.627 110.838 15.3163 109.242C16.0056 107.645 17.1728 106.281 18.6704 105.321C20.168 104.361 21.9288 103.849 23.73 103.849C26.1453 103.849 28.4616 104.769 30.1695 106.408C31.8774 108.046 32.8369 110.268 32.8369 112.585Z" fill="#BA68C8"/>
<path d="M93.1919 3.84409C93.1919 4.60438 92.9568 5.3476 92.5165 5.97976C92.0762 6.61192 91.4505 7.10463 90.7183 7.39558C89.9861 7.68653 89.1804 7.76266 88.4031 7.61433C87.6258 7.46601 86.9118 7.09989 86.3514 6.56229C85.791 6.02468 85.4093 5.33973 85.2547 4.59405C85.1001 3.84837 85.1795 3.07544 85.4828 2.37302C85.7861 1.67061 86.2997 1.07025 86.9587 0.647851C87.6176 0.225457 88.3923 0 89.1848 0C90.2475 0 91.2668 0.405003 92.0182 1.12591C92.7697 1.84682 93.1919 2.82458 93.1919 3.84409Z" fill="#BA68C8"/>
<path d="M125.915 3.84421C125.915 4.6045 125.679 5.34771 125.239 5.97987C124.799 6.61203 124.173 7.10475 123.441 7.3957C122.709 7.68665 121.903 7.76277 121.126 7.61445C120.348 7.46612 119.634 7.10001 119.074 6.5624C118.514 6.02479 118.132 5.33984 117.977 4.59416C117.823 3.84848 117.902 3.07555 118.205 2.37313C118.509 1.67072 119.022 1.07036 119.681 0.647963C120.34 0.225569 121.115 0.00011201 121.907 0.00011201C122.435 -0.00376475 122.958 0.0930282 123.446 0.284839C123.934 0.47665 124.377 0.759648 124.75 1.11738C125.123 1.47511 125.418 1.90043 125.618 2.36857C125.818 2.83671 125.919 3.33831 125.915 3.84421Z" fill="#BA68C8"/>
<path d="M76.8245 31.0161C76.8306 31.7777 76.6007 32.5237 76.1641 33.1597C75.7275 33.7957 75.1037 34.2929 74.3721 34.5883C73.6404 34.8837 72.8339 34.964 72.0546 34.819C71.2753 34.674 70.5584 34.3102 69.995 33.7738C69.4315 33.2373 69.0469 32.5525 68.8898 31.806C68.7327 31.0595 68.8103 30.2851 69.1127 29.581C69.415 28.8769 69.9286 28.2748 70.5882 27.8511C71.2478 27.4274 72.0237 27.2012 72.8176 27.2012C73.8751 27.2011 74.8896 27.6022 75.6402 28.3168C76.3908 29.0314 76.8165 30.0017 76.8245 31.0161Z" fill="#BA68C8"/>
<path d="M93.1919 58.2142C93.1919 58.9745 92.9568 59.7177 92.5165 60.3499C92.0762 60.982 91.4505 61.4747 90.7183 61.7657C89.9861 62.0566 89.1804 62.1328 88.4031 61.9844C87.6258 61.8361 86.9118 61.47 86.3514 60.9324C85.791 60.3948 85.4093 59.7098 85.2547 58.9642C85.1001 58.2185 85.1795 57.4456 85.4828 56.7431C85.7861 56.0407 86.2997 55.4404 86.9587 55.018C87.6176 54.5956 88.3923 54.3701 89.1848 54.3701C90.2475 54.3701 91.2668 54.7751 92.0182 55.496C92.7697 56.2169 93.1919 57.1947 93.1919 58.2142Z" fill="#BA68C8"/>
<path d="M175.002 31.0161C175.008 31.7777 174.778 32.5237 174.342 33.1597C173.905 33.7957 173.281 34.2929 172.55 34.5883C171.818 34.8837 171.012 34.964 170.232 34.819C169.453 34.674 168.736 34.3102 168.173 33.7738C167.609 33.2373 167.225 32.5525 167.068 31.806C166.91 31.0595 166.988 30.2851 167.29 29.581C167.593 28.8769 168.106 28.2748 168.766 27.8511C169.425 27.4274 170.201 27.2012 170.995 27.2012C172.053 27.2011 173.067 27.6022 173.818 28.3168C174.568 29.0314 174.994 30.0017 175.002 31.0161Z" fill="#BA68C8"/>
<path d="M142.274 85.4154C142.274 86.1757 142.039 86.9189 141.599 87.551C141.158 88.1832 140.532 88.6759 139.8 88.9669C139.068 89.2578 138.262 89.3339 137.485 89.1856C136.708 89.0373 135.994 88.6712 135.433 88.1336C134.873 87.596 134.491 86.911 134.337 86.1653C134.182 85.4197 134.261 84.6467 134.565 83.9443C134.868 83.2419 135.382 82.6415 136.041 82.2192C136.7 81.7968 137.474 81.5713 138.267 81.5713C139.33 81.5713 140.349 81.9763 141.1 82.6972C141.852 83.4181 142.274 84.3959 142.274 85.4154Z" fill="#BA68C8"/>
<path d="M125.914 112.587C125.92 113.349 125.691 114.095 125.254 114.731C124.817 115.367 124.194 115.864 123.462 116.16C122.73 116.455 121.924 116.535 121.144 116.39C120.365 116.245 119.648 115.881 119.085 115.345C118.521 114.809 118.137 114.124 117.98 113.377C117.823 112.631 117.9 111.856 118.202 111.152C118.505 110.448 119.018 109.846 119.678 109.422C120.338 108.999 121.114 108.772 121.907 108.772C122.965 108.772 123.979 109.173 124.73 109.888C125.481 110.603 125.906 111.573 125.914 112.587Z" fill="#BA68C8"/>
<path d="M76.8246 85.4154C76.8246 86.1757 76.5897 86.9189 76.1494 87.551C75.7091 88.1832 75.0832 88.6759 74.351 88.9669C73.6188 89.2578 72.8131 89.3339 72.0359 89.1856C71.2586 89.0373 70.5446 88.6712 69.9842 88.1336C69.4238 87.596 69.0422 86.911 68.8876 86.1653C68.7329 85.4197 68.8123 84.6467 69.1155 83.9443C69.4188 83.2419 69.9324 82.6415 70.5914 82.2192C71.2504 81.7968 72.0251 81.5713 72.8176 81.5713C73.8804 81.5713 74.8996 81.9763 75.6511 82.6972C76.4025 83.4181 76.8246 84.3959 76.8246 85.4154Z" fill="#BA68C8"/>
<path d="M44.1019 85.3864C44.1079 86.1491 43.8772 86.8963 43.4392 87.5329C43.0012 88.1695 42.3758 88.6668 41.6424 88.9613C40.909 89.2559 40.1007 89.3344 39.3206 89.187C38.5405 89.0396 37.8238 88.6729 37.2616 88.1336C36.6994 87.5942 36.3171 86.9066 36.1634 86.1582C36.0098 85.4098 36.0917 84.6345 36.3987 83.9309C36.7058 83.2273 37.2241 82.6273 37.8876 82.2071C38.5512 81.7869 39.3301 81.5656 40.1252 81.5714C41.1774 81.579 42.1843 81.9834 42.9284 82.6972C43.6725 83.411 44.0939 84.3769 44.1019 85.3864Z" fill="#BA68C8"/>
<path d="M76.8247 139.784C76.8246 140.545 76.5888 141.29 76.1472 141.922C75.7055 142.555 75.0779 143.048 74.3439 143.338C73.61 143.628 72.8028 143.702 72.0247 143.552C71.2466 143.401 70.5326 143.032 69.9734 142.491C69.4142 141.951 69.035 141.263 68.8839 140.516C68.7327 139.768 68.8164 138.994 69.1244 138.292C69.4323 137.59 69.9506 136.992 70.6136 136.573C71.2765 136.154 72.0542 135.934 72.848 135.94C73.3728 135.94 73.8923 136.039 74.3768 136.233C74.8613 136.426 75.3011 136.71 75.6707 137.067C76.0404 137.425 76.3327 137.849 76.5307 138.315C76.7288 138.781 76.8287 139.28 76.8247 139.784Z" fill="#BA68C8"/>
<path d="M44.102 194.156C44.102 194.917 43.8662 195.662 43.4245 196.294C42.9829 196.927 42.3552 197.42 41.6213 197.71C40.8873 198 40.0801 198.074 39.302 197.924C38.5239 197.773 37.8099 197.404 37.2508 196.863C36.6916 196.323 36.3124 195.635 36.1612 194.888C36.01 194.14 36.0938 193.366 36.4017 192.664C36.7097 191.962 37.228 191.364 37.8909 190.945C38.5538 190.526 39.3315 190.306 40.1253 190.312C40.6501 190.312 41.1697 190.411 41.6542 190.605C42.1386 190.798 42.5784 191.082 42.9481 191.439C43.3177 191.797 43.61 192.221 43.8081 192.687C44.0061 193.153 44.106 193.652 44.102 194.156Z" fill="#BA68C8"/>
<path d="M27.7309 166.955C27.7309 167.716 27.4959 168.459 27.0556 169.091C26.6153 169.723 25.9895 170.216 25.2573 170.507C24.5251 170.798 23.7195 170.874 22.9422 170.726C22.1649 170.577 21.4509 170.211 20.8905 169.674C20.3301 169.136 19.9484 168.451 19.7938 167.705C19.6392 166.96 19.7186 166.187 20.0219 165.484C20.3251 164.782 20.8387 164.182 21.4976 163.759C22.1566 163.337 22.9314 163.111 23.7239 163.111C24.7866 163.111 25.8058 163.516 26.5573 164.237C27.3088 164.958 27.7309 165.936 27.7309 166.955Z" fill="#BA68C8"/>
</svg>
