<svg width="138" height="142" viewBox="0 0 138 142" fill="none" xmlns="http://www.w3.org/2000/svg">
<path d="M92.1381 38.7579L65.5854 48.3957C64.2763 61.8244 63.0109 72.9079 61.7891 81.6462C60.5673 90.3846 59.3818 97.9388 58.2327 104.309C57.0691 110.734 55.8763 116.599 54.6545 121.905C53.9022 125.521 52.4363 129.064 50.2909 132.451C48.334 135.335 45.4343 137.924 41.7818 140.052C40.6576 140.844 39.2125 141.428 37.6018 141.741C35.9911 142.054 34.2757 142.084 32.64 141.828C31.2044 141.576 29.9198 141.06 28.9488 140.347C27.9778 139.634 27.3641 138.755 27.1854 137.821C26.7431 136.412 26.6255 134.97 26.8363 133.539C27.0776 132.256 27.5011 130.988 28.1018 129.753C28.6896 128.541 29.3815 127.351 30.1745 126.187C30.9309 125.076 31.7382 123.947 32.5963 122.8C32.8145 122.456 34.1454 120.652 36.5672 117.389C38.6572 114.62 40.4787 111.774 42.0217 108.866C43.2364 106.475 44.0053 104.003 44.3127 101.5L51.2072 53.6277L40.0581 57.6893C36.5748 59.0282 33.5308 60.7762 31.0909 62.8387C28.4634 64.9177 26.2641 67.1985 24.5454 69.6265L19.5927 77.6259L15.5781 79.1817C16.6472 76.2766 17.9999 72.7794 19.5927 68.6764C21.3174 64.3645 23.5491 60.1397 26.2691 56.0371C28.5928 52.3379 31.6028 48.8254 35.2363 45.5732C38.6197 42.3821 43.0929 39.7099 48.3272 37.7528L136.145 5.75513V22.7315L106.495 33.5396C104.575 49.6486 103.614 65.5051 103.614 81.1093C103.557 83.711 104.138 86.3026 105.338 88.792C105.992 90.5716 107.474 92.1873 109.593 93.4319C110.767 93.8803 112.092 94.1477 113.46 94.2123C114.829 94.2768 116.202 94.1369 117.469 93.8037C120.567 93.152 123.724 91.1785 126.938 87.8833C128.61 86.2136 129.909 84.4068 130.8 82.5137C131.535 80.9385 132.054 79.3262 132.349 77.6947C132.589 76.3179 132.807 74.8171 133.047 73.3852L137.978 71.5816C137.803 81.3009 134.585 90.9025 128.509 99.8342C126.504 102.789 124.002 105.6 121.047 108.219C118.388 110.575 115.121 112.632 111.382 114.305C107.694 115.929 104.335 116.439 101.258 115.806C96.2254 114.557 92.4 111.088 89.7818 105.397C88.0613 100.665 87.2265 95.822 87.2945 90.9674C87.1054 84.6799 87.3599 78.3831 88.0581 72.0772L92.1381 38.7579Z" fill="#7BD28E"/>
<g opacity="0.2">
<path d="M92.1381 38.7579L65.5854 48.3957C64.2763 61.8244 63.0109 72.9079 61.7891 81.6462C60.5673 90.3846 59.3818 97.9388 58.2327 104.309C57.0691 110.734 55.8763 116.599 54.6545 121.905C53.9022 125.521 52.4363 129.064 50.2909 132.451C48.334 135.335 45.4343 137.924 41.7818 140.052C40.6576 140.844 39.2125 141.428 37.6018 141.741C35.9911 142.054 34.2757 142.084 32.64 141.828C31.2044 141.576 29.9198 141.06 28.9488 140.347C27.9778 139.634 27.3641 138.755 27.1854 137.821C26.7431 136.412 26.6255 134.97 26.8363 133.539C27.0776 132.256 27.5011 130.988 28.1018 129.753C28.6896 128.541 29.3815 127.351 30.1745 126.187C30.9309 125.076 31.7382 123.947 32.5963 122.8C32.8145 122.456 34.1454 120.652 36.5672 117.389C38.6572 114.62 40.4787 111.774 42.0217 108.866C43.2364 106.475 44.0053 104.003 44.3127 101.5L51.2072 53.6277L40.0581 57.6893C36.5748 59.0282 33.5308 60.7762 31.0909 62.8387C28.4634 64.9177 26.2641 67.1985 24.5454 69.6265L19.5927 77.6259L15.5781 79.1817C16.6472 76.2766 17.9999 72.7794 19.5927 68.6764C21.3174 64.3645 23.5491 60.1397 26.2691 56.0371C28.5928 52.3379 31.6028 48.8254 35.2363 45.5732C38.6197 42.3821 43.0929 39.7099 48.3272 37.7528L136.145 5.75513V22.7315L106.495 33.5396C104.575 49.6486 103.614 65.5051 103.614 81.1093C103.557 83.711 104.138 86.3026 105.338 88.792C105.992 90.5716 107.474 92.1873 109.593 93.4319C110.767 93.8803 112.092 94.1477 113.46 94.2123C114.829 94.2768 116.202 94.1369 117.469 93.8037C120.567 93.152 123.724 91.1785 126.938 87.8833C128.61 86.2136 129.909 84.4068 130.8 82.5137C131.535 80.9385 132.054 79.3262 132.349 77.6947C132.589 76.3179 132.807 74.8171 133.047 73.3852L137.978 71.5816C137.803 81.3009 134.585 90.9025 128.509 99.8342C126.504 102.789 124.002 105.6 121.047 108.219C118.388 110.575 115.121 112.632 111.382 114.305C107.694 115.929 104.335 116.439 101.258 115.806C96.2254 114.557 92.4 111.088 89.7818 105.397C88.0613 100.665 87.2265 95.822 87.2945 90.9674C87.1054 84.6799 87.3599 78.3831 88.0581 72.0772L92.1381 38.7579Z" fill="white"/>
</g>
<path d="M120.589 0.0136719L32.7709 32.0113C27.551 33.9806 23.0818 36.6505 19.68 39.8317C16.0474 43.0768 13.0305 46.5796 10.6909 50.2681C7.97755 54.3709 5.75322 58.5958 4.03638 62.9075C2.42183 67.038 1.09091 70.5076 0 73.4127L15.5781 79.0853C16.6472 76.1802 18 72.683 19.5927 68.58C21.3174 64.2681 23.5491 60.0433 26.2691 55.9407C27.6464 53.7537 29.2724 51.6325 31.1345 49.5935C32.4 48.2167 33.7309 46.8398 35.2363 45.463C38.6197 42.272 43.0929 39.5997 48.3273 37.6425L136.145 5.64492L120.589 0.0136719Z" fill="#7BD28E"/>
<g opacity="0.5">
<path d="M120.589 0.0136719L32.7709 32.0113C27.551 33.9806 23.0818 36.6505 19.68 39.8317C16.0474 43.0768 13.0305 46.5796 10.6909 50.2681C7.97755 54.3709 5.75322 58.5958 4.03638 62.9075C2.42183 67.038 1.09091 70.5076 0 73.4127L15.5781 79.0853C16.6472 76.1802 18 72.683 19.5927 68.58C21.3174 64.2681 23.5491 60.0433 26.2691 55.9407C27.6464 53.7537 29.2724 51.6325 31.1345 49.5935C32.4 48.2167 33.7309 46.8398 35.2363 45.463C38.6197 42.272 43.0929 39.5997 48.3273 37.6425L136.145 5.64492L120.589 0.0136719Z" fill="white"/>
</g>
<g opacity="0.5">
<path d="M26.2691 55.9821C27.6464 53.7951 29.2724 51.6739 31.1345 49.6349C32.4 48.2581 33.7309 46.8812 35.2363 45.5044C38.6197 42.3134 43.0929 39.6411 48.3272 37.684L136.145 5.68633L120.567 0L130.647 5.68633L48.1745 35.3984C38.4872 38.8818 24.3709 45.8348 15.5781 79.1267C16.6472 76.2216 17.9999 72.7244 19.5927 68.6214C21.3174 64.3095 23.5491 60.0847 26.2691 55.9821Z" fill="white"/>
</g>
<path d="M122.421 65.8953L137.999 71.5678L133.068 73.3715L117.49 67.6989L122.421 65.8953Z" fill="#7BD28E"/>
<g opacity="0.5">
<path d="M122.421 65.8953L137.999 71.5678L133.068 73.3715L117.49 67.6989L122.421 65.8953Z" fill="white"/>
</g>
<path d="M133.069 73.3715L122.16 69.42L117.6 67.699C117.36 69.0758 117.142 70.5628 116.902 72.0085C116.617 73.641 116.099 75.2539 115.353 76.8274C114.46 78.7177 113.168 80.5237 111.513 82.197C109.798 84.1142 107.517 85.8061 104.793 87.1812C104.989 87.7319 105.208 88.2689 105.469 88.7783C106.123 90.5579 107.605 92.1736 109.724 93.4182C110.725 93.8429 111.882 94.0989 113.084 94.1617C114.614 94.2462 116.155 94.1193 117.6 93.79C120.698 93.1383 123.855 91.1648 127.069 87.8696C128.741 86.1999 130.04 84.3931 130.931 82.4999C131.667 80.9248 132.185 79.3125 132.48 77.681C132.72 76.3042 132.938 74.8034 133.178 73.3715" fill="#7BD28E"/>
<g opacity="0.15">
<path d="M133.069 73.3715L122.16 69.42L117.6 67.699C117.36 69.0758 117.142 70.5628 116.902 72.0085C116.617 73.641 116.099 75.2539 115.353 76.8274C114.46 78.7177 113.168 80.5237 111.513 82.197C109.798 84.1142 107.517 85.8061 104.793 87.1812C104.989 87.7319 105.208 88.2689 105.469 88.7783C106.123 90.5579 107.605 92.1736 109.724 93.4182C110.725 93.8429 111.882 94.0989 113.084 94.1617C114.614 94.2462 116.155 94.1193 117.6 93.79C120.698 93.1383 123.855 91.1648 127.069 87.8696C128.741 86.1999 130.04 84.3931 130.931 82.4999C131.667 80.9248 132.185 79.3125 132.48 77.681C132.72 76.3042 132.938 74.8034 133.178 73.3715" fill="black"/>
</g>
<path d="M92.5319 109.789C91.4506 108.357 90.5673 106.869 89.8919 105.341C89.2495 103.807 88.7686 102.248 88.4519 100.674C87.825 97.4345 87.4827 94.1756 87.4265 90.9122C87.2228 84.6339 87.4701 78.3372 88.1683 72.0221C89.4556 61.3241 91.1356 47.5007 92.1828 38.7302L75.1865 44.926L72.5901 66.3358C71.8919 72.6509 71.6446 78.9476 71.8483 85.226C71.774 90.0845 72.6015 94.9318 74.3137 99.6689C76.6701 104.809 80.0301 108.132 84.3937 109.637L99.5355 115.145C96.4264 113.826 93.9928 111.965 92.5319 109.789Z" fill="#7BD28E"/>
<path opacity="0.3" d="M92.5319 109.789C91.4506 108.357 90.5673 106.869 89.8919 105.341C89.2495 103.807 88.7686 102.248 88.4519 100.674C87.825 97.4345 87.4827 94.1756 87.4265 90.9122C87.2228 84.6339 87.4701 78.3372 88.1683 72.0221C89.4556 61.3241 91.1356 47.5007 92.1828 38.7302L75.1865 44.926L72.5901 66.3358C71.8919 72.6509 71.6446 78.9476 71.8483 85.226C71.774 90.0845 72.6015 94.9318 74.3137 99.6689C76.6701 104.809 80.0301 108.132 84.3937 109.637L99.5355 115.145C96.4264 113.826 93.9928 111.965 92.5319 109.789Z" fill="black"/>
<path opacity="0.1" d="M75.185 44.9536L74.2031 53.008L89.8032 56.9871L89.9995 56.7943C90.8068 50.158 91.5923 43.6593 92.1814 38.7578L75.185 44.9536Z" fill="black"/>
<path d="M48.8072 54.5365L40.0799 57.7307C38.3829 58.3617 36.8023 59.1098 35.3672 59.9612L33.8617 60.9112L28.8218 95.8415C28.5498 98.342 27.8176 100.814 26.6399 103.208C25.0881 106.111 23.2593 108.952 21.1635 111.716C18.7635 114.993 17.4326 116.797 17.2145 117.127C16.3636 118.284 15.5563 119.413 14.7927 120.528C13.9627 121.686 13.2343 122.872 12.6109 124.08C12.0126 125.321 11.5891 126.593 11.3454 127.88C11.1352 129.311 11.2527 130.753 11.6945 132.162C11.8433 132.874 12.2417 133.556 12.8607 134.159C13.4796 134.761 14.3036 135.269 15.2727 135.646L30.7636 141.318C29.8063 140.941 28.9941 140.434 28.3865 139.834C27.7788 139.234 27.3909 138.555 27.2508 137.849C26.8544 136.589 26.7151 135.303 26.8363 134.021C26.8363 133.87 26.8363 133.718 26.8363 133.567C27.0691 132.278 27.4928 131.006 28.1018 129.767C28.6895 128.56 29.3814 127.374 30.1745 126.214C30.8072 125.278 31.4836 124.342 32.1818 123.392C32.1818 123.185 32.4436 123.006 32.5745 122.814L36.5454 117.403C37.7672 115.751 38.7272 114.222 39.7308 112.79C39.7308 112.708 39.84 112.611 39.9054 112.529L40.6909 111.235C40.8654 110.959 41.0181 110.67 41.1927 110.395C41.4763 109.885 41.76 109.376 42 108.894C43.2119 106.502 43.9878 104.031 44.3127 101.528L51.2072 53.6553L48.8072 54.5365Z" fill="#7BD28E"/>
<path opacity="0.3" d="M48.8072 54.5365L40.0799 57.7307C38.3829 58.3617 36.8023 59.1098 35.3672 59.9612L33.8617 60.9112L28.8218 95.8415C28.5498 98.342 27.8176 100.814 26.6399 103.208C25.0881 106.111 23.2593 108.952 21.1635 111.716C18.7635 114.993 17.4326 116.797 17.2145 117.127C16.3636 118.284 15.5563 119.413 14.7927 120.528C13.9627 121.686 13.2343 122.872 12.6109 124.08C12.0126 125.321 11.5891 126.593 11.3454 127.88C11.1352 129.311 11.2527 130.753 11.6945 132.162C11.8433 132.874 12.2417 133.556 12.8607 134.159C13.4796 134.761 14.3036 135.269 15.2727 135.646L30.7636 141.318C29.8063 140.941 28.9941 140.434 28.3865 139.834C27.7788 139.234 27.3909 138.555 27.2508 137.849C26.8544 136.589 26.7151 135.303 26.8363 134.021C26.8363 133.87 26.8363 133.718 26.8363 133.567C27.0691 132.278 27.4928 131.006 28.1018 129.767C28.6895 128.56 29.3814 127.374 30.1745 126.214C30.8072 125.278 31.4836 124.342 32.1818 123.392C32.1818 123.185 32.4436 123.006 32.5745 122.814L36.5454 117.403C37.7672 115.751 38.7272 114.222 39.7308 112.79C39.7308 112.708 39.84 112.611 39.9054 112.529L40.6909 111.235C40.8654 110.959 41.0181 110.67 41.1927 110.395C41.4763 109.885 41.76 109.376 42 108.894C43.2119 106.502 43.9878 104.031 44.3127 101.528L51.2072 53.6553L48.8072 54.5365Z" fill="black"/>
<g opacity="0.1">
<path d="M49.113 68.1669L51.2948 53.7239L48.8949 54.5913L40.1676 57.7855C38.4705 58.4165 36.8899 59.1646 35.4549 60.016L33.9494 60.966L33.4258 64.5733L49.113 68.1669Z" fill="black"/>
</g>
</svg>
