<svg width="53" height="89" viewBox="0 0 53 89" fill="none" xmlns="http://www.w3.org/2000/svg">
<path d="M0 88.0468L33.996 73.313L47.5429 78.5026L0 88.0468Z" fill="#7F47DD"/>
<path d="M0 88.0471L29.9511 70.7005L24.5854 64.021L0 88.0471Z" fill="#7F47DD"/>
<path d="M29.9511 70.7002L29.3862 75.314L0 88.0468L29.9511 70.7002Z" fill="#7F47DD"/>
<path opacity="0.2" d="M29.9511 70.7002L29.3862 75.314L0 88.0468L29.9511 70.7002Z" fill="black"/>
<path d="M37.4268 67.9362C37.3224 67.9369 37.2216 67.9035 37.1444 67.8426C37.0614 67.7777 37.0107 67.6874 37.003 67.5908C36.9952 67.4941 37.031 67.3987 37.1029 67.3244C37.3853 67.0509 37.6594 66.7774 37.9335 66.4967C37.9694 66.4597 38.0134 66.4293 38.0629 66.4071C38.1125 66.385 38.1665 66.3715 38.2221 66.3675C38.2777 66.3635 38.3336 66.369 38.3867 66.3838C38.4398 66.3985 38.489 66.4222 38.5315 66.4535C38.5738 66.484 38.6088 66.5215 38.6342 66.5638C38.6597 66.6061 38.6752 66.6524 38.6799 66.7C38.6845 66.7475 38.6782 66.7954 38.6613 66.8408C38.6443 66.8862 38.6172 66.9283 38.5813 66.9645C38.3072 67.2524 38.0331 67.5259 37.7507 67.8067C37.7116 67.8482 37.6621 67.8814 37.606 67.9038C37.5499 67.9263 37.4886 67.9374 37.4268 67.9362Z" fill="#E0E0E0"/>
<path d="M40.8401 64.2871C40.7474 64.2886 40.6568 64.2633 40.5826 64.2151C40.494 64.1565 40.4355 64.07 40.42 63.9743C40.4044 63.8787 40.433 63.7816 40.4996 63.704C40.9979 63.1282 41.488 62.5524 41.9614 61.9694C41.9929 61.9294 42.0334 61.8954 42.0804 61.8693C42.1274 61.8432 42.1801 61.8256 42.2351 61.8176C42.2902 61.8095 42.3465 61.8111 42.4008 61.8224C42.4551 61.8336 42.5062 61.8542 42.5511 61.883C42.6406 61.9406 42.701 62.0259 42.7196 62.1212C42.7382 62.2164 42.7135 62.3142 42.6508 62.3941C42.1691 62.9771 41.679 63.5673 41.1724 64.1431C41.1341 64.1882 41.0841 64.2248 41.0263 64.2498C40.9685 64.2749 40.9047 64.2876 40.8401 64.2871ZM44.5778 59.5437C44.501 59.5422 44.4263 59.5223 44.3618 59.4862C44.2661 59.4355 44.1975 59.354 44.171 59.2595C44.1446 59.1651 44.1624 59.0654 44.2206 58.9823C44.6525 58.3705 45.0512 57.7587 45.4665 57.1397C45.4902 57.0931 45.5248 57.0512 45.5682 57.0168C45.6115 56.9824 45.6627 56.9562 45.7184 56.9398C45.7741 56.9235 45.8331 56.9173 45.8916 56.9218C45.9502 56.9263 46.0071 56.9413 46.0586 56.9659C46.1101 56.9905 46.1551 57.0241 46.1908 57.0646C46.2265 57.1051 46.2521 57.1515 46.266 57.2011C46.2798 57.2506 46.2816 57.3021 46.2712 57.3522C46.2609 57.4024 46.2385 57.4501 46.2057 57.4924C45.807 58.1258 45.3751 58.7448 44.9432 59.3638C44.9057 59.4188 44.8522 59.4643 44.7881 59.4958C44.724 59.5274 44.6515 59.5439 44.5778 59.5437ZM47.734 54.5053C47.6741 54.5187 47.6112 54.5187 47.5513 54.5053C47.5014 54.4852 47.4566 54.4568 47.4196 54.4216C47.3825 54.3864 47.3539 54.3452 47.3353 54.3003C47.3168 54.2554 47.3087 54.2078 47.3115 54.1602C47.3144 54.1126 47.3281 54.066 47.3519 54.0231C47.7008 53.3681 48.033 52.7131 48.3487 52.0653C48.3687 52.0204 48.399 51.9795 48.4376 51.945C48.4763 51.9104 48.5225 51.883 48.5736 51.8642C48.6247 51.8454 48.6797 51.8357 48.7352 51.8356C48.7907 51.8355 48.8457 51.8451 48.8969 51.8637C49.0006 51.902 49.0829 51.9738 49.1264 52.0639C49.1698 52.154 49.1709 52.2552 49.1294 52.346C48.8138 53.001 48.4733 53.6704 48.1161 54.3326C48.0725 54.3839 48.0145 54.4247 47.9477 54.4511C47.8808 54.4776 47.8073 54.4888 47.734 54.4837V54.5053ZM50.1759 49.1646C50.132 49.1715 50.087 49.1715 50.043 49.1646C49.9851 49.1525 49.9307 49.1299 49.8835 49.0984C49.8363 49.0668 49.7973 49.027 49.769 48.9814C49.7408 48.9359 49.724 48.8857 49.7197 48.8342C49.7154 48.7827 49.7237 48.7309 49.744 48.6823C50.0015 47.9626 50.2424 47.3148 50.4501 46.6382C50.4645 46.5912 50.4895 46.5472 50.5237 46.5087C50.5579 46.4702 50.6006 46.438 50.6492 46.4139C50.6979 46.3898 50.7516 46.3743 50.8072 46.3683C50.8629 46.3623 50.9193 46.366 50.9733 46.3791C51.027 46.3906 51.0775 46.4116 51.1215 46.4406C51.1656 46.4697 51.2023 46.5062 51.2295 46.548C51.2568 46.5897 51.2738 46.6359 51.2798 46.6836C51.2857 46.7313 51.2803 46.7795 51.264 46.8253C51.0564 47.5451 50.8155 48.2145 50.5497 48.9127C50.5195 48.9781 50.4682 49.0346 50.4019 49.0755C50.3356 49.1163 50.2572 49.1397 50.1759 49.143V49.1646ZM51.8371 43.5935H51.7624C51.7074 43.5858 51.6549 43.5685 51.6078 43.5428C51.5607 43.517 51.5201 43.4833 51.4883 43.4437C51.4565 43.4041 51.4343 43.3594 51.4228 43.3121C51.4114 43.2649 51.4111 43.2162 51.4218 43.1689C51.5713 42.4491 51.6959 41.7293 51.7956 41.0599C51.8101 40.9636 51.8681 40.8762 51.9568 40.8168C52.0456 40.7574 52.1578 40.731 52.269 40.7432C52.3245 40.7485 52.3782 40.7634 52.4269 40.7871C52.4756 40.8108 52.5183 40.8427 52.5524 40.881C52.5865 40.9193 52.6114 40.9632 52.6255 41.01C52.6396 41.0568 52.6427 41.1056 52.6345 41.1535C52.5348 41.8733 52.4019 42.593 52.2524 43.3128C52.2253 43.3966 52.164 43.4689 52.0801 43.5166C51.9961 43.5642 51.895 43.5839 51.7956 43.5719L51.8371 43.5935ZM52.5598 37.8857C52.5045 37.8839 52.4502 37.8725 52.4 37.8522C52.3499 37.832 52.3049 37.8032 52.2678 37.7677C52.2306 37.7321 52.202 37.6905 52.1837 37.6453C52.1654 37.6001 52.1577 37.5521 52.1611 37.5042C52.1611 36.95 52.1611 36.3886 52.1611 35.8272V35.3665C52.16 35.3186 52.1699 35.2711 52.1903 35.2266C52.2106 35.1821 52.241 35.1415 52.2797 35.1074C52.3184 35.0732 52.3645 35.046 52.4155 35.0275C52.4664 35.009 52.5211 34.9994 52.5764 34.9994C52.6873 34.9994 52.7938 35.0371 52.873 35.1044C52.9522 35.1717 52.9978 35.2632 53 35.3593V35.8272C53 36.3958 53 36.9644 53 37.533C52.9982 37.5846 52.9839 37.6352 52.9581 37.6816C52.9322 37.7281 52.8954 37.7693 52.8499 37.8025C52.8045 37.8358 52.7515 37.8604 52.6943 37.8747C52.6371 37.8891 52.5771 37.8928 52.5182 37.8857H52.5598ZM52.377 32.1275C52.2724 32.1278 52.1715 32.0939 52.0945 32.0325C52.0175 31.9711 51.9701 31.8868 51.9617 31.7964C51.8787 31.0767 51.779 30.3569 51.6627 29.6371C51.6609 29.5481 51.6965 29.4616 51.7629 29.3936C51.8292 29.3257 51.9218 29.2809 52.0234 29.2677C52.125 29.2545 52.2287 29.2737 52.3151 29.3218C52.4015 29.3699 52.4649 29.4436 52.4933 29.5291C52.6179 30.2489 52.7176 30.9687 52.7923 31.6885C52.798 31.7367 52.7927 31.7855 52.7765 31.8319C52.7604 31.8783 52.7338 31.9216 52.6983 31.959C52.6627 31.9965 52.619 32.0275 52.5695 32.0503C52.5201 32.073 52.466 32.087 52.4102 32.0915L52.377 32.1275ZM51.3305 26.4557C51.2352 26.4551 51.1429 26.4273 51.0677 26.3765C50.9926 26.3258 50.939 26.2549 50.9152 26.175C50.7325 25.4552 50.5248 24.7858 50.2922 24.1092C50.2603 24.0138 50.2734 23.9112 50.3287 23.8242C50.384 23.7371 50.477 23.6727 50.5871 23.645C50.6972 23.6173 50.8155 23.6287 50.916 23.6766C51.0165 23.7245 51.0909 23.805 51.1228 23.9005C51.3554 24.6203 51.5714 25.3041 51.7541 26.0094C51.7676 26.0563 51.7701 26.105 51.7614 26.1526C51.7527 26.2003 51.7331 26.246 51.7036 26.2869C51.6742 26.3279 51.6355 26.3633 51.59 26.3911C51.5444 26.4188 51.4929 26.4384 51.4385 26.4485L51.3305 26.4557ZM49.3454 20.9782C49.2612 20.9777 49.1792 20.9556 49.1097 20.9146C49.0402 20.8735 48.9863 20.8155 48.955 20.7479C48.6477 20.0929 48.3154 19.4307 47.9666 18.7901C47.9429 18.7462 47.9294 18.6986 47.9271 18.6502C47.9247 18.6017 47.9334 18.5534 47.9527 18.5079C47.972 18.4624 48.0015 18.4206 48.0395 18.385C48.0776 18.3495 48.1233 18.3208 48.1742 18.3006C48.2769 18.2611 48.3933 18.2578 48.4987 18.2914C48.6042 18.3249 48.6904 18.3928 48.739 18.4806C49.0879 19.1356 49.4284 19.805 49.7357 20.4744C49.7573 20.5187 49.7683 20.5663 49.7682 20.6145C49.7681 20.6626 49.7569 20.7102 49.7353 20.7545C49.7136 20.7987 49.6819 20.8388 49.642 20.8723C49.6021 20.9058 49.5549 20.932 49.5032 20.9494C49.4407 20.9738 49.3713 20.9813 49.3038 20.971L49.3454 20.9782ZM46.3968 15.8318C46.3243 15.8314 46.2532 15.8146 46.1905 15.7831C46.1279 15.7515 46.0759 15.7063 46.0396 15.6519C45.616 15.0473 45.1675 14.4427 44.7107 13.8596C44.679 13.8199 44.6567 13.7752 44.6451 13.7281C44.6334 13.6809 44.6325 13.6322 44.6425 13.5847C44.6525 13.5373 44.6733 13.492 44.7035 13.4515C44.7337 13.411 44.7728 13.376 44.8187 13.3486C44.8645 13.3212 44.9161 13.3019 44.9705 13.2917C45.0249 13.2816 45.0811 13.2809 45.1359 13.2895C45.1906 13.2982 45.2429 13.3162 45.2896 13.3424C45.3364 13.3686 45.3767 13.4025 45.4084 13.4422C45.8735 14.0396 46.3303 14.6586 46.7622 15.2776C46.7907 15.3192 46.8094 15.3652 46.8173 15.413C46.8252 15.4609 46.8222 15.5096 46.8083 15.5564C46.7944 15.6032 46.7699 15.6472 46.7364 15.6858C46.7028 15.7244 46.6608 15.7569 46.6127 15.7814C46.535 15.8206 46.4442 15.8358 46.3553 15.8246L46.3968 15.8318ZM42.5595 11.1461C42.4978 11.1462 42.4369 11.1347 42.381 11.1123C42.325 11.0899 42.2754 11.0572 42.2355 11.0165C41.7122 10.4695 41.1641 9.92967 40.5743 9.41863C40.4972 9.34893 40.4541 9.25609 40.4541 9.15951C40.4541 9.06292 40.4972 8.97008 40.5743 8.90039C40.6131 8.86556 40.6595 8.83785 40.7109 8.81893C40.7623 8.80001 40.8175 8.79025 40.8734 8.79025C40.9292 8.79025 40.9844 8.80001 41.0358 8.81893C41.0872 8.83785 41.1336 8.86556 41.1724 8.90039C41.7372 9.42582 42.302 9.97285 42.8335 10.5343C42.8696 10.5711 42.897 10.6137 42.914 10.6597C42.931 10.7058 42.9374 10.7542 42.9328 10.8024C42.9281 10.8505 42.9126 10.8974 42.887 10.9403C42.8614 10.9832 42.8263 11.0214 42.7837 11.0525C42.7074 11.1042 42.6146 11.1343 42.5179 11.1389L42.5595 11.1461ZM37.9497 7.02177C37.845 7.02392 37.7436 6.99032 37.6673 6.92821C37.0526 6.46035 36.4131 5.99969 35.7735 5.56063C35.6869 5.4987 35.6314 5.40994 35.619 5.31319C35.6066 5.21644 35.6382 5.1193 35.7071 5.04239C35.7418 5.0044 35.7849 4.97276 35.8339 4.94928C35.8828 4.9258 35.9367 4.91096 35.9923 4.9056C36.0479 4.90025 36.1041 4.90449 36.1578 4.91809C36.2115 4.93168 36.2616 4.95436 36.3051 4.98481C36.953 5.43107 37.6008 5.89893 38.2238 6.38118C38.2872 6.43033 38.332 6.49489 38.3525 6.56645C38.373 6.63801 38.3681 6.71325 38.3385 6.78238C38.309 6.85151 38.256 6.91131 38.1867 6.95401C38.1173 6.99671 38.0347 7.02032 37.9497 7.02177ZM32.6671 3.55246C32.5852 3.55104 32.505 3.5312 32.4346 3.49488C31.7369 3.1062 31.0226 2.73911 30.3166 2.40802C30.2204 2.35965 30.1496 2.28105 30.1186 2.18855C30.0877 2.09605 30.0991 1.99678 30.1505 1.91137C30.2049 1.82685 30.295 1.76388 30.4018 1.7357C30.5087 1.70752 30.624 1.7163 30.7236 1.76022C31.4462 2.10571 32.1771 2.48 32.8914 2.87587C32.9383 2.90145 32.9788 2.93491 33.0105 2.97426C33.0423 3.01362 33.0646 3.05808 33.0762 3.10504C33.0879 3.15199 33.0885 3.20048 33.0781 3.24765C33.0678 3.29483 33.0466 3.33973 33.016 3.37972C32.9749 3.43586 32.9167 3.48105 32.8478 3.51027C32.7789 3.5395 32.702 3.55161 32.6256 3.54526L32.6671 3.55246Z" fill="#E0E0E0"/>
<path d="M26.6785 0.975735C26.6373 0.982543 26.595 0.982543 26.5539 0.975735C26.1739 0.867111 25.7853 0.78291 25.391 0.723815C25.3363 0.717645 25.2835 0.702072 25.2358 0.678008C25.188 0.653944 25.1463 0.621872 25.1131 0.583669C25.0798 0.545466 25.0557 0.501899 25.0421 0.455516C25.0285 0.409134 25.0257 0.360867 25.0339 0.313542C25.042 0.265786 25.0609 0.21989 25.0896 0.178477C25.1182 0.137064 25.1559 0.10095 25.2007 0.072201C25.2454 0.0434524 25.2963 0.0226345 25.3503 0.0109384C25.4044 -0.00075767 25.4605 -0.00310196 25.5156 0.0040398C25.9555 0.0638941 26.389 0.155381 26.8114 0.277554C26.8648 0.291427 26.9146 0.314503 26.9575 0.345403C27.0005 0.376304 27.0358 0.414394 27.0614 0.457396C27.087 0.500398 27.1023 0.547429 27.1064 0.595679C27.1106 0.643928 27.1034 0.692404 27.0854 0.738209C27.0544 0.809507 26.9986 0.870678 26.9257 0.913239C26.8528 0.9558 26.7664 0.977641 26.6785 0.975735Z" fill="#E0E0E0"/>
</svg>
