<svg width="170" height="190" viewBox="0 0 170 190" fill="none" xmlns="http://www.w3.org/2000/svg">
<path opacity="0.7" d="M169.916 3.28702C169.922 3.21217 169.922 3.13703 169.916 3.06218C169.902 2.98549 169.878 2.91014 169.845 2.83733C169.804 2.72204 169.742 2.61216 169.66 2.51129L169.561 2.37638L169.462 2.28644C169.405 2.22288 169.333 2.16929 169.249 2.12905L168.979 2.00538C168.627 1.90115 168.249 1.86614 167.876 1.90334C167.503 1.94054 167.147 2.04885 166.838 2.21899L7.23343 74.913C5.48904 75.7113 4.05667 77.6674 4.05667 80.4668V188.271C4.0547 188.574 4.15388 188.873 4.34418 189.136C4.53448 189.399 4.80912 189.617 5.14027 189.769C5.47143 189.921 5.84732 190.001 6.22985 190C6.61239 190 6.98796 189.919 7.31852 189.766L166.753 117.005C167.68 116.529 168.452 115.886 169.004 115.127C169.556 114.369 169.874 113.517 169.93 112.643V3.59058C170.001 3.50064 169.916 3.38821 169.916 3.28702Z" fill="#455A64"/>
<path d="M168.893 1.93775C168.541 1.83352 168.162 1.79851 167.789 1.83572C167.416 1.87292 167.06 1.98123 166.751 2.15136L7.23182 74.9129C6.30414 75.4008 5.53443 76.0551 4.98499 76.8227C4.43556 77.5902 4.12184 78.4496 4.06923 79.3312V84.1992L0.0273438 82.3217V77.4986C0.0840657 76.6286 0.400307 75.7816 0.950076 75.0272C1.49984 74.2729 2.26748 73.6326 3.18995 73.159L162.724 0.397526C163.051 0.205766 163.44 0.0904564 163.846 0.0646301C164.252 0.0388038 164.659 0.103493 165.021 0.251376C165.574 0.464984 168.212 1.65669 168.893 1.93775Z" fill="#BA68C8"/>
<path d="M170 3.59046C170 2.00527 168.582 1.34196 166.823 2.16266L7.2329 74.9242C6.30069 75.4057 5.52725 76.0569 4.9771 76.8235C4.42694 77.5901 4.11604 78.45 4.07031 79.3312V84.1992L170 8.50343V3.59046Z" fill="#BA68C8"/>
<path opacity="0.3" d="M166.753 2.15132L7.2333 74.9128C6.30281 75.3781 5.53281 76.0194 4.99254 76.7791L0.964844 74.9353C1.49604 74.1866 2.257 73.5563 3.17724 73.1028L162.711 0.34127C163.039 0.150112 163.426 0.0342816 163.832 0.00651346C164.237 -0.0212547 164.644 0.0401151 165.008 0.183876C165.576 0.464939 168.214 1.64541 168.88 1.93771C168.53 1.8335 168.154 1.79849 167.783 1.83571C167.412 1.87293 167.059 1.98127 166.753 2.15132Z" fill="white"/>
<path opacity="0.15" d="M0 82.2767V77.4424C0.0476842 76.5553 0.379564 75.6925 0.964368 74.9353L5.00625 76.7791C4.41544 77.5493 4.09248 78.4298 4.07023 79.3311V84.1991L0 82.2767Z" fill="black"/>
<path d="M157.435 8.75045C157.05 8.9907 156.741 9.29856 156.531 9.64974C156.322 10.0009 156.219 10.3858 156.229 10.7741C156.229 11.5836 156.768 11.9883 157.435 11.6847C157.829 11.4429 158.145 11.1302 158.357 10.7725C158.569 10.4148 158.671 10.0224 158.654 9.62737C158.654 8.85164 158.101 8.50312 157.435 8.75045Z" fill="white"/>
<path d="M161.76 6.76097C161.381 7.00463 161.077 7.31344 160.87 7.66403C160.664 8.01461 160.561 8.39779 160.569 8.78462C160.569 9.59408 161.108 10.0101 161.76 9.70652C162.143 9.46454 162.45 9.15635 162.659 8.80557C162.868 8.45479 162.973 8.07074 162.966 7.68286C162.909 6.8734 162.427 6.45742 161.76 6.76097Z" fill="white"/>
<path d="M166.101 4.77073C165.716 5.01156 165.408 5.31954 165.199 5.67058C164.99 6.02163 164.886 6.40624 164.895 6.79439C164.895 7.60385 165.434 8.01983 166.101 7.71628C166.485 7.47545 166.793 7.16748 167.002 6.81643C167.212 6.46539 167.316 6.08077 167.306 5.69263C167.306 4.88317 166.767 4.46719 166.101 4.77073Z" fill="white"/>
<path opacity="0.9" d="M5.1896 189.789L5.0336 189.721L1.68666 188.192C1.24206 187.986 0.861902 187.703 0.574578 187.365C0.287253 187.026 0.100173 186.64 0.0273438 186.236C0.0273437 186.112 0.0273438 186 0.0273438 185.876V82.2654L4.08341 84.1429V188.271C4.08722 188.483 4.1401 188.693 4.23941 188.889C4.41752 189.266 4.75278 189.584 5.1896 189.789Z" fill="#263238"/>
<path d="M170 112.643V100.141L4.07034 176.017V188.271C4.06837 188.574 4.16755 188.873 4.35785 189.136C4.54815 189.399 4.82279 189.617 5.15395 189.769C5.4851 189.921 5.86101 190.001 6.24354 190C6.62608 190 7.00166 189.919 7.33221 189.766L166.767 117.005C167.704 116.534 168.487 115.893 169.049 115.134C169.612 114.375 169.938 113.521 170 112.643Z" fill="#BA68C8"/>
<path d="M24.5352 176.725V171.891C24.5352 171.553 24.8188 171.182 25.0883 171.182H30.4491C30.8036 171.182 30.8036 171.789 30.4491 172.115L25.0883 176.983C24.8188 177.141 24.5352 177.073 24.5352 176.725Z" fill="white"/>
<path d="M37.043 171.003V166.18C37.043 165.831 37.3124 165.46 37.5819 165.46H42.9569C43.3114 165.46 43.3114 166.068 42.9569 166.394L37.5819 171.262C37.3124 171.52 37.043 171.352 37.043 171.003Z" fill="white"/>
<path d="M43.6242 168.484C43.3972 168.585 43.2129 168.484 43.2129 168.236V163.279C43.2156 163.157 43.2542 163.038 43.3257 162.931C43.3971 162.823 43.4993 162.731 43.6242 162.66C43.8511 162.559 44.0354 162.66 44.0354 162.908V167.865C44.0327 167.987 43.9941 168.106 43.9226 168.213C43.8512 168.321 43.749 168.413 43.6242 168.484Z" fill="white"/>
<path d="M18.2521 179.614V174.791C18.2521 174.442 17.9684 174.33 17.699 174.566L12.3382 179.445C11.9836 179.76 11.9836 180.379 12.3382 180.379H17.699C17.9401 180.334 18.2521 179.963 18.2521 179.614Z" fill="white"/>
<path d="M11.6287 183.133C11.7538 183.061 11.856 182.966 11.9273 182.857C11.9987 182.748 12.0372 182.627 12.0399 182.504V177.546C12.0399 177.31 11.8556 177.197 11.6287 177.31C11.5039 177.38 11.4016 177.473 11.3302 177.58C11.2588 177.688 11.2201 177.807 11.2174 177.928V182.886C11.1607 183.122 11.4018 183.235 11.6287 183.133Z" fill="white"/>
<path d="M140.685 123.919C140.611 123.936 140.532 123.936 140.458 123.919C140.384 123.888 140.322 123.841 140.279 123.783C140.237 123.726 140.215 123.66 140.217 123.593V118.084C140.215 118.018 140.237 117.952 140.279 117.894C140.322 117.837 140.384 117.79 140.458 117.758L149.676 113.542C149.749 113.512 149.83 113.496 149.912 113.497C149.994 113.499 150.074 113.516 150.145 113.549C150.216 113.582 150.276 113.628 150.318 113.684C150.36 113.74 150.383 113.803 150.385 113.868V119.377C150.387 119.444 150.366 119.51 150.323 119.567C150.281 119.625 150.219 119.672 150.144 119.703L140.926 123.919C140.847 123.935 140.764 123.935 140.685 123.919ZM141.153 118.298V122.952L149.435 119.164V114.509L141.153 118.298Z" fill="white"/>
<path d="M156.909 113.059C156.785 113.059 156.666 113.02 156.579 112.95C156.491 112.881 156.441 112.786 156.441 112.688V110.439C156.441 110.374 156.463 110.31 156.505 110.255C156.548 110.199 156.609 110.154 156.683 110.124L158.909 109.101C158.963 109.075 159.023 109.058 159.085 109.051C159.147 109.044 159.211 109.046 159.271 109.059C159.332 109.071 159.389 109.094 159.439 109.124C159.489 109.155 159.531 109.193 159.561 109.236C159.62 109.322 159.634 109.422 159.603 109.516C159.571 109.61 159.496 109.691 159.391 109.742L157.392 110.664V112.654C157.395 112.706 157.386 112.758 157.363 112.807C157.341 112.856 157.306 112.901 157.261 112.939C157.216 112.977 157.161 113.007 157.101 113.028C157.04 113.048 156.975 113.059 156.909 113.059Z" fill="white"/>
<path d="M162.994 110.225C162.933 110.225 162.872 110.216 162.815 110.197C162.758 110.179 162.706 110.151 162.663 110.117C162.62 110.082 162.585 110.041 162.562 109.996C162.538 109.951 162.526 109.903 162.526 109.854V108.292L160.994 108.989C160.885 109.038 160.756 109.051 160.635 109.024C160.514 108.998 160.411 108.935 160.349 108.848C160.287 108.762 160.271 108.659 160.304 108.563C160.337 108.467 160.417 108.386 160.526 108.337L162.753 107.314C162.826 107.28 162.909 107.262 162.994 107.262C163.079 107.262 163.162 107.28 163.235 107.314C163.305 107.348 163.362 107.396 163.402 107.453C163.442 107.51 163.462 107.575 163.462 107.64V109.888C163.451 109.981 163.397 110.067 163.311 110.129C163.224 110.191 163.111 110.226 162.994 110.225Z" fill="white"/>
<path d="M160.768 115.42C160.662 115.423 160.558 115.398 160.473 115.348C160.388 115.299 160.326 115.228 160.298 115.147C160.27 115.066 160.277 114.98 160.319 114.903C160.36 114.826 160.434 114.762 160.527 114.722L162.526 113.812V111.822C162.526 111.724 162.576 111.629 162.663 111.56C162.751 111.49 162.87 111.451 162.994 111.451C163.118 111.451 163.237 111.49 163.325 111.56C163.413 111.629 163.462 111.724 163.462 111.822V114.07C163.463 114.136 163.442 114.2 163.402 114.257C163.363 114.314 163.305 114.362 163.235 114.396L160.995 115.42C160.92 115.435 160.842 115.435 160.768 115.42Z" fill="white"/>
<path d="M156.91 117.185C156.835 117.2 156.757 117.2 156.683 117.185C156.608 117.157 156.546 117.112 156.503 117.056C156.46 117 156.439 116.935 156.442 116.87V114.622C156.461 114.533 156.519 114.452 156.606 114.394C156.693 114.336 156.803 114.305 156.917 114.305C157.03 114.305 157.14 114.336 157.227 114.394C157.314 114.452 157.372 114.533 157.392 114.622V116.184L158.909 115.487C159.019 115.438 159.148 115.424 159.27 115.449C159.392 115.475 159.497 115.537 159.562 115.622C159.621 115.71 159.636 115.811 159.604 115.907C159.573 116.003 159.497 116.086 159.391 116.139L157.151 117.151C157.075 117.179 156.992 117.19 156.91 117.185Z" fill="white"/>
<path d="M127.765 127.348L128.659 127.033C128.677 127.021 128.699 127.015 128.723 127.015C128.746 127.015 128.769 127.021 128.786 127.033C128.834 127.198 128.91 127.357 129.013 127.505C129.013 127.505 129.013 127.64 129.013 127.73L128.503 128.629C128.503 128.719 128.503 128.809 128.503 128.832L129.226 129.27C129.226 129.27 129.339 129.27 129.396 129.158L130.034 128.326C130.034 128.247 130.176 128.18 130.219 128.191C130.402 128.213 130.589 128.213 130.772 128.191C130.772 128.191 130.871 128.191 130.871 128.281L130.97 129.18C130.967 129.192 130.969 129.204 130.974 129.214C130.98 129.225 130.99 129.234 131.002 129.24C131.015 129.246 131.029 129.249 131.044 129.249C131.058 129.248 131.072 129.244 131.084 129.236L132.077 128.787C132.11 128.764 132.137 128.737 132.156 128.706C132.176 128.675 132.187 128.641 132.19 128.607L132.289 127.64C132.299 127.559 132.344 127.484 132.417 127.426C132.591 127.297 132.748 127.154 132.885 126.999C132.956 126.932 133.041 126.887 133.084 126.898L133.807 127.19C133.807 127.19 133.92 127.19 133.991 127.055L134.615 126.089C134.615 125.999 134.7 125.909 134.615 125.886L134.034 125.38C134.017 125.348 134.008 125.314 134.008 125.279C134.008 125.244 134.017 125.21 134.034 125.178C134.109 124.982 134.17 124.783 134.218 124.582C134.241 124.503 134.296 124.432 134.374 124.38L135.253 123.874C135.285 123.851 135.309 123.823 135.327 123.792C135.344 123.761 135.353 123.728 135.353 123.694V122.66C135.353 122.592 135.353 122.558 135.253 122.581L134.36 122.884C134.352 122.892 134.342 122.897 134.331 122.901C134.32 122.905 134.308 122.907 134.296 122.907C134.284 122.907 134.272 122.905 134.261 122.901C134.25 122.897 134.24 122.892 134.232 122.884C134.185 122.719 134.109 122.56 134.005 122.412C134.005 122.412 134.005 122.277 134.005 122.176L134.516 121.277C134.516 121.187 134.587 121.097 134.516 121.074L133.793 120.647C133.793 120.647 133.679 120.647 133.622 120.76L132.984 121.58C132.984 121.67 132.842 121.727 132.8 121.727C132.617 121.698 132.429 121.698 132.247 121.727C132.219 121.724 132.194 121.713 132.176 121.696C132.157 121.68 132.147 121.659 132.148 121.637L132.048 120.737C132.051 120.726 132.05 120.714 132.044 120.703C132.039 120.692 132.029 120.683 132.017 120.677C132.004 120.671 131.99 120.668 131.975 120.669C131.96 120.669 131.946 120.674 131.935 120.681L130.942 121.131C130.908 121.15 130.88 121.175 130.86 121.204C130.841 121.234 130.83 121.266 130.829 121.299L130.729 122.277C130.719 122.358 130.674 122.434 130.602 122.491C130.43 122.621 130.269 122.76 130.12 122.907C130.12 122.974 129.978 123.031 129.935 123.008L129.212 122.727C129.212 122.727 129.098 122.727 129.027 122.862L128.404 123.818C128.404 123.908 128.318 124.009 128.404 124.031L128.985 124.537C129.002 124.569 129.011 124.604 129.011 124.638C129.011 124.673 129.002 124.707 128.985 124.739C128.909 124.935 128.847 125.134 128.801 125.335C128.778 125.415 128.723 125.486 128.645 125.538L127.765 126.044C127.735 126.065 127.711 126.091 127.694 126.12C127.677 126.149 127.667 126.18 127.666 126.212V127.258C127.666 127.325 127.709 127.359 127.765 127.348ZM129.85 125.751C129.856 125.257 130.009 124.772 130.298 124.334C130.586 123.896 131.001 123.519 131.509 123.233C132.431 122.806 133.169 123.233 133.169 124.222C133.163 124.716 133.009 125.202 132.721 125.64C132.432 126.077 132.017 126.455 131.509 126.741C130.588 127.168 129.85 126.718 129.85 125.751Z" fill="white"/>
<path d="M72.3413 127.899C69.0263 127.928 65.7612 127.257 62.8819 125.954C56.1029 122.851 52.373 116.443 52.373 107.898C52.373 90.8884 67.5053 70.146 86.0979 61.6579C95.4439 57.3857 104.322 56.7449 111.101 59.8478C117.88 62.9507 121.61 69.3702 121.61 77.9145C121.61 94.9132 106.478 115.656 87.8849 124.155C83.203 126.454 77.8452 127.744 72.3413 127.899ZM87.9416 64.12C70.3417 72.1584 56.0178 91.799 56.0178 107.898C56.0178 115.375 59.1095 120.917 64.7256 123.492C70.3417 126.066 77.9574 125.425 86.1547 121.682C103.755 113.643 118.078 94.0138 118.078 77.9145C118.078 70.427 114.987 64.8845 109.371 62.3099C103.755 59.7354 96.1388 60.3762 87.9416 64.12Z" fill="white"/>
<path d="M71.5195 84.6489V115.094C71.5195 116.701 72.5974 117.016 73.9163 115.802L108.733 83.9406C110.052 82.7264 109.485 81.7483 107.471 81.7483H75.1785C74.2081 81.7483 73.2774 82.0539 72.5912 82.5979C71.905 83.1418 71.5195 83.8796 71.5195 84.6489Z" fill="white"/>
</svg>
